<svg width="15" height="4" viewBox="0 0 15 4" fill="none" xmlns="http://www.w3.org/2000/svg">
<path d="M0.294 3V0.9H1.116C1.266 0.9 1.401 0.925 1.521 0.975C1.643 1.025 1.747 1.097 1.833 1.191C1.919 1.285 1.985 1.396 2.031 1.524C2.077 1.652 2.1 1.794 2.1 1.95C2.1 2.106 2.077 2.249 2.031 2.379C1.985 2.507 1.919 2.618 1.833 2.712C1.749 2.804 1.646 2.875 1.524 2.925C1.402 2.975 1.266 3 1.116 3H0.294ZM0.618 2.721L0.609 2.688H1.101C1.207 2.688 1.301 2.671 1.383 2.637C1.467 2.603 1.537 2.555 1.593 2.493C1.651 2.429 1.695 2.351 1.725 2.259C1.755 2.167 1.77 2.064 1.77 1.95C1.77 1.836 1.755 1.734 1.725 1.644C1.695 1.552 1.651 1.474 1.593 1.41C1.535 1.346 1.465 1.297 1.383 1.263C1.301 1.229 1.207 1.212 1.101 1.212H0.6L0.618 1.185V2.721ZM3.06614 3.03C2.93614 3.03 2.81714 2.994 2.70914 2.922C2.60314 2.85 2.51814 2.752 2.45414 2.628C2.39014 2.504 2.35814 2.364 2.35814 2.208C2.35814 2.05 2.39014 1.91 2.45414 1.788C2.52014 1.664 2.60814 1.567 2.71814 1.497C2.83014 1.427 2.95514 1.392 3.09314 1.392C3.17514 1.392 3.25014 1.404 3.31814 1.428C3.38614 1.452 3.44514 1.486 3.49514 1.53C3.54714 1.572 3.58914 1.621 3.62114 1.677C3.65514 1.733 3.67614 1.793 3.68414 1.857L3.61514 1.833V1.425H3.92714V3H3.61514V2.625L3.68714 2.604C3.67514 2.658 3.65014 2.711 3.61214 2.763C3.57614 2.813 3.52914 2.858 3.47114 2.898C3.41514 2.938 3.35214 2.97 3.28214 2.994C3.21414 3.018 3.14214 3.03 3.06614 3.03ZM3.14714 2.745C3.24114 2.745 3.32414 2.722 3.39614 2.676C3.46814 2.63 3.52414 2.567 3.56414 2.487C3.60614 2.405 3.62714 2.312 3.62714 2.208C3.62714 2.106 3.60614 2.015 3.56414 1.935C3.52414 1.855 3.46814 1.792 3.39614 1.746C3.32414 1.7 3.24114 1.677 3.14714 1.677C3.05514 1.677 2.97314 1.7 2.90114 1.746C2.83114 1.792 2.77514 1.855 2.73314 1.935C2.69314 2.015 2.67314 2.106 2.67314 2.208C2.67314 2.312 2.69314 2.405 2.73314 2.487C2.77514 2.567 2.83114 2.63 2.90114 2.676C2.97314 2.722 3.05514 2.745 3.14714 2.745ZM4.55358 3V1.023H4.86258V3H4.55358ZM4.22658 1.725V1.425H5.22858V1.725H4.22658ZM6.1013 3.03C5.9713 3.03 5.8523 2.994 5.7443 2.922C5.6383 2.85 5.5533 2.752 5.4893 2.628C5.4253 2.504 5.3933 2.364 5.3933 2.208C5.3933 2.05 5.4253 1.91 5.4893 1.788C5.5553 1.664 5.6433 1.567 5.7533 1.497C5.8653 1.427 5.9903 1.392 6.1283 1.392C6.2103 1.392 6.2853 1.404 6.3533 1.428C6.4213 1.452 6.4803 1.486 6.5303 1.53C6.5823 1.572 6.6243 1.621 6.6563 1.677C6.6903 1.733 6.7113 1.793 6.7193 1.857L6.6503 1.833V1.425H6.9623V3H6.6503V2.625L6.7223 2.604C6.7103 2.658 6.6853 2.711 6.6473 2.763C6.6113 2.813 6.5643 2.858 6.5063 2.898C6.4503 2.938 6.3873 2.97 6.3173 2.994C6.2493 3.018 6.1773 3.03 6.1013 3.03ZM6.1823 2.745C6.2763 2.745 6.3593 2.722 6.4313 2.676C6.5033 2.63 6.5593 2.567 6.5993 2.487C6.6413 2.405 6.6623 2.312 6.6623 2.208C6.6623 2.106 6.6413 2.015 6.5993 1.935C6.5593 1.855 6.5033 1.792 6.4313 1.746C6.3593 1.7 6.2763 1.677 6.1823 1.677C6.0903 1.677 6.0083 1.7 5.9363 1.746C5.8663 1.792 5.8103 1.855 5.7683 1.935C5.7283 2.015 5.7083 2.106 5.7083 2.208C5.7083 2.312 5.7283 2.405 5.7683 2.487C5.8103 2.567 5.8663 2.63 5.9363 2.676C6.0083 2.722 6.0903 2.745 6.1823 2.745ZM7.39973 3V0.78H7.70873V3H7.39973ZM8.85237 3.03C8.69037 3.03 8.54637 2.996 8.42037 2.928C8.29637 2.858 8.19837 2.763 8.12637 2.643C8.05637 2.523 8.02137 2.385 8.02137 2.229C8.02137 2.105 8.04137 1.992 8.08137 1.89C8.12137 1.788 8.17637 1.7 8.24637 1.626C8.31837 1.55 8.40337 1.492 8.50137 1.452C8.60137 1.41 8.70937 1.389 8.82537 1.389C8.92737 1.389 9.02237 1.409 9.11037 1.449C9.19837 1.487 9.27437 1.54 9.33837 1.608C9.40437 1.676 9.45437 1.757 9.48837 1.851C9.52437 1.943 9.54137 2.044 9.53937 2.154L9.53637 2.286H8.24937L8.18037 2.04H9.26937L9.22437 2.091V2.019C9.21837 1.953 9.19637 1.894 9.15837 1.842C9.12037 1.79 9.07237 1.749 9.01437 1.719C8.95637 1.689 8.89337 1.674 8.82537 1.674C8.71737 1.674 8.62637 1.695 8.55237 1.737C8.47837 1.777 8.42237 1.837 8.38437 1.917C8.34637 1.995 8.32737 2.092 8.32737 2.208C8.32737 2.318 8.35037 2.414 8.39637 2.496C8.44237 2.576 8.50737 2.638 8.59137 2.682C8.67537 2.726 8.77237 2.748 8.88237 2.748C8.96037 2.748 9.03237 2.735 9.09837 2.709C9.16637 2.683 9.23937 2.636 9.31737 2.568L9.47337 2.787C9.42537 2.835 9.36637 2.877 9.29637 2.913C9.22837 2.949 9.15537 2.978 9.07737 3C9.00137 3.02 8.92637 3.03 8.85237 3.03ZM10.4272 3.03C10.3152 3.03 10.2172 3.004 10.1332 2.952C10.0512 2.9 9.98718 2.827 9.94118 2.733C9.89718 2.639 9.87518 2.527 9.87518 2.397V1.425H10.1842V2.313C10.1842 2.405 10.1982 2.485 10.2262 2.553C10.2562 2.619 10.2982 2.67 10.3522 2.706C10.4082 2.742 10.4752 2.76 10.5532 2.76C10.6112 2.76 10.6642 2.751 10.7122 2.733C10.7602 2.713 10.8012 2.686 10.8352 2.652C10.8712 2.618 10.8992 2.577 10.9192 2.529C10.9392 2.481 10.9492 2.429 10.9492 2.373V1.425H11.2582V3H10.9492V2.67L11.0032 2.634C10.9792 2.708 10.9382 2.775 10.8802 2.835C10.8242 2.895 10.7572 2.943 10.6792 2.979C10.6012 3.013 10.5172 3.03 10.4272 3.03ZM11.6856 3V1.425H11.9976V1.761L11.9406 1.797C11.9566 1.745 11.9816 1.695 12.0156 1.647C12.0516 1.599 12.0946 1.557 12.1446 1.521C12.1966 1.483 12.2516 1.453 12.3096 1.431C12.3696 1.409 12.4306 1.398 12.4926 1.398C12.5826 1.398 12.6616 1.413 12.7296 1.443C12.7976 1.473 12.8536 1.518 12.8976 1.578C12.9416 1.638 12.9736 1.713 12.9936 1.803L12.9456 1.791L12.9666 1.74C12.9886 1.694 13.0186 1.651 13.0566 1.611C13.0966 1.569 13.1416 1.532 13.1916 1.5C13.2416 1.468 13.2946 1.443 13.3506 1.425C13.4066 1.407 13.4616 1.398 13.5156 1.398C13.6336 1.398 13.7306 1.422 13.8066 1.47C13.8846 1.518 13.9426 1.591 13.9806 1.689C14.0206 1.787 14.0406 1.909 14.0406 2.055V3H13.7286V2.073C13.7286 1.983 13.7166 1.91 13.6926 1.854C13.6706 1.796 13.6366 1.753 13.5906 1.725C13.5446 1.697 13.4856 1.683 13.4136 1.683C13.3576 1.683 13.3046 1.693 13.2546 1.713C13.2066 1.731 13.1646 1.757 13.1286 1.791C13.0926 1.825 13.0646 1.865 13.0446 1.911C13.0246 1.955 13.0146 2.004 13.0146 2.058V3H12.7026V2.067C12.7026 1.985 12.6906 1.916 12.6666 1.86C12.6426 1.802 12.6076 1.758 12.5616 1.728C12.5156 1.698 12.4596 1.683 12.3936 1.683C12.3376 1.683 12.2856 1.693 12.2376 1.713C12.1896 1.731 12.1476 1.757 12.1116 1.791C12.0756 1.823 12.0476 1.862 12.0276 1.908C12.0076 1.952 11.9976 2 11.9976 2.052V3H11.6856Z" fill="#2156DA"/>
</svg>
