<svg width="4" height="3" viewBox="0 0 4 3" fill="none" xmlns="http://www.w3.org/2000/svg">
<path d="M0 0.285562C0.614419 0.101915 1.29044 0 1.99993 0C2.70956 0 3.38545 0.101915 4 0.285562L3.90231 0.455055C3.31797 0.279991 2.67504 0.455055 1.99993 0.455055C1.32483 0.455055 0.681772 0.279991 0.0975642 0.455055L0 0.285562ZM1.99993 0.547929C2.60611 0.547929 3.18313 0.636054 3.70705 0.794222L3.60948 0.963715C3.11564 0.814039 2.57159 0.794222 1.99993 0.794222C1.42828 0.794222 0.884224 0.814039 0.390387 0.963806L0.292693 0.794314C0.81674 0.636054 1.39376 0.547929 1.99993 0.547929ZM1.99993 2.49097C2.19258 2.49097 2.37397 2.7727 2.53471 2.83023L2.43701 3C2.30701 2.9505 2.15805 2.92229 1.99993 2.92229C1.84182 2.92229 1.69286 2.9505 1.56286 3L1.46516 2.83032C1.6259 2.7727 1.80729 2.49097 1.99993 2.49097ZM0.879124 1.81255L0.976819 1.98213C1.28926 1.88305 1.63492 1.98213 1.99993 1.98213C2.36495 1.98213 2.71061 1.88305 3.02305 1.98213L3.12075 1.81255C2.77796 1.70497 2.39935 1.64379 1.99993 1.64379C1.60052 1.64379 1.22178 1.70497 0.879124 1.81255ZM1.17208 2.32139L1.26977 2.49097C1.49145 2.4171 1.73837 2.37436 1.99993 2.37436C2.2615 2.37436 2.50855 2.4171 2.7301 2.49097L2.82766 2.32139C2.57577 2.23911 2.29603 2.19171 1.99993 2.19171C1.70384 2.19171 1.4241 2.23911 1.17208 2.32139ZM0.585777 1.30297L0.683472 1.47247C1.08641 1.34809 1.5316 1.47247 1.99993 1.47247C2.46827 1.47247 2.91332 1.34809 3.31653 1.47247L3.41409 1.30297C2.98081 1.1701 2.50266 0.794222 1.99993 0.794222C1.4972 0.794222 1.01906 1.1701 0.585777 1.30297Z" fill="#2156DA"/>
</svg>
