<svg width="27" height="4" viewBox="0 0 27 4" fill="none" xmlns="http://www.w3.org/2000/svg">
<path d="M0.257141 0.285562C0.87156 0.101915 1.54758 0 2.25708 0C2.9667 0 3.64259 0.101915 4.25714 0.285562L4.15945 0.455055C3.57511 0.279991 2.93218 0.182643 2.25708 0.182643C1.58197 0.182643 0.938913 0.279991 0.354705 0.455055L0.257141 0.285562ZM2.25708 0.547928C2.86326 0.547928 3.44027 0.636054 3.96419 0.794222L3.86662 0.963715C3.37279 0.814039 2.82873 0.730571 2.25708 0.730571C1.68542 0.730571 1.14137 0.814039 0.647529 0.963806L0.549834 0.794314C1.07388 0.636054 1.6509 0.547928 2.25708 0.547928ZM2.25708 2.73964C2.44972 2.73964 2.63112 2.7727 2.79185 2.83023L2.69415 3C2.56415 2.9505 2.41519 2.92229 2.25708 2.92229C2.09896 2.92229 1.95 2.9505 1.82 3L1.7223 2.83032C1.88304 2.7727 2.06443 2.73964 2.25708 2.73964ZM1.13626 1.81255L1.23396 1.98213C1.5464 1.88305 1.89206 1.82643 2.25708 1.82643C2.62209 1.82643 2.96775 1.88305 3.28019 1.98213L3.37789 1.81255C3.0351 1.70497 2.65649 1.64379 2.25708 1.64379C1.85766 1.64379 1.47892 1.70497 1.13626 1.81255ZM1.42922 2.32139L1.52691 2.49097C1.74859 2.4171 1.99551 2.37436 2.25708 2.37436C2.51864 2.37436 2.76569 2.4171 2.98724 2.49097L3.0848 2.32139C2.83291 2.23911 2.55317 2.19171 2.25708 2.19171C1.96098 2.19171 1.68124 2.23911 1.42922 2.32139ZM0.842918 1.30297L0.940613 1.47247C1.34356 1.34809 1.78874 1.2785 2.25708 1.2785C2.72541 1.2785 3.17046 1.34809 3.57367 1.47247L3.67123 1.30297C3.23795 1.1701 2.75981 1.09586 2.25708 1.09586C1.75435 1.09586 1.2762 1.1701 0.842918 1.30297Z" fill="#2156DA"/>
<path d="M4.294 3V0.9H5.116C5.266 0.9 5.401 0.925 5.521 0.975C5.643 1.025 5.747 1.097 5.833 1.191C5.919 1.285 5.985 1.396 6.031 1.524C6.077 1.652 6.1 1.794 6.1 1.95C6.1 2.106 6.077 2.249 6.031 2.379C5.985 2.507 5.919 2.618 5.833 2.712C5.749 2.804 5.646 2.875 5.524 2.925C5.402 2.975 5.266 3 5.116 3H4.294ZM4.618 2.721L4.609 2.688H5.101C5.207 2.688 5.301 2.671 5.383 2.637C5.467 2.603 5.537 2.555 5.593 2.493C5.651 2.429 5.695 2.351 5.725 2.259C5.755 2.167 5.77 2.064 5.77 1.95C5.77 1.836 5.755 1.734 5.725 1.644C5.695 1.552 5.651 1.474 5.593 1.41C5.535 1.346 5.465 1.297 5.383 1.263C5.301 1.229 5.207 1.212 5.101 1.212H4.6L4.618 1.185V2.721ZM7.06614 3.03C6.93614 3.03 6.81714 2.994 6.70914 2.922C6.60314 2.85 6.51814 2.752 6.45414 2.628C6.39014 2.504 6.35814 2.364 6.35814 2.208C6.35814 2.05 6.39014 1.91 6.45414 1.788C6.52014 1.664 6.60814 1.567 6.71814 1.497C6.83014 1.427 6.95514 1.392 7.09314 1.392C7.17514 1.392 7.25014 1.404 7.31814 1.428C7.38614 1.452 7.44514 1.486 7.49514 1.53C7.54714 1.572 7.58914 1.621 7.62114 1.677C7.65514 1.733 7.67614 1.793 7.68414 1.857L7.61514 1.833V1.425H7.92714V3H7.61514V2.625L7.68714 2.604C7.67514 2.658 7.65014 2.711 7.61214 2.763C7.57614 2.813 7.52914 2.858 7.47114 2.898C7.41514 2.938 7.35214 2.97 7.28214 2.994C7.21414 3.018 7.14214 3.03 7.06614 3.03ZM7.14714 2.745C7.24114 2.745 7.32414 2.722 7.39614 2.676C7.46814 2.63 7.52414 2.567 7.56414 2.487C7.60614 2.405 7.62714 2.312 7.62714 2.208C7.62714 2.106 7.60614 2.015 7.56414 1.935C7.52414 1.855 7.46814 1.792 7.39614 1.746C7.32414 1.7 7.24114 1.677 7.14714 1.677C7.05514 1.677 6.97314 1.7 6.90114 1.746C6.83114 1.792 6.77514 1.855 6.73314 1.935C6.69314 2.015 6.67314 2.106 6.67314 2.208C6.67314 2.312 6.69314 2.405 6.73314 2.487C6.77514 2.567 6.83114 2.63 6.90114 2.676C6.97314 2.722 7.05514 2.745 7.14714 2.745ZM8.55358 3V1.023H8.86258V3H8.55358ZM8.22658 1.725V1.425H9.22858V1.725H8.22658ZM10.1013 3.03C9.9713 3.03 9.8523 2.994 9.7443 2.922C9.6383 2.85 9.5533 2.752 9.4893 2.628C9.4253 2.504 9.3933 2.364 9.3933 2.208C9.3933 2.05 9.4253 1.91 9.4893 1.788C9.5553 1.664 9.6433 1.567 9.7533 1.497C9.8653 1.427 9.9903 1.392 10.1283 1.392C10.2103 1.392 10.2853 1.404 10.3533 1.428C10.4213 1.452 10.4803 1.486 10.5303 1.53C10.5823 1.572 10.6243 1.621 10.6563 1.677C10.6903 1.733 10.7113 1.793 10.7193 1.857L10.6503 1.833V1.425H10.9623V3H10.6503V2.625L10.7223 2.604C10.7103 2.658 10.6853 2.711 10.6473 2.763C10.6113 2.813 10.5643 2.858 10.5063 2.898C10.4503 2.938 10.3873 2.97 10.3173 2.994C10.2493 3.018 10.1773 3.03 10.1013 3.03ZM10.1823 2.745C10.2763 2.745 10.3593 2.722 10.4313 2.676C10.5033 2.63 10.5593 2.567 10.5993 2.487C10.6413 2.405 10.6623 2.312 10.6623 2.208C10.6623 2.106 10.6413 2.015 10.5993 1.935C10.5593 1.855 10.5033 1.792 10.4313 1.746C10.3593 1.7 10.2763 1.677 10.1823 1.677C10.0903 1.677 10.0083 1.7 9.9363 1.746C9.8663 1.792 9.8103 1.855 9.7683 1.935C9.7283 2.015 9.7083 2.106 9.7083 2.208C9.7083 2.312 9.7283 2.405 9.7683 2.487C9.8103 2.567 9.8663 2.63 9.9363 2.676C10.0083 2.722 10.0903 2.745 10.1823 2.745ZM11.3997 3V0.78H11.7087V3H11.3997ZM12.8524 3.03C12.6904 3.03 12.5464 2.996 12.4204 2.928C12.2964 2.858 12.1984 2.763 12.1264 2.643C12.0564 2.523 12.0214 2.385 12.0214 2.229C12.0214 2.105 12.0414 1.992 12.0814 1.89C12.1214 1.788 12.1764 1.7 12.2464 1.626C12.3184 1.55 12.4034 1.492 12.5014 1.452C12.6014 1.41 12.7094 1.389 12.8254 1.389C12.9274 1.389 13.0224 1.409 13.1104 1.449C13.1984 1.487 13.2744 1.54 13.3384 1.608C13.4044 1.676 13.4544 1.757 13.4884 1.851C13.5244 1.943 13.5414 2.044 13.5394 2.154L13.5364 2.286H12.2494L12.1804 2.04H13.2694L13.2244 2.091V2.019C13.2184 1.953 13.1964 1.894 13.1584 1.842C13.1204 1.79 13.0724 1.749 13.0144 1.719C12.9564 1.689 12.8934 1.674 12.8254 1.674C12.7174 1.674 12.6264 1.695 12.5524 1.737C12.4784 1.777 12.4224 1.837 12.3844 1.917C12.3464 1.995 12.3274 2.092 12.3274 2.208C12.3274 2.318 12.3504 2.414 12.3964 2.496C12.4424 2.576 12.5074 2.638 12.5914 2.682C12.6754 2.726 12.7724 2.748 12.8824 2.748C12.9604 2.748 13.0324 2.735 13.0984 2.709C13.1664 2.683 13.2394 2.636 13.3174 2.568L13.4734 2.787C13.4254 2.835 13.3664 2.877 13.2964 2.913C13.2284 2.949 13.1554 2.978 13.0774 3C13.0014 3.02 12.9264 3.03 12.8524 3.03ZM14.4272 3.03C14.3152 3.03 14.2172 3.004 14.1332 2.952C14.0512 2.9 13.9872 2.827 13.9412 2.733C13.8972 2.639 13.8752 2.527 13.8752 2.397V1.425H14.1842V2.313C14.1842 2.405 14.1982 2.485 14.2262 2.553C14.2562 2.619 14.2982 2.67 14.3522 2.706C14.4082 2.742 14.4752 2.76 14.5532 2.76C14.6112 2.76 14.6642 2.751 14.7122 2.733C14.7602 2.713 14.8012 2.686 14.8352 2.652C14.8712 2.618 14.8992 2.577 14.9192 2.529C14.9392 2.481 14.9492 2.429 14.9492 2.373V1.425H15.2582V3H14.9492V2.67L15.0032 2.634C14.9792 2.708 14.9382 2.775 14.8802 2.835C14.8242 2.895 14.7572 2.943 14.6792 2.979C14.6012 3.013 14.5172 3.03 14.4272 3.03ZM15.6856 3V1.425H15.9976V1.761L15.9406 1.797C15.9566 1.745 15.9816 1.695 16.0156 1.647C16.0516 1.599 16.0946 1.557 16.1446 1.521C16.1966 1.483 16.2516 1.453 16.3096 1.431C16.3696 1.409 16.4306 1.398 16.4926 1.398C16.5826 1.398 16.6616 1.413 16.7296 1.443C16.7976 1.473 16.8536 1.518 16.8976 1.578C16.9416 1.638 16.9736 1.713 16.9936 1.803L16.9456 1.791L16.9666 1.74C16.9886 1.694 17.0186 1.651 17.0566 1.611C17.0966 1.569 17.1416 1.532 17.1916 1.5C17.2416 1.468 17.2946 1.443 17.3506 1.425C17.4066 1.407 17.4616 1.398 17.5156 1.398C17.6336 1.398 17.7306 1.422 17.8066 1.47C17.8846 1.518 17.9426 1.591 17.9806 1.689C18.0206 1.787 18.0406 1.909 18.0406 2.055V3H17.7286V2.073C17.7286 1.983 17.7166 1.91 17.6926 1.854C17.6706 1.796 17.6366 1.753 17.5906 1.725C17.5446 1.697 17.4856 1.683 17.4136 1.683C17.3576 1.683 17.3046 1.693 17.2546 1.713C17.2066 1.731 17.1646 1.757 17.1286 1.791C17.0926 1.825 17.0646 1.865 17.0446 1.911C17.0246 1.955 17.0146 2.004 17.0146 2.058V3H16.7026V2.067C16.7026 1.985 16.6906 1.916 16.6666 1.86C16.6426 1.802 16.6076 1.758 16.5616 1.728C16.5156 1.698 16.4596 1.683 16.3936 1.683C16.3376 1.683 16.2856 1.693 16.2376 1.713C16.1896 1.731 16.1476 1.757 16.1116 1.791C16.0756 1.823 16.0476 1.862 16.0276 1.908C16.0076 1.952 15.9976 2 15.9976 2.052V3H15.6856Z" fill="#2156DA"/>
</svg>
