<svg width="5" height="3" viewBox="0 0 5 3" fill="none" xmlns="http://www.w3.org/2000/svg">
<path d="M0.257141 0.285562C0.87156 0.101915 1.54758 0 2.25708 0C2.9667 0 3.64259 0.101915 4.25714 0.285562L4.15945 0.455055C3.57511 0.279991 2.93218 0.182643 2.25708 0.182643C1.58197 0.182643 0.938913 0.279991 0.354705 0.455055L0.257141 0.285562ZM2.25708 0.547928C2.86326 0.547928 3.44027 0.636054 3.96419 0.794222L3.86662 0.963715C3.37279 0.814039 2.82873 0.730571 2.25708 0.730571C1.68542 0.730571 1.14137 0.814039 0.647529 0.963806L0.549834 0.794314C1.07388 0.636054 1.6509 0.547928 2.25708 0.547928ZM2.25708 2.73964C2.44972 2.73964 2.63112 2.7727 2.79185 2.83023L2.69415 3C2.56415 2.9505 2.41519 2.92229 2.25708 2.92229C2.09896 2.92229 1.95 2.9505 1.82 3L1.7223 2.83032C1.88304 2.7727 2.06443 2.73964 2.25708 2.73964ZM1.13626 1.81255L1.23396 1.98213C1.5464 1.88305 1.89206 1.82643 2.25708 1.82643C2.62209 1.82643 2.96775 1.88305 3.28019 1.98213L3.37789 1.81255C3.0351 1.70497 2.65649 1.64379 2.25708 1.64379C1.85766 1.64379 1.47892 1.70497 1.13626 1.81255ZM1.42922 2.32139L1.52691 2.49097C1.74859 2.4171 1.99551 2.37436 2.25708 2.37436C2.51864 2.37436 2.76569 2.4171 2.98724 2.49097L3.0848 2.32139C2.83291 2.23911 2.55317 2.19171 2.25708 2.19171C1.96098 2.19171 1.68124 2.23911 1.42922 2.32139ZM0.842918 1.30297L0.940613 1.47247C1.34356 1.34809 1.78874 1.2785 2.25708 1.2785C2.72541 1.2785 3.17046 1.34809 3.57367 1.47247L3.67123 1.30297C3.23795 1.1701 2.75981 1.09586 2.25708 1.09586C1.75435 1.09586 1.2762 1.1701 0.842918 1.30297Z" fill="#2156DA"/>
</svg>
