<svg width="345" height="200" viewBox="0 0 345 200" fill="none" xmlns="http://www.w3.org/2000/svg">
<rect width="345" height="200" fill="#2156DA"/>
<mask id="path-1-inside-1_947_1669" fill="white">
<path d="M167.818 107.649C166.413 107.649 165.153 107.307 164.037 106.624C162.92 105.941 162.04 105.008 161.395 103.824C160.751 102.64 160.428 101.298 160.428 99.7972C160.428 98.2961 160.751 96.954 161.395 95.7704C162.04 94.5868 162.921 93.6537 164.037 92.9704C165.153 92.287 166.432 91.9457 167.876 91.9457C169.165 91.9457 170.344 92.2055 171.412 92.7251C172.181 93.0994 172.833 93.5785 173.368 94.1628C173.576 94.39 173.667 94.6661 173.636 94.9725C173.606 95.2794 173.46 95.5313 173.211 95.7123C173.043 95.8334 172.848 95.9043 172.628 95.9227C172.301 95.9505 172.009 95.8554 171.761 95.6405C171.615 95.5141 171.46 95.3935 171.297 95.2794C170.787 94.9236 170.248 94.6396 169.68 94.4278C169.113 94.216 168.55 94.1104 167.992 94.1104C166.972 94.1104 166.067 94.3605 165.278 94.8611C164.489 95.3613 163.864 96.0399 163.402 96.8959C162.94 97.7523 162.709 98.7193 162.709 99.7967C162.709 100.875 162.945 101.841 163.417 102.698C163.888 103.554 164.523 104.232 165.321 104.733C166.12 105.233 167 105.483 167.962 105.483C168.54 105.483 169.098 105.392 169.637 105.209C170.175 105.026 170.69 104.757 171.181 104.401C171.388 104.25 171.589 104.087 171.785 103.911C172.05 103.671 172.389 103.587 172.736 103.673C173.083 103.759 173.342 103.993 173.465 104.329C173.622 104.761 173.515 105.26 173.16 105.59C172.627 106.084 171.996 106.506 171.268 106.854C170.161 107.384 169.011 107.648 167.818 107.648V107.649ZM181.156 107.649C179.867 107.649 178.698 107.307 177.649 106.624C176.6 105.941 175.768 105.008 175.153 103.824C174.537 102.64 174.229 101.298 174.229 99.7972C174.229 98.2772 174.541 96.9249 175.167 95.7418C175.792 94.5582 176.644 93.6295 177.721 92.9563C178.799 92.2826 180.002 91.9457 181.329 91.9457C182.099 91.9457 182.821 92.0611 183.495 92.2923C184.168 92.523 184.764 92.8453 185.284 93.2592C185.804 93.6731 186.241 94.154 186.597 94.7026C186.953 95.2508 187.189 95.8426 187.305 96.478L186.67 96.1891L186.711 93.4204C186.72 92.7797 187.244 92.2636 187.885 92.2636H187.892C188.538 92.2636 189.066 92.7912 189.066 93.4375V106.186C189.066 106.833 188.539 107.36 187.892 107.36H187.873C187.226 107.36 186.699 106.833 186.699 106.186V104.376C186.699 103.943 186.914 103.571 187.29 103.356L187.305 103.348C187.17 103.925 186.915 104.469 186.54 104.979C186.165 105.489 185.698 105.946 185.14 106.35C184.582 106.754 183.966 107.072 183.292 107.303C182.618 107.533 181.907 107.649 181.156 107.649L181.156 107.649ZM181.705 105.426C182.686 105.426 183.562 105.185 184.332 104.704C185.101 104.223 185.708 103.559 186.15 102.713C186.593 101.866 186.814 100.884 186.814 99.7681C186.814 98.6906 186.597 97.7281 186.164 96.8818C185.731 96.035 185.13 95.371 184.36 94.8902C183.59 94.4089 182.705 94.1685 181.704 94.1685C180.723 94.1685 179.852 94.4093 179.092 94.8902C178.332 95.3715 177.73 96.035 177.288 96.8818C176.845 97.7285 176.624 98.6906 176.624 99.7681C176.624 100.865 176.841 101.837 177.274 102.684C177.706 103.53 178.308 104.199 179.078 104.69C179.847 105.18 180.723 105.426 181.704 105.426H181.705ZM198.016 107.649C196.63 107.649 195.394 107.307 194.307 106.624C193.22 105.941 192.363 105.012 191.738 103.838C191.113 102.665 190.8 101.318 190.8 99.7972C190.8 98.2772 191.117 96.9298 191.752 95.7563C192.387 94.5824 193.244 93.6537 194.321 92.9708C195.399 92.2874 196.611 91.9462 197.958 91.9462C198.709 91.9462 199.435 92.0664 200.138 92.3072C200.84 92.5476 201.47 92.8748 202.028 93.2887C202.586 93.7026 203.038 94.1645 203.385 94.6744C203.731 95.1843 203.943 95.7277 204.02 96.3054L203.298 96.1319V87.1739C203.298 86.5275 203.826 86 204.472 86H204.491C205.138 86 205.665 86.5275 205.665 87.1739V106.317C205.665 106.892 205.196 107.361 204.622 107.361H204.492C203.849 107.361 203.323 106.839 203.318 106.196L203.298 103.637L203.847 103.464C203.77 104.003 203.558 104.517 203.212 105.008C202.865 105.499 202.428 105.946 201.898 106.35C201.369 106.754 200.768 107.072 200.094 107.303C199.421 107.533 198.728 107.649 198.016 107.649V107.649ZM198.334 105.542C199.315 105.542 200.186 105.292 200.946 104.791C201.706 104.291 202.307 103.613 202.75 102.756C203.192 101.9 203.414 100.914 203.414 99.7976C203.414 98.6814 203.197 97.6951 202.764 96.8391C202.331 95.9826 201.73 95.3045 200.96 94.8039C200.19 94.3037 199.315 94.0536 198.333 94.0536C197.333 94.0536 196.447 94.3037 195.677 94.8039C194.908 95.3041 194.301 95.9826 193.859 96.8391C193.416 97.6955 193.195 98.6818 193.195 99.7976C193.195 100.894 193.416 101.876 193.859 102.742C194.301 103.608 194.903 104.291 195.663 104.792C196.423 105.292 197.313 105.542 198.333 105.542L198.334 105.542ZM215.165 107.649C213.645 107.649 212.302 107.317 211.138 106.653C209.974 105.989 209.059 105.079 208.396 103.925C207.732 102.77 207.4 101.423 207.4 99.8835C207.4 98.7289 207.587 97.6656 207.963 96.6938C208.338 95.722 208.853 94.8801 209.507 94.168C210.162 93.456 210.955 92.903 211.889 92.5085C212.822 92.1139 213.837 91.9167 214.934 91.9167C215.935 91.9167 216.858 92.0994 217.705 92.4653C218.552 92.8308 219.278 93.3407 219.885 93.995C220.491 94.6493 220.953 95.419 221.271 96.3041C221.581 97.1693 221.721 98.1169 221.691 99.1477C221.673 99.7822 221.153 100.288 220.518 100.288H209.133L209.024 99.7677C208.949 99.4097 209.031 99.0711 209.262 98.7871C209.492 98.5035 209.807 98.3534 210.173 98.3534H219.812L219.322 98.8439V98.1865C219.322 98.1596 219.321 98.1367 219.319 98.1099C219.275 97.4326 219.069 96.7968 218.701 96.2028C218.326 95.5965 217.816 95.1011 217.172 94.7163C216.527 94.3314 215.772 94.1385 214.906 94.1385C213.847 94.1385 212.933 94.3552 212.164 94.788C211.394 95.2209 210.802 95.8514 210.388 96.6788C209.974 97.5062 209.768 98.526 209.768 99.7386C209.768 100.893 209.994 101.899 210.446 102.755C210.898 103.611 211.553 104.275 212.409 104.746C213.265 105.218 214.28 105.454 215.454 105.454C216.186 105.454 216.893 105.333 217.576 105.093C218.013 104.939 218.481 104.688 218.977 104.341C219.35 104.08 219.827 104.086 220.194 104.356C220.561 104.627 220.708 105.081 220.569 105.514C220.489 105.765 220.332 105.969 220.104 106.121C219.895 106.26 219.673 106.394 219.437 106.522C218.803 106.868 218.119 107.142 217.388 107.344C216.656 107.546 215.916 107.647 215.165 107.647L215.165 107.649ZM223.336 106.186V93.4371C223.336 92.7907 223.863 92.2632 224.51 92.2632H224.52C225.159 92.2632 225.683 92.7779 225.693 93.4173L225.731 95.6696L225.27 95.8426C225.443 95.3037 225.702 94.7986 226.049 94.327C226.395 93.8559 226.819 93.4468 227.319 93.1003C227.819 92.7542 228.363 92.4798 228.95 92.2777C229.537 92.0756 230.148 91.9748 230.783 91.9748C231.591 91.9748 232.313 92.1144 232.948 92.3931C233.582 92.6723 234.117 93.1148 234.55 93.7207C234.983 94.327 235.305 95.1302 235.517 96.131L235.026 95.9003L235.228 95.4093C235.421 94.9474 235.705 94.5146 236.08 94.1104C236.455 93.7061 236.888 93.3407 237.379 93.0135C237.87 92.6864 238.399 92.4314 238.967 92.2482C239.534 92.0655 240.116 91.9743 240.713 91.9743C241.81 91.9743 242.719 92.2002 243.441 92.6524C244.163 93.1047 244.711 93.8021 245.086 94.7453C245.462 95.6881 245.649 96.862 245.649 98.2666V106.185C245.649 106.832 245.122 107.359 244.475 107.359H244.456C243.81 107.359 243.282 106.832 243.282 106.185V98.3824C243.282 97.4203 243.162 96.6312 242.921 96.0157C242.681 95.3996 242.315 94.9377 241.824 94.63C241.334 94.3222 240.722 94.168 239.991 94.168C239.375 94.168 238.798 94.2742 238.259 94.4855C237.72 94.6973 237.258 94.9906 236.873 95.3657C236.488 95.7413 236.19 96.1742 235.978 96.6647C235.767 97.1552 235.661 97.6797 235.661 98.238V106.185C235.661 106.832 235.133 107.359 234.487 107.359H234.468C233.821 107.359 233.294 106.832 233.294 106.185V98.3534C233.294 97.4295 233.169 96.6599 232.918 96.0443C232.668 95.4283 232.298 94.962 231.807 94.644C231.317 94.3266 230.715 94.1676 230.003 94.1676C229.388 94.1676 228.819 94.2737 228.3 94.4851C227.78 94.6969 227.328 94.9901 226.943 95.3653C226.558 95.7409 226.255 96.1689 226.034 96.6497C225.812 97.131 225.702 97.6506 225.702 98.2085V106.185C225.702 106.831 225.174 107.359 224.528 107.359H224.509C223.862 107.359 223.335 106.831 223.335 106.185L223.336 106.186ZM251.33 112.556L253.676 106.898L253.82 109.005L247.006 93.9206C246.837 93.5463 246.867 93.1456 247.09 92.8004C247.313 92.4556 247.665 92.2632 248.076 92.2632H248.179C248.654 92.2632 249.06 92.5274 249.252 92.9616L254.018 103.713C254.022 103.72 254.024 103.726 254.027 103.732C254.161 104.019 254.299 104.367 254.442 104.777C254.586 105.191 254.726 105.599 254.86 106.004L254.081 105.946C254.216 105.599 254.346 105.253 254.471 104.907C254.596 104.56 254.726 104.214 254.86 103.868L258.961 93.0223C259.137 92.5569 259.561 92.2636 260.059 92.2636H260.219C260.621 92.2636 260.968 92.4477 261.192 92.7815C261.417 93.1152 261.458 93.5054 261.306 93.8783L255.841 107.36L253.535 113.253C253.356 113.712 252.935 113.999 252.442 113.999H252.294C251.935 113.999 251.626 113.834 251.427 113.535C251.227 113.236 251.193 112.888 251.33 112.556H251.33Z"/>
</mask>
<path d="M167.818 107.649C166.413 107.649 165.153 107.307 164.037 106.624C162.92 105.941 162.04 105.008 161.395 103.824C160.751 102.64 160.428 101.298 160.428 99.7972C160.428 98.2961 160.751 96.954 161.395 95.7704C162.04 94.5868 162.921 93.6537 164.037 92.9704C165.153 92.287 166.432 91.9457 167.876 91.9457C169.165 91.9457 170.344 92.2055 171.412 92.7251C172.181 93.0994 172.833 93.5785 173.368 94.1628C173.576 94.39 173.667 94.6661 173.636 94.9725C173.606 95.2794 173.46 95.5313 173.211 95.7123C173.043 95.8334 172.848 95.9043 172.628 95.9227C172.301 95.9505 172.009 95.8554 171.761 95.6405C171.615 95.5141 171.46 95.3935 171.297 95.2794C170.787 94.9236 170.248 94.6396 169.68 94.4278C169.113 94.216 168.55 94.1104 167.992 94.1104C166.972 94.1104 166.067 94.3605 165.278 94.8611C164.489 95.3613 163.864 96.0399 163.402 96.8959C162.94 97.7523 162.709 98.7193 162.709 99.7967C162.709 100.875 162.945 101.841 163.417 102.698C163.888 103.554 164.523 104.232 165.321 104.733C166.12 105.233 167 105.483 167.962 105.483C168.54 105.483 169.098 105.392 169.637 105.209C170.175 105.026 170.69 104.757 171.181 104.401C171.388 104.25 171.589 104.087 171.785 103.911C172.05 103.671 172.389 103.587 172.736 103.673C173.083 103.759 173.342 103.993 173.465 104.329C173.622 104.761 173.515 105.26 173.16 105.59C172.627 106.084 171.996 106.506 171.268 106.854C170.161 107.384 169.011 107.648 167.818 107.648V107.649ZM181.156 107.649C179.867 107.649 178.698 107.307 177.649 106.624C176.6 105.941 175.768 105.008 175.153 103.824C174.537 102.64 174.229 101.298 174.229 99.7972C174.229 98.2772 174.541 96.9249 175.167 95.7418C175.792 94.5582 176.644 93.6295 177.721 92.9563C178.799 92.2826 180.002 91.9457 181.329 91.9457C182.099 91.9457 182.821 92.0611 183.495 92.2923C184.168 92.523 184.764 92.8453 185.284 93.2592C185.804 93.6731 186.241 94.154 186.597 94.7026C186.953 95.2508 187.189 95.8426 187.305 96.478L186.67 96.1891L186.711 93.4204C186.72 92.7797 187.244 92.2636 187.885 92.2636H187.892C188.538 92.2636 189.066 92.7912 189.066 93.4375V106.186C189.066 106.833 188.539 107.36 187.892 107.36H187.873C187.226 107.36 186.699 106.833 186.699 106.186V104.376C186.699 103.943 186.914 103.571 187.29 103.356L187.305 103.348C187.17 103.925 186.915 104.469 186.54 104.979C186.165 105.489 185.698 105.946 185.14 106.35C184.582 106.754 183.966 107.072 183.292 107.303C182.618 107.533 181.907 107.649 181.156 107.649L181.156 107.649ZM181.705 105.426C182.686 105.426 183.562 105.185 184.332 104.704C185.101 104.223 185.708 103.559 186.15 102.713C186.593 101.866 186.814 100.884 186.814 99.7681C186.814 98.6906 186.597 97.7281 186.164 96.8818C185.731 96.035 185.13 95.371 184.36 94.8902C183.59 94.4089 182.705 94.1685 181.704 94.1685C180.723 94.1685 179.852 94.4093 179.092 94.8902C178.332 95.3715 177.73 96.035 177.288 96.8818C176.845 97.7285 176.624 98.6906 176.624 99.7681C176.624 100.865 176.841 101.837 177.274 102.684C177.706 103.53 178.308 104.199 179.078 104.69C179.847 105.18 180.723 105.426 181.704 105.426H181.705ZM198.016 107.649C196.63 107.649 195.394 107.307 194.307 106.624C193.22 105.941 192.363 105.012 191.738 103.838C191.113 102.665 190.8 101.318 190.8 99.7972C190.8 98.2772 191.117 96.9298 191.752 95.7563C192.387 94.5824 193.244 93.6537 194.321 92.9708C195.399 92.2874 196.611 91.9462 197.958 91.9462C198.709 91.9462 199.435 92.0664 200.138 92.3072C200.84 92.5476 201.47 92.8748 202.028 93.2887C202.586 93.7026 203.038 94.1645 203.385 94.6744C203.731 95.1843 203.943 95.7277 204.02 96.3054L203.298 96.1319V87.1739C203.298 86.5275 203.826 86 204.472 86H204.491C205.138 86 205.665 86.5275 205.665 87.1739V106.317C205.665 106.892 205.196 107.361 204.622 107.361H204.492C203.849 107.361 203.323 106.839 203.318 106.196L203.298 103.637L203.847 103.464C203.77 104.003 203.558 104.517 203.212 105.008C202.865 105.499 202.428 105.946 201.898 106.35C201.369 106.754 200.768 107.072 200.094 107.303C199.421 107.533 198.728 107.649 198.016 107.649V107.649ZM198.334 105.542C199.315 105.542 200.186 105.292 200.946 104.791C201.706 104.291 202.307 103.613 202.75 102.756C203.192 101.9 203.414 100.914 203.414 99.7976C203.414 98.6814 203.197 97.6951 202.764 96.8391C202.331 95.9826 201.73 95.3045 200.96 94.8039C200.19 94.3037 199.315 94.0536 198.333 94.0536C197.333 94.0536 196.447 94.3037 195.677 94.8039C194.908 95.3041 194.301 95.9826 193.859 96.8391C193.416 97.6955 193.195 98.6818 193.195 99.7976C193.195 100.894 193.416 101.876 193.859 102.742C194.301 103.608 194.903 104.291 195.663 104.792C196.423 105.292 197.313 105.542 198.333 105.542L198.334 105.542ZM215.165 107.649C213.645 107.649 212.302 107.317 211.138 106.653C209.974 105.989 209.059 105.079 208.396 103.925C207.732 102.77 207.4 101.423 207.4 99.8835C207.4 98.7289 207.587 97.6656 207.963 96.6938C208.338 95.722 208.853 94.8801 209.507 94.168C210.162 93.456 210.955 92.903 211.889 92.5085C212.822 92.1139 213.837 91.9167 214.934 91.9167C215.935 91.9167 216.858 92.0994 217.705 92.4653C218.552 92.8308 219.278 93.3407 219.885 93.995C220.491 94.6493 220.953 95.419 221.271 96.3041C221.581 97.1693 221.721 98.1169 221.691 99.1477C221.673 99.7822 221.153 100.288 220.518 100.288H209.133L209.024 99.7677C208.949 99.4097 209.031 99.0711 209.262 98.7871C209.492 98.5035 209.807 98.3534 210.173 98.3534H219.812L219.322 98.8439V98.1865C219.322 98.1596 219.321 98.1367 219.319 98.1099C219.275 97.4326 219.069 96.7968 218.701 96.2028C218.326 95.5965 217.816 95.1011 217.172 94.7163C216.527 94.3314 215.772 94.1385 214.906 94.1385C213.847 94.1385 212.933 94.3552 212.164 94.788C211.394 95.2209 210.802 95.8514 210.388 96.6788C209.974 97.5062 209.768 98.526 209.768 99.7386C209.768 100.893 209.994 101.899 210.446 102.755C210.898 103.611 211.553 104.275 212.409 104.746C213.265 105.218 214.28 105.454 215.454 105.454C216.186 105.454 216.893 105.333 217.576 105.093C218.013 104.939 218.481 104.688 218.977 104.341C219.35 104.08 219.827 104.086 220.194 104.356C220.561 104.627 220.708 105.081 220.569 105.514C220.489 105.765 220.332 105.969 220.104 106.121C219.895 106.26 219.673 106.394 219.437 106.522C218.803 106.868 218.119 107.142 217.388 107.344C216.656 107.546 215.916 107.647 215.165 107.647L215.165 107.649ZM223.336 106.186V93.4371C223.336 92.7907 223.863 92.2632 224.51 92.2632H224.52C225.159 92.2632 225.683 92.7779 225.693 93.4173L225.731 95.6696L225.27 95.8426C225.443 95.3037 225.702 94.7986 226.049 94.327C226.395 93.8559 226.819 93.4468 227.319 93.1003C227.819 92.7542 228.363 92.4798 228.95 92.2777C229.537 92.0756 230.148 91.9748 230.783 91.9748C231.591 91.9748 232.313 92.1144 232.948 92.3931C233.582 92.6723 234.117 93.1148 234.55 93.7207C234.983 94.327 235.305 95.1302 235.517 96.131L235.026 95.9003L235.228 95.4093C235.421 94.9474 235.705 94.5146 236.08 94.1104C236.455 93.7061 236.888 93.3407 237.379 93.0135C237.87 92.6864 238.399 92.4314 238.967 92.2482C239.534 92.0655 240.116 91.9743 240.713 91.9743C241.81 91.9743 242.719 92.2002 243.441 92.6524C244.163 93.1047 244.711 93.8021 245.086 94.7453C245.462 95.6881 245.649 96.862 245.649 98.2666V106.185C245.649 106.832 245.122 107.359 244.475 107.359H244.456C243.81 107.359 243.282 106.832 243.282 106.185V98.3824C243.282 97.4203 243.162 96.6312 242.921 96.0157C242.681 95.3996 242.315 94.9377 241.824 94.63C241.334 94.3222 240.722 94.168 239.991 94.168C239.375 94.168 238.798 94.2742 238.259 94.4855C237.72 94.6973 237.258 94.9906 236.873 95.3657C236.488 95.7413 236.19 96.1742 235.978 96.6647C235.767 97.1552 235.661 97.6797 235.661 98.238V106.185C235.661 106.832 235.133 107.359 234.487 107.359H234.468C233.821 107.359 233.294 106.832 233.294 106.185V98.3534C233.294 97.4295 233.169 96.6599 232.918 96.0443C232.668 95.4283 232.298 94.962 231.807 94.644C231.317 94.3266 230.715 94.1676 230.003 94.1676C229.388 94.1676 228.819 94.2737 228.3 94.4851C227.78 94.6969 227.328 94.9901 226.943 95.3653C226.558 95.7409 226.255 96.1689 226.034 96.6497C225.812 97.131 225.702 97.6506 225.702 98.2085V106.185C225.702 106.831 225.174 107.359 224.528 107.359H224.509C223.862 107.359 223.335 106.831 223.335 106.185L223.336 106.186ZM251.33 112.556L253.676 106.898L253.82 109.005L247.006 93.9206C246.837 93.5463 246.867 93.1456 247.09 92.8004C247.313 92.4556 247.665 92.2632 248.076 92.2632H248.179C248.654 92.2632 249.06 92.5274 249.252 92.9616L254.018 103.713C254.022 103.72 254.024 103.726 254.027 103.732C254.161 104.019 254.299 104.367 254.442 104.777C254.586 105.191 254.726 105.599 254.86 106.004L254.081 105.946C254.216 105.599 254.346 105.253 254.471 104.907C254.596 104.56 254.726 104.214 254.86 103.868L258.961 93.0223C259.137 92.5569 259.561 92.2636 260.059 92.2636H260.219C260.621 92.2636 260.968 92.4477 261.192 92.7815C261.417 93.1152 261.458 93.5054 261.306 93.8783L255.841 107.36L253.535 113.253C253.356 113.712 252.935 113.999 252.442 113.999H252.294C251.935 113.999 251.626 113.834 251.427 113.535C251.227 113.236 251.193 112.888 251.33 112.556H251.33Z" fill="white" stroke="#2156DA" stroke-width="0.183628" mask="url(#path-1-inside-1_947_1669)"/>
<path fill-rule="evenodd" clip-rule="evenodd" d="M118.546 112.958V100.01C118.546 92.8882 112.72 87.0627 105.598 87.0627C98.4766 87.0627 92.6511 92.8882 92.6511 100.01C92.6511 107.132 98.4766 112.958 105.598 112.958H96.0909C89.9929 112.958 85 107.968 85 101.867C85.4756 84.2798 115.737 89.1265 118.546 112.958H118.546Z" fill="white" stroke="#2156DA" stroke-miterlimit="22.9256" stroke-linecap="round" stroke-linejoin="round"/>
<path d="M133.925 107.602L133.925 107.602C132.644 107.602 131.484 107.263 130.443 106.585C129.401 105.906 128.574 104.979 127.962 103.802C127.35 102.626 127.043 101.291 127.043 99.7964C127.043 98.2828 127.354 96.9381 127.976 95.7624C128.598 94.5856 129.444 93.6632 130.514 92.9944L130.514 92.9944C131.585 92.3255 132.779 91.9909 134.098 91.9909C134.863 91.9909 135.58 92.1055 136.248 92.3349L136.248 92.3349C136.917 92.5641 137.509 92.8839 138.024 93.2944C138.54 93.7052 138.975 94.1824 139.328 94.7268L139.328 94.7268C139.356 94.7713 139.385 94.816 139.412 94.861L139.392 96.1877L139.392 96.2177L139.419 96.2302L140.054 96.519L140.134 96.5553L140.118 96.469C140.013 95.8887 139.808 95.3443 139.504 94.8361L139.525 93.4203C139.534 92.8047 140.037 92.3088 140.653 92.3088H140.66C141.281 92.3088 141.788 92.8157 141.788 93.4368V106.186C141.788 106.807 141.282 107.314 140.66 107.314H140.641C140.02 107.314 139.513 106.807 139.513 106.186V104.763C139.801 104.319 140.002 103.851 140.118 103.358L140.142 103.255L140.05 103.307L140.035 103.316C140.035 103.316 140.035 103.316 140.035 103.316L140.035 103.316L140.05 103.342L140.028 103.337C140.025 103.351 140.021 103.365 140.018 103.38C140.012 103.402 140.007 103.423 140.001 103.445M133.925 107.602L139.421 104.735M133.925 107.602C134.671 107.602 135.377 107.487 136.045 107.258L136.045 107.258C136.715 107.029 137.327 106.714 137.881 106.312L137.881 106.312C138.436 105.91 138.899 105.457 139.271 104.951C139.323 104.88 139.373 104.808 139.421 104.735M133.925 107.602L139.421 104.735M140.001 103.445C139.689 103.657 139.513 103.99 139.513 104.375V104.59M140.001 103.445C139.897 103.843 139.734 104.225 139.513 104.59M140.001 103.445C140.02 103.433 140.039 103.421 140.058 103.409C140.066 103.404 140.073 103.4 140.081 103.395L140.081 103.395L140.096 103.387L140.073 103.347L140.051 103.342L139.513 104.677V104.59M139.513 104.59C139.498 104.615 139.482 104.64 139.467 104.664C139.452 104.688 139.437 104.712 139.421 104.735M156.372 104.635C156.539 104.325 156.664 104.005 156.746 103.677L156.762 103.615L156.698 103.62L156.323 103.648L156.28 103.652V103.694V104.612C156.096 104.95 155.859 105.279 155.571 105.598C155.018 106.208 154.33 106.695 153.508 107.059L153.508 107.059C152.686 107.422 151.827 107.603 150.929 107.603C149.512 107.603 148.26 107.264 147.171 106.586C146.081 105.907 145.216 104.984 144.575 103.817C143.935 102.651 143.614 101.312 143.614 99.7977C143.614 98.2844 143.935 96.9448 144.575 95.779L144.535 95.7568L144.575 95.7789C145.216 94.6118 146.086 93.6891 147.186 93.0104L147.162 92.9714L147.186 93.0104C148.285 92.3317 149.513 91.9926 150.871 91.9926C151.464 91.9926 152.032 92.0644 152.576 92.2077L152.588 92.1633L152.576 92.2077C153.121 92.3512 153.628 92.5562 154.096 92.8236C154.564 93.0917 154.99 93.3929 155.373 93.7276C155.717 94.0293 156.007 94.3537 156.242 94.7012L156.223 95.9587L156.222 96.0032L156.266 96.0053L156.873 96.0339L156.934 96.0368L156.919 95.9774C156.822 95.5676 156.646 95.1636 156.394 94.7653C156.375 94.7346 156.355 94.7041 156.334 94.6738L156.354 93.4208C156.364 92.8056 156.867 92.3105 157.482 92.3105H157.519C158.14 92.3105 158.647 92.8175 158.647 93.4385V106.437C158.647 107.645 158.47 108.713 158.116 109.639C157.763 110.567 157.256 111.35 156.598 111.99C155.939 112.63 155.151 113.117 154.232 113.452C153.327 113.782 152.318 113.95 151.206 113.954V113.952H151.16C150.048 113.952 148.99 113.78 147.985 113.435C147.365 113.223 146.813 112.978 146.329 112.701L146.527 110.882C146.527 110.882 146.527 110.882 146.527 110.882C146.829 110.782 147.125 110.807 147.407 110.955C147.508 111.008 147.613 111.06 147.719 111.11L147.719 111.11C148.232 111.352 148.784 111.541 149.374 111.677L149.374 111.677C149.964 111.812 150.569 111.88 151.188 111.88C152.29 111.88 153.231 111.682 154.009 111.283C154.787 110.884 155.376 110.29 155.775 109.502C156.174 108.715 156.372 107.74 156.372 106.581V104.635ZM156.372 104.635C156.357 104.663 156.342 104.691 156.326 104.718V106.581C156.326 107.735 156.129 108.702 155.734 109.481C155.34 110.261 154.758 110.848 153.988 111.242C153.218 111.637 152.285 111.834 151.188 111.834C150.572 111.834 149.971 111.767 149.384 111.632C148.797 111.497 148.248 111.309 147.738 111.069C147.633 111.019 147.529 110.967 147.428 110.914L156.372 104.635ZM139.501 95.015C139.744 95.4501 139.914 95.9113 140.012 96.3987L139.485 96.159L139.501 95.015ZM131.836 94.8506L131.836 94.8506C131.069 95.3365 130.462 96.0063 130.016 96.8597L130.016 96.8597C129.57 97.7139 129.347 98.6834 129.347 99.7673C129.347 100.87 129.565 101.849 130.002 102.704C130.438 103.557 131.045 104.232 131.822 104.728L131.822 104.728C132.6 105.223 133.484 105.471 134.474 105.471C135.463 105.471 136.347 105.229 137.124 104.742C137.901 104.256 138.513 103.587 138.959 102.733C139.406 101.879 139.629 100.89 139.629 99.7673C139.629 98.6836 139.411 97.7137 138.974 96.8601C138.538 96.0063 137.931 95.3359 137.153 94.8505C136.375 94.3642 135.482 94.1218 134.473 94.1218C133.484 94.1218 132.605 94.3647 131.836 94.8506ZM145.784 111.764C145.812 111.356 146.054 111.022 146.433 110.868L151.16 113.998C150.044 113.998 148.981 113.825 147.97 113.479C147.348 113.266 146.793 113.019 146.306 112.741C145.952 112.537 145.756 112.173 145.784 111.764ZM156.372 103.737L156.641 103.716C156.576 103.96 156.486 104.199 156.372 104.434V103.737ZM156.315 95.9156L156.332 94.839C156.559 95.2023 156.72 95.5691 156.815 95.9393L156.315 95.9156ZM148.465 104.728L148.489 104.689L148.465 104.728C149.252 105.224 150.16 105.471 151.188 105.471H151.207L151.207 105.471C152.208 105.468 153.11 105.226 153.911 104.743C154.717 104.257 155.343 103.587 155.79 102.733C156.236 101.879 156.459 100.9 156.459 99.7964C156.459 98.6931 156.231 97.7137 155.775 96.8594C155.319 96.0059 154.698 95.331 153.911 94.836C153.124 94.3404 152.215 94.0927 151.188 94.0927C150.18 94.0927 149.276 94.3401 148.479 94.8359C147.683 95.3309 147.057 96.0108 146.601 96.8741C146.145 97.7378 145.917 98.7123 145.917 99.7964C145.917 100.881 146.145 101.851 146.601 102.705C147.057 103.558 147.678 104.233 148.465 104.728Z" fill="white" stroke="#2156DA" stroke-width="0.0918142"/>
</svg>
