<svg width="437" height="400" viewBox="0 0 437 400" fill="none" xmlns="http://www.w3.org/2000/svg">
<g opacity="0.6">
<path fill-rule="evenodd" clip-rule="evenodd" d="M242.822 318.945C263.399 305.089 301.484 302.676 294.498 272.44C287.672 241.873 262.014 240.752 214.663 213.159C168.629 182.836 180.241 161.654 112.325 158.805C47.5421 158.833 67.2624 252.179 19.5348 237.765C-28.1922 223.351 25.4778 342.572 33.9669 351.397C48.8969 366.918 88.2131 385.437 107.39 382.812C121.954 380.87 168.808 370.089 191.747 358.899C214.155 348.456 216.577 337.544 242.822 318.945Z" fill="#2156DA"/>
<path d="M426.099 18.7195L426.234 18.7236C427.378 18.7915 428.25 19.7726 428.182 20.9164L427.954 24.8711L427.808 27.5176C426.29 55.6124 422.684 79.4926 423.531 99.1523L423.661 101.998C424.679 123.184 430.082 153.133 435.546 198.388C436.025 198.724 436.36 199.26 436.421 199.887C436.531 201.027 435.697 202.041 434.557 202.151C407.848 204.74 382.995 206.463 360.001 207.319L356.859 207.431L353.267 207.548C330.02 208.27 297.294 208.62 255.084 208.6C253.938 208.599 253.011 207.67 253.011 206.525C253.011 205.978 238.267 24.6879 238.267 24.6879C238.267 24.6879 425.532 18.7228 426.099 18.7195Z" fill="white"/>
<path d="M389.957 360.315L391.261 360.449C409.793 362.387 421.96 365.185 427.572 368.702L427.922 368.927C432.232 371.792 431.688 374.775 425.494 379.536C418.721 384.741 402.073 389.647 377.165 392.641C345.983 396.388 304.059 396.993 251.41 393.734L245.89 393.391C215.495 391.548 192.174 391.05 149.014 390.816L137.099 390.747C111.403 390.568 100.482 390.213 89.9382 389.083L88.9358 388.972C75.7179 387.46 68.4127 384.699 65.9657 380.369L65.8757 380.205C65.8291 380.118 65.8291 380.119 66.184 379.76C66.8953 379.039 68.353 378.2 70.5221 377.326L71.0838 377.104C75.7849 375.296 83.2152 373.442 93.3304 371.568L95.246 371.218C115.44 367.591 145.554 363.904 185.568 360.162L192.004 359.567L197.498 359.367C287.54 356.14 351.71 356.458 389.957 360.315Z" fill="white"/>
<path fill-rule="evenodd" clip-rule="evenodd" d="M348.213 19.152C348.988 18.309 350.3 18.2542 351.143 19.0293C351.986 19.8044 352.041 21.1166 351.266 21.9595C351.266 21.9595 256.941 129.184 256.082 126.2C255.61 124.558 295.278 76.8983 301.517 70.4737L303.248 68.724C306.175 65.6859 320.662 49.1068 348.213 19.152Z" fill="#E7EAEE"/>
<path fill-rule="evenodd" clip-rule="evenodd" d="M300.744 42.6749C301.682 42.0192 302.975 42.2489 303.63 43.1884C304.286 44.1269 304.056 45.4195 303.117 46.0753C299.99 48.259 251.207 97.4697 250.172 97.0781C249.136 96.6857 254.135 90.8391 254.135 90.8391C257.331 87.4951 285.883 57.1528 285.883 57.1528C288.282 54.5929 290.498 52.2857 292.618 50.1485C294.718 48.0326 297.425 44.992 300.744 42.6749Z" fill="#E7EAEE"/>
<path fill-rule="evenodd" clip-rule="evenodd" d="M348.485 360.315L349.788 360.449C368.322 362.387 380.488 365.185 386.1 368.702L386.451 368.927C390.76 371.792 390.216 374.775 384.022 379.536C377.249 384.741 304.059 389.529 251.41 386.269L245.89 385.926C215.495 384.082 192.174 378.608 149.014 378.375L137.099 378.306C111.403 378.126 100.482 390.213 89.9382 389.083L88.9358 388.972C75.7179 387.46 68.4127 384.699 65.9657 380.369L65.8757 380.205C65.8291 380.118 65.8291 380.119 66.184 379.76C66.8953 379.039 68.353 378.2 70.5221 377.326L71.0838 377.104C75.7849 375.296 83.2152 373.442 93.3304 371.568L95.246 371.218C115.44 367.591 145.554 363.904 185.568 360.162L192.004 359.567L197.498 359.367C287.54 356.14 310.238 356.458 348.485 360.315Z" fill="#E7EAEE"/>
<path d="M102.787 205.281C103.433 206.973 125.466 209.627 137.542 216.765C142.173 219.502 145.679 231.348 145.451 231.572C139.977 236.972 137.002 239.724 134.055 241.382C123.695 247.211 115.712 245.695 107.981 244.476C98.6886 243.01 93.1666 232.809 96.7902 224.338C97.3576 223.011 98.7884 221.072 101.156 218.345L101.472 217.986C101.462 217.888 101.463 217.789 101.475 217.687C101.583 216.773 101.597 215.835 101.515 214.873L101.332 213.147C101.115 211.218 100.697 207.946 100.074 206.315C99.7891 205.566 100.164 204.728 100.913 204.442C101.662 204.156 102.501 204.531 102.787 205.281Z" fill="white"/>
<path d="M153.665 226.897C153.664 226.549 153.751 226.195 153.937 225.87C154.258 225.305 154.805 224.949 155.4 224.85C155.539 224.725 155.634 224.681 155.688 224.732L155.778 224.822C156.113 224.829 156.452 224.916 156.765 225.095L162.864 228.559C175.506 235.786 189.096 246.537 190.408 254.699C191.893 263.949 182.209 312.081 181.09 311.838C179.97 311.596 158.992 359.269 158.98 359.398C158.938 359.832 140.289 360.524 120.67 362.624C113.813 363.357 131.62 339.436 138.318 322.524C149.807 293.523 153.665 226.897 153.665 226.897Z" fill="white"/>
<path d="M304.102 250.549C296.7 248.936 288.1 249.746 278.273 253.024C270.23 255.707 265.826 259.463 264.727 264.263L264.666 264.549L264.981 264.678C271.548 267.327 277.677 267.998 283.411 266.728L283.829 266.631C287.8 265.684 291.026 263.457 294.854 259.501L295.383 258.947C296.284 257.987 298.409 255.659 298.67 255.379C300.031 253.922 301.071 252.917 302.122 252.096L302.35 251.922C302.882 251.521 303.53 251.134 304.294 250.756L304.523 250.644L304.102 250.549Z" fill="white"/>
<path d="M231.244 239.148C225.977 237.512 219.729 237.322 212.491 238.608L212.151 238.669L212.226 238.818C215.428 245.242 218.332 249.195 220.758 250.629L220.909 250.715C223.348 252.062 229.16 252.158 238.074 250.829L239.392 250.625L239.36 250.514C239.326 250.388 239.305 250.256 239.296 250.12L239.292 249.984C239.292 244.319 236.716 240.847 231.244 239.148Z" fill="white"/>
<path d="M171.138 209.094C170.99 210.274 171.49 214.611 169.823 216.614C169.161 217.407 167.583 217.975 166.553 217.475C166.096 217.254 167.516 215.275 168.38 213.038C168.713 212.174 168.127 211.129 168.38 210.304C168.6 209.582 169.668 209.062 169.823 208.519C170.068 207.655 171.236 208.314 171.138 209.094Z" fill="white"/>
<path d="M174.022 204.029C173.874 205.209 177.377 210.706 175.628 212.467C172.655 215.462 169.797 210.21 170.659 207.973C170.993 207.109 171.011 206.064 171.263 205.239C171.483 204.517 174.119 203.249 174.022 204.029Z" fill="white"/>
<path d="M206.342 290.822C205.696 293.243 205.149 307.456 208.233 315.48C209.363 318.416 211.019 320.568 213.261 321.403C215.145 322.075 217.104 322.493 219.105 322.771C223.417 323.365 256.367 326.168 271.159 324.235C285.951 322.301 285.114 322.121 291.875 320.923C295.146 320.343 298.888 319.726 302.232 318.414C304.695 317.451 306.943 316.113 308.705 314.21C310.282 312.51 311.256 309.619 311.547 306.384C311.916 302.275 311.286 296.84 310.669 294.106C310.669 293.953 310.636 293.895 310.669 293.847C310.823 293.623 308.83 292.513 302.232 292.241C290.919 291.774 273.277 292.658 256.183 292.481C232.86 292.239 210.567 290.102 206.871 290.491C206.533 290.527 206.355 290.775 206.342 290.822Z" fill="white"/>
<path d="M100.39 214.956C101.536 214.949 102.47 215.87 102.479 217.016C102.48 217.135 102.47 217.253 102.452 217.367L102.629 217.253C103.624 216.638 104.857 216.327 104.593 217.832C104.226 219.931 98.9716 222.371 98.9716 226.408C98.9716 232.403 101.284 238.14 109.597 240.538C132.883 247.254 144.383 235.35 148.688 230.215C148.686 229.867 148.773 229.513 148.958 229.187C149.28 228.622 149.827 228.267 150.422 228.168C150.561 228.042 150.656 227.998 150.709 228.049L150.8 228.14C151.135 228.147 151.474 228.234 151.786 228.412L157.885 231.876C170.529 239.104 184.119 249.854 185.429 258.017C186.916 267.267 177.231 315.399 176.112 315.156C174.993 314.913 154.013 362.587 154.001 362.716C153.945 363.301 120.002 364.356 95.5197 368.708C79.4647 371.561 69.0168 376.913 68.6791 377.215C67.8255 377.979 66.8346 379.302 66.0702 378.449C60.9423 372.72 59.5752 356.622 61.5563 332.928L60.5187 332.823C39.299 330.679 28.8314 324.71 29.5436 311.272C31.2916 278.304 40.5728 252.469 51.3699 236.472C60.9561 222.269 76.2696 215.129 100.39 214.956Z" fill="white"/>
<path fill-rule="evenodd" clip-rule="evenodd" d="M148.689 230.215C148.688 229.866 148.775 229.513 148.961 229.187C149.282 228.622 149.83 228.266 150.424 228.168C150.564 228.042 150.658 227.998 150.712 228.049L150.802 228.14C151.137 228.146 151.477 228.234 151.789 228.411L157.888 231.876C170.53 239.104 184.12 249.854 185.432 258.016C186.917 267.267 177.233 315.399 176.114 315.156C174.994 314.913 154.016 362.587 154.004 362.715C153.962 363.15 135.313 363.841 115.694 365.941C108.838 366.675 126.644 342.754 133.342 325.842C144.831 296.84 148.689 230.215 148.689 230.215Z" fill="#E7EAEE"/>
<path d="M149.777 229.539C149.818 230.684 148.849 231.642 147.704 231.613C141.983 231.468 141.073 221.63 141.622 221.591C142.382 221.536 143.68 226.209 146.234 227.911C148.182 229.209 149.665 226.386 149.777 229.539Z" fill="white"/>
<path d="M97.9291 203.261C98.7205 202.313 100.199 203.154 100.715 204.175C101.232 205.197 100.823 206.444 99.8013 206.961C94.5867 209.6 87.643 208.62 83.3653 204.959C75.9343 198.599 75.6301 182.092 75.6301 177.165C75.6301 176.508 84.1093 177.284 87.6258 181.884C93.8632 190.044 96.9095 204.482 97.9291 203.261Z" fill="white"/>
<path d="M97.374 158.432L97.4533 157.995C97.5195 157.607 97.5187 157.187 97.32 155.104L96.6569 148.585C96.5318 147.343 96.4313 146.27 96.3438 145.225L96.2751 144.375C95.6775 136.697 95.9653 132.333 98.0387 130.305C103.89 124.579 107.124 124.703 113.219 126.678L114.496 127.093C117.205 127.95 118.561 127.287 120.414 126.852L120.949 126.731C125.244 125.79 129.719 125.616 134.865 126.063C137.875 126.325 139.737 126.573 144.514 127.393L150.154 128.381C153.684 129.002 156.062 129.389 158.579 129.733L159.135 129.804C163.169 130.293 166.452 130 170.415 129.106C170.497 129.088 172.63 128.584 173.467 128.404L173.972 128.303C174.757 128.157 175.421 128.08 176.04 128.08L176.137 128.026C182.186 124.888 187.941 115.086 187.467 107.225C186.878 97.4705 177.611 91.2797 157.714 91.1571L156.746 91.153C153.46 91.1179 151.058 90.5734 144.16 88.4599L140.755 87.4085C134.847 85.5983 131.286 84.775 127.473 84.5191C126.817 84.475 126.174 84.4529 125.542 84.4529C99.1081 84.4529 73.0695 106.975 69.4852 128.026C68.8352 131.849 71.7826 148.71 72.8479 157.092C72.8479 157.092 83.1168 157.205 88.1156 157.926C88.5922 157.995 92.645 166.829 95.1011 166.829C97.32 166.829 97.374 158.432 97.374 158.432Z" fill="white"/>
<path d="M112.574 130.002C116.259 131.213 118.283 131.557 121.069 130.956L122.092 130.723C128.699 129.28 133.758 129.715 147.892 132.194L151.282 132.787C153.901 133.238 155.907 133.554 158.019 133.842C162.67 134.475 166.427 134.21 170.779 133.272L175.221 132.278C175.987 132.118 175.893 132.179 176.169 132.223L176.297 132.238C176.879 132.292 178.853 132.589 179.317 133.929C182.173 142.18 183.002 161.875 179.969 178.088C175.852 200.102 164.036 215.193 147.149 219.777C121.418 226.762 102.072 213.49 88.6788 179.211L88.2667 178.157L87.1573 177.933L86.365 177.769C73.6172 175.038 69.3117 170.139 73.6213 162.163C75.7797 158.167 78.7361 156.93 81.2003 157.766C84.1984 158.783 87.9757 162.703 92.2917 169.547L92.34 169.62C94.2327 172.358 96.8604 171.309 98.1947 168.401C99.0278 166.587 99.8193 163.553 100.616 159.213L100.777 158.326C100.912 157.495 100.849 156.831 100.154 150.125L99.9084 147.723C99.8201 146.836 99.7457 146.036 99.6786 145.264L99.6467 144.88C99.3737 141.613 99.2739 139.011 99.3761 136.964C99.4808 134.885 99.8144 133.557 100.109 133.269L100.602 132.794C104.883 128.742 107.309 128.336 111.689 129.714L112.574 130.002Z" fill="white"/>
<path fill-rule="evenodd" clip-rule="evenodd" d="M179.97 178.088C175.852 200.102 164.037 215.193 147.15 219.777C142.236 221.11 156.468 215.836 163.966 206.354C174.246 193.351 180.03 174.096 180.983 168.264C183.865 150.623 183.002 161.875 179.97 178.088Z" fill="#E7EAEE"/>
<path fill-rule="evenodd" clip-rule="evenodd" d="M98.1965 168.401C99.0297 166.587 99.8211 163.553 100.619 159.213L100.779 158.326C100.914 157.495 100.851 156.831 100.156 150.125L99.9102 147.723C99.8219 146.836 99.7475 146.036 99.6805 145.264L99.6486 144.88C99.3755 141.613 99.2758 139.011 99.378 136.964C99.4826 134.885 99.8162 133.557 100.111 133.269L100.604 132.794C104.884 128.742 107.311 128.336 111.691 129.714L112.576 130.002C116.261 131.213 118.285 131.557 121.071 130.956L122.094 130.723C128.702 129.28 133.76 129.715 147.894 132.194L151.284 132.787C153.903 133.238 155.909 133.554 158.02 133.842C162.672 134.475 166.429 134.21 170.781 133.272L175.223 132.278C175.989 132.118 175.895 132.179 176.171 132.223L176.299 132.238C176.881 132.292 178.855 132.589 179.319 133.929C179.319 133.929 177.52 135.387 176.171 135.486C164.421 136.35 155.878 138.401 146.797 139.27C132.477 140.642 119.671 141.112 112.576 144.88C109.149 146.701 105.509 165.474 100.94 171.838C98.3519 175.442 98.1965 168.401 98.1965 168.401Z" fill="#E7EAEE"/>
<path fill-rule="evenodd" clip-rule="evenodd" d="M206.575 315.48C207.704 318.416 209.361 320.568 211.602 321.403C213.487 322.075 215.446 322.493 217.447 322.771C221.759 323.365 254.709 326.168 269.501 324.235C284.293 322.301 283.456 322.121 290.217 320.923C293.488 320.343 297.229 319.726 300.573 318.414C303.037 317.451 305.285 316.113 307.047 314.21C308.623 312.51 309.598 309.619 309.889 306.384C310.258 302.275 309.628 296.84 309.011 294.106C308.875 293.371 306.412 293.903 306.547 294.638C306.917 297.18 307.032 302.226 306.551 305.96C306.254 308.274 305.8 310.425 304.665 311.645C303.243 313.176 301.409 314.22 299.421 315C296.273 316.24 292.747 316.822 289.669 317.379C282.998 318.596 276.768 320.176 249.138 320.923C244.658 321.045 222.216 319.886 217.871 319.262C216.083 319.008 214.329 318.639 212.645 318.032C210.679 317.366 209.645 314.928 208.727 312.193C207.618 308.888 205.044 297.081 206.575 294.543C207.146 293.597 211.267 293.803 213.846 294.077C222.106 294.952 237.263 295.304 251.969 295.467C268.161 295.646 306.768 295.655 306.768 294.912C306.768 294.243 308.303 294.077 309.011 294.106C309.24 294.115 307.727 292.241 300.573 292.241C289.175 292.241 271.618 292.658 254.526 292.481C231.202 292.239 208.909 290.102 205.214 290.491C205.135 290.499 205.061 290.505 204.991 290.51C202.288 290.668 203.491 307.456 206.575 315.48Z" fill="#00160A"/>
<path fill-rule="evenodd" clip-rule="evenodd" d="M212.049 299.311C212.165 298.469 213.14 296.632 213.54 297.597C214.251 299.311 213.527 310.76 220.234 311.949C221.36 312.149 224.321 312.577 224.321 313.522C224.321 314.466 223.863 315.892 221.407 315.225C217.073 314.048 214.593 311.621 213.074 307.769C211.993 305.029 211.706 301.819 212.049 299.311Z" fill="#00160A"/>
<path fill-rule="evenodd" clip-rule="evenodd" d="M62.5113 271.125L62.513 271.144C62.5138 271.302 62.7084 271.517 62.7435 271.982C62.8899 273.957 62.0518 278.607 61.9038 280.075C61.5155 283.514 60.8369 287.814 60.7143 291.923C60.6358 294.578 60.7764 297.151 61.531 299.332C63.1008 304.029 66.7227 306.919 71.0985 308.766C75.0139 310.421 79.5441 311.147 83.8905 311.669C87.0602 312.047 90.1197 312.362 92.8324 312.515C93.2952 312.515 93.6721 312.894 93.6721 313.357C93.6721 313.822 93.2952 314.195 92.8324 314.195C90.06 314.352 86.9123 314.544 83.655 314.362C78.9964 314.104 74.166 313.171 69.9808 311.439C64.8128 309.296 60.6399 305.781 58.797 300.242C57.9941 297.74 57.8053 294.803 58.0179 291.784C58.313 287.604 59.3301 283.275 59.9318 279.793C60.2016 278.333 60.6897 273.603 61.4435 271.766C61.8123 270.861 62.4492 270.752 62.4696 270.804C62.5579 270.891 62.5718 271.024 62.5113 271.125Z" fill="#00160A"/>
<path fill-rule="evenodd" clip-rule="evenodd" d="M104.309 304.97L101.795 305.371C101.004 305.536 100.104 305.857 99.35 306.349C98.7916 306.714 98.3337 307.186 98.0231 307.739C97.8783 308.004 97.7949 308.27 97.7369 308.535C97.6273 309.036 97.6576 309.542 97.5701 310.08C97.499 310.504 97.4744 310.924 97.4883 311.343C97.508 311.918 97.6044 312.487 97.6641 313.064C97.7958 313.976 97.8375 314.851 98.1939 315.657C98.355 316.02 98.5708 316.343 98.8472 316.674C98.978 316.911 99.2756 316.996 99.5111 316.864C99.7473 316.733 99.8324 316.436 99.7016 316.2C99.7016 316.2 98.0672 308.624 100.057 307.367C102.047 306.11 103.152 306.274 103.734 306.13C103.972 306.071 104.49 305.433 104.52 305.287C104.55 305.141 104.456 304.999 104.309 304.97Z" fill="#00160A"/>
<path fill-rule="evenodd" clip-rule="evenodd" d="M104.226 305.258L104.502 305.826C104.59 306.197 104.604 306.625 104.614 307.037C104.622 307.401 104.662 307.758 104.434 308.056C104.311 308.18 104.311 308.379 104.434 308.503C104.558 308.626 104.757 308.626 104.88 308.503C105.285 308.223 105.532 307.827 105.606 307.364C105.702 306.764 105.444 306.113 105.219 305.587C105.145 305.419 104.86 305.007 104.567 304.836C104.333 304.701 104.107 304.666 103.93 304.807C103.805 304.889 103.771 305.056 103.853 305.181C103.935 305.305 104.102 305.339 104.226 305.258Z" fill="#00160A"/>
<path fill-rule="evenodd" clip-rule="evenodd" d="M103.891 308.145C103.674 308.27 103.473 308.395 103.395 308.431C102.632 308.779 102.195 309.538 102.078 310.447C101.936 311.549 102.34 312.828 102.575 313.615C102.643 313.886 102.918 314.052 103.19 313.984C103.46 313.916 103.625 313.64 103.557 313.37C103.378 312.562 103.184 311.196 103.379 310.148C103.454 309.753 103.516 309.38 103.821 309.142C103.821 309.142 104.037 308.062 103.891 308.145Z" fill="#00160A"/>
<path fill-rule="evenodd" clip-rule="evenodd" d="M98.5921 309.497C99.0491 310.01 99.0033 310.797 98.4899 311.254C97.7099 311.949 97.0256 312.478 96.4271 312.846L96.1352 313.018C95.6242 313.307 94.9448 313.641 94.0888 314.025C93.9825 314.072 92.9933 314.385 92.6327 314.105C92.4422 313.957 92.2313 313.782 92.1217 313.531C92.0702 313.415 92.2451 313.185 92.5665 312.891C93.1012 312.402 94.5254 312.138 95.5098 311.523C97.1204 310.514 98.3607 309.238 98.5921 309.497Z" fill="#00160A"/>
<path fill-rule="evenodd" clip-rule="evenodd" d="M103.01 321.232C103.497 320.748 104.284 320.748 104.77 321.235C106.896 323.368 107.53 325.412 106.151 327.094C105.269 328.17 104.015 329.111 102.237 329.822C101.408 330.155 101.508 330.311 99.3434 330.786C98.673 330.933 98.0091 330.509 97.8619 329.837C97.7148 329.166 98.1391 328.503 98.8103 328.355L99.6819 328.16C101.242 327.801 103.605 326.275 104.226 325.517C104.579 325.086 104.346 324.334 103.008 322.992C102.522 322.505 102.524 321.718 103.01 321.232Z" fill="#00160A"/>
<path fill-rule="evenodd" clip-rule="evenodd" d="M134.994 301.174C135.285 306.889 135.402 310.32 135.348 311.468C135.198 314.587 134.628 318.586 133.249 322.068C132.249 324.589 130.797 326.808 128.938 328.339C127.675 329.324 125.004 331.245 117.087 330.698C101.186 329.597 103.712 302.638 103.81 302.246C103.908 301.854 104.321 300.332 104.714 300.428C105.428 300.543 102.662 328.546 116.661 328.736C117.748 328.751 118.818 328.602 119.913 328.459C121.431 328.344 123.029 328 124.507 327.426C125.433 327.067 126.314 326.612 127.067 325.995C128.611 324.799 129.757 322.977 130.668 320.972C132.103 317.811 133.147 314.188 133.488 311.313C133.669 309.811 134.07 300.691 134.07 300.691C134.279 299.968 134.986 301.014 134.994 301.174Z" fill="#00160A"/>
<path fill-rule="evenodd" clip-rule="evenodd" d="M119.505 297.898L120.217 297.903C128.361 297.983 134.849 299.436 134.849 301.216C134.849 303.048 131.784 306.525 123.31 306.525L122.597 306.522C111.211 306.997 104.159 302.997 104.159 301.216C104.159 299.384 111.029 297.898 119.505 297.898Z" fill="#00160A"/>
<path fill-rule="evenodd" clip-rule="evenodd" d="M119.505 298.728L118.815 298.731C111.264 298.812 104.99 300.199 104.99 301.216C104.99 302.265 111.65 304.534 119.505 304.534L120.195 304.531C127.747 304.45 134.02 302.234 134.02 301.216C134.02 300.168 127.361 298.728 119.505 298.728Z" fill="white"/>
<path fill-rule="evenodd" clip-rule="evenodd" d="M131.433 190.833C131.812 191.363 132.282 191.852 132.836 192.279C133.421 192.735 134.101 193.02 134.778 193.219C136.101 193.573 137.406 193.928 138.755 194.148C142.911 194.825 153.323 195.963 154.347 196.154C155.037 196.356 155.76 195.957 155.96 195.266C156.16 194.575 155.761 193.85 155.07 193.648C154.03 193.231 153 192.838 151.926 192.562C150.334 192.151 148.699 191.959 147.07 191.77C144.293 191.44 141.507 191.166 138.717 190.994C137.531 190.924 136.361 190.942 135.176 190.862C134.81 190.847 134.441 190.794 134.075 190.676C133.451 190.479 132.847 190.245 132.341 189.9L130.987 188.887C130.84 188.884 130.719 189.008 130.719 189.157C130.72 189.307 131.329 190.673 131.433 190.833Z" fill="#00160A"/>
<path fill-rule="evenodd" clip-rule="evenodd" d="M144.444 200.757C145.149 201.518 146.309 202.154 147.586 202.345C148.882 202.532 150.215 202.216 151.116 201.713C151.393 201.575 151.506 201.235 151.367 200.958C151.229 200.681 150.89 200.57 150.614 200.709C149.997 200.977 149.173 201.02 148.325 200.981C147.97 200.963 147.611 200.914 147.254 200.886C146.322 200.8 145.435 200.728 144.788 200.34C144.673 200.25 144.502 200.264 144.408 200.379C144.313 200.494 144.329 200.661 144.444 200.757Z" fill="#00160A"/>
<path fill-rule="evenodd" clip-rule="evenodd" d="M426.235 18.7236C427.378 18.7915 428.25 19.7726 428.182 20.9164L427.954 24.8711C426.312 54.1154 425.928 78.8786 426.801 99.1523L426.841 100.057C427.804 121.365 430.157 151.407 435.546 198.389C436.025 198.724 436.36 199.26 436.421 199.887C436.531 201.027 435.697 202.041 434.557 202.151C407.847 204.74 382.996 206.463 360 207.319L356.858 207.431C333.438 208.232 299.516 208.621 255.083 208.6C253.938 208.599 253.01 207.67 253.01 206.525C253.011 205.379 253.94 204.451 255.086 204.452L264.436 204.45C305.135 204.415 336.369 204.011 358.132 203.238L361.486 203.113C383.134 202.27 406.43 200.663 431.375 198.291C430.493 189.43 423.622 120.012 422.728 100.893L422.699 100.245C421.726 78.742 422.175 52.2203 424.042 20.6711C424.107 19.5739 425.014 18.7261 426.098 18.7195L426.235 18.7236ZM235.936 22.9081C237.071 22.756 238.114 23.5531 238.266 24.6879L239.017 30.3383C243.542 64.6133 246.538 91.857 248.006 112.08L248.145 114.037C249.632 135.518 250.559 166.69 250.926 207.566C250.935 208.712 250.016 209.649 248.87 209.658C247.726 209.669 246.789 208.749 246.778 207.604L246.719 201.557C246.331 164.913 245.471 136.482 244.14 116.273L244.008 114.323C242.528 92.9419 239.244 63.2438 234.156 25.2382C234.004 24.1034 234.801 23.0601 235.936 22.9081Z" fill="#00160A"/>
<path fill-rule="evenodd" clip-rule="evenodd" d="M97.6469 214.978C98.7916 214.97 99.7269 215.892 99.7351 217.037C99.7432 218.182 98.821 219.117 97.6764 219.125C74.81 219.288 59.132 225.883 50.405 238.814C40.0617 254.139 30.3087 279.147 30.9415 311.513C31.4132 335.595 82.0572 331.773 94.1992 331.128C95.8204 331.043 96.925 331.905 96.9128 332.034C96.8204 333.005 96.051 333.804 95.0446 333.9C80.247 335.304 67.809 333.857 57.7756 332.844C36.555 330.7 26.0883 324.732 26.8004 311.293C28.5484 278.325 37.8297 252.49 48.6267 236.493C58.213 222.29 73.5264 215.15 97.6469 214.978Z" fill="#00160A"/>
<path fill-rule="evenodd" clip-rule="evenodd" d="M98.0389 130.305C95.9655 132.333 95.6777 136.697 96.2754 144.374L96.344 145.225C96.4315 146.27 96.5321 147.342 96.6572 148.585L97.3202 155.104C97.5189 157.186 97.5197 157.607 97.4535 157.995L97.3742 158.432C96.8068 161.522 95.4218 164.703 94.8985 166.275L94.7873 166.595L94.7252 166.5C90.3634 159.916 86.3621 155.138 82.5333 153.838C77.8575 152.253 73.8244 154.599 70.8034 160.191L70.6276 160.521C65.1277 171.05 71.1958 177.565 85.7751 180.871L86.0588 180.934L86.5011 182.03C100.593 216.535 120.755 231.24 148.237 223.779C166.947 218.7 178.008 202.266 182.388 178.851C185.546 161.969 184.686 141.552 181.578 132.573C180.622 129.811 179.051 128.329 176.681 128.109C175.875 128.034 175.034 128.106 173.972 128.303L173.467 128.404C172.63 128.584 170.497 129.087 170.415 129.106C166.452 129.999 163.169 130.292 159.135 129.804L158.58 129.732C156.062 129.389 153.684 129.002 150.154 128.381L144.515 127.393C139.738 126.572 137.875 126.325 134.866 126.063C129.72 125.616 125.244 125.79 120.949 126.73L120.414 126.852C118.561 127.287 117.205 127.95 114.496 127.093L113.219 126.677C107.124 124.702 103.891 124.579 98.0389 130.305ZM112.576 130.002C116.261 131.213 118.284 131.557 121.07 130.956L122.093 130.724C128.7 129.28 133.759 129.715 147.894 132.194L151.284 132.787C153.902 133.238 155.908 133.553 158.02 133.841C162.671 134.475 166.429 134.21 170.781 133.271L175.223 132.278C175.989 132.118 175.895 132.178 176.17 132.223L176.299 132.239C176.881 132.292 178.854 132.589 179.318 133.929C182.174 142.18 183.003 161.875 179.97 178.088C175.853 200.103 164.037 215.193 147.151 219.777C121.419 226.762 102.073 213.49 88.68 179.211L88.2679 178.157L87.1584 177.934L86.3662 177.769C73.6183 175.038 69.3137 170.139 73.6224 162.162C75.7809 158.168 78.7372 156.931 81.2015 157.766C84.1996 158.783 87.9768 162.703 92.2929 169.547L92.3411 169.62C94.2338 172.358 96.8616 171.309 98.1959 168.401C99.029 166.587 99.8204 163.553 100.618 159.212L100.778 158.326C100.914 157.495 100.851 156.832 100.156 150.125L99.9095 147.722C99.8212 146.836 99.7468 146.036 99.6798 145.264L99.6479 144.88C99.3748 141.613 99.2751 139.01 99.3773 136.964C99.4819 134.885 99.8155 133.557 100.11 133.269L100.603 132.794C104.884 128.742 107.31 128.336 111.69 129.714L112.576 130.002Z" fill="#00160A"/>
<path fill-rule="evenodd" clip-rule="evenodd" d="M125.543 80.3061C126.269 80.3061 127.005 80.3314 127.752 80.3813C131.962 80.6642 135.758 81.5406 141.943 83.4342L145.648 84.5772C152.094 86.5459 154.237 87.0079 157.109 87.0079C179.378 87.0079 190.858 94.5624 191.608 106.976C192.183 116.497 185.531 127.826 178.049 131.707C177.032 132.235 175.781 131.839 175.253 130.822C174.725 129.805 175.122 128.554 176.139 128.026C182.187 124.888 187.943 115.086 187.468 107.225C186.88 97.4706 177.613 91.2798 157.715 91.1571L156.747 91.153C153.461 91.1179 151.059 90.5742 144.161 88.4599L140.757 87.4085C134.847 85.5983 131.288 84.775 127.474 84.5191C126.819 84.475 126.175 84.4529 125.543 84.4529C99.1099 84.4529 73.0705 106.976 69.487 128.026C68.6154 133.145 74.1971 161.65 73.0705 161.855C71.9438 162.061 70.8638 161.314 70.6586 160.187L70.4158 158.836C68.0129 145.21 65.4203 132.906 66.9018 126.457C72.9012 100.348 97.1452 80.3061 125.543 80.3061Z" fill="#00160A"/>
<path fill-rule="evenodd" clip-rule="evenodd" d="M154.928 140.597C156.174 140.597 156.768 143.379 156.551 144.094C155.607 147.191 157.968 164.853 159.717 169.416L159.8 169.627C162.338 175.943 158.644 180.029 150.278 181.168C149.143 181.322 148.098 180.528 147.944 179.393C147.896 179.039 148.206 178.1 148.987 178.169C154.733 178.67 158.903 173.742 157.673 170.504L157.516 170.102C155.509 164.887 153.252 153.502 153.252 142.7C153.252 141.552 153.837 140.597 154.928 140.597Z" fill="#00160A"/>
<path fill-rule="evenodd" clip-rule="evenodd" d="M75.631 177.166C76.2287 178.616 75.743 193.128 83.3662 200.995C89.4246 207.247 96.3136 205.198 97.9308 203.261C98.7214 202.313 100.2 203.154 100.717 204.176C101.234 205.198 100.824 206.445 99.8022 206.962C94.5876 209.6 87.6439 208.621 83.3662 204.959C75.9352 198.599 74.3147 184.712 74.3147 179.785C74.3147 177.961 75.0988 175.873 75.631 177.166Z" fill="#00160A"/>
<path fill-rule="evenodd" clip-rule="evenodd" d="M161.903 159.041C162.626 157.952 163.685 157.824 164.758 158.27C165.803 158.704 166.831 159.823 167.167 160.576C167.662 161.695 167.669 163.524 167.269 165.264C166.861 167.047 166.038 168.705 165.149 169.454C164.303 170.159 163.593 170.444 162.835 169.325C159.942 165.054 161.625 159.46 161.903 159.041Z" fill="#00160A"/>
<path fill-rule="evenodd" clip-rule="evenodd" d="M129.527 163.174C129.213 162.021 129.234 156.057 131.488 156.057C134.839 156.057 135.267 162.264 134.837 163.517C132.413 170.579 129.841 164.327 129.527 163.174Z" fill="#00160A"/>
<path fill-rule="evenodd" clip-rule="evenodd" d="M158.238 98.9789C157.581 98.0722 160.176 97.7926 161.12 98.4393C169.03 103.855 173.093 109.033 173.023 114.198C172.953 119.27 168.838 124.936 160.859 131.471C159.973 132.197 158.666 132.067 157.94 131.18C157.215 130.294 168.309 123.169 168.876 114.141C169.443 105.114 159.471 100.681 158.238 98.9789Z" fill="#00160A"/>
<path fill-rule="evenodd" clip-rule="evenodd" d="M170.525 96.7854C170.188 95.3146 172.331 95.4062 173.337 95.9531C179.72 99.4189 183.006 104.792 183.006 111.813C183.006 118.69 178.355 124.681 171.34 131.619C170.525 132.424 169.213 132.417 168.408 131.602C167.602 130.788 179.731 122.292 179.731 110.042C179.731 97.7919 170.984 98.7828 170.525 96.7854Z" fill="#00160A"/>
<path d="M168.443 180.948C172.795 180.948 176.323 179.648 176.323 178.045C176.323 176.441 172.795 175.142 168.443 175.142C164.091 175.142 160.563 176.441 160.563 178.045C160.563 179.648 164.091 180.948 168.443 180.948Z" fill="#2156DA"/>
<path fill-rule="evenodd" clip-rule="evenodd" d="M159.981 143.073C161.856 142.403 164.444 142.816 167.825 144.202C168.4 144.439 168.959 144.747 169.569 145.15L169.992 145.444C170.778 146.003 172.115 147 172.375 147.182C173.224 147.778 173.997 148.246 174.831 148.649C175.627 149.034 176.925 149.389 178.696 149.692C179.374 149.807 179.829 150.45 179.714 151.127C179.598 151.804 171.897 150.716 170.946 150.049L168.987 148.616C168.646 148.368 168.352 148.157 168.198 148.056C167.713 147.735 167.29 147.502 166.88 147.335C164.12 146.202 162.119 145.858 160.946 146.205L160.819 146.245C158.369 145.642 159.334 143.305 159.981 143.073Z" fill="#00160A"/>
<path fill-rule="evenodd" clip-rule="evenodd" d="M98.4256 204.442C99.1745 204.156 100.013 204.531 100.3 205.281C101.192 207.622 101.718 212.771 101.871 214.135C102.021 215.461 102.021 216.759 101.87 218.028C101.776 218.824 101.054 219.393 100.258 219.299C99.4623 219.205 98.8933 218.484 98.9873 217.687C99.1108 216.642 99.1108 215.566 98.9865 214.459C98.8655 213.388 98.4003 208.448 97.5868 206.315C97.3014 205.566 97.6767 204.728 98.4256 204.442Z" fill="#00160A"/>
<path fill-rule="evenodd" clip-rule="evenodd" d="M98.9258 218.049C99.6796 217.188 102.219 215.755 101.852 217.853C101.485 219.952 96.231 222.392 96.231 226.43C96.231 232.424 98.5423 238.162 106.856 240.56C136.638 249.15 147.141 227.279 147.969 228.071C148.796 228.863 148.826 230.175 148.033 231.002C143.356 235.893 139.584 239.154 136.638 240.812C126.278 246.641 115.033 247.797 105.493 244.476C96.7682 241.44 90.6787 232.809 94.3023 224.338C94.8901 222.964 96.4035 220.933 98.9258 218.049Z" fill="#00160A"/>
<path fill-rule="evenodd" clip-rule="evenodd" d="M307.381 2.86235C308.319 2.20664 309.613 2.43637 310.267 3.37578C310.923 4.31438 309.863 5.66504 308.924 6.32074C305.796 8.50452 298.261 15.638 296.718 17.2715L295.235 18.8503C292.324 21.9857 257.642 58.0512 256.809 57.2647C256.045 56.5444 289.886 19.3327 292.424 16.6134L292.52 16.5104C294.919 13.9505 297.135 11.6432 299.255 9.50607C301.355 7.39015 304.062 5.17858 307.381 2.86235Z" fill="#E7EAEE"/>
<path fill-rule="evenodd" clip-rule="evenodd" d="M307.38 33.5514C308.319 32.8957 309.611 33.1254 310.267 34.0648C310.923 35.0034 310.693 36.296 309.753 36.9517C306.626 39.1355 257.844 88.3462 256.808 87.9546C255.772 87.5621 260.772 81.7155 260.772 81.7155C263.968 78.3716 292.52 48.0292 292.52 48.0292C294.918 45.4694 297.134 43.1613 299.255 41.0249C301.354 38.909 304.061 35.8684 307.38 33.5514Z" fill="#00160A"/>
<path fill-rule="evenodd" clip-rule="evenodd" d="M353.192 10.0285C353.967 9.18561 355.279 9.13082 356.122 9.9059C356.965 10.681 357.02 11.9924 356.245 12.8353C356.245 12.8353 261.92 120.06 261.061 117.076C260.589 115.435 300.256 67.7748 306.496 61.3502L308.227 59.6006C311.154 56.5624 325.641 39.9834 353.192 10.0285Z" fill="#00160A"/>
<path fill-rule="evenodd" clip-rule="evenodd" d="M135.494 140.662C137.204 140.449 140.161 140.741 143.405 141.76C144.497 142.103 145.105 143.268 144.762 144.36C144.418 145.453 143.254 146.061 142.162 145.717C139.41 144.852 137.287 144.409 135.848 144.372L135.494 144.371C134.99 144.383 134.621 144.471 133.192 145.017L131.042 145.857C128.984 146.669 127.468 147.146 125.789 147.423C123.896 147.733 121.039 147.607 117.117 147.074C115.982 146.919 114.042 145.573 115.341 144.739C116.641 143.906 122.136 144.815 124.713 144.36C127.289 143.906 132.18 141.076 135.494 140.662Z" fill="#00160A"/>
<path fill-rule="evenodd" clip-rule="evenodd" d="M46.8757 282.722C56.2142 282.559 60.1934 285.155 59.3341 285.995C59.3341 285.995 49.4143 285.24 46.8757 285.155C44.1924 285.066 31.9081 284.881 31.5704 283.787C31.4421 283.371 31.4502 282.945 31.5712 282.559C31.6972 282.155 34.1115 282.403 38.2861 282.59C40.6269 282.695 43.5211 282.781 46.8757 282.722Z" fill="#00160A"/>
<path fill-rule="evenodd" clip-rule="evenodd" d="M61.6396 332.889C61.6396 332.889 60.7999 372.476 66.4192 375.704C67.1959 376.15 67.1109 377.868 66.2573 378.632C65.4046 379.396 64.0932 379.323 63.3295 378.47C58.1656 372.702 56.8158 356.42 58.8565 332.456C58.9497 331.361 61.7369 331.747 61.6396 332.889Z" fill="#00160A"/>
<path fill-rule="evenodd" clip-rule="evenodd" d="M191.799 355.424L191.688 355.431L185.069 356.043C143.712 359.913 117.863 363.727 97.5513 367.49L95.6422 367.849C85.8418 369.725 77.7951 371.593 73.1185 373.479C67.2695 375.836 62.0066 378.648 63.8732 382.154C67.1264 388.264 73.9729 390.659 88.9699 392.319L90.5691 392.489C102.163 393.672 114.623 393.959 146.21 394.119L157.003 394.181C195.508 394.438 217.775 395.822 246.61 397.589L249.549 397.773C302.648 401.125 345.033 400.588 376.703 396.872L377.66 396.758C403.247 393.682 420.511 388.595 428.02 382.824C432.442 379.426 433.117 376.021 433.239 372.871C433.349 370.04 426.85 365.762 423.138 364.357C412.797 360.442 409.423 359.022 389.543 357.017C350.277 353.059 284.934 351.977 191.799 355.424ZM389.956 360.315L391.26 360.448C409.793 362.387 421.959 365.184 427.572 368.701L427.922 368.927C432.231 371.792 431.688 374.775 425.493 379.536C418.72 384.741 402.073 389.647 377.165 392.64C345.981 396.388 304.058 396.993 251.409 393.733L245.89 393.39C215.494 391.547 192.174 391.05 149.013 390.816L137.099 390.747C111.403 390.567 100.482 390.212 89.9379 389.082L88.9356 388.971C75.7176 387.46 68.4124 384.698 65.9646 380.368L65.8755 380.205C65.8289 380.118 65.8289 380.119 66.1837 379.759C66.8942 379.038 68.3528 378.199 70.5218 377.325L71.0835 377.104C75.7846 375.295 83.2149 373.441 93.3301 371.567L95.2457 371.218C115.439 367.591 145.554 363.904 185.568 360.161L192.003 359.567L197.497 359.366C287.539 356.139 351.709 356.458 389.956 360.315Z" fill="#00160A"/>
<path d="M295.615 319.903C294.857 347.533 292.694 365.937 289.014 372.376C285.9 377.824 275.445 379.674 262.194 378.778L257.422 378.431C250.943 377.946 247.329 377.592 243.845 377.053L243.371 376.979C237.764 376.084 234.066 374.846 231.992 372.835C224.341 365.417 220.285 348.982 219.51 323.381C219.476 322.236 222.511 323.29 223.656 323.255C223.893 323.248 237.583 324.899 256.427 324.021C267.601 323.5 295.615 319.903 295.615 319.903Z" fill="white"/>
<path fill-rule="evenodd" clip-rule="evenodd" d="M221.851 323.067C222.609 350.697 229.122 366.754 232.803 373.193C235.917 378.642 246.372 380.492 259.623 379.595L264.394 379.249C270.874 378.764 247.101 371.683 238.892 362.716C229.685 352.658 221.851 323.067 221.851 323.067Z" fill="#E7EAEE"/>
<path fill-rule="evenodd" clip-rule="evenodd" d="M227.456 331.624C227.611 330.49 229.009 328.548 229.791 329.851C230.572 331.153 230.922 334.313 232.548 338.347L235.996 345.033C236.301 345.79 236.578 346.491 236.839 347.167L236.993 347.57C238.55 351.654 239.504 354.046 239.843 356.764C239.985 357.901 239.178 358.936 238.042 359.079C236.906 359.22 235.87 358.414 235.727 357.277C235.439 354.966 235.395 352.015 233.947 348.218L233.644 347.43C233.437 346.897 233.216 346.341 232.978 345.751L230.583 339.931C230.169 338.912 229.849 338.103 229.567 337.353L229.341 336.742C228.479 334.372 227.29 332.839 227.456 331.624Z" fill="#00160A"/>
<path fill-rule="evenodd" clip-rule="evenodd" d="M172.863 201.483C171.586 202.453 173.146 203.822 173.645 205.313C173.759 205.653 173.904 206.004 174.095 206.413L174.329 206.9L174.858 207.954L175.077 208.4C175.313 208.89 175.479 209.274 175.613 209.64C176.024 210.772 175.985 211.282 175.599 211.627C173.421 213.571 171.107 214.871 166.673 216.835L164.224 217.907C156.843 221.168 151.919 223.332 149.142 227.747C145.48 233.572 146.457 241.921 149.011 254.081L149.131 254.645C149.621 256.91 148.68 261.049 148.004 267.32L147.954 267.771C147.678 270.277 147.321 273.084 146.832 276.645L144.884 290.467C144.149 295.753 143.601 299.959 143.127 304.076L142.947 305.666C141.521 318.541 141.11 328.666 141.935 336.888C142.652 344.022 146.83 354.227 151.759 359.103C159.003 366.268 166.202 362.874 172.716 348.06C175.627 341.439 177.427 335.224 178.287 328.906C179.436 320.46 178.965 311.848 176.96 300.231L176.752 299.05C175.381 291.52 169.391 263.773 168.675 260.254L168.444 259.133L166.922 252.041C166.824 251.578 166.734 251.14 166.645 250.71L166.362 249.305C165.102 242.902 164.666 238.653 165.14 235.903C165.185 235.644 165.404 235.263 165.852 234.779C166.55 234.025 167.658 233.174 169.29 232.123L170.017 231.665C171.544 230.724 175.181 228.559 175.206 228.544L175.988 228.066C183.666 223.314 187.276 219.589 187.276 214.317C187.276 209.079 185.066 205.075 181.479 202.686C178.495 200.7 174.739 200.057 172.863 201.483ZM177.045 206.376L176.332 204.943L176.252 204.926C177.181 205.086 178.225 205.503 179.18 206.138C181.629 207.769 183.13 210.487 183.13 214.317C183.13 217.593 180.236 220.557 173.775 224.557L172.645 225.243C171.539 225.901 168.515 227.708 167.468 228.367L167.38 228.421C165.298 229.743 163.851 230.836 162.809 231.961C161.862 232.984 161.252 234.042 161.053 235.197C160.438 238.761 160.976 243.612 162.48 251.044L162.863 252.893L164.259 259.381L165.041 263.135C166.641 270.709 171.578 293.691 172.709 299.996L172.746 300.205C174.792 311.815 175.286 320.211 174.178 328.347C173.371 334.271 171.679 340.115 168.92 346.39C165.941 353.167 162.946 356.963 160.19 358.127C158.131 358.998 156.066 358.349 153.847 356.155C149.67 352.024 145.86 342.715 145.233 336.474C144.441 328.599 144.843 318.724 146.241 306.109L146.417 304.551C146.907 300.292 147.478 295.93 148.259 290.344L149.96 278.306L150.325 275.638C150.688 272.936 150.973 270.673 151.204 268.61L151.351 267.269C152.011 260.991 152.12 256.75 151.568 253.973L151.526 253.768C149.038 242.264 148.775 234.803 151.824 229.954C153.983 226.52 157.508 224.699 163.892 221.855L166.738 220.608C171.526 218.486 174.12 217.024 176.701 214.721C178.609 213.019 178.779 210.777 177.852 208.224C177.641 207.645 177.394 207.086 177.045 206.376Z" fill="#00160A"/>
<path d="M177.045 206.375L176.332 204.942L176.252 204.925C177.18 205.085 178.225 205.502 179.18 206.138C181.629 207.768 183.13 210.486 183.13 214.316C183.13 217.592 180.236 220.556 173.775 224.557L172.645 225.242C171.539 225.901 168.515 227.708 167.468 228.366L167.38 228.42C165.298 229.742 163.851 230.835 162.809 231.961C161.862 232.984 161.252 234.041 161.053 235.197C160.438 238.76 160.976 243.611 162.48 251.043L162.863 252.893L164.258 259.38L165.041 263.134C166.641 270.709 171.578 293.69 172.709 299.995L172.746 300.204C174.792 311.814 175.286 320.21 174.178 328.346C173.371 334.27 171.679 340.114 168.919 346.39C165.94 353.166 162.946 356.962 160.19 358.126C158.131 358.997 156.066 358.348 153.847 356.154C149.67 352.023 145.86 342.715 145.233 336.473C144.441 328.598 144.843 318.723 146.241 306.109L146.417 304.55C146.907 300.291 147.478 295.93 148.259 290.343L149.96 278.306L150.325 275.637C150.688 272.935 150.973 270.672 151.204 268.61L151.351 267.268C152.011 260.99 152.12 256.749 151.568 253.973L151.526 253.767C149.039 242.263 148.775 234.802 151.824 229.953C153.983 226.52 157.508 224.698 163.892 221.854L166.738 220.607C171.526 218.485 174.121 217.023 176.701 214.72C178.608 213.018 178.779 210.776 177.851 208.224C177.641 207.644 177.393 207.085 177.045 206.375Z" fill="white"/>
<path fill-rule="evenodd" clip-rule="evenodd" d="M163.633 234.185C164.201 233.19 165.466 232.843 166.461 233.409C178.432 240.227 185.291 248.434 186.834 258.038C188.32 267.287 178.635 315.419 177.516 315.177C176.397 314.934 175.686 313.831 175.928 312.711L176.452 310.274C181.99 284.272 184.073 266.998 182.74 258.696C181.421 250.49 175.38 243.261 164.409 237.013C163.414 236.447 163.067 235.18 163.633 234.185Z" fill="#00160A"/>
<path fill-rule="evenodd" clip-rule="evenodd" d="M168.562 206.445C169.526 205.826 170.808 206.105 171.428 207.069C172.494 208.729 173.133 210.08 173.332 211.234C173.529 212.371 173.397 213.896 172.98 215.926C172.75 217.048 171.654 217.771 170.532 217.54C170.007 217.432 169.569 217.134 169.276 216.734C168.943 216.278 170.905 215.092 170.905 211.94C170.905 208.789 167.598 207.064 168.562 206.445Z" fill="#00160A"/>
<path fill-rule="evenodd" clip-rule="evenodd" d="M167.804 209.641C168.306 209.223 168.749 210.803 168.651 211.582C168.503 212.763 168.503 217.001 166.836 219.003C166.175 219.797 165.095 220.464 164.065 219.963C163.609 219.743 165.029 217.763 165.892 215.526C166.517 213.907 167.005 212.171 167.335 211.007C167.58 210.143 167.284 210.075 167.804 209.641Z" fill="#00160A"/>
<path fill-rule="evenodd" clip-rule="evenodd" d="M293.594 317.683C294.739 317.712 295.644 318.664 295.615 319.808L295.571 321.514C294.813 349.142 292.694 365.937 289.015 372.377C285.9 377.825 275.446 379.674 262.194 378.778L257.423 378.432C250.943 377.947 247.329 377.593 243.845 377.054L243.371 376.98C237.765 376.084 234.067 374.847 231.993 372.836C224.342 365.418 220.286 348.983 219.511 323.381C219.476 322.236 220.376 321.281 221.521 321.246C222.666 321.211 223.621 322.111 223.656 323.256L223.705 324.72C224.556 348.463 228.379 363.556 234.879 369.859L235.036 370.003C237.431 372.125 243.368 373.175 257.142 374.248L262.034 374.61L262.885 374.667C274.323 375.382 283.457 373.74 285.414 370.319C288.682 364.601 290.772 347.559 291.469 319.704C291.498 318.56 292.449 317.655 293.594 317.683Z" fill="#00160A"/>
<path fill-rule="evenodd" clip-rule="evenodd" d="M218.339 240.742C218.736 239.667 225.354 241.311 227.113 242.341C227.758 242.718 242.518 249.64 246.768 252.303C252.162 255.681 255.954 270.24 254.674 286.581C254.486 288.987 253.035 291.639 250.406 294.661C249.655 295.525 248.345 295.617 247.481 294.864C246.617 294.113 246.526 292.803 247.277 291.939C249.376 289.526 250.436 287.59 250.539 286.258L250.605 285.368C251.597 270.857 249.036 257.276 245.546 255.089L244.867 254.671C241.566 252.672 239.551 252.014 235.515 251.265C235.515 251.265 229.218 246.19 226.735 244.771C221.227 241.626 218.156 241.235 218.339 240.742Z" fill="#00160A"/>
<path fill-rule="evenodd" clip-rule="evenodd" d="M274.095 223.605C274.907 224.412 257.725 239.152 256.81 239.979C253.999 242.514 252.256 248.269 252.97 255.726L253.011 256.136C253.157 257.531 253.649 263.161 253.668 263.951L253.723 265.111C253.749 265.517 253.786 265.945 253.862 266.682L254.266 270.4C254.943 276.556 255.122 280.867 254.675 286.581C254.486 288.987 253.036 291.638 250.407 294.66C249.656 295.524 248.346 295.616 247.482 294.863C246.618 294.112 251.993 286.815 252.098 285.482C252.504 280.288 249.706 266.814 249.706 266.814C249.588 265.634 249.572 265.251 249.531 264.268C249.477 263.009 249.597 262.02 249.961 260.226L250.248 258.845C250.541 257.377 250.623 256.635 250.557 255.86L250.545 255.738C250.052 251.024 250.329 247.205 251.275 244.13C252.123 241.364 253.512 239.2 255.367 237.528C256.18 236.794 257.007 236.215 257.995 235.636L259.163 234.969C259.309 234.884 259.402 234.825 259.461 234.781L259.632 234.652C261.252 233.395 273.282 222.798 274.095 223.605Z" fill="#00160A"/>
<path fill-rule="evenodd" clip-rule="evenodd" d="M293.325 254.808C293.605 255.918 265.949 265.177 262.271 268.329C257.235 272.645 254.545 278.913 255.315 284.512L255.362 284.822C255.864 287.934 254.572 291.193 250.176 294.887C249.299 295.624 247.991 295.51 247.254 294.634C246.518 293.757 246.631 292.449 247.508 291.713C250.881 288.878 252.294 286.706 252.097 285.482C250.938 278.303 254.226 270.473 260.402 265.18C264.877 261.344 293.044 253.698 293.325 254.808Z" fill="#00160A"/>
<path fill-rule="evenodd" clip-rule="evenodd" d="M208.681 235.144C217.825 233.102 225.761 233.102 232.476 235.188C239.678 237.424 243.44 242.497 243.44 249.984C243.44 250.385 243.326 250.76 243.13 251.077L243.037 251.212L243.106 251.316C243.22 251.499 243.306 251.704 243.358 251.923L243.385 252.057C243.578 253.186 242.819 254.257 241.69 254.45L240.624 254.628C229.732 256.412 222.603 256.388 218.905 254.345C215.148 252.27 211.353 246.86 207.252 238.042C206.694 236.842 207.388 235.432 208.681 235.144ZM231.246 239.148C225.979 237.512 219.73 237.322 212.493 238.608L212.153 238.669L212.227 238.818C215.43 245.242 218.334 249.195 220.76 250.629L220.91 250.715C223.35 252.063 229.162 252.158 238.075 250.829L239.394 250.625L239.361 250.514C239.328 250.388 239.306 250.256 239.297 250.12L239.293 249.984C239.293 244.319 236.718 240.847 231.246 239.148Z" fill="#00160A"/>
<path fill-rule="evenodd" clip-rule="evenodd" d="M280.263 213.533C281.318 213.552 282.191 214.359 282.291 215.408C283.021 223.038 282.067 228.834 279.291 232.779C276.296 237.035 270.507 238.378 262.193 237.139C261.106 236.977 260.342 235.999 260.432 234.918L260.44 234.847L260.336 234.819C259.872 234.673 259.459 234.364 259.19 233.922L259.121 233.798C256.253 228.282 257.59 223.155 262.857 219.06C267.626 215.351 273.295 213.507 279.786 213.528L280.263 213.533ZM278.327 218.027L278.309 217.708H278.301C273.345 217.945 269.064 219.486 265.402 222.333C261.664 225.241 260.889 228.21 262.8 231.885C262.977 232.224 263.05 232.588 263.032 232.944L263.022 233.068L263.187 233.092C269.765 234.014 273.887 233.065 275.792 230.54L275.899 230.392C277.768 227.737 278.609 223.619 278.327 218.027Z" fill="#00160A"/>
<path d="M105.374 309.56C107.837 309.642 108.763 312.401 107.328 315.172C106.335 317.091 103.907 319.109 101.399 320.295C99.9672 320.973 98.3075 321.062 96.4605 320.596C95.7942 320.429 95.3903 319.752 95.5587 319.086C95.7263 318.42 96.4025 318.015 97.0688 318.184C98.3884 318.516 97.3615 316.686 97.2863 316.003C97.2111 315.32 97.7033 314.706 98.386 314.63C99.6377 314.491 100.292 313.844 100.927 313.409C101.105 313.287 101.337 313.044 101.664 312.636L102.033 312.158L102.161 311.989C103.564 310.125 104.113 309.559 105.246 309.557L105.374 309.56Z" fill="white"/>
<path fill-rule="evenodd" clip-rule="evenodd" d="M105.374 309.56C107.837 309.642 108.763 312.401 107.328 315.172C106.335 317.091 103.907 319.109 101.399 320.295C99.9672 320.973 98.3075 321.062 96.4605 320.596C95.7942 320.429 95.3903 319.752 95.5587 319.086C95.7263 318.42 96.4025 318.015 97.0688 318.184C98.3884 318.516 99.4635 318.458 100.335 318.046C102.392 317.073 104.411 315.396 105.118 314.029C105.526 313.241 105.613 312.625 105.489 312.256C105.463 312.176 105.434 312.124 105.402 312.093L105.369 312.067L105.326 312.101C105.29 312.129 105.25 312.164 105.205 312.205L105.135 312.273C104.927 312.481 104.738 312.71 104.369 313.194L103.872 313.851C103.263 314.648 102.838 315.117 102.332 315.463C101.322 316.154 100.287 316.923 98.6598 317.103C97.9772 317.179 97.3615 316.686 97.2863 316.003C97.2111 315.32 97.7033 314.706 98.386 314.63C99.6377 314.491 100.292 313.844 100.927 313.409C101.105 313.287 101.337 313.044 101.664 312.636L102.033 312.158L102.161 311.989C103.564 310.125 104.113 309.559 105.246 309.557L105.374 309.56Z" fill="#00160A"/>
<path fill-rule="evenodd" clip-rule="evenodd" d="M106.265 315.105C107.777 315.156 108.332 316.482 108.21 318.035C108.12 319.193 107.652 320.433 106.942 321.223C106.045 322.224 104.791 323.084 103.094 323.971L102.748 324.149C102.135 324.459 101.711 324.66 100.59 325.179C99.2153 325.815 97.3831 326.043 95.0791 325.902C94.3932 325.861 93.8715 325.27 93.9132 324.584C93.9549 323.899 94.5452 323.377 95.2312 323.419C97.1599 323.536 98.6029 323.357 99.5456 322.921L100.715 322.375C101.056 322.213 101.315 322.085 101.623 321.93C103.244 321.106 104.387 320.347 105.09 319.562C105.38 319.24 105.633 318.605 105.713 318.004L105.73 317.841L105.731 317.807L105.634 317.865C105.395 318.102 102.375 319.918 102.049 319.983C97.8009 320.828 98.5751 320.49 96.9481 320.67C96.2654 320.746 95.6498 320.254 95.5746 319.57C95.4993 318.888 95.9915 318.273 96.6742 318.197C97.1239 318.148 97.9701 318.95 98.9071 318.875C99.7075 318.812 101.691 317.793 101.691 317.793L102.545 317.08C102.757 316.904 102.94 316.754 103.117 316.615L103.536 316.29C104.619 315.476 105.418 315.077 106.265 315.105Z" fill="#00160A"/>
<path fill-rule="evenodd" clip-rule="evenodd" d="M101.914 327.221C103.601 326.606 104.986 328.117 105.635 329.56C106.339 331.125 105.475 332.505 103.84 333.516C102.733 334.201 101.227 334.723 100.104 334.849C98.5212 335.028 96.6391 334.499 94.4178 333.316C93.8111 332.993 93.5814 332.24 93.9043 331.634C94.2264 331.027 94.9803 330.797 95.5869 331.12C97.4052 332.088 98.8319 332.489 99.8253 332.377C100.582 332.291 101.736 331.891 102.532 331.399C102.928 331.155 104.619 329.56 102.766 329.56C102.067 329.56 101.269 329.172 101.171 328.816C101.074 328.461 101.269 327.457 101.914 327.221Z" fill="#00160A"/>
<path fill-rule="evenodd" clip-rule="evenodd" d="M125.604 300.936C125.874 300.799 126.281 301.036 126.315 301.323L126.316 301.385L126.219 302.363L129.091 300.935C129.239 300.855 129.478 300.906 129.658 301.048L129.723 301.105C129.886 301.268 129.915 301.462 129.798 301.567L129.747 301.601L125.936 303.418C125.628 303.552 125.2 303.315 125.189 303.03L125.193 302.967L125.052 302.363L122.133 303.417C121.832 303.541 121.462 303.352 121.441 303.085L121.442 303.022L121.38 302.277L117.803 303.419C117.467 303.545 117.124 303.332 117.177 303.056L117.194 302.995L117.243 302.277L114.374 303.294C114.043 303.422 113.726 303.244 113.774 302.979L113.791 302.917L113.955 302.176L111.31 302.929C110.998 303.038 110.731 302.893 110.766 302.655L110.781 302.595L111.065 301.77L108.946 302.277C108.716 302.331 108.534 302.25 108.508 302.093L108.506 302.031C108.522 301.857 108.697 301.674 108.913 301.593L108.996 301.568L111.654 300.914C111.92 300.846 112.121 300.991 112.095 301.207L112.081 301.269L111.852 302.006L114.708 300.933C115.006 300.816 115.282 300.995 115.246 301.255L115.232 301.316L114.907 302.304L118.08 300.939C118.382 300.801 118.711 301.014 118.678 301.295L118.665 301.357L118.325 302.411L121.843 300.933C122.112 300.813 122.449 301.003 122.484 301.268L122.485 301.331L122.409 302.429L125.604 300.936Z" fill="#2156DA"/>
<path d="M130.782 177.939C135.461 178.679 139.422 178.213 139.63 176.899C139.838 175.584 136.214 173.918 131.535 173.178C126.856 172.438 122.895 172.904 122.687 174.218C122.479 175.533 126.103 177.198 130.782 177.939Z" fill="#2156DA"/>
<path fill-rule="evenodd" clip-rule="evenodd" d="M63.1803 230.726L64.6764 233.872L68.0351 234.8L65.5055 237.196L65.6608 240.676L62.6006 239.011L59.3384 240.235L59.9769 236.809L57.8054 234.085L61.2597 233.633L63.1803 230.726Z" fill="#00160A"/>
<path fill-rule="evenodd" clip-rule="evenodd" d="M87.4176 224.917L88.4993 227.321L90.9422 228.021L89.0945 229.862L89.1983 232.525L86.9745 231.258L84.5961 232.203L85.0695 229.58L83.4956 227.501L86.0121 227.147L87.4176 224.917Z" fill="#00160A"/>
<path fill-rule="evenodd" clip-rule="evenodd" d="M104.005 274.684L105.087 277.087L107.53 277.788L105.682 279.629L105.786 282.291L103.562 281.025L101.184 281.969L101.657 279.346L100.083 277.267L102.6 276.913L104.005 274.684Z" fill="#00160A"/>
<path fill-rule="evenodd" clip-rule="evenodd" d="M176.167 258.095L177.249 260.499L179.692 261.199L177.843 263.04L177.948 265.703L175.724 264.436L173.346 265.38L173.819 262.758L172.245 260.678L174.762 260.324L176.167 258.095Z" fill="#00160A"/>
<path fill-rule="evenodd" clip-rule="evenodd" d="M69.169 337.721L70.2507 340.124L72.6937 340.826L70.8451 342.665L70.9498 345.328L68.7259 344.062L66.3467 345.007L66.8209 342.384L65.2471 340.305L67.7636 339.951L69.169 337.721Z" fill="#00160A"/>
<path fill-rule="evenodd" clip-rule="evenodd" d="M68.3993 359.288L69.7214 362.225L72.7072 363.082L70.4482 365.332L70.5749 368.586L67.8573 367.038L64.9499 368.192L65.5296 364.987L63.605 362.446L66.6816 362.013L68.3993 359.288Z" fill="#00160A"/>
<path fill-rule="evenodd" clip-rule="evenodd" d="M93.2811 346.847L94.6031 349.784L97.589 350.641L95.33 352.89L95.4575 356.145L92.7398 354.597L89.8325 355.752L90.4113 352.546L88.4875 350.005L91.5633 349.572L93.2811 346.847Z" fill="#00160A"/>
<path fill-rule="evenodd" clip-rule="evenodd" d="M126.458 336.893L127.78 339.831L130.765 340.689L128.507 342.937L128.634 346.192L125.916 344.644L123.009 345.798L123.588 342.593L121.664 340.052L124.74 339.618L126.458 336.893Z" fill="#00160A"/>
<path fill-rule="evenodd" clip-rule="evenodd" d="M77.2804 267.222L78.7774 270.368L82.1352 271.296L79.6056 273.691L79.7609 277.172L76.7007 275.506L73.4385 276.729L74.077 273.305L71.9055 270.58L75.3598 270.129L77.2804 267.222Z" fill="#00160A"/>
<path fill-rule="evenodd" clip-rule="evenodd" d="M81.4285 243.997L82.9255 247.143L86.2834 248.07L83.7538 250.467L83.9091 253.947L80.8489 252.282L77.5867 253.505L78.2252 250.08L76.0537 247.355L79.5088 246.904L81.4285 243.997Z" fill="#00160A"/>
<path fill-rule="evenodd" clip-rule="evenodd" d="M118.753 258.098L120.25 261.244L123.609 262.171L121.079 264.568L121.234 268.048L118.174 266.383L114.912 267.606L115.551 264.181L113.378 261.457L116.833 261.005L118.753 258.098Z" fill="#00160A"/>
<path fill-rule="evenodd" clip-rule="evenodd" d="M140.317 247.315L141.814 250.461L145.173 251.389L142.643 253.785L142.798 257.265L139.738 255.6L136.476 256.824L137.114 253.398L134.942 250.674L138.397 250.222L140.317 247.315Z" fill="#00160A"/>
<path fill-rule="evenodd" clip-rule="evenodd" d="M133.681 280.492L135.178 283.638L138.536 284.566L136.006 286.961L136.162 290.443L133.102 288.777L129.84 290L130.477 286.576L128.306 283.851L131.761 283.399L133.681 280.492Z" fill="#00160A"/>
<path fill-rule="evenodd" clip-rule="evenodd" d="M78.9376 291.275L80.4346 294.421L83.7924 295.349L81.2628 297.745L81.419 301.225L78.3587 299.56L75.0957 300.783L75.7343 297.358L73.5627 294.634L77.0179 294.182L78.9376 291.275Z" fill="#00160A"/>
<path fill-rule="evenodd" clip-rule="evenodd" d="M57.5854 254.778L58.9254 257.458L61.9154 258.256L59.6719 260.288L59.8199 263.248L57.0932 261.823L54.1949 262.855L54.7533 259.943L52.814 257.62L55.8856 257.245L57.5854 254.778Z" fill="#00160A"/>
<path fill-rule="evenodd" clip-rule="evenodd" d="M42.6577 272.196L43.9977 274.877L46.9876 275.675L44.7442 277.706L44.8922 280.667L42.1655 279.242L39.2671 280.274L39.8255 277.362L37.8862 275.039L40.9579 274.664L42.6577 272.196Z" fill="#00160A"/>
<path fill-rule="evenodd" clip-rule="evenodd" d="M151.438 228.71C151.479 229.854 150.509 230.812 149.364 230.783C143.644 230.638 142.734 220.801 143.282 220.761C144.042 220.707 145.34 225.379 147.894 227.081C149.842 228.379 151.327 225.556 151.438 228.71Z" fill="#00160A"/>
<path fill-rule="evenodd" clip-rule="evenodd" d="M276.961 249.091C290.448 244.592 302.055 244.424 311.712 248.679C313.491 249.464 313.311 252.045 311.44 252.573L310.728 252.778C307.95 253.601 306.013 254.41 304.97 255.145L304.759 255.3L304.674 255.366C303.888 255.981 303.047 256.783 301.943 257.953L298.605 261.575C298.449 261.741 298.314 261.885 298.209 261.996C293.723 266.709 289.825 269.463 284.793 270.665C277.903 272.311 270.59 271.511 262.905 268.31C262.289 268.052 261.862 267.532 261.7 266.934L261.697 266.917L261.587 266.87C260.845 266.51 260.367 265.728 260.422 264.871L260.435 264.735C261.363 257.614 267.006 252.411 276.961 249.091ZM304.103 250.55C296.7 248.936 288.101 249.746 278.274 253.024C270.231 255.708 265.827 259.463 264.728 264.263L264.666 264.549L264.982 264.679C271.549 267.328 277.678 267.998 283.411 266.729L283.83 266.632C287.8 265.684 291.026 263.458 294.855 259.501L295.383 258.948C296.285 257.987 298.409 255.659 298.671 255.38C300.031 253.923 301.071 252.918 302.123 252.097L302.351 251.922C302.883 251.521 303.531 251.134 304.295 250.756L304.524 250.645L304.103 250.55Z" fill="#00160A"/>
<path fill-rule="evenodd" clip-rule="evenodd" d="M307.381 0.373634C308.319 -0.282073 309.613 -0.0523255 310.267 0.887084C310.923 1.82568 309.863 3.17633 308.924 3.83203C305.796 6.01581 298.261 13.1493 296.718 14.7828L295.235 16.3616C292.324 19.497 257.642 55.5625 256.809 54.776C256.045 54.0557 289.886 16.844 292.424 14.1247L292.52 14.0216C294.919 11.4626 297.135 9.15453 299.255 7.01736C301.355 4.90143 304.062 2.68986 307.381 0.373634Z" fill="#00160A"/>
<path fill-rule="evenodd" clip-rule="evenodd" d="M303.176 138.128C299.378 141.569 300.153 153.059 305.098 173.281C305.33 174.229 306.523 174.539 307.188 173.824L308.014 172.931C316.429 163.757 321.259 156.58 322.507 151.283C323.275 148.028 322.497 145.874 319.904 145.874L319.74 145.878C318.186 145.941 316.051 146.884 313.223 148.7L312.84 148.948L312.833 148.917C311.866 144.289 310.763 141.038 309.48 139.118C307.745 136.522 305.393 136.12 303.176 138.128ZM307.441 140.481C308.656 142.301 309.794 145.905 310.79 151.228C310.955 152.103 311.968 152.518 312.699 152.007C316.214 149.549 318.69 148.327 319.904 148.327C320.417 148.327 320.579 148.774 320.12 150.721L320.063 150.954C318.902 155.49 314.667 161.871 307.358 170.004L306.944 170.463L306.693 169.389C302.732 152.307 302.221 142.303 304.823 139.947C305.888 138.981 306.509 139.087 307.441 140.481Z" fill="#2156DA"/>
<path fill-rule="evenodd" clip-rule="evenodd" d="M279.795 165.738C279.004 166.901 278.388 168.73 277.911 171.265L277.848 171.606L277.68 171.502L277.115 171.16C275.188 170.018 273.739 169.429 272.664 169.385C270.356 169.289 269.772 171.172 270.562 173.796C271.862 178.032 276.29 183.375 283.341 189.181C284.053 189.767 285.133 189.387 285.322 188.485L285.512 187.562C288.082 174.939 288.074 167.901 285.108 165.299L284.999 165.206C283.194 163.65 281.258 163.736 279.904 165.584L279.795 165.738ZM283.498 167.15C285.373 168.848 285.464 174.783 283.462 185.276L283.329 185.961L283.069 185.737C277.431 180.826 273.928 176.401 272.909 173.082L272.86 172.913C272.736 172.472 272.678 172.129 272.668 171.899L272.666 171.843L272.747 171.855C273.673 172.001 275.501 172.942 278.078 174.683C278.83 175.191 279.854 174.734 279.979 173.836L280.082 173.133C280.553 170.047 281.177 167.997 281.883 167.033C282.32 166.437 282.595 166.397 283.31 166.989L283.498 167.15Z" fill="#2156DA"/>
</g>
</svg>
