<svg width="97" height="60" viewBox="0 0 97 60" fill="none" xmlns="http://www.w3.org/2000/svg">
<path fill-rule="evenodd" clip-rule="evenodd" d="M71.5079 48.412C71.0487 48.9432 70.3705 49.3374 69.8502 49.8229C69.3038 50.333 68.7107 50.7788 68.1665 51.2826C65.7656 48.3483 62.4767 46.549 59.6276 44.1141C58.2768 42.9596 57.2817 41.3937 56.5534 39.7867C56.1801 38.9629 55.9042 38.1149 55.6884 37.2373C55.5912 36.842 55.4961 36.448 55.4326 36.0473C55.3556 35.562 55.3357 35.5206 55.0083 35.1419C54.8674 34.9789 54.5944 34.5027 54.3183 34.5552C54.086 34.5994 53.6611 35.3065 53.5143 35.4812C52.8083 36.3213 52.1238 37.1869 51.3805 37.9945C50.2433 39.2302 49.208 40.4462 48.1521 41.756C45.9922 44.4355 43.6623 46.9579 41.3112 49.4793C41.1369 49.6663 40.7303 50.2146 40.4798 50.2883C40.1752 50.3779 39.6801 50.0042 39.3734 49.7954C38.6329 49.2913 38.0493 48.6673 37.4163 48.0426C36.1811 46.8233 35.3446 45.1119 34.782 43.4835C34.4451 42.5088 34.2261 41.4983 33.8785 40.527C33.7336 40.1221 33.4052 39.6245 33.572 39.2719C33.6216 39.1668 33.9376 38.8875 34.049 38.8662C34.1808 38.8408 34.4005 39.0215 34.4462 39.009C34.8834 38.8893 34.6408 38.4317 34.9009 38.1855C35.0483 38.0458 35.7982 38.0662 36.0221 37.9894C36.8406 37.7086 37.575 37.173 38.3488 36.8533C41.5884 35.5149 44.8674 34.2129 47.6641 32.0273C48.3894 31.4606 48.8714 31.0347 49.7368 30.6684C50.6114 30.2982 51.4905 29.9679 52.3829 29.6449C53.1703 29.3599 53.9619 29.0927 54.7752 28.8885C55.6547 28.6676 56.9023 28.3874 57.7811 28.672C59.5068 29.2307 60.064 30.6526 60.7512 32.1526C61.681 34.1819 62.8052 36.1023 64.0239 37.9702C66.3685 41.5641 69.22 44.7891 71.5079 48.412Z" fill="#FF5678"/>
<path fill-rule="evenodd" clip-rule="evenodd" d="M19.5373 16.6398C19.4423 16.5916 18.7009 16.8934 18.5765 16.9396C18.0794 17.124 17.6112 17.4304 17.1429 17.6797C17.5018 18.1165 17.8608 18.5534 18.2196 18.9903C18.5714 18.1274 19.0235 17.4154 19.5373 16.6398ZM19.782 22.0086C19.6599 22.0223 20.6909 24.4998 20.8112 24.778C21.2493 25.7897 21.7093 26.7916 22.1532 27.8008C22.5833 28.7788 23.1288 29.6784 23.6785 30.5921C24.1486 31.3734 24.6322 32.586 25.3413 33.1647C24.8936 31.1782 24.9525 28.8942 23.6682 27.2262C22.3369 25.4971 21.0207 23.8086 19.782 22.0086ZM71.508 48.5003C69.5186 45.35 67.0283 42.563 64.9537 39.469C63.7921 37.7365 62.6615 35.9818 61.6838 34.1377C60.9726 32.7962 60.5305 30.8822 59.432 29.8567C58.948 29.4049 58.4308 28.9626 57.7812 28.7601C56.8923 28.4832 55.6683 28.7577 54.7754 28.9767C53.1113 29.3847 51.4857 30.0183 49.9095 30.6838C48.3107 31.3587 46.9466 32.571 45.5021 33.545C43.9525 34.59 42.2751 35.3512 40.539 36.0176C39.0273 36.5978 37.6825 37.4308 36.1789 38.0148C35.8792 38.1313 35.2678 38.1142 35.0164 38.266C34.7456 38.4294 34.8522 38.9119 34.5234 39.0899C34.3751 39.1702 34.3257 38.8791 34.2118 38.8838C34.0725 38.8896 33.9455 39.0531 33.8113 39.1566C33.2648 39.5783 33.5996 39.8594 33.816 40.4395C34.5213 42.3298 34.9003 44.253 35.8906 46.0376C36.7048 47.5044 37.8701 48.8188 39.242 49.7899C39.4508 49.9377 40.131 50.5103 40.376 50.4722C40.5965 50.438 41.0452 49.8518 41.1975 49.6926C41.8883 48.9701 42.5198 48.1929 43.2103 47.4693C44.2772 46.351 45.3043 45.2027 46.3397 44.0692C47.5417 42.7533 48.6055 41.2622 49.6881 39.8562C50.1861 39.2094 50.8271 38.6825 51.3806 38.0828C52.125 37.2763 52.8084 36.4093 53.5145 35.5694C53.728 35.3152 54.0859 34.6651 54.4179 34.6727C54.6505 34.6781 55.0607 35.2258 55.1824 35.3974C55.6346 36.0354 55.6326 37.1875 55.8575 37.9839C56.4063 39.9259 57.3959 41.8226 58.7531 43.3211C60.1027 44.8113 61.8315 45.871 63.4277 47.0688C65.157 48.3666 66.7952 49.6946 68.1666 51.3709C68.7108 50.867 69.3039 50.4212 69.8503 49.9112C70.3707 49.4255 71.0489 49.0314 71.508 48.5003ZM45.9 57.4128C46.2868 57.4168 46.9417 57.6547 47.2877 57.5115C46.2615 56.3759 45.319 55.4016 44.0205 54.5694C42.673 53.7058 41.3301 52.8499 40.0213 51.9288C37.3839 50.0724 35.444 47.8709 34.3423 44.7795C34.0586 43.9834 33.8686 43.1485 33.6606 42.3301C33.5488 41.8894 33.3261 39.8274 32.948 39.6494C32.724 39.5439 31.0383 40.7287 30.7712 40.8763C30.1468 41.2217 29.5199 41.4895 28.8743 41.7597C27.4866 42.3408 26.056 42.784 24.5844 43.1539C22.8201 43.5975 21.6183 42.8636 20.5253 41.4769C19.2853 39.9036 18.2549 38.1285 17.1212 36.4763C16.6056 35.7249 16.1785 34.9746 15.7977 34.1458C15.5485 33.6035 14.5601 32.1403 14.9017 31.5625C15.876 32.3043 16.2265 33.7793 16.8903 34.7725C17.7175 36.0104 18.6497 37.1775 19.4812 38.4142C20.1804 39.4541 20.8937 40.7143 21.9267 41.4619C22.8353 42.1194 23.6985 41.9173 24.6764 41.6218C25.8616 41.2637 27.0901 41.0872 28.2516 40.643C29.5086 40.1624 30.6978 39.4805 31.9242 38.9246C32.4959 38.6653 33.1804 38.518 33.7192 38.1948C34.1835 37.9164 34.1143 37.7694 34.1484 37.1766C34.1882 36.4849 34.2341 35.7927 34.2647 35.1004C34.2852 34.6353 34.0337 34.0046 34.2044 33.6574C32.8121 33.8988 31.4513 34.2221 30.0688 34.5081C29.3118 34.6646 28.5819 34.8582 27.8172 34.9813C27.5258 35.0281 27.1273 35.0268 26.8663 35.1538C26.6581 35.094 26.5519 35.132 26.5479 35.2678C26.5379 35.3415 26.5222 35.4142 26.5005 35.4856C26.0736 35.6798 25.8253 35.2633 25.455 34.8637C24.9981 34.3706 24.656 33.8153 24.3207 33.2358C23.5712 31.9403 22.7073 30.7219 22.0137 29.3899C21.3068 28.0321 20.7326 26.5783 20.1333 25.1695C19.5834 23.8771 19.2314 22.4793 18.6238 21.2174C18.3526 20.6542 18.009 20.1884 17.6077 19.7126C17.2765 19.3199 16.767 18.4729 16.2725 18.2925C16.1417 18.2448 15.7993 18.3249 15.6508 18.3144C15.3547 18.2932 15.0909 18.1845 14.7879 18.2083C14.1319 18.2597 13.4167 18.6745 12.8925 19.0392C13.2313 19.3412 14.0787 19.7082 13.47 20.2521C12.8793 20.7802 12.553 19.8329 12.3276 19.4179C11.2662 20.2896 11.4196 21.4914 11.297 22.723C11.2329 23.3659 11.0645 23.9992 10.9558 24.6325C10.8775 25.0883 10.9324 25.5597 10.91 26.0251C10.853 27.2076 10.7341 28.3395 10.7399 29.5055C10.746 30.7518 10.8309 31.9554 10.9307 33.1926C11.0985 35.2757 11.4831 37.3595 11.813 39.4259C11.9985 40.5875 12.2525 41.7161 12.499 42.8589C12.7788 44.1559 13.2965 45.3844 13.5867 46.6781C13.8825 46.3021 14.105 46.3003 14.5833 46.3501C14.9513 46.3884 15.1984 46.3009 15.1769 46.8116C15.163 47.1428 14.8707 47.3958 14.5474 47.4537C14.1258 47.529 13.9825 47.3186 13.7653 46.9993C13.7144 47.604 14.1211 48.2363 14.282 48.8269C14.4342 49.3866 14.535 49.9353 14.7908 50.471C15.0404 50.9936 15.2542 51.509 15.5067 52.0267C15.623 52.2648 15.7318 52.5067 15.8494 52.7442C15.9089 52.8644 15.979 53.0302 16.0677 53.1315C16.276 53.3691 16.2428 53.254 16.4865 53.3894C17.0174 53.6843 16.8181 53.6108 16.8305 54.2198C16.8426 54.8206 17.1506 55.262 17.6447 55.5996C18.6928 56.3162 19.7266 56.5155 20.9182 56.8775C22.0285 57.2149 23.1979 57.5043 24.3735 57.4977C25.8134 57.4897 27.2342 57.3009 28.674 57.2818C30.2626 57.2607 31.8663 57.2694 33.4516 57.3243C34.1046 57.3469 34.7111 57.3759 35.3416 57.5427C36.0737 57.7365 36.782 57.6596 37.5366 57.6302C39.1465 57.5676 40.8118 57.443 42.4007 57.4319C43.5447 57.4237 44.7517 57.3439 45.9 57.4128ZM87.6453 58.0369C87.9315 58.1881 88.5731 58.1261 88.8608 58.0841C89.3676 58.0102 89.4219 57.8093 89.7435 57.3573C90.297 56.579 90.7464 55.8337 91.0721 54.9321C91.6953 53.2067 91.9498 51.4414 92.2234 49.6365C92.5275 47.6309 91.9722 45.552 91.7735 43.56C91.7278 43.103 91.6654 42.6502 91.5932 42.1966C91.55 41.9254 91.5387 41.003 91.3603 40.7682C91.0174 40.3172 89.4232 40.681 88.7964 40.7219C87.0469 40.8361 85.2858 40.8629 83.537 40.8827C82.6046 40.8933 81.667 40.9323 80.7438 40.9395C80.3198 40.9429 79.9053 40.9218 79.4798 40.8806C79.3375 40.8668 79.1985 40.8341 79.0551 40.8262C78.5643 40.799 78.6012 40.7279 78.4743 41.1625C78.252 41.924 78.423 42.8929 78.3647 43.6833C78.2866 44.7394 78.2444 45.8105 78.2637 46.8689C78.2816 47.847 78.2483 48.8229 78.2848 49.8031C78.3 50.2091 78.3443 50.54 78.4514 50.9277C78.5725 51.366 78.7057 52.39 79.0072 52.6933C79.0415 52.7279 79.2978 52.6474 79.3658 52.7334C79.4707 52.8659 79.4515 53.1462 79.5234 53.2318C79.7564 53.5089 80.2378 53.5309 80.587 53.6554C81.5453 53.9972 82.4243 54.3682 83.3275 54.8289C84.1345 55.2406 85.4356 55.591 85.9207 56.4031C86.1432 56.7755 86.1732 57.2664 86.3778 57.6505C86.6107 58.0881 86.1446 57.8594 86.7153 58.0369C86.9723 58.1168 87.3819 58.0369 87.6453 58.0369ZM2.57078 53.0877C2.49818 54.0982 1.92892 55.0608 1.73076 56.0543C1.63804 56.5195 1.48075 56.9769 1.37176 57.4394C1.26724 57.8831 0.889632 58.4085 0.92786 58.8475C2.32158 58.351 3.73329 58.2261 5.18995 58.0922C6.57055 57.9652 8.02904 57.9147 9.39805 57.9141C10.7931 57.9134 12.2847 57.7771 13.7211 57.756C15.2233 57.7339 16.7482 57.695 18.2287 57.5392C17.4545 56.9659 16.4859 56.4274 15.9143 55.6297C15.2929 54.7626 14.9702 53.6761 14.4234 52.761C13.3261 50.9247 12.6286 48.6462 12.0534 46.5831C10.8922 42.4185 9.59458 38.3306 9.28184 34.0108C8.68665 34.3156 8.21418 35.4982 7.91618 36.087C7.53583 36.8389 7.33665 37.6539 7.08938 38.453C6.58021 40.099 6.22782 41.8057 5.60436 43.436C4.41277 46.5524 3.64687 49.9105 2.57078 53.0877ZM78.2261 28.8148C78.4838 30.6775 79.0243 32.5642 79.0451 34.4493C79.0497 34.864 78.9794 35.3246 79.0658 35.7335C79.1581 36.1701 79.4584 36.556 79.6317 36.971C79.9068 37.6296 80.6036 38.9796 79.9316 39.5377C79.918 39.0081 79.4334 38.3355 79.1892 37.8724C78.8213 37.1746 78.3378 36.5366 77.939 35.8561C77.104 34.4318 76.1685 33.038 75.0925 31.7823C74.0444 30.5592 72.8366 29.4743 71.7252 28.3096C71.3913 27.9597 68.7127 24.5916 68.6062 24.6387C69.4371 27.8428 70.8495 30.6306 72.7824 33.3133C73.7301 34.6285 74.8675 35.4939 76.0211 36.608C76.9818 37.5359 78.7925 38.528 78.4604 40.0483C79.9622 39.9039 81.4541 39.6732 82.9695 39.6732C82.7203 37.7552 82.5295 35.8675 82.0846 33.981C81.5794 31.8389 81.2373 29.6327 80.8099 27.4716C80.3737 25.2653 79.6339 23.1294 79.1736 20.9272C78.7328 18.8186 78.3542 16.7136 78.0311 14.5815C77.7641 15.7629 77.8626 17.0606 77.7679 18.266C77.6711 19.4975 77.6804 20.7064 77.7127 21.9452C77.7723 24.2461 78.0176 26.5193 78.2261 28.8148ZM84.7337 17.8446C84.7422 16.8598 84.933 15.8882 84.9919 14.9056C85.01 14.6042 85.3102 12.5474 85.0302 12.4401C84.7999 12.9421 84.7462 13.5846 84.5371 14.1114C84.3281 14.6376 84.0487 15.139 83.8482 15.6689C83.4138 16.8168 83.2639 18.1158 83.2172 19.3363C83.1113 22.0969 83.0566 24.8513 83.2422 27.6119C83.3217 28.7951 83.3827 29.9804 83.3609 31.166C83.3371 32.4706 83.1373 33.6029 83.3799 34.8968C83.62 36.178 83.7709 37.454 83.8509 38.754C83.907 39.6664 83.9296 39.6018 84.8001 39.5377C85.4286 39.4913 86.0632 39.5408 86.6925 39.5121C86.3983 35.956 86.3502 32.3926 85.8802 28.8501C85.6403 27.0429 85.6339 25.2096 85.336 23.4091C85.188 22.5146 84.9396 21.6382 84.7969 20.7428C84.6436 19.7814 84.7191 18.8135 84.7337 17.8446ZM21.0761 15.6067C22.7519 15.7519 24.5346 16.253 26.2523 15.9221C25.9692 15.8074 25.2282 15.6492 25.5617 15.1966C25.9007 14.7363 26.4721 15.3201 26.8103 15.2598C27.0188 15.2226 27.4796 14.351 27.6081 14.1705C27.8998 13.7604 27.935 13.6889 28.4595 13.5838C28.9677 13.4821 29.0829 13.5922 29.1472 13.087C29.2211 12.5061 29.0201 11.8529 29.0401 11.2588C29.0829 9.97991 29.4954 8.85837 29.8795 7.65508C28.2479 8.01002 26.6526 8.43094 24.9844 8.6597C24.2712 8.75751 23.1618 8.98312 22.5139 8.49835C22.3455 8.37228 22.3724 8.20208 22.2345 8.05597C22.0033 7.81084 21.5745 7.55727 21.2466 7.48742C19.2287 7.05786 19.0319 9.93447 20.0431 11.0109C20.2964 11.2806 20.6488 11.4138 20.9081 11.661C21.2543 11.9906 21.2827 12.3378 21.3332 12.841C21.428 13.7845 21.2993 14.7317 20.8967 15.5947L21.0761 15.6067ZM45.5633 29.1871C46.159 29.3001 46.7807 29.2743 47.3779 29.3708C47.5901 29.4051 48.2263 29.5246 48.4128 29.4006C48.6977 29.2112 48.799 28.5164 48.9337 28.1929C49.1706 27.6239 49.5058 27.1275 49.7317 26.5481C50.6549 24.1814 51.5158 21.8052 52.6323 19.5193C52.2044 19.4081 51.8758 19.4037 51.4445 19.3462C50.9952 19.2864 50.5879 19.0207 50.1593 18.9065C49.7519 18.798 49.325 18.8257 48.9214 18.6995C48.699 18.6301 48.5082 18.4756 48.289 18.4216C47.9396 18.3357 47.5317 18.2855 47.3239 18.5149C47.1109 18.7501 47.0362 19.3952 46.9203 19.6991C46.6116 20.5088 46.253 21.2901 45.9945 22.1183C45.7611 22.8653 45.5395 23.6044 45.3341 24.3582C45.1171 25.1539 44.6895 25.8098 44.429 26.57C44.2309 27.1486 44.0439 27.7402 44.0143 28.3571C43.9855 28.9591 43.8979 28.9974 44.4999 29.0936C44.8038 29.1421 45.2774 29.3227 45.5633 29.1871ZM84.7568 57.362C84.9119 57.4343 85.0583 57.4247 85.1955 57.3331C83.8504 56.765 82.542 55.977 81.1387 55.5872C79.8224 55.2217 78.5429 54.7849 77.2748 54.3347C76.2443 53.9689 75.3179 53.6841 74.3863 53.0403C73.8208 52.6495 73.3184 52.2101 72.9298 51.639C72.4972 51.0031 72.4009 50.0982 71.9324 49.5256C71.3 50.2201 70.5571 50.7461 69.8089 51.298C69.55 51.4889 68.9291 51.9052 68.8406 52.2006C68.7288 52.5735 69.0281 52.9301 69.1762 53.3074C69.5553 54.2737 69.7406 55.2395 69.9462 56.2441C70.0287 56.6467 70.2067 57.252 70.5375 57.4207C70.8386 57.5741 71.7108 57.4626 72.0855 57.4341C74.0407 57.2859 75.9612 57.1343 77.9281 57.2692C80.1539 57.4218 82.5368 57.5272 84.7568 57.362ZM88.6619 39.4563C89.0173 39.4576 89.3644 39.4131 89.7184 39.4131C89.514 38.4589 89.9918 37.2242 90.1612 36.2718C90.3507 35.2064 90.495 34.1046 90.6213 33.0307C90.8877 30.7686 91.0084 28.5339 91.0119 26.2553C91.0151 24.0503 91.4165 22.0354 91.9788 19.9157C92.5825 17.6393 93.5712 15.5921 94.3886 13.3967C93.492 13.8707 92.9956 14.9798 92.5244 15.8278C91.9288 16.8999 91.5321 18.087 91.2889 19.2906C90.8197 21.6125 90.305 23.9414 89.7636 26.2594C89.1999 28.673 88.8684 31.1088 88.2226 33.5026C87.9076 34.67 87.4794 36.1063 87.4556 37.3102C87.4457 37.8081 87.2956 38.8511 87.5214 39.2836C87.7324 39.6883 88.1991 39.4976 88.6619 39.4563ZM35.0248 36.4617C35.0061 36.7096 34.9884 36.9454 34.9444 37.1902C35.4365 37.1855 36.0599 36.6748 36.482 36.4455C36.9963 36.1662 37.5112 35.8582 38.0141 35.5775C38.9851 35.0353 40.0874 34.6782 41.1242 34.2328C42.3152 33.7212 43.4099 33.1031 44.5488 32.4871C44.9466 32.272 47.8059 31.0326 47.7579 30.694C47.1301 30.6731 46.5024 30.6523 45.8746 30.6314C45.3364 30.6135 44.5029 30.7351 43.9876 30.5688C43.7053 30.4776 43.3884 30.142 43.2819 29.8792C43.1764 29.6191 43.4134 28.4229 43.2757 28.3466C42.5731 29.0639 42.1313 30.0173 41.5032 30.7911C40.8091 31.6464 39.9121 32.1458 38.9236 32.6003C37.8319 33.1023 36.7021 33.4909 35.5864 33.9211C35.1159 34.1025 35.1252 34.2063 35.0843 34.7222C35.0384 35.2988 35.0434 35.8836 35.0248 36.4617ZM91.7523 58.1544C92.9357 58.2814 94.1484 58.209 95.3411 58.3081C95.775 58.3441 96.3766 58.3977 95.94 58.9801C95.6651 59.3469 94.7844 59.2293 94.3849 59.2547C93.3124 59.323 92.1768 59.2862 91.1018 59.2704C90.8755 59.2671 90.6254 59.1998 90.3966 59.215C90.1326 59.2324 89.8164 59.4223 89.5757 59.4209C89.4274 59.4199 89.3742 59.2635 89.2463 59.2491C88.9676 59.2178 88.6891 59.1949 88.408 59.195C84.1592 59.196 79.9687 59.1106 75.7304 59.106C73.7037 59.1038 71.6446 59.0689 69.6188 58.9737C69.1934 58.9537 66.7707 59.0407 66.8378 58.2747C66.8723 57.8802 67.663 57.8246 67.9515 57.7827C68.1654 57.7517 68.3872 57.7566 68.6014 57.7451C69.1706 57.7146 69.4199 57.8516 69.2998 57.2288C68.8444 54.8668 68.0284 52.9147 66.2849 51.2163C64.8593 49.8276 63.1427 48.5679 61.5279 47.4082C59.5673 46.0001 57.9767 44.5191 56.8127 42.3644C56.1329 41.1061 55.5638 39.8196 55.2146 38.4283C55.0889 37.9278 55.086 37.3585 54.9319 36.876C54.8135 36.5045 54.5434 36.2445 54.3844 35.8597C52.4338 39.1179 49.8483 41.8438 47.4778 44.7815C46.345 46.185 45.0529 47.518 43.6995 48.739C43.2979 49.1014 42.9232 49.4797 42.5483 49.8696C42.2347 50.196 41.737 50.486 41.4722 50.8481C41.2182 51.1954 41.2808 51.1788 41.6673 51.4547C42.1783 51.8191 42.7415 52.122 43.2605 52.4775C44.0902 53.0457 44.9957 53.5258 45.7375 54.2097C46.5398 54.9492 47.2408 55.8059 47.942 56.6398C48.4094 57.1957 49.0227 57.9089 49.1402 58.6117C49.1791 58.8442 49.327 59.4192 49.1319 59.5895C48.9651 59.735 48.9819 59.6798 48.7749 59.5911C48.5036 59.4747 48.4238 59.2079 48.0925 59.0807C47.2446 58.7553 46.2187 58.8671 45.3364 58.8631C44.4539 58.8591 43.5641 58.9583 42.682 58.9546C40.6677 58.9464 38.6963 59.1094 36.6825 59.197C34.5438 59.2899 32.3788 59.0668 30.2471 59.0985C28.6677 59.1218 27.0463 59.0038 25.4233 59.0915C24.5885 59.1366 23.7686 59.0322 22.9546 59.0205C21.8889 59.0051 20.7944 59.1501 19.7195 59.1707C17.9553 59.2048 16.2126 59.2046 14.4376 59.247C10.6196 59.3384 6.82229 59.4328 3.00207 59.4933C2.49249 59.5013 1.93462 59.484 1.43103 59.5413C0.896545 59.6023 1.17248 59.7159 0.805752 59.9084C-0.220931 60.4469 0.0161679 58.4505 0.0407725 58.0578C0.172743 55.9536 0.706927 53.8899 1.34888 51.8923C1.9579 49.9976 2.45233 48.0146 2.96811 46.079C3.5327 43.9604 4.26829 41.9286 4.93628 39.8309C5.62073 37.6814 6.178 35.448 7.42114 33.5426C7.7043 33.1087 7.99691 32.6417 8.4524 32.3681C8.963 32.0613 8.98496 32.2405 8.98455 31.6792C8.98425 31.1505 9.01678 30.4441 8.89203 29.9396C8.77927 29.4839 8.79666 29.7541 8.54279 29.4267C8.33619 29.1604 8.12003 28.9784 7.9718 28.6551C7.06122 29.5784 4.97684 29.0912 4.09708 28.4264C3.02027 27.6126 2.20008 26.2397 1.89954 24.9322C1.65817 23.8822 1.95434 21.8808 3.11645 21.3759C3.68297 21.1298 5.76379 20.9437 5.84705 20.1415C5.88996 19.7274 5.15762 19.1451 4.98864 18.7891C4.67549 18.1294 4.37474 17.252 4.28771 16.5289C4.11772 15.1175 4.75845 13.5392 5.77914 12.5859C7.65153 10.8369 10.946 9.93935 13.3545 11.049C12.8455 9.10472 12.5383 7.42744 12.7946 5.40498C13.0154 3.66263 14.0434 2.6878 15.458 1.81992C17.8719 0.338736 21.1545 -0.245878 23.9146 0.184805C24.5418 0.282715 25.1437 0.492667 25.7244 0.659714C26.5681 0.902405 27.5781 0.821577 28.3747 1.21589C28.9523 1.50169 29.3909 2.07105 29.8982 2.45121C30.4904 2.895 30.9825 3.5574 31.394 4.16997C32.2739 5.47991 31.9301 7.91109 31.1936 9.22601C31.0357 9.50805 30.8406 9.74546 30.5793 9.93792C30.3072 10.1382 29.8925 10.2005 29.7523 10.4603C29.3932 11.1258 29.7396 12.5663 29.7874 13.2856C29.8433 14.1207 29.421 14.748 28.4741 14.8146C27.9262 14.8533 27.9088 14.5354 27.6464 15.1894C27.4764 15.6133 27.322 16.075 27.0767 16.4636C26.5709 17.2645 25.6444 17.1863 24.8005 17.1647C23.8237 17.1395 22.8615 16.9851 21.8841 16.8877C22.1422 17.7148 22.8488 18.3568 23.2901 19.0936C23.8867 20.0902 24.2458 20.9163 24.3428 22.0774C24.4172 22.9694 24.2566 23.6739 23.6462 24.3378C23.3935 24.6126 23.1695 24.6262 23.2323 24.9432C23.2705 25.1366 23.6049 25.4556 23.7232 25.6099C24.0363 26.0183 24.3997 26.393 24.6753 26.8291C25.7355 28.5069 26.0487 31.0645 26.0513 33.0177C26.0514 33.1072 26.0992 33.2977 26.0596 33.3903C26.0304 33.4587 25.8079 33.6754 25.8047 33.694C25.7611 33.9451 26.006 34.3756 26.3902 34.4182C26.7937 34.4628 27.5328 34.1261 27.9081 34.0155C28.5088 33.8384 29.1211 33.7076 29.7204 33.5257C30.6885 33.232 31.652 32.9977 32.6361 32.7675C33.0808 32.6636 33.528 32.577 33.9741 32.4798C34.4823 32.3692 34.7183 32.1554 34.9806 32.6724C35.2056 33.1161 35.0658 33.1965 35.6108 32.9729C36.152 32.7508 36.6808 32.4754 37.2092 32.2247C38.1411 31.7827 39.251 31.3886 40.0549 30.7359C41.3958 29.6471 41.8924 27.9132 43.1758 26.7579C43.5332 26.4362 43.7464 26.4305 43.9723 25.9849C44.2142 25.508 44.3389 24.8963 44.466 24.3833C44.6888 23.4849 44.8473 22.5834 45.0493 21.6858C45.301 20.5676 45.8448 19.555 46.2416 18.4884C46.3963 18.0729 46.4764 17.5447 46.7258 17.1713C46.7919 17.0722 46.9182 17.0164 46.9697 16.9345C47.1471 16.6532 47.1453 16.5759 47.1912 16.2374C47.4063 14.6559 48.3503 15.4879 49.3819 15.8506C49.8165 16.0034 51.8804 16.9944 51.0923 17.6534C52.0317 17.926 53.5364 17.7778 53.5238 19.1242C53.5173 19.814 53.1047 20.552 52.8832 21.1977C52.6865 21.771 52.4964 22.3466 52.2966 22.919C51.8589 24.1729 51.3279 25.3893 50.9008 26.6471C50.7061 27.2203 50.5454 27.807 50.2743 28.348C50.0353 28.8252 49.4565 29.3513 49.3611 29.8732C51.8646 28.8051 54.1806 27.2609 56.9828 27.3593C58.2097 27.4023 59.3233 27.9181 60.0009 28.9969C60.8505 30.3492 61.4095 31.8632 62.2398 33.2279C65.2606 38.1925 68.8634 42.7026 72.1796 47.4617C72.4343 47.8274 72.7618 48.1732 72.8502 48.6251C72.9078 48.92 72.796 49.2149 72.8651 49.4982C73.0086 50.0869 73.7334 50.8218 74.2249 51.1601C75.167 51.8086 76.6985 52.7232 77.8741 52.6423C77.1363 50.8691 77.1461 48.9263 77.1804 47.0349C77.213 45.2382 77.4072 43.456 77.6377 41.6779C77.6899 41.2756 77.7353 40.9026 77.8509 40.5127C77.9836 40.0654 78.1658 40.1078 77.7684 39.7056C77.1567 39.0865 76.4292 38.577 75.8125 37.9501C74.4789 36.5944 73.112 35.5318 72.0623 33.9129C71.0641 32.3731 70.011 30.7887 69.2721 29.1025C68.5113 27.3666 68.2073 25.5128 67.8296 23.6745C67.6764 22.9286 67.1176 22.0958 67.2299 21.3167C67.3718 20.3323 67.8283 21.0491 68.0142 21.579C68.5813 23.1963 69.9092 24.6438 71.0091 25.9444C72.1975 27.3496 73.6509 28.5252 74.8913 29.8894C76.242 31.3753 77.1672 33.0828 78.3683 34.6689C78.3683 32.7005 77.6963 30.6962 77.4214 28.749C77.1795 27.0351 77.1035 25.3158 76.9506 23.5945C76.6034 19.6844 76.9035 15.6591 77.3908 11.777C77.6224 9.93325 77.491 8.13294 77.498 6.28292C77.5003 5.69413 77.2566 4.33712 77.5672 3.81463C78.1621 2.81387 78.5091 5.00215 78.5392 5.32842C78.719 7.27198 78.3964 9.19389 78.5612 11.1291C78.7334 13.15 79.1072 15.1142 79.4252 17.1118C79.7698 19.2747 80.3307 21.3887 80.8677 23.5101C81.4316 25.7374 81.9058 28.0112 82.5327 30.2208C82.7018 29.5262 82.4646 28.673 82.4177 27.9657C82.3508 26.9534 82.2202 25.941 82.2089 24.9261C82.1908 23.3086 82.1782 21.6611 82.2697 20.0511C82.3599 18.4642 82.3326 16.8014 82.8193 15.2725C83.0503 14.5469 83.3891 13.839 83.7206 13.1554C84.1295 12.3126 84.2741 11.4953 84.5005 10.5989C84.6945 9.83117 84.9783 9.08367 85.1076 8.3006C85.1879 7.81359 85.4121 6.37595 85.9696 7.46516C86.2934 8.09736 86.1535 9.03457 86.1625 9.71374C86.1741 10.5845 86.0408 11.4311 86.0204 12.2981C85.9806 13.9993 85.9521 15.6985 85.8252 17.3968C85.6921 19.1786 85.8083 20.7754 86.1473 22.5311C86.5183 24.4529 86.6269 26.3789 86.8191 28.3242C86.9182 29.3286 87.0854 30.3274 87.1661 31.3333C87.2088 31.8659 86.9898 33.3933 87.3715 33.7727C87.4084 32.8501 87.6728 31.9267 87.8731 31.0277C88.1105 29.9627 88.2064 28.8431 88.3814 27.7628C88.6648 26.0127 89.2146 24.3413 89.5784 22.6107C90.3282 19.0434 90.9513 14.4585 94.0937 12.1235C94.5049 11.8179 94.9567 11.5924 95.4012 11.341C95.6529 11.1987 96.0267 10.8304 96.3147 10.7661C96.6289 10.696 96.76 10.7505 96.8874 11.1151C97.065 11.6233 96.7402 11.8607 96.4369 12.2299C95.3873 13.5073 94.9389 15.1449 94.2909 16.643C92.8069 20.0735 92.1503 23.6918 92.1428 27.4C92.1388 29.3412 92.0049 31.2135 91.7979 33.1429C91.5751 35.2194 91.2818 37.4155 90.6509 39.413C91.2836 39.5549 91.9701 39.3434 92.1418 40.0789C92.184 40.2596 92.1078 40.4732 92.1544 40.7083C92.1998 40.9369 92.3089 41.1642 92.3735 41.389C92.5068 41.854 92.5774 42.3127 92.6423 42.7902C92.8931 44.6353 93.3238 46.3903 93.3696 48.2611C93.4118 49.9905 93.0733 51.7426 92.7613 53.4387C92.4471 55.147 91.5457 56.6032 90.8362 58.1481C91.1416 58.1481 91.4469 58.1513 91.7523 58.1544Z" fill="black"/>
<path fill-rule="evenodd" clip-rule="evenodd" d="M51.5914 54.2274C51.2548 54.3226 49.6302 54.5021 49.6305 55.0119C49.6307 55.3176 51.2532 55.3116 51.5403 55.3449C51.5574 54.9725 51.5744 54.5999 51.5914 54.2274ZM55.1774 57.7452C56.1136 57.9232 57.3844 57.6729 57.983 56.8475C58.2627 56.4619 58.3952 55.8753 58.4863 55.415C58.5734 54.9764 58.8417 53.8819 58.6591 53.4708C58.4349 52.9659 56.2838 53.4935 55.6574 53.5515C54.5645 53.6524 53.4345 53.6643 52.3409 53.593C52.3409 54.7221 52.2831 55.8226 52.9472 56.7945C53.4264 57.4958 54.3262 57.6613 55.1774 57.7452ZM54.9892 59.1399C53.972 58.7676 52.904 59.0096 52.2416 57.9175C52.0736 57.6404 51.932 57.3425 51.8304 57.0348C51.7807 56.9 51.742 56.7619 51.7146 56.6205C51.7663 56.3161 51.6548 56.2303 51.3801 56.3629C50.8409 56.2581 50.2497 56.6282 49.6817 56.5191C48.3043 56.2546 48.5545 54.2814 49.4789 53.5984C49.6615 53.4634 49.8439 53.4258 50.0529 53.3591C50.5137 53.2123 50.7631 53.3763 51.1846 53.3346C51.5252 53.301 51.6188 52.9438 51.9848 52.7865C52.2245 52.6836 52.5571 52.6916 52.8091 52.6812C54.1276 52.627 55.4502 52.6275 56.7771 52.5416C57.396 52.5015 58.0642 52.5995 58.6705 52.4938C58.9543 52.4442 58.9136 52.2553 59.1824 52.421C59.4607 52.5926 59.3405 53.2273 59.3265 53.4803C59.2452 54.9437 59.1581 56.5131 58.3742 57.7924C57.657 58.963 56.2457 59.0828 54.9892 59.1399Z" fill="black"/>
<path fill-rule="evenodd" clip-rule="evenodd" d="M1.2677 59.5433C1.59498 59.5398 1.92216 59.5363 2.24833 59.533C1.92064 59.5365 1.59417 59.5399 1.2677 59.5433Z" fill="black"/>
<path fill-rule="evenodd" clip-rule="evenodd" d="M92.1446 28.3424C92.144 28.028 92.1433 27.7137 92.1426 27.3999C92.1432 27.7145 92.1439 28.0284 92.1446 28.3424Z" fill="black"/>
<path fill-rule="evenodd" clip-rule="evenodd" d="M8.89294 29.6333C8.89193 29.9395 8.89091 30.2458 8.88989 30.5513C8.89081 30.2449 8.89182 29.939 8.89294 29.6333Z" fill="black"/>
<path fill-rule="evenodd" clip-rule="evenodd" d="M36.097 59.196C36.3574 59.1965 36.6178 59.1968 36.877 59.1975C36.6162 59.1972 36.3567 59.1967 36.097 59.196Z" fill="black"/>
<path fill-rule="evenodd" clip-rule="evenodd" d="M20.2867 59.1335C20.5471 59.1344 20.8074 59.1352 21.0666 59.1362C20.8058 59.1355 20.5463 59.1345 20.2867 59.1335Z" fill="black"/>
<path fill-rule="evenodd" clip-rule="evenodd" d="M77.2143 46.415C77.2029 46.6217 77.1913 46.8283 77.1799 47.0346C77.1914 46.8277 77.2029 46.6214 77.2143 46.415Z" fill="black"/>
<path fill-rule="evenodd" clip-rule="evenodd" d="M91.7527 58.1545C91.5515 58.1524 91.3503 58.1504 91.149 58.1482C91.3512 58.0639 91.5524 58.0677 91.7527 58.1545Z" fill="black"/>
<path fill-rule="evenodd" clip-rule="evenodd" d="M73.8872 59.0697C74.0317 59.0674 74.1761 59.0652 74.3191 59.0627C74.1743 59.0649 74.0308 59.0673 73.8872 59.0697Z" fill="black"/>
<path fill-rule="evenodd" clip-rule="evenodd" d="M92.0664 30.8931C92.07 30.7369 92.0735 30.5807 92.0771 30.425C92.0735 30.5814 92.07 30.7373 92.0664 30.8931Z" fill="black"/>
<path fill-rule="evenodd" clip-rule="evenodd" d="M78.5617 11.1289C78.5498 10.9678 78.5379 10.8067 78.5259 10.646C78.5379 10.8072 78.5498 10.9681 78.5617 11.1289Z" fill="black"/>
<path fill-rule="evenodd" clip-rule="evenodd" d="M92.1382 28.9581C92.1401 28.7965 92.142 28.6351 92.144 28.4741C92.142 28.6358 92.1401 28.7969 92.1382 28.9581Z" fill="black"/>
<path fill-rule="evenodd" clip-rule="evenodd" d="M46.7225 58.8694C46.8509 58.8713 46.9794 58.8731 47.1067 58.8748C46.978 58.8727 46.8502 58.8711 46.7225 58.8694Z" fill="black"/>
<path fill-rule="evenodd" clip-rule="evenodd" d="M79.7969 59.1331C79.9223 59.1355 80.0479 59.138 80.1722 59.1407C80.0463 59.1382 79.9216 59.1356 79.7969 59.1331Z" fill="black"/>
<path fill-rule="evenodd" clip-rule="evenodd" d="M93.3556 47.7751C93.3465 47.6334 93.3375 47.4918 93.3286 47.3503C93.3377 47.4921 93.3466 47.6336 93.3556 47.7751Z" fill="black"/>
<path fill-rule="evenodd" clip-rule="evenodd" d="M91.1023 59.2705C91.2045 59.2699 91.3067 59.2692 91.4076 59.269C91.3051 59.2698 91.2037 59.2702 91.1023 59.2705Z" fill="black"/>
<path fill-rule="evenodd" clip-rule="evenodd" d="M77.181 59.1392C77.2822 59.1367 77.3834 59.1342 77.4835 59.1318C77.3819 59.1344 77.2814 59.1368 77.181 59.1392Z" fill="black"/>
<path fill-rule="evenodd" clip-rule="evenodd" d="M54.4384 59.0618C54.5498 59.0612 54.6611 59.0606 54.7714 59.0598C54.6598 59.0604 54.5491 59.0611 54.4384 59.0618Z" fill="black"/>
<path fill-rule="evenodd" clip-rule="evenodd" d="M28.7545 59.0615C28.8604 59.0622 28.9663 59.063 29.071 59.064C28.9648 59.0634 28.8596 59.0624 28.7545 59.0615Z" fill="black"/>
<path fill-rule="evenodd" clip-rule="evenodd" d="M22.5076 59.0785C22.6155 59.0725 22.7233 59.0664 22.8303 59.0605C22.722 59.0666 22.6148 59.0725 22.5076 59.0785Z" fill="black"/>
<path fill-rule="evenodd" clip-rule="evenodd" d="M52.4198 17.9404C52.2591 17.9265 52.0985 17.9127 51.9379 17.8988C52.0987 17.9101 52.2688 17.8149 52.4198 17.9404Z" fill="black"/>
<path fill-rule="evenodd" clip-rule="evenodd" d="M93.3707 58.2153C93.2123 58.1994 93.0539 58.1833 92.8955 58.1672C93.054 58.1833 93.2123 58.1994 93.3707 58.2153Z" fill="black"/>
<path fill-rule="evenodd" clip-rule="evenodd" d="M82.3216 18.9155C82.311 19.0543 82.3002 19.1932 82.2897 19.3316C82.3003 19.1926 82.311 19.054 82.3216 18.9155Z" fill="black"/>
<path fill-rule="evenodd" clip-rule="evenodd" d="M92.1774 24.702C92.1881 24.5705 92.1989 24.4389 92.2097 24.3079C92.1989 24.4396 92.188 24.5708 92.1774 24.702Z" fill="black"/>
<path fill-rule="evenodd" clip-rule="evenodd" d="M82.2585 21.0686C82.2471 21.2072 82.2357 21.3457 82.2244 21.4837C82.2358 21.3451 82.2471 21.2068 82.2585 21.0686Z" fill="black"/>
<path fill-rule="evenodd" clip-rule="evenodd" d="M92.1106 30.0131C92.1096 29.8792 92.1086 29.7453 92.1077 29.6118C92.1941 29.7453 92.1906 29.8789 92.1106 30.0131Z" fill="black"/>
<path fill-rule="evenodd" clip-rule="evenodd" d="M77.2172 49.2427C77.216 49.3769 77.2149 49.5112 77.2135 49.6448C77.1248 49.5095 77.1425 49.3758 77.2172 49.2427Z" fill="black"/>
<path fill-rule="evenodd" clip-rule="evenodd" d="M87.3132 33.7148C87.2977 33.579 87.2822 33.443 87.2667 33.3076C87.2823 33.4437 87.2977 33.5793 87.3132 33.7148Z" fill="black"/>
<path fill-rule="evenodd" clip-rule="evenodd" d="M3.71241 21.2471C3.60738 21.3859 3.46433 21.2908 3.33948 21.3077C3.46392 21.2874 3.58817 21.2673 3.71241 21.2471Z" fill="black"/>
<path fill-rule="evenodd" clip-rule="evenodd" d="M55.646 52.6379C55.5133 52.6381 55.3806 52.6382 55.2479 52.6384C55.3807 52.6382 55.5133 52.638 55.646 52.6379Z" fill="black"/>
<path fill-rule="evenodd" clip-rule="evenodd" d="M76.8436 21.8171C76.856 21.93 76.8683 22.0429 76.8807 22.1553C76.8683 22.0422 76.856 21.9297 76.8436 21.8171Z" fill="black"/>
<path fill-rule="evenodd" clip-rule="evenodd" d="M11.2704 10.6086C11.137 10.6112 11.0036 10.6139 10.8702 10.6165C11.0022 10.5388 11.1352 10.5164 11.2704 10.6086Z" fill="black"/>
<path fill-rule="evenodd" clip-rule="evenodd" d="M82.2546 23.0208C82.2459 23.1391 82.2373 23.2573 82.2288 23.3752C82.2374 23.2568 82.2459 23.1388 82.2546 23.0208Z" fill="black"/>
<path fill-rule="evenodd" clip-rule="evenodd" d="M78.5967 8.49367C78.6071 8.38579 78.6173 8.27792 78.6276 8.17065C78.6172 8.27873 78.6071 8.3862 78.5967 8.49367Z" fill="black"/>
<path fill-rule="evenodd" clip-rule="evenodd" d="M77.5496 8.15552C77.5392 8.27254 77.5287 8.38967 77.5183 8.50629C77.5288 8.38906 77.5392 8.27224 77.5496 8.15552Z" fill="black"/>
<path fill-rule="evenodd" clip-rule="evenodd" d="M19.6058 0.337891C19.4701 0.354361 19.3344 0.370832 19.1987 0.387202C19.3345 0.370731 19.4701 0.354361 19.6058 0.337891Z" fill="black"/>
<path fill-rule="evenodd" clip-rule="evenodd" d="M9.80388 10.7019C9.66459 10.7161 9.5253 10.7304 9.38611 10.7446C9.5254 10.7304 9.66469 10.7161 9.80388 10.7019Z" fill="black"/>
<path fill-rule="evenodd" clip-rule="evenodd" d="M86.1307 11.0449C86.1393 10.936 86.1477 10.827 86.1562 10.7188C86.1477 10.8277 86.1392 10.9363 86.1307 11.0449Z" fill="black"/>
<path fill-rule="evenodd" clip-rule="evenodd" d="M5.23169 29.0161C5.31191 29.0173 5.39203 29.0184 5.47102 29.0197C5.3905 29.0184 5.3111 29.0173 5.23169 29.0161Z" fill="black"/>
<path fill-rule="evenodd" clip-rule="evenodd" d="M77.5522 42.4558C77.5441 42.5764 77.5361 42.6969 77.5281 42.8172C77.5362 42.6966 77.5442 42.5762 77.5522 42.4558Z" fill="black"/>
<path fill-rule="evenodd" clip-rule="evenodd" d="M85.7368 18.9896C85.7336 18.8734 85.7304 18.7573 85.7271 18.6414C85.7305 18.7577 85.7337 18.8736 85.7368 18.9896Z" fill="black"/>
<path fill-rule="evenodd" clip-rule="evenodd" d="M23.0233 0.062861C22.8996 0.062861 22.7759 0.0629626 22.6523 0.0629626C22.7761 -0.0220351 22.8997 -0.0198999 23.0233 0.062861Z" fill="black"/>
<path fill-rule="evenodd" clip-rule="evenodd" d="M56.058 27.415C55.9225 27.4185 55.7869 27.422 55.6516 27.4254C55.7847 27.3313 55.9203 27.3289 56.058 27.415Z" fill="black"/>
<path fill-rule="evenodd" clip-rule="evenodd" d="M67.9016 58.8645C67.9819 58.8661 68.0624 58.8679 68.1417 58.8698C68.0609 58.8683 67.9812 58.8663 67.9016 58.8645Z" fill="black"/>
<path fill-rule="evenodd" clip-rule="evenodd" d="M70.9265 59.006C71.0067 59.0032 71.0869 59.0003 71.166 58.9976C71.0855 59.0004 71.006 59.0033 70.9265 59.006Z" fill="black"/>
<path fill-rule="evenodd" clip-rule="evenodd" d="M23.5795 59.0618C23.6631 59.0639 23.7468 59.066 23.8294 59.0681C23.7454 59.0659 23.6624 59.0639 23.5795 59.0618Z" fill="black"/>
<path fill-rule="evenodd" clip-rule="evenodd" d="M93.2849 46.4304C93.273 46.3156 93.2611 46.2006 93.2491 46.0862C93.2611 46.2013 93.273 46.3159 93.2849 46.4304Z" fill="black"/>
<path fill-rule="evenodd" clip-rule="evenodd" d="M82.3572 27.0623C82.3667 27.1718 82.3762 27.2813 82.3855 27.39C82.3761 27.2804 82.3666 27.1713 82.3572 27.0623Z" fill="black"/>
<path fill-rule="evenodd" clip-rule="evenodd" d="M86.5636 25.1821C86.5506 25.066 86.5376 24.9499 86.5247 24.8342C86.5377 24.9504 86.5506 25.0662 86.5636 25.1821Z" fill="black"/>
<path fill-rule="evenodd" clip-rule="evenodd" d="M24.2573 59.1307C24.3417 59.1294 24.4262 59.1281 24.5097 59.127C24.4249 59.1284 24.3411 59.1295 24.2573 59.1307Z" fill="black"/>
<path fill-rule="evenodd" clip-rule="evenodd" d="M54.9889 59.14C55.071 59.1362 55.153 59.1326 55.2341 59.1289C55.1519 59.1327 55.0703 59.1363 54.9889 59.14Z" fill="black"/>
<path fill-rule="evenodd" clip-rule="evenodd" d="M85.8774 16.7038C85.8737 16.5861 85.87 16.4685 85.8663 16.3511C85.8701 16.4688 85.8738 16.5862 85.8774 16.7038Z" fill="black"/>
<path fill-rule="evenodd" clip-rule="evenodd" d="M16.2554 59.2076C16.3377 59.207 16.42 59.2063 16.5012 59.2058C16.4185 59.2065 16.337 59.2071 16.2554 59.2076Z" fill="black"/>
<path fill-rule="evenodd" clip-rule="evenodd" d="M85.8424 59.2065C85.927 59.2074 86.0117 59.2083 86.0953 59.2092C86.0102 59.2084 85.9263 59.2075 85.8424 59.2065Z" fill="black"/>
<path fill-rule="evenodd" clip-rule="evenodd" d="M87.6704 59.1963C87.7522 59.2021 87.8338 59.208 87.9145 59.2136C87.8325 59.2078 87.7514 59.2021 87.6704 59.1963Z" fill="black"/>
<path fill-rule="evenodd" clip-rule="evenodd" d="M88.4082 59.1951C88.4914 59.1975 88.5746 59.2001 88.6568 59.2019C88.5733 59.1993 88.4908 59.1972 88.4082 59.1951Z" fill="black"/>
<path fill-rule="evenodd" clip-rule="evenodd" d="M92.198 25.6484C92.1925 25.5327 92.1872 25.4169 92.1818 25.3015C92.1873 25.4174 92.1925 25.5329 92.198 25.6484Z" fill="black"/>
<path fill-rule="evenodd" clip-rule="evenodd" d="M36.3463 57.6782C36.5994 57.6651 36.8525 57.6519 37.1057 57.6387C36.8525 57.6519 36.5994 57.665 36.3463 57.6782Z" fill="black"/>
<path fill-rule="evenodd" clip-rule="evenodd" d="M21.0757 15.6069C21.2954 15.626 21.5151 15.6452 21.7346 15.6641C21.5149 15.6451 21.2953 15.6259 21.0757 15.6069Z" fill="black"/>
<path fill-rule="evenodd" clip-rule="evenodd" d="M83.1112 25.1592C83.118 25.3688 83.125 25.5785 83.1318 25.7875C83.1249 25.5778 83.118 25.3685 83.1112 25.1592Z" fill="black"/>
<path fill-rule="evenodd" clip-rule="evenodd" d="M87.6454 58.0371C87.8748 58.051 88.104 58.0649 88.3334 58.0788C88.1026 58.0893 87.8684 58.155 87.6454 58.0371Z" fill="black"/>
<path fill-rule="evenodd" clip-rule="evenodd" d="M86.2885 33.2386C86.2902 33.0386 86.2919 32.8386 86.2935 32.6392C86.2918 32.8393 86.2902 33.0389 86.2885 33.2386Z" fill="black"/>
<path fill-rule="evenodd" clip-rule="evenodd" d="M85.7009 39.522C85.9021 39.5246 86.1035 39.5274 86.3047 39.53C86.1033 39.5273 85.9021 39.5246 85.7009 39.522Z" fill="black"/>
<path fill-rule="evenodd" clip-rule="evenodd" d="M35.039 36.0059C35.0339 36.1583 35.0289 36.3107 35.0242 36.4624C35.0293 36.3098 35.0341 36.1579 35.039 36.0059Z" fill="black"/>
<path fill-rule="evenodd" clip-rule="evenodd" d="M89.0508 29.5522C89.0425 29.7039 89.0343 29.8555 89.0262 30.0064C89.0346 29.8546 89.0427 29.7034 89.0508 29.5522Z" fill="black"/>
<path fill-rule="evenodd" clip-rule="evenodd" d="M84.7565 57.362C84.9029 57.3521 85.0493 57.3422 85.1954 57.3328C85.0853 57.4209 84.9746 57.4282 84.7565 57.362Z" fill="black"/>
<path fill-rule="evenodd" clip-rule="evenodd" d="M83.7771 37.5361C83.7872 37.6996 83.7972 37.8631 83.8072 38.0261C83.7971 37.8625 83.7872 37.6993 83.7771 37.5361Z" fill="black"/>
<path fill-rule="evenodd" clip-rule="evenodd" d="M29.0353 11.7316C29.0368 11.5737 29.0383 11.4158 29.04 11.2585C29.0384 11.4166 29.0369 11.5741 29.0353 11.7316Z" fill="black"/>
<path fill-rule="evenodd" clip-rule="evenodd" d="M83.9545 39.5549L84.5001 39.543C84.3201 39.63 84.1382 39.6331 83.9545 39.5549Z" fill="black"/>
<path fill-rule="evenodd" clip-rule="evenodd" d="M88.9891 40.72C88.8604 40.7211 88.7318 40.7221 88.604 40.7234C88.733 40.7224 88.8611 40.7212 88.9891 40.72Z" fill="black"/>
<path fill-rule="evenodd" clip-rule="evenodd" d="M41.8662 57.4246C42.0443 57.4269 42.2225 57.4292 42.4006 57.4315C42.2211 57.5215 42.0428 57.5342 41.8662 57.4246Z" fill="black"/>
<path fill-rule="evenodd" clip-rule="evenodd" d="M8.31104 57.9499C8.49181 57.9337 8.67268 57.9175 8.85346 57.9014C8.67268 57.9175 8.49181 57.9337 8.31104 57.9499Z" fill="black"/>
<path fill-rule="evenodd" clip-rule="evenodd" d="M83.1743 26.5056C83.1832 26.6697 83.192 26.8338 83.2009 26.9974C83.192 26.8331 83.1832 26.6694 83.1743 26.5056Z" fill="black"/>
<path fill-rule="evenodd" clip-rule="evenodd" d="M25.4706 15.992C25.623 15.9169 25.7766 15.9043 25.9318 15.9839C25.7779 15.9867 25.6243 15.9894 25.4706 15.992Z" fill="black"/>
<path fill-rule="evenodd" clip-rule="evenodd" d="M78.1886 28.4006C78.2012 28.539 78.2138 28.6775 78.2264 28.8155C78.2137 28.6769 78.2012 28.5387 78.1886 28.4006Z" fill="black"/>
<path fill-rule="evenodd" clip-rule="evenodd" d="M91.0627 25.1707C90.9844 25.0353 90.9872 24.9006 91.0666 24.7671C91.0653 24.9018 91.064 25.0363 91.0627 25.1707Z" fill="black"/>
<path fill-rule="evenodd" clip-rule="evenodd" d="M83.1993 20.4692C83.1993 20.6062 83.1994 20.7432 83.1994 20.8798C83.1993 20.7425 83.1993 20.6059 83.1993 20.4692Z" fill="black"/>
<path fill-rule="evenodd" clip-rule="evenodd" d="M88.6616 39.4565C88.8185 39.4084 88.9754 39.3404 89.1315 39.4581C88.9749 39.4576 88.8183 39.457 88.6616 39.4565Z" fill="black"/>
<path fill-rule="evenodd" clip-rule="evenodd" d="M37.9675 57.6164C38.1254 57.6017 38.2832 57.587 38.441 57.5723C38.2832 57.587 38.1254 57.6017 37.9675 57.6164Z" fill="black"/>
<path fill-rule="evenodd" clip-rule="evenodd" d="M16.3271 57.6169C16.4717 57.5533 16.616 57.52 16.7584 57.6218C16.6146 57.62 16.4709 57.6185 16.3271 57.6169Z" fill="black"/>
<path fill-rule="evenodd" clip-rule="evenodd" d="M45.8999 57.4126C46.0545 57.3451 46.2088 57.308 46.3614 57.4174C46.2075 57.4158 46.0537 57.4143 45.8999 57.4126Z" fill="black"/>
<path fill-rule="evenodd" clip-rule="evenodd" d="M11.485 37.4111C11.4966 37.5507 11.5083 37.6903 11.5198 37.8295C11.5081 37.6898 11.4965 37.5505 11.485 37.4111Z" fill="black"/>
<path fill-rule="evenodd" clip-rule="evenodd" d="M47.3776 29.3709C47.5297 29.3156 47.6813 29.2867 47.8306 29.3791C47.6795 29.3763 47.5285 29.3736 47.3776 29.3709Z" fill="black"/>
<path fill-rule="evenodd" clip-rule="evenodd" d="M83.171 33.5259C83.1795 33.6623 83.1879 33.7988 83.1962 33.9349C83.1878 33.7984 83.1794 33.6621 83.171 33.5259Z" fill="black"/>
<path fill-rule="evenodd" clip-rule="evenodd" d="M11.3867 21.2144C11.3741 21.3243 11.3615 21.4343 11.349 21.5436C11.3616 21.4335 11.3741 21.324 11.3867 21.2144Z" fill="black"/>
<path fill-rule="evenodd" clip-rule="evenodd" d="M2.57052 53.0876C2.5627 53.1947 2.55497 53.3017 2.54724 53.408C2.55527 53.3009 2.5629 53.1942 2.57052 53.0876Z" fill="black"/>
<path fill-rule="evenodd" clip-rule="evenodd" d="M86.3555 34.2481C86.3469 34.1375 86.3384 34.0269 86.3298 33.9167C86.3384 34.0276 86.3469 34.1379 86.3555 34.2481Z" fill="black"/>
<path fill-rule="evenodd" clip-rule="evenodd" d="M75.2778 57.2065C75.4134 57.2075 75.5489 57.2085 75.6843 57.2094C75.5488 57.2085 75.4133 57.2075 75.2778 57.2065Z" fill="black"/>
<path fill-rule="evenodd" clip-rule="evenodd" d="M34.9875 36.9473C35.0128 37.0278 35.0381 37.1084 35.0634 37.189C34.8944 37.2299 34.8691 37.1493 34.9875 36.9473Z" fill="black"/>
<path fill-rule="evenodd" clip-rule="evenodd" d="M45.1501 29.1887C45.2878 29.1881 45.4255 29.1876 45.5631 29.187C45.4257 29.2523 45.2881 29.2971 45.1501 29.1887Z" fill="black"/>
<path fill-rule="evenodd" clip-rule="evenodd" d="M11.5623 38.0723C11.5669 38.1943 11.5716 38.3164 11.5761 38.438C11.5713 38.3159 11.5667 38.1941 11.5623 38.0723Z" fill="black"/>
<path fill-rule="evenodd" clip-rule="evenodd" d="M13.0182 57.7501C13.1511 57.75 13.2839 57.7499 13.4167 57.7498C13.2838 57.7499 13.1511 57.75 13.0182 57.7501Z" fill="black"/>
<path fill-rule="evenodd" clip-rule="evenodd" d="M78.5226 39.3586C78.5275 39.471 78.5324 39.5833 78.5374 39.6951C78.5326 39.5824 78.5276 39.4706 78.5226 39.3586Z" fill="black"/>
<path fill-rule="evenodd" clip-rule="evenodd" d="M10.1978 57.8871C10.3284 57.8004 10.4594 57.8079 10.5905 57.8857C10.4596 57.8862 10.3286 57.8867 10.1978 57.8871Z" fill="black"/>
<path fill-rule="evenodd" clip-rule="evenodd" d="M13.6384 19.645C13.6454 19.7597 13.6526 19.8745 13.6599 19.9885C13.6529 19.8736 13.6456 19.7593 13.6384 19.645Z" fill="black"/>
<path fill-rule="evenodd" clip-rule="evenodd" d="M9.5177 57.8992C9.65353 57.8997 9.78937 57.9003 9.9251 57.9009C9.78886 57.9936 9.65313 57.998 9.5177 57.8992Z" fill="black"/>
<path fill-rule="evenodd" clip-rule="evenodd" d="M84.7336 17.8447C84.7348 17.7282 84.7358 17.6118 84.7368 17.4956C84.7357 17.6122 84.7347 17.7284 84.7336 17.8447Z" fill="black"/>
<path fill-rule="evenodd" clip-rule="evenodd" d="M22.3727 15.8071C22.5026 15.8241 22.6326 15.8411 22.7624 15.858C22.6325 15.841 22.5025 15.8241 22.3727 15.8071Z" fill="black"/>
<path fill-rule="evenodd" clip-rule="evenodd" d="M10.9072 25.8625C10.909 25.9713 10.9107 26.0802 10.9127 26.1885C10.911 26.0795 10.9092 25.971 10.9072 25.8625Z" fill="black"/>
<path fill-rule="evenodd" clip-rule="evenodd" d="M85.608 25.8466C85.6009 25.7358 85.5938 25.625 85.5867 25.5146C85.5938 25.6257 85.601 25.7362 85.608 25.8466Z" fill="black"/>
<path fill-rule="evenodd" clip-rule="evenodd" d="M55.3022 57.769C55.4626 57.7836 55.6229 57.7981 55.7832 57.8126C55.6228 57.798 55.4626 57.7836 55.3022 57.769Z" fill="black"/>
<path fill-rule="evenodd" clip-rule="evenodd" d="M54.7671 53.6187C54.6804 53.6201 54.5938 53.6214 54.5079 53.6232C54.5949 53.6221 54.681 53.6204 54.7671 53.6187Z" fill="black"/>
<path fill-rule="evenodd" clip-rule="evenodd" d="M54.7745 57.7056C54.9089 57.7188 55.0436 57.7321 55.178 57.7453C55.0435 57.732 54.9089 57.7188 54.7745 57.7056Z" fill="black"/>
<path fill-rule="evenodd" clip-rule="evenodd" d="M30.5746 48.6498C30.7496 49.6385 29.2131 50.6054 29.0913 49.2C29.0468 48.686 29.3904 48.3247 29.7753 48.0105C30.3214 47.5647 30.6266 47.9916 30.5746 48.6498Z" fill="black"/>
<path fill-rule="evenodd" clip-rule="evenodd" d="M13.638 36.5879C13.9999 36.736 16.7653 37.6371 15.3289 38.0904C14.9487 38.2104 14.3739 38.2283 14.0443 38.0169C13.6478 37.7625 13.2478 37.0119 13.638 36.5879Z" fill="black"/>
<path fill-rule="evenodd" clip-rule="evenodd" d="M14.3194 23.1991C15.2581 23.0901 16.1229 24.6318 14.9656 24.5818C14.1233 24.5453 12.9905 23.1991 14.3194 23.1991Z" fill="black"/>
<path fill-rule="evenodd" clip-rule="evenodd" d="M17.6774 26.9792C18.4612 27.6631 17.0084 29.1936 16.4316 28.6012C16.1371 28.2986 16.4088 27.6468 16.6519 27.3937C16.9014 27.1339 17.3453 27.0851 17.6774 26.9792Z" fill="black"/>
<path fill-rule="evenodd" clip-rule="evenodd" d="M20.0098 44.7077C19.5471 44.7812 17.5122 45.4461 17.9366 44.2384C18.0985 43.7778 18.5499 43.9144 18.9626 43.9356C19.6277 43.9696 20.0098 43.9377 20.0098 44.7077Z" fill="black"/>
<path fill-rule="evenodd" clip-rule="evenodd" d="M18.6695 47.8186C19.3622 48.1892 18.3497 50.2631 17.7755 49.8218C16.9789 49.2096 18.0685 48.0049 18.6695 47.8186Z" fill="black"/>
<path fill-rule="evenodd" clip-rule="evenodd" d="M21.6914 46.1513C22.0282 46.0137 23.6161 47.5411 23.0116 47.9659C22.7018 48.1837 22.1149 47.8104 21.9281 47.5853C21.5779 47.1631 21.5462 46.6424 21.6914 46.1513Z" fill="black"/>
<path fill-rule="evenodd" clip-rule="evenodd" d="M12.5309 33.6675C12.8752 33.724 13.4696 33.7419 13.4918 34.2257C13.5114 34.6509 12.9783 34.7886 12.603 34.822C12.2136 34.8565 11.6982 34.7466 11.6907 34.2571C11.6829 33.7289 12.5187 33.7607 12.5309 33.6675Z" fill="black"/>
<path fill-rule="evenodd" clip-rule="evenodd" d="M21.019 54.7188C21.3857 54.9413 23.0958 55.7427 22.3627 56.3216C22.0884 56.5383 21.2568 56.0908 21.0697 55.8634C20.8463 55.5919 20.628 54.956 21.019 54.7188Z" fill="black"/>
<path fill-rule="evenodd" clip-rule="evenodd" d="M25.7741 48.9038C25.7212 48.0193 27.2135 47.6672 26.9041 48.9227C26.8169 49.2768 26.7325 49.8141 26.2948 49.8346C25.7775 49.8589 25.7588 49.2469 25.7741 48.9038Z" fill="black"/>
<path fill-rule="evenodd" clip-rule="evenodd" d="M21.1631 33.5219C21.1734 34.193 19.8877 34.7847 19.8777 33.7211C19.8689 32.7707 21.2111 32.4925 21.1631 33.5219Z" fill="black"/>
<path fill-rule="evenodd" clip-rule="evenodd" d="M20.3144 30.0271C20.6312 30.1292 21.0522 30.1817 21.0801 30.5843C21.1096 31.0103 20.7139 31.1999 20.3579 31.176C20.0659 31.1564 19.6338 30.9402 19.5807 30.6234C19.5029 30.1584 19.9568 30.128 20.3144 30.0271Z" fill="black"/>
<path fill-rule="evenodd" clip-rule="evenodd" d="M14.423 42.3124C14.4176 41.7587 15.5273 41.0933 15.7316 41.7358C15.797 41.9413 15.274 42.8632 15.1 42.9322C14.6398 43.1149 14.5755 42.6891 14.423 42.3124Z" fill="black"/>
<path fill-rule="evenodd" clip-rule="evenodd" d="M23.5165 51.5284C23.1415 51.864 22.0167 52.8068 22.1008 51.5412C22.1545 50.7327 23.6154 50.7749 23.5165 51.5284Z" fill="black"/>
<path fill-rule="evenodd" clip-rule="evenodd" d="M41.8423 55.1456C41.9652 54.6134 43.725 55.5366 43.1377 56.2088C42.9407 56.4344 42.4253 56.2302 42.2271 56.0965C41.835 55.8319 41.8264 55.5876 41.8423 55.1456Z" fill="black"/>
<path fill-rule="evenodd" clip-rule="evenodd" d="M32.0374 43.7544C32.106 43.5172 32.1822 43.0977 32.4086 42.9463C32.8181 42.6724 33.1747 43.0855 33.1748 43.521C33.1749 44.3334 32.2502 44.5896 32.0374 43.7544Z" fill="black"/>
<path fill-rule="evenodd" clip-rule="evenodd" d="M27.6758 53.2522C28.1327 53.3569 29.1501 54.4676 28.5601 54.9206C27.9922 55.3567 27.237 53.584 27.6758 53.2522Z" fill="black"/>
<path fill-rule="evenodd" clip-rule="evenodd" d="M28.111 44.8455C28.6985 44.8923 29.5059 45.8437 28.5928 45.9949C27.8786 46.1132 27.0479 45.0785 28.111 44.8455Z" fill="black"/>
<path fill-rule="evenodd" clip-rule="evenodd" d="M33.4297 49.2232C33.577 48.7269 35.034 49.2587 34.9521 49.8051C34.9086 50.0955 34.3129 50.1638 33.9998 50.087C33.5388 49.9738 33.4191 49.6715 33.4297 49.2232Z" fill="black"/>
<path fill-rule="evenodd" clip-rule="evenodd" d="M16.2555 21.5065C16.2661 20.865 17.4988 20.6035 17.5891 21.25C17.6708 21.8341 16.24 22.4556 16.2555 21.5065Z" fill="black"/>
<path fill-rule="evenodd" clip-rule="evenodd" d="M33.0221 55.8336C33.111 55.511 33.1493 55.1227 33.5522 55.0802C34.0136 55.0315 34 55.3853 33.9458 55.7519C33.7982 56.7494 33.2345 56.7993 33.0221 55.8336Z" fill="black"/>
<path fill-rule="evenodd" clip-rule="evenodd" d="M13.5539 29.1397C12.9112 29.2847 11.7342 28.0469 12.4536 27.7814C12.9606 27.594 13.5539 28.7663 13.5539 29.1397Z" fill="black"/>
<path fill-rule="evenodd" clip-rule="evenodd" d="M21.751 38.7543C21.424 38.9083 21.3486 39.0018 21.0974 38.749C20.8786 38.5289 20.8882 37.9156 21.076 37.6866C21.7953 36.8098 21.7784 38.3995 21.751 38.7543Z" fill="black"/>
<path fill-rule="evenodd" clip-rule="evenodd" d="M24.4199 36.9758C24.761 37.0192 25.7745 37.9807 25.2468 38.3627C24.6 38.8308 24.2341 37.3644 24.4199 36.9758Z" fill="black"/>
<path fill-rule="evenodd" clip-rule="evenodd" d="M31.7999 37.2289C31.5519 38.1837 30.933 37.5412 30.9681 36.8187C31.0244 35.6615 31.6658 36.6694 31.7999 37.2289Z" fill="black"/>
<path fill-rule="evenodd" clip-rule="evenodd" d="M35.5624 52.5637C35.9819 52.7373 36.5513 54.3408 35.9521 54.4269C35.2792 54.5233 35.5033 52.8976 35.5624 52.5637Z" fill="black"/>
<path fill-rule="evenodd" clip-rule="evenodd" d="M30.3238 51.663C30.8038 51.501 30.9797 52.5136 30.7007 52.7017C30.0869 53.1155 30.2164 51.9019 30.3238 51.663Z" fill="black"/>
<path fill-rule="evenodd" clip-rule="evenodd" d="M25.774 48.9038C25.7679 49.0382 25.7619 49.1726 25.7556 49.3062C25.7616 49.1716 25.7677 49.0377 25.774 48.9038Z" fill="black"/>
<path fill-rule="evenodd" clip-rule="evenodd" d="M41.8423 55.1455C41.8373 55.2834 41.8323 55.4211 41.8271 55.5583C41.8319 55.4202 41.8371 55.2829 41.8423 55.1455Z" fill="black"/>
<path fill-rule="evenodd" clip-rule="evenodd" d="M33.4288 49.2229C33.4262 49.3398 33.4233 49.4567 33.4203 49.573C33.4229 49.4557 33.426 49.3393 33.4288 49.2229Z" fill="black"/>
<path fill-rule="evenodd" clip-rule="evenodd" d="M86.5218 47.2108C87.517 47.1789 88.6272 46.8043 89.605 46.9235C89.8743 46.9563 90.494 47.0241 90.0627 47.4234C89.8564 47.6143 88.8688 47.5156 88.5699 47.579C86.7428 47.9658 84.6687 48.2153 82.7951 48.1831C81.9181 48.168 81.0346 48.0978 80.158 48.0514C79.282 48.0051 79.1959 47.6491 80.1816 47.5358C81.2053 47.4183 82.2558 47.4619 83.2846 47.4607C84.3662 47.4593 85.4424 47.283 86.5218 47.2108Z" fill="black"/>
<path fill-rule="evenodd" clip-rule="evenodd" d="M88.7063 44.8132C88.6105 45.0859 88.5264 45.7118 88.1594 45.7528C87.6453 45.8103 87.5602 44.9277 87.5792 44.6049C87.6021 44.2152 87.7423 43.568 88.2266 43.703C88.6356 43.8169 88.6766 44.5014 88.7063 44.8132Z" fill="black"/>
<path fill-rule="evenodd" clip-rule="evenodd" d="M85.5953 44.6136C85.6705 44.3216 85.7074 43.6632 86.1204 43.6408C86.582 43.6159 86.7138 44.3019 86.7108 44.6306C86.7077 44.9426 86.5923 45.532 86.2248 45.6041C85.7265 45.7018 85.682 44.9473 85.5953 44.6136Z" fill="black"/>
<path fill-rule="evenodd" clip-rule="evenodd" d="M80.4116 45.1375C80.2621 45.4885 80.1631 45.9719 79.7003 45.7326C79.3424 45.5476 79.2925 44.8012 79.36 44.4595C79.43 44.1054 79.5781 43.6994 79.9849 43.8586C80.454 44.0423 80.4066 44.7511 80.4116 45.1375Z" fill="black"/>
<path fill-rule="evenodd" clip-rule="evenodd" d="M84.3367 44.8135C83.8955 46.1508 83.0909 45.246 83.3964 44.2476C83.7159 43.204 84.2961 44.2176 84.3367 44.8135Z" fill="black"/>
<path fill-rule="evenodd" clip-rule="evenodd" d="M82.1875 44.8793C82.065 45.1147 81.9346 45.6227 81.6044 45.5692C81.1996 45.5035 81.1865 44.7244 81.231 44.4343C81.2697 44.1803 81.3838 43.757 81.7227 43.7625C82.2123 43.7704 82.1795 44.5745 82.1875 44.8793Z" fill="black"/>
<path fill-rule="evenodd" clip-rule="evenodd" d="M90.9876 45.1362C90.6592 45.873 90.2075 45.2382 90.3521 44.7149C90.5665 43.9389 90.969 44.6265 90.9876 45.1362Z" fill="black"/>
<path fill-rule="evenodd" clip-rule="evenodd" d="M82.9445 47.4616C82.5859 47.4602 82.2271 47.4589 81.8685 47.4576C82.2274 47.39 82.5863 47.3636 82.9445 47.4616Z" fill="black"/>
<path fill-rule="evenodd" clip-rule="evenodd" d="M90.0724 46.9204C89.7613 46.9224 89.4503 46.9243 89.1394 46.9264C89.4499 46.8332 89.7609 46.8312 90.0724 46.9204Z" fill="black"/>
<path fill-rule="evenodd" clip-rule="evenodd" d="M86.5228 47.2107C86.2738 47.2274 86.0249 47.244 85.776 47.2607C86.025 47.244 86.2739 47.2274 86.5228 47.2107Z" fill="black"/>
<path fill-rule="evenodd" clip-rule="evenodd" d="M80.4118 45.1376C80.4096 44.9589 80.4072 44.7801 80.405 44.6018C80.497 44.7795 80.4906 44.9581 80.4118 45.1376Z" fill="black"/>
<path fill-rule="evenodd" clip-rule="evenodd" d="M82.3636 48.1792C82.508 48.1805 82.6524 48.1817 82.7955 48.1831C82.6508 48.1817 82.5072 48.1805 82.3636 48.1792Z" fill="black"/>
<path fill-rule="evenodd" clip-rule="evenodd" d="M81.138 47.4771C80.9347 47.4937 80.7313 47.5104 80.5281 47.5271C80.7314 47.5104 80.9347 47.4937 81.138 47.4771Z" fill="black"/>
<path fill-rule="evenodd" clip-rule="evenodd" d="M83.8876 47.4593C83.6868 47.4597 83.4861 47.4601 83.2853 47.4605C83.486 47.3759 83.6867 47.3735 83.8876 47.4593Z" fill="black"/>
<path fill-rule="evenodd" clip-rule="evenodd" d="M82.1878 44.8794C82.1828 44.6931 82.1779 44.5069 82.1732 44.3208C82.1782 44.5072 82.183 44.6933 82.1878 44.8794Z" fill="black"/>
<path fill-rule="evenodd" clip-rule="evenodd" d="M79.3608 44.4592C79.3597 44.6409 79.3586 44.8226 79.3572 45.0036C79.3583 44.8217 79.3595 44.6405 79.3608 44.4592Z" fill="black"/>
<path fill-rule="evenodd" clip-rule="evenodd" d="M87.663 47.1431C87.4855 47.1591 87.3081 47.1751 87.1307 47.1912C87.3083 47.1751 87.4857 47.1591 87.663 47.1431Z" fill="black"/>
<path fill-rule="evenodd" clip-rule="evenodd" d="M90.9868 45.1361C90.981 44.9774 90.9753 44.8187 90.9696 44.6602C90.9754 44.819 90.981 44.9775 90.9868 45.1361Z" fill="black"/>
<path fill-rule="evenodd" clip-rule="evenodd" d="M83.4354 48.1848C83.559 48.1824 83.6825 48.1801 83.8048 48.178C83.6809 48.1804 83.5581 48.1827 83.4354 48.1848Z" fill="black"/>
<path fill-rule="evenodd" clip-rule="evenodd" d="M88.7072 44.8131C88.6963 44.699 88.6855 44.5849 88.6747 44.4712C88.6856 44.5855 88.6964 44.6992 88.7072 44.8131Z" fill="black"/>
<path fill-rule="evenodd" clip-rule="evenodd" d="M84.3375 44.8131C84.3296 44.696 84.3215 44.5787 84.3136 44.4619C84.3216 44.5791 84.3296 44.6962 84.3375 44.8131Z" fill="black"/>
<path fill-rule="evenodd" clip-rule="evenodd" d="M20.6255 10.3942C20.1396 10.2667 20.0485 9.58387 20.1266 9.16447C20.2151 8.96235 20.3037 8.76033 20.3922 8.5582C20.3576 8.48347 20.323 8.40874 20.2884 8.33401C20.3329 7.91777 20.2193 7.73689 20.6976 7.90547C21.5863 8.21882 21.7283 10.3621 20.6255 10.3942Z" fill="black"/>
<path fill-rule="evenodd" clip-rule="evenodd" d="M27.8176 9.07402C28.2179 9.04251 28.945 9.50867 28.5465 9.95969C28.2996 10.2391 27.4862 10.1069 27.1543 10.1653C26.7142 10.2426 26.2551 10.3485 26.4932 9.68924C26.6802 9.17153 27.348 9.0605 27.8176 9.07402Z" fill="black"/>
<path fill-rule="evenodd" clip-rule="evenodd" d="M27.3965 12.1751C26.9899 11.849 27.1714 10.3639 27.7901 10.6311C28.4267 10.9061 27.7358 11.9608 27.3965 12.1751Z" fill="black"/>
<path fill-rule="evenodd" clip-rule="evenodd" d="M20.1267 9.16431C20.1267 9.32058 20.1266 9.47695 20.1263 9.63251C20.0415 9.47593 20.0441 9.32007 20.1267 9.16431Z" fill="black"/>
<path fill-rule="evenodd" clip-rule="evenodd" d="M20.6262 10.3944C20.7091 10.392 20.792 10.3896 20.8739 10.3875C20.7906 10.3901 20.7085 10.3922 20.6262 10.3944Z" fill="black"/>
<path fill-rule="evenodd" clip-rule="evenodd" d="M70.8294 53.1644C70.7913 53.8399 70.0659 53.3405 70.1174 52.8885C70.2108 52.0684 70.6745 52.8789 70.8294 53.1644Z" fill="black"/>
</svg>
