<svg width="389" height="283" viewBox="0 0 389 283" fill="none" xmlns="http://www.w3.org/2000/svg">
<path d="M3.48982 1.82556C3.39348 1.00275 2.64837 0.413837 1.82556 0.510178C1.00275 0.606518 0.413837 1.35163 0.510178 2.17444L3.48982 1.82556ZM8.28341 91.6261L6.83461 92.0147L6.86857 92.1413L6.92397 92.2601L8.28341 91.6261ZM55.5744 156.091L54.8461 157.402L55.5744 156.091ZM140.731 161.968L142.187 162.33L140.731 161.968ZM128.495 115.226L127.623 116.447L128.495 115.226ZM73.5978 119.359L74.1596 120.75L73.5978 119.359ZM65.3302 164.815L66.7909 164.474L65.3302 164.815ZM102.535 208.526L102.315 210.01L102.535 208.526ZM150.156 208.618V210.118H150.272L150.387 210.1L150.156 208.618ZM238.372 198.7L238.121 200.179L238.246 200.2H238.372V198.7ZM297.32 212.658L298.056 211.351L298.018 211.33L297.979 211.31L297.32 212.658ZM342.71 234.238L341.92 235.513L341.975 235.547L342.032 235.577L342.71 234.238ZM379.997 283L388.685 268.016L371.364 267.984L379.997 283ZM0.622202 3.15694C0.713588 3.98031 1.45515 4.5737 2.27852 4.48231C3.10189 4.39093 3.69528 3.64937 3.60389 2.826L0.622202 3.15694ZM4.24878 9.85363C4.18744 9.02748 3.46799 8.40747 2.64184 8.46881C1.81568 8.53015 1.19568 9.2496 1.25702 10.0758L4.24878 9.85363ZM1.39541 12.0576C1.4496 12.8842 2.16366 13.5104 2.99031 13.4562C3.81696 13.402 4.44317 12.688 4.38899 11.8613L1.39541 12.0576ZM4.75749 18.8923C4.72382 18.0646 4.02551 17.4209 3.19777 17.4545C2.37003 17.4882 1.7263 18.1865 1.75997 19.0143L4.75749 18.8923ZM1.83522 21.0038C1.86425 21.8317 2.55895 22.4793 3.38687 22.4503C4.21478 22.4213 4.86241 21.7266 4.83337 20.8986L1.83522 21.0038ZM5.02342 27.9208C5.00662 27.0925 4.32157 26.4347 3.49331 26.4515C2.66505 26.4683 2.00724 27.1533 2.02404 27.9816L5.02342 27.9208ZM2.06153 29.9772C2.07593 30.8055 2.75908 31.4653 3.58738 31.4509C4.41568 31.4365 5.07548 30.7534 5.06108 29.9251L2.06153 29.9772ZM5.15912 36.935C5.1494 36.1066 4.46999 35.443 3.64162 35.4527C2.81325 35.4624 2.1496 36.1418 2.15932 36.9702L5.15912 36.935ZM2.18234 38.97C2.19177 39.7983 2.87095 40.4622 3.69932 40.4528C4.52769 40.4434 5.19158 39.7642 5.18215 38.9358L2.18234 38.97ZM5.269 45.9328C5.2569 45.1045 4.57559 44.4428 3.74726 44.4549C2.91892 44.467 2.25722 45.1483 2.26932 45.9766L5.269 45.9328ZM2.30068 47.9795C2.31461 48.8078 2.99738 49.4679 3.82569 49.454C4.654 49.4401 5.31419 48.7573 5.30026 47.929L2.30068 47.9795ZM5.45691 54.9117C5.43263 54.0837 4.74167 53.432 3.9136 53.4563C3.08553 53.4806 2.43392 54.1716 2.45819 54.9996L5.45691 54.9117ZM2.52189 57.0055C2.5503 57.8335 3.2445 58.4816 4.07244 58.4532C4.90038 58.4248 5.54853 57.7306 5.52013 56.9027L2.52189 57.0055ZM5.83365 63.8646C5.78631 63.0375 5.07746 62.4054 4.25038 62.4527C3.42331 62.5001 2.79121 63.2089 2.83855 64.036L5.83365 63.8646ZM2.96165 66.0447C3.01577 66.8714 3.72978 67.4976 4.55644 67.4435C5.3831 67.3894 6.00936 66.6754 5.95525 65.8487L2.96165 66.0447ZM6.52505 72.7735C6.44184 71.9493 5.70621 71.3486 4.88197 71.4318C4.05774 71.515 3.45702 72.2506 3.54023 73.0749L6.52505 72.7735ZM3.75513 75.0834C3.84833 75.9065 4.59119 76.4983 5.41436 76.4051C6.23753 76.3119 6.82929 75.569 6.73609 74.7459L3.75513 75.0834ZM7.6811 81.6047C7.54637 80.7873 6.77452 80.2338 5.95712 80.3686C5.13972 80.5033 4.58631 81.2752 4.72105 82.0926L7.6811 81.6047ZM5.0673 84.0883C5.21596 84.9033 5.99714 85.4434 6.81212 85.2948C7.6271 85.1461 8.16726 84.3649 8.01861 83.5499L5.0673 84.0883ZM9.48383 90.2897C9.2784 89.4872 8.46126 89.0031 7.65871 89.2085C6.85616 89.414 6.37211 90.2311 6.57754 91.0337L9.48383 90.2897ZM7.34425 93.1444C7.70278 93.8913 8.59884 94.206 9.34567 93.8475C10.0925 93.489 10.4073 92.5929 10.0487 91.8461L7.34425 93.1444ZM13.1555 98.0726C12.7764 97.3361 11.8719 97.0462 11.1353 97.4254C10.3987 97.8045 10.1089 98.7089 10.488 99.4455L13.1555 98.0726ZM11.4133 101.229C11.7971 101.964 12.7034 102.248 13.4376 101.864C14.1717 101.48 14.4558 100.574 14.072 99.8396L11.4133 101.229ZM17.366 105.978C16.9665 105.252 16.0542 104.988 15.3286 105.388C14.6029 105.787 14.3385 106.699 14.7381 107.425L17.366 105.978ZM15.7146 109.186C16.1187 109.909 17.0326 110.167 17.7558 109.763C18.4789 109.359 18.7376 108.445 18.3335 107.722L15.7146 109.186ZM21.7913 113.75C21.3708 113.036 20.4512 112.798 19.7375 113.219C19.0237 113.639 18.786 114.559 19.2066 115.272L21.7913 113.75ZM20.236 117.006C20.6615 117.717 21.5827 117.948 22.2935 117.522C23.0043 117.097 23.2355 116.176 22.81 115.465L20.236 117.006ZM26.4551 121.379C26.011 120.68 25.084 120.473 24.3847 120.917C23.6854 121.361 23.4785 122.288 23.9226 122.988L26.4551 121.379ZM25.0063 124.679C25.4562 125.374 26.3848 125.574 27.0804 125.124C27.776 124.674 27.9753 123.745 27.5254 123.05L25.0063 124.679ZM31.387 128.82C30.9148 128.139 29.9803 127.97 29.2995 128.443C28.6188 128.915 28.4497 129.849 28.9218 130.53L31.387 128.82ZM30.0778 132.178C30.557 132.854 31.4933 133.013 32.169 132.534C32.8448 132.055 33.0042 131.119 32.525 130.443L30.0778 132.178ZM36.6464 136.013C36.1393 135.358 35.1971 135.238 34.5421 135.745C33.887 136.253 33.7672 137.195 34.2743 137.85L36.6464 136.013ZM35.5202 139.436C36.0365 140.084 36.9802 140.191 37.6281 139.675C38.276 139.158 38.3827 138.215 37.8664 137.567L35.5202 139.436ZM42.3184 142.845C41.765 142.228 40.8167 142.177 40.2002 142.73C39.5836 143.284 39.5324 144.232 40.0858 144.849L42.3184 142.845ZM41.4498 146.338C42.0155 146.943 42.9647 146.975 43.5699 146.41C44.1751 145.844 44.2071 144.895 43.6414 144.29L41.4498 146.338ZM48.5348 149.1C47.9168 148.549 46.9686 148.602 46.4169 149.22C45.8652 149.838 45.9188 150.786 46.5368 151.338L48.5348 149.1ZM48.0769 152.669C48.7128 153.2 49.6587 153.115 50.1898 152.479C50.7208 151.844 50.6359 150.898 50.0001 150.367L48.0769 152.669ZM55.4877 154.311C54.7758 153.887 53.8552 154.121 53.4316 154.833C53.008 155.545 53.2417 156.465 53.9536 156.889L55.4877 154.311ZM55.6761 157.861C56.4023 158.259 57.3142 157.994 57.7129 157.268C58.1117 156.542 57.8463 155.63 57.1201 155.231L55.6761 157.861ZM62.8884 158.265C62.148 157.893 61.2465 158.192 60.8749 158.933C60.5033 159.673 60.8022 160.575 61.5426 160.946L62.8884 158.265ZM63.2421 161.787C63.9868 162.15 64.8847 161.84 65.2476 161.096C65.6105 160.351 65.301 159.453 64.5563 159.09L63.2421 161.787ZM70.4669 161.81C69.7065 161.482 68.8236 161.831 68.4948 162.592C68.166 163.352 68.5158 164.235 69.2762 164.564L70.4669 161.81ZM71.025 165.306C71.79 165.624 72.6679 165.261 72.9859 164.496C73.3039 163.731 72.9416 162.853 72.1766 162.535L71.025 165.306ZM78.2351 164.87C77.4542 164.593 76.597 165.002 76.3203 165.783C76.0437 166.563 76.4525 167.421 77.2333 167.697L78.2351 164.87ZM79.0323 168.318C79.8176 168.582 80.668 168.159 80.9319 167.374C81.1957 166.589 80.7729 165.738 79.9876 165.474L79.0323 168.318ZM86.1918 167.354C85.392 167.138 84.5687 167.612 84.3529 168.412C84.1372 169.212 84.6107 170.035 85.4105 170.251L86.1918 167.354ZM87.2547 170.73C88.0583 170.931 88.8729 170.443 89.0741 169.639C89.2753 168.836 88.787 168.021 87.9834 167.82L87.2547 170.73ZM94.3121 169.188C93.497 169.04 92.7161 169.58 92.5678 170.395C92.4196 171.21 92.9601 171.991 93.7752 172.139L94.3121 169.188ZM95.6545 172.463C96.4722 172.595 97.2427 172.04 97.3753 171.222C97.508 170.405 96.9527 169.634 96.1349 169.502L95.6545 172.463ZM102.556 170.323C101.731 170.246 101 170.852 100.922 171.676C100.845 172.501 101.45 173.233 102.275 173.31L102.556 170.323ZM104.175 173.47C105.002 173.532 105.721 172.913 105.783 172.087C105.845 171.26 105.225 170.541 104.399 170.479L104.175 173.47ZM110.867 170.749C110.039 170.741 109.361 171.407 109.353 172.235C109.346 173.063 110.011 173.741 110.839 173.749L110.867 170.749ZM112.709 173.761C113.537 173.774 114.219 173.113 114.232 172.285C114.245 171.456 113.585 170.774 112.756 170.761L112.709 173.761ZM119.348 170.996C118.52 170.969 117.826 171.618 117.799 172.446C117.771 173.274 118.42 173.967 119.248 173.995L119.348 170.996ZM121.151 174.043C121.979 174.056 122.661 173.395 122.675 172.567C122.688 171.739 122.027 171.056 121.199 171.043L121.151 174.043ZM127.551 170.78C126.729 170.881 126.145 171.63 126.246 172.452C126.347 173.274 127.095 173.859 127.918 173.758L127.551 170.78ZM129.875 173.45C130.689 173.293 131.22 172.505 131.062 171.692C130.905 170.879 130.117 170.347 129.304 170.505L129.875 173.45ZM134.83 168.373C134.144 168.837 133.965 169.77 134.43 170.456C134.894 171.142 135.827 171.321 136.513 170.857L134.83 168.373ZM138.164 169.536C138.767 168.968 138.796 168.018 138.228 167.415C137.66 166.812 136.71 166.784 136.107 167.352L138.164 169.536ZM139.045 162.438C138.801 163.229 139.246 164.069 140.037 164.313C140.829 164.556 141.668 164.112 141.912 163.32L139.045 162.438ZM142.416 161.384C142.606 160.578 142.106 159.77 141.3 159.58C140.494 159.39 139.686 159.889 139.496 160.696L142.416 161.384ZM140.714 154.272C140.598 155.092 141.168 155.852 141.988 155.968C142.809 156.085 143.568 155.514 143.685 154.694L140.714 154.272ZM143.932 152.76C144.025 151.936 143.433 151.194 142.61 151.1C141.787 151.007 141.044 151.599 140.951 152.422L143.932 152.76ZM141.332 145.928C141.331 146.757 142.002 147.429 142.83 147.43C143.658 147.431 144.331 146.76 144.332 145.931L141.332 145.928ZM144.299 143.971C144.27 143.143 143.575 142.495 142.748 142.524C141.92 142.553 141.272 143.247 141.301 144.075L144.299 143.971ZM140.634 137.653C140.779 138.469 141.559 139.012 142.374 138.866C143.19 138.72 143.733 137.941 143.587 137.125L140.634 137.653ZM143.195 135.189C143.012 134.381 142.209 133.874 141.401 134.057C140.593 134.24 140.086 135.043 140.269 135.851L143.195 135.189ZM138.32 129.755C138.644 130.518 139.524 130.874 140.287 130.55C141.049 130.227 141.405 129.346 141.082 128.584L138.32 129.755ZM140.254 126.774C139.888 126.03 138.989 125.724 138.246 126.089C137.502 126.455 137.196 127.354 137.562 128.097L140.254 126.774ZM134.192 122.708C134.701 123.361 135.644 123.477 136.297 122.968C136.95 122.458 137.067 121.516 136.557 120.863L134.192 122.708ZM135.283 119.327C134.736 118.705 133.788 118.645 133.166 119.193C132.545 119.74 132.485 120.688 133.032 121.31L135.283 119.327ZM128.362 116.99C129.023 117.49 129.964 117.359 130.463 116.698C130.963 116.037 130.832 115.096 130.171 114.597L128.362 116.99ZM128.574 113.479C127.869 113.044 126.945 113.262 126.51 113.967C126.075 114.672 126.293 115.596 126.998 116.032L128.574 113.479ZM121.96 114.211C122.775 114.356 123.554 113.813 123.699 112.997C123.844 112.181 123.301 111.402 122.485 111.257L121.96 114.211ZM120.695 111.006C119.871 110.919 119.133 111.516 119.046 112.34C118.959 113.164 119.556 113.903 120.38 113.99L120.695 111.006ZM114.644 113.868C115.472 113.837 116.118 113.141 116.087 112.313C116.056 111.485 115.36 110.839 114.532 110.87L114.644 113.868ZM112.809 110.949C111.981 110.993 111.346 111.699 111.39 112.526C111.434 113.354 112.14 113.989 112.967 113.945L112.809 110.949ZM106.968 114.238C107.797 114.222 108.455 113.538 108.439 112.709C108.423 111.881 107.739 111.223 106.91 111.239L106.968 114.238ZM105.148 111.251C104.32 111.258 103.654 111.935 103.66 112.763C103.667 113.591 104.344 114.258 105.173 114.251L105.148 111.251ZM98.7899 114.514C99.6158 114.449 100.233 113.727 100.169 112.901C100.104 112.076 99.3825 111.458 98.5566 111.523L98.7899 114.514ZM96.6729 111.692C95.8487 111.776 95.2487 112.512 95.3328 113.336C95.4168 114.161 96.153 114.761 96.9772 114.676L96.6729 111.692ZM90.691 115.604C91.5041 115.445 92.0346 114.658 91.8759 113.845C91.7172 113.031 90.9294 112.501 90.1163 112.66L90.691 115.604ZM88.2612 113.047C87.4526 113.228 86.9432 114.029 87.1233 114.838C87.3035 115.646 88.1051 116.156 88.9137 115.976L88.2612 113.047ZM82.7671 117.629C83.5577 117.382 83.998 116.54 83.7506 115.75C83.5032 114.959 82.6617 114.519 81.8711 114.766L82.7671 117.629ZM80.0772 115.348C79.2917 115.611 78.8684 116.461 79.1318 117.247C79.3951 118.032 80.2453 118.455 81.0307 118.192L80.0772 115.348ZM75.0142 120.407C75.7841 120.102 76.1604 119.23 75.8547 118.46C75.549 117.69 74.677 117.313 73.907 117.619L75.0142 120.407ZM71.9091 118.49C71.1755 118.874 70.8927 119.781 71.2775 120.515C71.6624 121.248 72.5691 121.531 73.3027 121.146L71.9091 118.49ZM68.629 125.931C69.0397 125.212 68.7894 124.296 68.07 123.885C67.3505 123.474 66.4343 123.725 66.0236 124.444L68.629 125.931ZM64.9731 126.538C64.6393 127.296 64.9834 128.182 65.7416 128.515C66.4998 128.849 67.385 128.505 67.7188 127.747L64.9731 126.538ZM65.6808 134.725C65.8296 133.91 65.2895 133.128 64.4745 132.98C63.6596 132.831 62.8783 133.371 62.7296 134.186L65.6808 134.725ZM62.3762 136.409C62.264 137.23 62.8384 137.986 63.6592 138.098C64.48 138.21 65.2364 137.636 65.3486 136.815L62.3762 136.409ZM64.8049 144.254C64.8199 143.426 64.1606 142.743 63.3324 142.727C62.5041 142.712 61.8204 143.372 61.8054 144.2L64.8049 144.254ZM61.7952 146.423C61.8023 147.252 62.4795 147.917 63.3079 147.91C64.1363 147.903 64.8021 147.226 64.7951 146.398L61.7952 146.423ZM65.1749 153.904C65.1 153.079 64.3704 152.471 63.5454 152.545C62.7203 152.62 62.1123 153.35 62.1872 154.175L65.1749 153.904ZM62.4128 156.383C62.5062 157.206 63.2493 157.797 64.0724 157.704C64.8956 157.611 65.4871 156.867 65.3936 156.044L62.4128 156.383ZM66.5616 163.441C66.3903 162.63 65.5943 162.112 64.7838 162.283C63.9733 162.455 63.4551 163.251 63.6265 164.061L66.5616 163.441ZM64.0995 166.106C64.3008 166.91 65.1154 167.398 65.919 167.197C66.7226 166.996 67.2109 166.181 67.0096 165.378L64.0995 166.106ZM68.932 171.649C68.6507 170.87 67.791 170.466 67.0118 170.747C66.2326 171.028 65.8289 171.888 66.1102 172.667L68.932 171.649ZM66.7987 174.499C67.1003 175.271 67.9703 175.652 68.7419 175.35C69.5135 175.048 69.8945 174.179 69.5929 173.407L66.7987 174.499ZM72.2561 179.421C71.8878 178.678 70.9878 178.375 70.2457 178.744C69.5036 179.112 69.2004 180.012 69.5687 180.754L72.2561 179.421ZM70.4592 182.494C70.8457 183.227 71.7531 183.508 72.4858 183.121C73.2185 182.735 73.4992 181.827 73.1126 181.094L70.4592 182.494ZM76.4347 186.769C75.9843 186.074 75.0555 185.875 74.3602 186.326C73.6649 186.776 73.4664 187.705 73.9168 188.4L76.4347 186.769ZM75.0031 190.029C75.472 190.712 76.4057 190.885 77.0887 190.416C77.7716 189.947 77.9451 189.014 77.4762 188.331L75.0031 190.029ZM81.4521 193.543C80.9158 192.911 79.9691 192.834 79.3378 193.371C78.7064 193.907 78.6294 194.854 79.1658 195.485L81.4521 193.543ZM80.4627 196.963C81.0193 197.576 81.968 197.623 82.5816 197.066C83.1951 196.509 83.2414 195.561 82.6848 194.947L80.4627 196.963ZM87.3525 199.487C86.7211 198.951 85.7745 199.028 85.2382 199.659C84.702 200.291 84.7792 201.237 85.4106 201.774L87.3525 199.487ZM86.9479 203.024C87.6018 203.533 88.5442 203.415 89.0528 202.761C89.5615 202.107 89.4438 201.165 88.7899 200.656L86.9479 203.024ZM94.1873 204.165C93.454 203.779 92.5471 204.061 92.1617 204.795C91.7763 205.528 92.0583 206.435 92.7916 206.82L94.1873 204.165ZM94.5938 207.701C95.3487 208.042 96.2373 207.707 96.5785 206.952C96.9197 206.197 96.5844 205.309 95.8295 204.967L94.5938 207.701ZM101.865 206.893C101.05 206.741 100.267 207.277 100.114 208.092C99.9623 208.906 100.499 209.69 101.313 209.842L101.865 206.893ZM103.383 210.161C104.204 210.271 104.96 209.695 105.07 208.874C105.181 208.053 104.605 207.298 103.784 207.187L103.383 210.161ZM111.052 207.864C110.225 207.818 109.516 208.451 109.47 209.278C109.424 210.105 110.056 210.813 110.884 210.86L111.052 207.864ZM113.027 210.961C113.855 210.992 114.552 210.347 114.584 209.519C114.615 208.691 113.97 207.995 113.142 207.963L113.027 210.961ZM120.487 208.055C119.659 208.063 118.994 208.741 119.002 209.57C119.009 210.398 119.687 211.063 120.516 211.055L120.487 208.055ZM122.65 211.024C123.478 211.008 124.136 210.323 124.12 209.495C124.104 208.667 123.42 208.008 122.592 208.024L122.65 211.024ZM129.973 207.789C129.146 207.823 128.502 208.522 128.536 209.349C128.57 210.177 129.269 210.821 130.096 210.787L129.973 207.789ZM132.218 210.696C133.046 210.66 133.687 209.96 133.651 209.132C133.615 208.304 132.914 207.663 132.087 207.699L132.218 210.696ZM139.502 207.374C138.675 207.408 138.031 208.106 138.065 208.934C138.098 209.761 138.796 210.405 139.624 210.372L139.502 207.374ZM141.735 210.29C142.563 210.261 143.21 209.565 143.18 208.737C143.15 207.909 142.455 207.262 141.627 207.292L141.735 210.29ZM149.088 207.121C148.26 207.126 147.592 207.802 147.597 208.63C147.602 209.459 148.278 210.126 149.106 210.121L149.088 207.121ZM151.375 209.945C152.194 209.816 152.752 209.048 152.623 208.229C152.494 207.411 151.726 206.852 150.908 206.981L151.375 209.945ZM157.735 205.863C156.918 206.001 156.368 206.776 156.507 207.592C156.645 208.409 157.42 208.959 158.236 208.82L157.735 205.863ZM160.192 208.486C161.009 208.345 161.556 207.569 161.415 206.753C161.275 205.936 160.499 205.389 159.682 205.529L160.192 208.486ZM166.498 204.322C165.683 204.47 165.141 205.251 165.289 206.066C165.437 206.881 166.217 207.422 167.033 207.274L166.498 204.322ZM168.99 206.918C169.805 206.769 170.344 205.987 170.195 205.172C170.046 204.357 169.264 203.818 168.449 203.967L168.99 206.918ZM175.262 202.703C174.447 202.856 173.911 203.639 174.063 204.454C174.216 205.268 175 205.804 175.814 205.652L175.262 202.703ZM177.762 205.286C178.577 205.134 179.113 204.35 178.96 203.535C178.807 202.721 178.023 202.185 177.209 202.338L177.762 205.286ZM184.029 201.061C183.215 201.213 182.677 201.995 182.829 202.81C182.98 203.624 183.763 204.162 184.577 204.011L184.029 201.061ZM186.523 203.651C187.338 203.501 187.876 202.719 187.726 201.904C187.576 201.089 186.794 200.55 185.98 200.7L186.523 203.651ZM192.82 199.471C192.004 199.613 191.458 200.39 191.6 201.206C191.742 202.022 192.519 202.568 193.335 202.426L192.82 199.471ZM195.282 202.091C196.099 201.953 196.649 201.178 196.51 200.361C196.371 199.545 195.597 198.995 194.78 199.134L195.282 202.091ZM201.654 198.033C200.835 198.155 200.269 198.918 200.391 199.737C200.514 200.557 201.277 201.122 202.096 201L201.654 198.033ZM204.049 200.716C204.87 200.6 205.441 199.842 205.325 199.021C205.209 198.201 204.45 197.63 203.63 197.746L204.049 200.716ZM210.563 196.88C209.739 196.968 209.142 197.707 209.23 198.53C209.318 199.354 210.057 199.951 210.881 199.863L210.563 196.88ZM212.833 199.666C213.658 199.588 214.263 198.857 214.185 198.032C214.107 197.207 213.375 196.602 212.551 196.68L212.833 199.666ZM219.543 196.19C218.716 196.226 218.074 196.926 218.109 197.753C218.145 198.581 218.845 199.223 219.673 199.187L219.543 196.19ZM221.629 199.119C222.458 199.097 223.111 198.409 223.09 197.58C223.068 196.752 222.379 196.098 221.551 196.12L221.629 199.119ZM228.59 196.175C227.763 196.138 227.062 196.78 227.026 197.607C226.989 198.435 227.631 199.135 228.458 199.172L228.59 196.175ZM230.403 199.279C231.23 199.335 231.945 198.709 232 197.883C232.055 197.056 231.43 196.341 230.603 196.286L230.403 199.279ZM237.625 197.059C236.806 196.931 236.039 197.492 235.912 198.31C235.785 199.129 236.345 199.896 237.163 200.023L237.625 197.059ZM239.335 200.203C240.163 200.208 240.839 199.541 240.845 198.713C240.85 197.884 240.183 197.209 239.354 197.203L239.335 200.203ZM246.214 197.409C245.387 197.364 244.68 197.998 244.635 198.826C244.59 199.653 245.224 200.36 246.051 200.405L246.214 197.409ZM247.967 200.522C248.794 200.579 249.51 199.955 249.566 199.129C249.623 198.302 248.999 197.586 248.173 197.53L247.967 200.522ZM255.014 198.179C254.192 198.079 253.444 198.664 253.344 199.487C253.244 200.309 253.83 201.057 254.652 201.157L255.014 198.179ZM256.554 201.403C257.374 201.516 258.131 200.942 258.244 200.121C258.357 199.301 257.783 198.544 256.962 198.431L256.554 201.403ZM263.745 199.554C262.932 199.396 262.144 199.927 261.986 200.741C261.829 201.554 262.36 202.341 263.173 202.499L263.745 199.554ZM265.052 202.879C265.863 203.05 266.658 202.531 266.829 201.721C267 200.91 266.481 200.114 265.671 199.944L265.052 202.879ZM272.356 201.547C271.557 201.332 270.733 201.806 270.518 202.606C270.303 203.406 270.777 204.229 271.577 204.444L272.356 201.547ZM273.425 204.957C274.221 205.185 275.051 204.724 275.279 203.927C275.507 203.131 275.046 202.3 274.249 202.073L273.425 204.957ZM280.803 204.136C280.02 203.867 279.166 204.284 278.897 205.067C278.627 205.851 279.044 206.704 279.827 206.973L280.803 204.136ZM281.638 207.611C282.417 207.891 283.276 207.487 283.557 206.708C283.838 205.928 283.434 205.069 282.654 204.788L281.638 207.611ZM289.055 207.272C288.29 206.954 287.412 207.316 287.094 208.081C286.776 208.846 287.139 209.724 287.904 210.042L289.055 207.272ZM289.673 210.791C290.434 211.119 291.317 210.767 291.645 210.007C291.972 209.246 291.621 208.363 290.86 208.036L289.673 210.791ZM297.096 210.882C296.35 210.523 295.453 210.836 295.094 211.582C294.734 212.329 295.048 213.225 295.794 213.585L297.096 210.882ZM297.411 214.425C298.137 214.825 299.049 214.561 299.448 213.835C299.848 213.109 299.584 212.197 298.858 211.798L297.411 214.425ZM304.585 214.735C303.838 214.377 302.942 214.691 302.584 215.438C302.225 216.185 302.54 217.081 303.286 217.44L304.585 214.735ZM304.987 218.244C305.738 218.593 306.631 218.268 306.98 217.517C307.33 216.765 307.004 215.873 306.253 215.524L304.987 218.244ZM312.169 218.158C311.408 217.831 310.526 218.183 310.199 218.944C309.872 219.705 310.224 220.588 310.985 220.914L312.169 218.158ZM312.705 221.648C313.468 221.972 314.348 221.615 314.672 220.853C314.995 220.09 314.639 219.21 313.876 218.886L312.705 221.648ZM319.884 221.407C319.119 221.086 318.241 221.446 317.92 222.21C317.6 222.974 317.96 223.853 318.724 224.173L319.884 221.407ZM320.439 224.894C321.202 225.216 322.082 224.858 322.404 224.095C322.726 223.332 322.368 222.452 321.605 222.13L320.439 224.894ZM327.619 224.728C326.862 224.391 325.975 224.73 325.638 225.487C325.301 226.244 325.641 227.131 326.397 227.468L327.619 224.728ZM328.083 228.228C328.837 228.572 329.727 228.24 330.071 227.487C330.415 226.733 330.083 225.843 329.329 225.499L328.083 228.228ZM335.263 228.351C334.524 227.976 333.621 228.27 333.246 229.008C332.87 229.747 333.165 230.65 333.903 231.025L335.263 228.351ZM335.538 231.871C336.271 232.258 337.178 231.977 337.564 231.244C337.951 230.511 337.67 229.604 336.937 229.218L335.538 231.871ZM342.692 232.468C341.984 232.038 341.061 232.264 340.632 232.973C340.202 233.681 340.428 234.604 341.137 235.033L342.692 232.468ZM342.976 236.049C343.718 236.418 344.618 236.115 344.987 235.373C345.355 234.632 345.053 233.731 344.311 233.363L342.976 236.049ZM350.912 236.592C350.171 236.222 349.27 236.524 348.901 237.265C348.531 238.007 348.833 238.907 349.574 239.277L350.912 236.592ZM351.428 240.215C352.164 240.594 353.069 240.305 353.448 239.568C353.827 238.832 353.538 237.927 352.802 237.548L351.428 240.215ZM359.309 241.207C358.606 240.769 357.681 240.984 357.243 241.687C356.805 242.39 357.02 243.315 357.723 243.753L359.309 241.207ZM359.446 244.864C360.134 245.325 361.066 245.14 361.526 244.451C361.987 243.762 361.802 242.831 361.113 242.37L359.446 244.864ZM367.094 246.977C366.477 246.425 365.528 246.477 364.976 247.094C364.423 247.712 364.476 248.66 365.093 249.213L367.094 246.977ZM366.571 250.6C367.161 251.181 368.111 251.173 368.692 250.583C369.273 249.993 369.266 249.043 368.675 248.462L366.571 250.6ZM373.597 254.263C373.122 253.584 372.187 253.419 371.508 253.894C370.83 254.369 370.665 255.305 371.14 255.983L373.597 254.263ZM372.251 257.666C372.688 258.369 373.613 258.585 374.316 258.148C375.02 257.71 375.236 256.785 374.798 256.082L372.251 257.666ZM378.19 262.892C377.89 262.12 377.021 261.737 376.249 262.036C375.477 262.336 375.093 263.205 375.393 263.977L378.19 262.892ZM376.076 265.881C376.337 266.667 377.186 267.093 377.972 266.833C378.758 266.572 379.185 265.723 378.924 264.937L376.076 265.881ZM380.719 272.29C380.584 271.473 379.812 270.92 378.994 271.055C378.177 271.189 377.624 271.961 377.759 272.779L380.719 272.29ZM378.051 274.803C378.154 275.625 378.904 276.208 379.726 276.106C380.548 276.003 381.131 275.253 381.028 274.431L378.051 274.803ZM381.499 281.926C381.494 281.097 380.819 280.43 379.99 280.434C379.162 280.439 378.494 281.114 378.499 281.943L381.499 281.926ZM0.510178 2.17444C0.548453 2.50133 0.585786 2.82884 0.622202 3.15694L3.60389 2.826C3.56682 2.49202 3.52881 2.15853 3.48982 1.82556L0.510178 2.17444ZM1.25702 10.0758C1.30593 10.7346 1.352 11.3952 1.39541 12.0576L4.38899 11.8613C4.34503 11.1907 4.29837 10.5214 4.24878 9.85363L1.25702 10.0758ZM1.75997 19.0143C1.7869 19.6763 1.81192 20.3395 1.83522 21.0038L4.83337 20.8986C4.80989 20.2291 4.78466 19.5603 4.75749 18.8923L1.75997 19.0143ZM2.02404 27.9816C2.03752 28.6462 2.04995 29.3115 2.06153 29.9772L5.06108 29.9251C5.04945 29.2567 5.03696 28.5886 5.02342 27.9208L2.02404 27.9816ZM2.15932 36.9702C2.16715 37.6368 2.17476 38.3034 2.18234 38.97L5.18215 38.9358C5.17456 38.2692 5.16695 37.6022 5.15912 36.935L2.15932 36.9702ZM2.26932 45.9766C2.27907 46.6447 2.28947 47.3124 2.30068 47.9795L5.30026 47.929C5.28908 47.2645 5.27873 46.599 5.269 45.9328L2.26932 45.9766ZM2.45819 54.9996C2.47783 55.6694 2.49899 56.338 2.52189 57.0055L5.52013 56.9027C5.49741 56.2405 5.4764 55.5768 5.45691 54.9117L2.45819 54.9996ZM2.83855 64.036C2.87697 64.7073 2.91794 65.3769 2.96165 66.0447L5.95525 65.8487C5.91209 65.1895 5.87162 64.5281 5.83365 63.8646L2.83855 64.036ZM3.54023 73.0749C3.60806 73.7468 3.67962 74.4164 3.75513 75.0834L6.73609 74.7459C6.66199 74.0914 6.59172 73.4339 6.52505 72.7735L3.54023 73.0749ZM4.72105 82.0926C4.83125 82.7611 4.94658 83.4264 5.0673 84.0883L8.01861 83.5499C7.90104 82.9054 7.78862 82.2569 7.6811 81.6047L4.72105 82.0926ZM6.57754 91.0337C6.66152 91.3617 6.7472 91.6888 6.83461 92.0147L9.73221 91.2376C9.64781 90.9229 9.56503 90.6069 9.48383 90.2897L6.57754 91.0337ZM8.28341 91.6261C6.92397 92.2601 6.92397 92.2601 6.92398 92.2601C6.92398 92.2601 6.92399 92.2602 6.924 92.2602C6.92401 92.2602 6.92403 92.2602 6.92404 92.2603C6.92408 92.2603 6.92412 92.2604 6.92417 92.2605C6.92428 92.2608 6.92442 92.2611 6.92459 92.2614C6.92493 92.2622 6.92542 92.2632 6.92604 92.2645C6.92728 92.2672 6.92908 92.271 6.93142 92.276C6.9361 92.286 6.94297 92.3007 6.95201 92.32C6.97009 92.3585 6.99684 92.4153 7.0321 92.4898C7.10261 92.6389 7.20713 92.8588 7.34425 93.1444L10.0487 91.8461C9.91421 91.5659 9.81218 91.3512 9.74407 91.2072C9.71001 91.1352 9.68443 91.0808 9.6675 91.0448C9.65904 91.0267 9.65274 91.0133 9.64863 91.0045C9.64657 91.0001 9.64506 90.9969 9.6441 90.9948C9.64362 90.9938 9.64327 90.9931 9.64307 90.9926C9.64296 90.9924 9.64289 90.9922 9.64286 90.9922C9.64284 90.9921 9.64283 90.9921 9.64283 90.9921C9.64283 90.9921 9.64284 90.9921 9.64284 90.9921C9.64284 90.9921 9.64285 90.9921 9.64285 90.9922C9.64285 90.9922 9.64286 90.9922 8.28341 91.6261ZM10.488 99.4455C10.7804 100.014 11.0891 100.609 11.4133 101.229L14.072 99.8396C13.7508 99.225 13.445 98.6353 13.1555 98.0726L10.488 99.4455ZM14.7381 107.425C15.0556 108.002 15.3812 108.589 15.7146 109.186L18.3335 107.722C18.0032 107.131 17.6806 106.549 17.366 105.978L14.7381 107.425ZM19.2066 115.272C19.5444 115.846 19.8876 116.424 20.236 117.006L22.81 115.465C22.4653 114.889 22.1257 114.317 21.7913 113.75L19.2066 115.272ZM23.9226 122.988C24.2799 123.55 24.6412 124.114 25.0063 124.679L27.5254 123.05C27.1649 122.492 26.8081 121.935 26.4551 121.379L23.9226 122.988ZM28.9218 130.53C29.3041 131.081 29.6895 131.631 30.0778 132.178L32.525 130.443C32.1428 129.904 31.7634 129.363 31.387 128.82L28.9218 130.53ZM34.2743 137.85C34.6871 138.383 35.1025 138.912 35.5202 139.436L37.8664 137.567C37.4577 137.054 37.051 136.536 36.6464 136.013L34.2743 137.85ZM40.0858 144.849C40.5385 145.353 40.9932 145.85 41.4498 146.338L43.6414 144.29C43.1991 143.817 42.7581 143.335 42.3184 142.845L40.0858 144.849ZM46.5368 151.338C47.0485 151.795 47.562 152.239 48.0769 152.669L50.0001 150.367C49.5117 149.959 49.0231 149.536 48.5348 149.1L46.5368 151.338ZM53.9536 156.889C54.2507 157.066 54.5482 157.237 54.8461 157.402L56.3026 154.78C56.0316 154.629 55.7599 154.473 55.4877 154.311L53.9536 156.889ZM54.8461 157.402C55.1229 157.556 55.3996 157.709 55.6761 157.861L57.1201 155.231C56.8478 155.081 56.5753 154.931 56.3026 154.78L54.8461 157.402ZM61.5426 160.946C62.1091 161.231 62.6756 161.511 63.2421 161.787L64.5563 159.09C64.0006 158.819 63.4446 158.544 62.8884 158.265L61.5426 160.946ZM69.2762 164.564C69.8587 164.816 70.4416 165.063 71.025 165.306L72.1766 162.535C71.6065 162.298 71.0366 162.057 70.4669 161.81L69.2762 164.564ZM77.2333 167.697C77.832 167.91 78.4316 168.116 79.0323 168.318L79.9876 165.474C79.4027 165.278 78.8186 165.076 78.2351 164.87L77.2333 167.697ZM85.4105 170.251C86.0238 170.416 86.6384 170.576 87.2547 170.73L87.9834 167.82C87.3849 167.67 86.7877 167.515 86.1918 167.354L85.4105 170.251ZM93.7752 172.139C94.3997 172.253 95.0261 172.361 95.6545 172.463L96.1349 169.502C95.5255 169.403 94.9179 169.298 94.3121 169.188L93.7752 172.139ZM102.275 173.31C102.906 173.369 103.54 173.423 104.175 173.47L104.399 170.479C103.782 170.433 103.168 170.381 102.556 170.323L102.275 173.31ZM110.839 173.749C111.157 173.751 111.475 173.753 111.794 173.753V170.753C111.485 170.753 111.175 170.752 110.867 170.749L110.839 173.749ZM111.794 173.753C112.093 173.753 112.398 173.756 112.709 173.761L112.756 170.761C112.432 170.756 112.111 170.753 111.794 170.753V173.753ZM119.248 173.995C119.877 174.016 120.513 174.033 121.151 174.043L121.199 171.043C120.582 171.033 119.964 171.017 119.348 170.996L119.248 173.995ZM127.918 173.758C128.576 173.677 129.23 173.575 129.875 173.45L129.304 170.505C128.734 170.616 128.149 170.707 127.551 170.78L127.918 173.758ZM136.513 170.857C137.092 170.464 137.644 170.026 138.164 169.536L136.107 167.352C135.709 167.727 135.283 168.066 134.83 168.373L136.513 170.857ZM141.912 163.32C142.011 162.998 142.103 162.668 142.187 162.33L139.275 161.606C139.204 161.893 139.127 162.17 139.045 162.438L141.912 163.32ZM142.187 162.33C142.265 162.015 142.341 161.699 142.416 161.384L139.496 160.696C139.424 160.999 139.351 161.303 139.275 161.606L142.187 162.33ZM143.685 154.694C143.776 154.048 143.859 153.403 143.932 152.76L140.951 152.422C140.881 153.037 140.802 153.654 140.714 154.272L143.685 154.694ZM144.332 145.931C144.332 145.275 144.321 144.622 144.299 143.971L141.301 144.075C141.322 144.689 141.332 145.307 141.332 145.928L144.332 145.931ZM143.587 137.125C143.471 136.475 143.34 135.829 143.195 135.189L140.269 135.851C140.404 136.446 140.525 137.047 140.634 137.653L143.587 137.125ZM141.082 128.584C140.823 127.973 140.547 127.369 140.254 126.774L137.562 128.097C137.83 128.642 138.082 129.195 138.32 129.755L141.082 128.584ZM136.557 120.863C136.15 120.341 135.725 119.829 135.283 119.327L133.032 121.31C133.435 121.767 133.821 122.233 134.192 122.708L136.557 120.863ZM130.171 114.597C129.907 114.397 129.639 114.2 129.367 114.006L127.623 116.447C127.874 116.626 128.12 116.807 128.362 116.99L130.171 114.597ZM129.367 114.006C129.107 113.82 128.843 113.645 128.574 113.479L126.998 116.032C127.21 116.163 127.419 116.301 127.623 116.447L129.367 114.006ZM122.485 111.257C121.892 111.152 121.294 111.069 120.695 111.006L120.38 113.99C120.917 114.046 121.444 114.119 121.96 114.211L122.485 111.257ZM114.532 110.87C113.954 110.891 113.378 110.919 112.809 110.949L112.967 113.945C113.527 113.915 114.086 113.888 114.644 113.868L114.532 110.87ZM106.91 111.239C106.633 111.244 106.359 111.247 106.09 111.247V114.247C106.381 114.247 106.674 114.244 106.968 114.238L106.91 111.239ZM106.09 111.247C105.774 111.247 105.46 111.248 105.148 111.251L105.173 114.251C105.476 114.248 105.782 114.247 106.09 114.247V111.247ZM98.5566 111.523C97.9219 111.572 97.2944 111.629 96.6729 111.692L96.9772 114.676C97.5746 114.616 98.1784 114.561 98.7899 114.514L98.5566 111.523ZM90.1163 112.66C89.4961 112.781 88.8782 112.91 88.2612 113.047L88.9137 115.976C89.505 115.844 90.097 115.72 90.691 115.604L90.1163 112.66ZM81.8711 114.766C81.2766 114.952 80.679 115.146 80.0772 115.348L81.0307 118.192C81.6142 117.997 82.1926 117.809 82.7671 117.629L81.8711 114.766ZM73.907 117.619C73.6184 117.734 73.3281 117.85 73.0361 117.968L74.1596 120.75C74.4463 120.634 74.7312 120.52 75.0142 120.407L73.907 117.619ZM73.0361 117.968C72.6489 118.124 72.2733 118.298 71.9091 118.49L73.3027 121.146C73.5794 121.001 73.8649 120.869 74.1596 120.75L73.0361 117.968ZM66.0236 124.444C65.6419 125.113 65.2926 125.813 64.9731 126.538L67.7188 127.747C68.0001 127.108 68.3032 126.502 68.629 125.931L66.0236 124.444ZM62.7296 134.186C62.596 134.918 62.4786 135.66 62.3762 136.409L65.3486 136.815C65.4453 136.107 65.5558 135.41 65.6808 134.725L62.7296 134.186ZM61.8054 144.2C61.792 144.943 61.7889 145.685 61.7952 146.423L64.7951 146.398C64.789 145.685 64.792 144.969 64.8049 144.254L61.8054 144.2ZM62.1872 154.175C62.2555 154.926 62.331 155.663 62.4128 156.383L65.3936 156.044C65.3144 155.346 65.2411 154.632 65.1749 153.904L62.1872 154.175ZM63.6265 164.061C63.7067 164.441 63.7878 164.806 63.8695 165.156L66.7909 164.474C66.7144 164.146 66.6378 163.801 66.5616 163.441L63.6265 164.061ZM63.8695 165.156C63.9432 165.472 64.0199 165.788 64.0995 166.106L67.0096 165.378C66.9339 165.075 66.8609 164.774 66.7909 164.474L63.8695 165.156ZM66.1102 172.667C66.3303 173.277 66.5599 173.888 66.7987 174.499L69.5929 173.407C69.3635 172.82 69.1431 172.234 68.932 171.649L66.1102 172.667ZM69.5687 180.754C69.8576 181.336 70.1545 181.917 70.4592 182.494L73.1126 181.094C72.8196 180.539 72.534 179.981 72.2561 179.421L69.5687 180.754ZM73.9168 188.4C74.2718 188.948 74.6339 189.491 75.0031 190.029L77.4762 188.331C77.1225 187.816 76.7753 187.295 76.4347 186.769L73.9168 188.4ZM79.1658 195.485C79.5914 195.986 80.0238 196.479 80.4627 196.963L82.6848 194.947C82.2681 194.488 81.8572 194.02 81.4521 193.543L79.1658 195.485ZM85.4106 201.774C85.9164 202.203 86.4289 202.62 86.9479 203.024L88.7899 200.656C88.3058 200.279 87.8266 199.89 87.3525 199.487L85.4106 201.774ZM92.7916 206.82C93.3858 207.133 93.9866 207.427 94.5938 207.701L95.8295 204.967C95.2781 204.718 94.7306 204.45 94.1873 204.165L92.7916 206.82ZM101.313 209.842C101.646 209.904 101.98 209.96 102.315 210.01L102.754 207.042C102.457 206.998 102.16 206.948 101.865 206.893L101.313 209.842ZM102.315 210.01C102.67 210.062 103.027 210.113 103.383 210.161L103.784 207.187C103.44 207.141 103.097 207.093 102.754 207.042L102.315 210.01ZM110.884 210.86C111.597 210.9 112.312 210.933 113.027 210.961L113.142 207.963C112.443 207.936 111.747 207.903 111.052 207.864L110.884 210.86ZM120.516 211.055C121.227 211.048 121.938 211.038 122.65 211.024L122.592 208.024C121.889 208.038 121.188 208.049 120.487 208.055L120.516 211.055ZM130.096 210.787C130.804 210.757 131.512 210.727 132.218 210.696L132.087 207.699C131.382 207.73 130.678 207.76 129.973 207.789L130.096 210.787ZM139.624 210.372C140.33 210.343 141.033 210.316 141.735 210.29L141.627 207.292C140.92 207.318 140.212 207.345 139.502 207.374L139.624 210.372ZM149.106 210.121C149.457 210.119 149.807 210.118 150.156 210.118V207.118C149.801 207.118 149.445 207.119 149.088 207.121L149.106 210.121ZM150.387 210.1C150.718 210.048 151.047 209.997 151.375 209.945L150.908 206.981C150.581 207.033 150.253 207.084 149.925 207.136L150.387 210.1ZM158.236 208.82C158.892 208.709 159.544 208.598 160.192 208.486L159.682 205.529C159.037 205.641 158.387 205.752 157.735 205.863L158.236 208.82ZM167.033 207.274C167.689 207.155 168.341 207.037 168.99 206.918L168.449 203.967C167.802 204.085 167.152 204.204 166.498 204.322L167.033 207.274ZM175.814 205.652C176.467 205.529 177.117 205.408 177.762 205.286L177.209 202.338C176.563 202.459 175.914 202.581 175.262 202.703L175.814 205.652ZM184.577 204.011C185.23 203.89 185.878 203.769 186.523 203.651L185.98 200.7C185.333 200.819 184.683 200.94 184.029 201.061L184.577 204.011ZM193.335 202.426C193.988 202.313 194.637 202.201 195.282 202.091L194.78 199.134C194.13 199.244 193.477 199.356 192.82 199.471L193.335 202.426ZM202.096 201C202.751 200.902 203.402 200.808 204.049 200.716L203.63 197.746C202.975 197.838 202.316 197.934 201.654 198.033L202.096 201ZM210.881 199.863C211.535 199.793 212.186 199.728 212.833 199.666L212.551 196.68C211.891 196.742 211.228 196.809 210.563 196.88L210.881 199.863ZM219.673 199.187C220.328 199.159 220.98 199.136 221.629 199.119L221.551 196.12C220.884 196.137 220.215 196.161 219.543 196.19L219.673 199.187ZM228.458 199.172C229.109 199.2 229.757 199.236 230.403 199.279L230.603 196.286C229.934 196.241 229.263 196.204 228.59 196.175L228.458 199.172ZM237.163 200.023C237.483 200.073 237.802 200.125 238.121 200.179L238.623 197.221C238.29 197.165 237.958 197.111 237.625 197.059L237.163 200.023ZM238.372 200.2C238.694 200.2 239.015 200.201 239.335 200.203L239.354 197.203C239.027 197.201 238.7 197.2 238.372 197.2V200.2ZM246.051 200.405C246.692 200.439 247.331 200.479 247.967 200.522L248.173 197.53C247.522 197.485 246.869 197.445 246.214 197.409L246.051 200.405ZM254.652 201.157C255.288 201.234 255.922 201.316 256.554 201.403L256.962 198.431C256.315 198.342 255.665 198.258 255.014 198.179L254.652 201.157ZM263.173 202.499C263.801 202.621 264.427 202.747 265.052 202.879L265.671 199.944C265.03 199.809 264.388 199.679 263.745 199.554L263.173 202.499ZM271.577 204.444C272.193 204.61 272.809 204.781 273.425 204.957L274.249 202.073C273.619 201.892 272.988 201.717 272.356 201.547L271.577 204.444ZM279.827 206.973C280.431 207.181 281.034 207.393 281.638 207.611L282.654 204.788C282.037 204.566 281.42 204.349 280.803 204.136L279.827 206.973ZM287.904 210.042C288.493 210.287 289.083 210.536 289.673 210.791L290.86 208.036C290.258 207.776 289.656 207.521 289.055 207.272L287.904 210.042ZM295.794 213.585C296.083 213.724 296.372 213.864 296.662 214.006L297.979 211.31C297.684 211.167 297.39 211.024 297.096 210.882L295.794 213.585ZM296.584 213.965C296.859 214.12 297.135 214.273 297.411 214.425L298.858 211.798C298.59 211.65 298.323 211.501 298.056 211.351L296.584 213.965ZM303.286 217.44C303.852 217.711 304.419 217.979 304.987 218.244L306.253 215.524C305.695 215.264 305.139 215.001 304.585 214.735L303.286 217.44ZM310.985 220.914C311.557 221.16 312.131 221.405 312.705 221.648L313.876 218.886C313.305 218.644 312.736 218.402 312.169 218.158L310.985 220.914ZM318.724 224.173C319.296 224.413 319.867 224.653 320.439 224.894L321.605 222.13C321.03 221.888 320.456 221.647 319.884 221.407L318.724 224.173ZM326.397 227.468C326.96 227.719 327.522 227.972 328.083 228.228L329.329 225.499C328.759 225.239 328.189 224.982 327.619 224.728L326.397 227.468ZM333.903 231.025C334.449 231.303 334.994 231.585 335.538 231.871L336.937 229.218C336.379 228.924 335.821 228.635 335.263 228.351L333.903 231.025ZM341.137 235.033C341.398 235.192 341.659 235.352 341.92 235.513L343.5 232.963C343.231 232.796 342.962 232.631 342.692 232.468L341.137 235.033ZM342.032 235.577C342.344 235.734 342.658 235.892 342.976 236.049L344.311 233.363C343.999 233.208 343.691 233.053 343.387 232.9L342.032 235.577ZM349.574 239.277C350.189 239.583 350.807 239.895 351.428 240.215L352.802 237.548C352.167 237.221 351.536 236.903 350.912 236.592L349.574 239.277ZM357.723 243.753C358.301 244.113 358.875 244.483 359.446 244.864L361.113 242.37C360.514 241.97 359.912 241.582 359.309 241.207L357.723 243.753ZM365.093 249.213C365.594 249.661 366.087 250.123 366.571 250.6L368.675 248.462C368.157 247.951 367.629 247.457 367.094 246.977L365.093 249.213ZM371.14 255.983C371.521 256.529 371.892 257.089 372.251 257.666L374.798 256.082C374.411 255.458 374.01 254.852 373.597 254.263L371.14 255.983ZM375.393 263.977C375.633 264.596 375.861 265.23 376.076 265.881L378.924 264.937C378.693 264.239 378.448 263.558 378.19 262.892L375.393 263.977ZM377.759 272.779C377.868 273.44 377.965 274.114 378.051 274.803L381.028 274.431C380.938 273.704 380.834 272.991 380.719 272.29L377.759 272.779Z" fill="#2156DA"/>
</svg>
