<svg width="1440" height="518" viewBox="0 0 1440 518" fill="none" xmlns="http://www.w3.org/2000/svg">
<rect width="1440" height="518" fill="#E5E5E5"/>
<g clip-path="url(#clip0_0_1)">
<rect width="1440" height="905" fill="#A09292" fill-opacity="0.06"/>
<path fill-rule="evenodd" clip-rule="evenodd" d="M1503.86 377.31L1512.6 293.488C1517.41 247.383 1481.94 205.861 1433.78 201.205C1385.62 196.549 1342.29 230.454 1337.48 276.56C1332.67 322.666 1368.14 364.19 1416.3 368.846L1352 362.631C1310.76 358.644 1280.37 323.075 1284.49 283.579C1299.58 170.034 1500.95 221.193 1503.86 377.31L1503.86 377.31Z" stroke="black" stroke-opacity="0.13" stroke-width="6" stroke-miterlimit="22.9256" stroke-linecap="round" stroke-linejoin="round"/>
<path fill-rule="evenodd" clip-rule="evenodd" d="M238.771 441.849L230.366 348.489C225.743 297.138 178.206 258.785 124.714 263.249C71.2223 267.713 31.2489 313.369 35.8721 364.72C40.4954 416.072 88.0326 454.428 141.524 449.964L70.1138 455.923C24.3114 459.746 -16.4292 426.894 -20.3896 382.905C-28.2347 255.796 202.2 271.775 238.775 441.848L238.771 441.849Z" stroke="#2156DA" stroke-width="6" stroke-miterlimit="22.9256" stroke-linecap="round" stroke-linejoin="round"/>
</g>
<defs>
<clipPath id="clip0_0_1">
<rect width="1440" height="905" fill="white"/>
</clipPath>
</defs>
</svg>
