<svg width="1440" height="852" viewBox="0 0 1440 852" fill="none" xmlns="http://www.w3.org/2000/svg">
<rect width="1440" height="852" fill="#E5E5E5"/>
<g clip-path="url(#clip0_0_1)">
<rect width="1440" height="7030" transform="translate(0 -117)" fill="white"/>
<g clip-path="url(#clip1_0_1)">
<rect width="1440" height="852" fill="url(#paint0_linear_0_1)" fill-opacity="0.2"/>
<path fill-rule="evenodd" clip-rule="evenodd" d="M1370.57 845.427C1369.85 844.616 1368.84 842.099 1370.06 842.48C1372.25 843.156 1382.64 853.317 1388.89 847.377C1389.94 846.38 1392.61 843.677 1393.51 844.455C1394.42 845.231 1395.43 846.876 1392.92 848.861C1388.49 852.364 1384.28 852.926 1379.44 851.325C1375.99 850.187 1372.7 847.843 1370.57 845.427Z" fill="#A09292" fill-opacity="0.15"/>
<path fill-rule="evenodd" clip-rule="evenodd" d="M1413.22 856.107C1412.25 855.014 1411.46 851.975 1413.3 852.24C1415.14 852.505 1418.43 854.742 1423.53 856.383L1432.55 858.324C1433.51 858.632 1434.39 858.922 1435.24 859.209L1435.74 859.382C1440.83 861.135 1443.85 862.117 1446.7 864.003C1447.9 864.791 1448.28 866.474 1447.55 867.764C1446.81 869.052 1445.25 869.458 1444.06 868.67C1441.63 867.067 1438.77 864.686 1434.04 863.056L1433.05 862.721C1432.38 862.497 1431.68 862.268 1430.94 862.028L1423.55 859.712C1422.26 859.302 1421.24 858.966 1420.31 858.64L1419.55 858.371C1416.63 857.311 1414.25 857.277 1413.22 856.107Z" fill="#A09292" fill-opacity="0.15"/>
<path fill-rule="evenodd" clip-rule="evenodd" d="M1450.31 776.426C1451.21 775.268 1452.81 775.118 1453.88 776.089L1455.48 777.537C1481.33 801.038 1495.78 817.033 1499.13 826.124C1501.96 833.816 1495.76 846.12 1484.8 859.051L1480.83 863.687C1475.43 869.972 1472.33 873.409 1469.16 876.559L1468.73 876.987C1463.6 882.033 1459.59 884.829 1456.09 885.316C1443.16 887.107 1424.35 877.776 1399.28 857.523C1398.15 856.618 1397.93 854.903 1398.77 853.695C1399.61 852.485 1401.2 852.239 1402.32 853.144L1403.75 854.299C1427.11 872.944 1444.46 881.412 1455.44 879.89L1455.7 879.848C1459.56 879.121 1465.09 873.861 1476.62 860.537L1480.69 855.788L1481.4 854.957C1490.8 843.748 1496.19 832.977 1494.41 828.145C1491.44 820.073 1476.73 803.903 1450.62 780.28C1449.55 779.308 1449.41 777.583 1450.31 776.426Z" fill="#A09292" fill-opacity="0.15"/>
<path fill-rule="evenodd" clip-rule="evenodd" d="M1371.86 172.468C1375.53 173.627 1378.85 173.683 1381.35 172.176C1383.43 170.886 1385.33 169.332 1387.12 167.63C1390.97 163.958 1418.78 134.583 1428.21 118.962C1437.64 103.342 1436.83 104.005 1440.84 96.6254C1442.77 93.0544 1445.04 89.0057 1446.33 84.8077C1447.29 81.7174 1447.72 78.5467 1447.25 75.411C1446.82 72.6069 1444.8 69.4706 1441.93 66.7261C1438.28 63.2404 1432.6 59.6989 1429.52 58.204C1428.71 57.7741 1427.34 60.5352 1428.15 60.9658C1430.86 62.5504 1435.77 66.2884 1438.98 69.5952C1440.97 71.6432 1442.68 73.7172 1442.98 75.7332C1443.36 78.2607 1442.96 80.8107 1442.19 83.307C1440.97 87.2631 1438.84 91.0787 1437.03 94.447C1433.11 101.755 1429.87 108.918 1409.51 135.912C1406.22 140.29 1388 160.868 1384.09 164.549C1382.48 166.065 1380.79 167.461 1378.93 168.609C1376.79 169.981 1373.67 169.111 1370.35 167.904C1366.35 166.445 1353.09 159.904 1351.83 156.505C1351.36 155.238 1354.7 151.453 1356.93 149.196C1364.07 141.963 1375.96 127.736 1387.33 113.795C1399.84 98.4465 1429.29 61.5302 1428.58 60.9635C1427.94 60.4536 1428.95 58.8594 1429.52 58.204C1429.7 57.992 1426.76 58.0097 1421.3 64.8516C1412.61 75.7531 1399.62 92.8613 1386.42 109.074C1368.41 131.196 1349.37 150.886 1346.92 154.717C1346.87 154.798 1346.82 154.874 1346.77 154.945C1344.86 157.651 1361.83 169.3 1371.86 172.468Z" fill="#A09292" fill-opacity="0.15"/>
<path fill-rule="evenodd" clip-rule="evenodd" d="M1360.57 154.905C1359.85 154.153 1358.84 151.819 1360.06 152.173C1362.25 152.8 1372.64 162.221 1378.89 156.714C1379.94 155.789 1382.61 153.283 1383.51 154.004C1384.42 154.724 1385.43 156.249 1382.92 158.09C1378.49 161.337 1374.28 161.858 1369.44 160.374C1365.99 159.319 1362.7 157.146 1360.57 154.905Z" fill="#A09292" fill-opacity="0.15"/>
<path fill-rule="evenodd" clip-rule="evenodd" d="M1403.22 164.808C1402.25 163.795 1401.46 160.977 1403.3 161.223C1405.14 161.468 1408.43 163.543 1413.53 165.064L1422.55 166.864C1423.51 167.149 1424.39 167.419 1425.24 167.685L1425.74 167.845C1430.83 169.47 1433.85 170.381 1436.7 172.129C1437.9 172.86 1438.28 174.421 1437.55 175.616C1436.81 176.811 1435.25 177.187 1434.06 176.457C1431.63 174.97 1428.77 172.763 1424.04 171.251L1423.05 170.941C1422.38 170.733 1421.68 170.521 1420.94 170.298L1413.55 168.15C1412.26 167.77 1411.24 167.459 1410.31 167.157L1409.55 166.907C1406.63 165.924 1404.25 165.893 1403.22 164.808Z" fill="#A09292" fill-opacity="0.15"/>
<path fill-rule="evenodd" clip-rule="evenodd" d="M1440.31 90.9256C1441.21 89.852 1442.81 89.7128 1443.88 90.6129L1445.48 91.9554C1471.33 113.746 1485.77 128.577 1489.13 137.006C1491.96 144.139 1485.76 155.548 1474.8 167.538L1470.83 171.837C1465.43 177.664 1462.33 180.851 1459.16 183.772L1458.73 184.168C1453.6 188.848 1449.59 191.44 1446.09 191.891C1433.16 193.553 1414.35 184.901 1389.28 166.121C1388.15 165.282 1387.93 163.692 1388.77 162.571C1389.61 161.45 1391.2 161.222 1392.32 162.061L1393.75 163.131C1417.11 180.42 1434.46 188.271 1445.44 186.86L1445.7 186.821C1449.56 186.148 1455.09 181.27 1466.62 168.916L1470.69 164.512L1471.4 163.742C1480.8 153.348 1486.19 143.361 1484.41 138.881C1481.44 131.396 1466.73 116.403 1440.62 94.4989C1439.55 93.598 1439.41 91.9985 1440.31 90.9256Z" fill="#A09292" fill-opacity="0.15"/>
<path fill-rule="evenodd" clip-rule="evenodd" d="M1335.47 37.8432C1336.86 37.682 1337.86 65.3529 1337.95 66.8589C1338.23 71.4802 1342.41 77.5345 1350.08 82.5377L1350.51 82.8109C1351.95 83.7352 1357.71 87.5576 1358.48 88.141L1359.63 88.9726C1360.04 89.2582 1360.48 89.5489 1361.24 90.0378L1365.1 92.486C1371.51 96.5326 1375.77 99.6484 1380.89 104.432C1383.05 106.448 1384.48 109.856 1385.36 114.674C1385.62 116.052 1384.71 117.374 1383.33 117.627C1381.95 117.881 1379.07 107.176 1377.88 106.059C1373.22 101.71 1358.2 94.1133 1358.2 94.1133C1356.98 93.3265 1356.6 93.0496 1355.63 92.3402C1354.38 91.4312 1353.53 90.5626 1352.09 88.8462L1350.99 87.519C1349.81 86.1194 1349.16 85.4751 1348.37 84.9481L1348.25 84.8656C1343.36 81.7427 1339.92 78.5658 1337.7 75.3174C1335.7 72.3969 1334.69 69.4183 1334.51 66.3701C1334.42 65.0329 1334.5 63.8003 1334.7 62.4138L1334.95 60.7883C1334.98 60.5843 1335 60.4497 1335 60.3603L1335.01 60.0984C1335.04 57.5899 1334.08 38.0051 1335.47 37.8432Z" fill="#A09292" fill-opacity="0.15"/>
<path fill-rule="evenodd" clip-rule="evenodd" d="M1379.97 43.2436C1381.25 43.8219 1369.02 77.3311 1369.23 83.2513C1369.52 91.358 1373.46 98.7107 1379.4 102.243L1379.73 102.435C1383.09 104.327 1385.22 108.048 1385.41 115.069C1385.44 116.469 1384.34 117.633 1382.94 117.669C1381.54 117.706 1380.37 116.6 1380.34 115.2C1380.2 109.812 1379.2 106.805 1377.88 106.061C1370.13 101.695 1365.14 92.5805 1364.79 82.6382C1364.54 75.433 1378.7 42.6652 1379.97 43.2436Z" fill="#A09292" fill-opacity="0.15"/>
<path fill-rule="evenodd" clip-rule="evenodd" d="M1296.63 109.202C1301.65 98.8994 1307.7 91.3101 1314.81 86.4784C1322.44 81.2953 1330.17 81.565 1337.33 87.2738C1337.71 87.5793 1337.98 87.9743 1338.13 88.4038L1338.19 88.595L1338.35 88.6091C1338.61 88.6401 1338.87 88.7138 1339.12 88.8308L1339.27 88.9073C1340.49 89.5836 1340.94 91.1258 1340.26 92.3528L1339.62 93.5083C1333.02 105.285 1327.56 112.084 1322.79 114.064C1317.94 116.075 1309.87 115.579 1298.31 112.778C1296.74 112.397 1295.92 110.658 1296.63 109.202ZM1317.67 90.674C1312.08 94.4638 1307.14 100.295 1302.85 108.197L1302.65 108.569L1302.85 108.611C1311.43 110.446 1317.43 110.683 1320.65 109.456L1320.85 109.379C1324 108.073 1328.52 102.587 1334.04 93.0495L1334.85 91.6323L1334.72 91.5788C1334.58 91.5142 1334.43 91.435 1334.3 91.3401L1334.16 91.2405C1328.75 86.9205 1323.46 86.736 1317.67 90.674Z" fill="#A09292" fill-opacity="0.15"/>
<path fill-rule="evenodd" clip-rule="evenodd" d="M1330.54 24.2649C1331.36 23.2706 1332.8 23.0507 1333.88 23.7549C1341.73 28.874 1346.55 34.2064 1348.21 39.8688C1349.99 45.9777 1346.86 52.5387 1339.34 59.5449C1338.36 60.4614 1336.84 60.4455 1335.87 59.5354L1335.81 59.474L1335.7 59.5523C1335.21 59.884 1334.6 60.0439 1333.97 59.9639L1333.8 59.9362C1326.34 58.4733 1322.46 53.2849 1322.56 45.1253C1322.64 37.7367 1325.2 30.9093 1330.17 24.717L1330.54 24.2649ZM1333.36 29.5432L1333.04 29.3166L1333.04 29.3245C1329.49 34.2445 1327.7 39.5137 1327.63 45.1871C1327.56 50.9788 1329.81 53.9842 1334.78 54.9589C1335.24 55.0481 1335.64 55.2557 1335.97 55.5441L1336.08 55.6484L1336.23 55.5091C1342.12 49.9209 1344.36 45.2555 1343.4 41.5081L1343.34 41.2927C1342.22 37.4805 1338.93 33.5367 1333.36 29.5432Z" fill="#A09292" fill-opacity="0.15"/>
<path fill-rule="evenodd" clip-rule="evenodd" d="M1362.03 54.5337C1368.01 38.2046 1376.7 26.9767 1388.13 20.9853C1390.24 19.8816 1392.57 22.0224 1391.65 24.2142L1391.3 25.0517C1389.97 28.335 1389.27 30.8053 1389.18 32.3635L1389.16 32.6828L1389.16 32.814C1389.15 34.035 1389.28 35.4504 1389.55 37.3994L1390.47 43.3529C1390.51 43.6286 1390.55 43.8674 1390.57 44.053C1391.66 51.9366 1391.32 57.7642 1388.63 63.4933C1384.96 71.3374 1378.61 77.722 1369.69 82.6302C1368.98 83.0234 1368.15 83.0351 1367.46 82.7336L1367.44 82.7242L1367.31 82.7929C1366.4 83.2286 1365.29 83.0894 1364.51 82.383L1364.39 82.267C1358.29 75.9507 1357.62 66.5859 1362.03 54.5337ZM1384.12 29.6889C1376.93 35.5379 1371.15 44.3799 1366.79 56.2777C1363.23 66.0154 1363.46 73.0908 1367.21 77.8016L1367.44 78.0784L1367.8 77.8757C1375.34 73.615 1380.66 68.2649 1383.82 61.8132L1384.04 61.3393C1386.16 56.8191 1386.49 52.0368 1385.63 45.3579L1385.5 44.4308C1385.27 42.8359 1384.66 39.0297 1384.6 38.5663C1384.24 36.1543 1384.07 34.3936 1384.09 32.7622L1384.1 32.4106C1384.12 31.5961 1384.24 30.6813 1384.46 29.6622L1384.53 29.3585L1384.12 29.6889Z" fill="#A09292" fill-opacity="0.15"/>
<path fill-rule="evenodd" clip-rule="evenodd" d="M391.678 277.672C393.114 281.241 395.18 283.842 397.937 284.822C400.254 285.609 402.658 286.083 405.11 286.385C410.395 287.031 450.744 289.844 468.798 287.202C486.851 284.561 485.824 284.357 494.071 282.766C498.06 281.995 502.624 281.17 506.689 279.504C509.684 278.28 512.409 276.601 514.528 274.241C516.424 272.132 517.562 268.578 517.857 264.617C518.231 259.585 517.36 252.95 516.554 249.617C516.374 248.722 513.372 249.418 513.551 250.314C514.051 253.416 514.285 259.585 513.767 264.161C513.447 266.996 512.932 269.635 511.567 271.149C509.856 273.047 507.633 274.359 505.216 275.35C501.389 276.925 497.088 277.702 493.335 278.442C485.199 280.055 477.609 282.103 443.833 283.533C438.356 283.766 410.889 282.768 405.563 282.086C403.372 281.808 401.22 281.39 399.149 280.68C396.733 279.902 395.422 276.939 394.248 273.612C392.83 269.59 389.461 255.199 391.287 252.067C391.967 250.899 397.011 251.074 400.17 251.361C410.288 252.276 428.831 252.424 446.82 252.348C466.625 252.265 513.84 251.554 513.826 250.645C513.814 249.827 515.687 249.596 516.554 249.617C516.834 249.624 514.949 247.361 506.2 247.494C492.26 247.707 470.797 248.545 449.89 248.649C421.361 248.789 394.058 246.592 389.546 247.137C389.45 247.148 389.359 247.156 389.274 247.164C385.971 247.408 387.756 267.916 391.678 277.672Z" fill="#A09292" fill-opacity="0.15"/>
<path fill-rule="evenodd" clip-rule="evenodd" d="M398.07 257.796C398.195 256.764 399.354 254.499 399.861 255.671C400.763 257.754 400.091 271.769 408.316 273.099C409.696 273.322 413.326 273.789 413.344 274.945C413.361 276.1 412.828 277.852 409.811 277.082C404.489 275.725 401.411 272.802 399.481 268.12C398.108 264.79 397.697 260.869 398.07 257.796Z" fill="#A09292" fill-opacity="0.15"/>
<path fill-rule="evenodd" clip-rule="evenodd" d="M417.516 297.025C417.684 295.635 419.358 293.235 420.338 294.813C421.318 296.391 421.805 300.249 423.869 305.152L428.211 313.265C428.598 314.185 428.95 315.037 429.282 315.859L429.477 316.349C431.457 321.314 432.669 324.221 433.135 327.539C433.329 328.926 432.362 330.208 430.975 330.403C429.588 330.598 428.306 329.631 428.111 328.244C427.715 325.423 427.606 321.815 425.765 317.198L425.379 316.24C425.115 315.591 424.835 314.916 424.533 314.199L421.495 307.126C420.969 305.887 420.563 304.905 420.204 303.992L419.917 303.249C418.819 300.367 417.335 298.514 417.516 297.025Z" fill="#A09292" fill-opacity="0.15"/>
<path fill-rule="evenodd" clip-rule="evenodd" d="M498.14 278.74C499.541 278.754 500.665 279.901 500.651 281.301L500.629 283.388C500.219 317.191 497.942 337.77 493.562 345.714C489.855 352.435 477.104 354.892 460.881 354.044L455.039 353.709C447.106 353.238 442.679 352.872 438.408 352.278L437.827 352.196C430.954 351.206 426.409 349.761 423.834 347.341C414.339 338.412 409.071 318.389 407.646 287.093C407.581 285.694 408.664 284.508 410.064 284.444C411.463 284.38 412.649 285.463 412.713 286.862L412.799 288.652C414.284 317.673 419.241 336.059 427.309 343.646L427.503 343.82C430.472 346.37 437.753 347.543 454.617 348.598L460.607 348.949L461.649 349.003C475.651 349.664 486.791 347.486 489.12 343.264C493.009 336.21 495.248 315.33 495.579 281.252C495.593 279.851 496.739 278.726 498.14 278.74Z" fill="#A09292" fill-opacity="0.15"/>
<path fill-rule="evenodd" clip-rule="evenodd" d="M472.535 164.05C473.543 165.022 452.806 183.37 451.702 184.398C448.312 187.551 446.288 194.622 447.301 203.728L447.358 204.228C447.562 205.931 448.27 212.808 448.308 213.774L448.397 215.191C448.436 215.687 448.49 216.21 448.596 217.11L449.16 221.649C450.103 229.165 450.402 234.434 449.962 241.43C449.776 244.376 448.052 247.646 444.894 251.39C443.991 252.461 442.391 252.598 441.32 251.694C440.249 250.791 446.687 241.767 446.79 240.134C447.19 233.774 443.516 217.35 443.516 217.35C443.349 215.908 443.323 215.44 443.254 214.239C443.164 212.699 443.293 211.488 443.705 209.288L444.029 207.593C444.361 205.792 444.447 204.883 444.352 203.937L444.335 203.787C443.644 198.031 443.912 193.356 445.01 189.577C445.996 186.179 447.655 183.506 449.891 181.427C450.872 180.515 451.873 179.791 453.071 179.064L454.487 178.227C454.663 178.121 454.776 178.046 454.847 177.992L455.054 177.831C457.012 176.263 471.526 163.078 472.535 164.05Z" fill="#A09292" fill-opacity="0.15"/>
<path fill-rule="evenodd" clip-rule="evenodd" d="M496.636 201.851C496.999 203.204 463.349 215.043 458.911 218.967C452.833 224.339 449.66 232.055 450.706 238.888L450.769 239.266C451.441 243.062 449.922 247.073 444.615 251.673C443.557 252.59 441.955 252.476 441.038 251.417C440.12 250.359 440.234 248.757 441.293 247.84C445.365 244.31 447.053 241.628 446.789 240.135C445.238 231.377 449.112 221.74 456.566 215.151C461.968 210.376 496.272 200.499 496.636 201.851Z" fill="#A09292" fill-opacity="0.15"/>
<path fill-rule="evenodd" clip-rule="evenodd" d="M392.751 179.384C403.897 176.716 413.602 176.568 421.853 178.993C430.703 181.593 435.399 187.727 435.539 196.884C435.546 197.374 435.413 197.834 435.179 198.226L435.069 198.392L435.155 198.519C435.297 198.741 435.406 198.989 435.474 199.256L435.509 199.42C435.767 200.797 434.859 202.121 433.481 202.378L432.181 202.616C418.894 205 410.175 205.105 405.615 202.676C400.98 200.207 396.239 193.662 391.059 182.955C390.353 181.498 391.176 179.761 392.751 179.384ZM420.423 183.86C413.951 181.957 406.306 181.842 397.479 183.549L397.064 183.63L397.158 183.811C401.194 191.607 404.82 196.387 407.813 198.096L407.999 198.199C411.007 199.801 418.117 199.81 428.992 198.017L430.602 197.744L430.56 197.608C430.517 197.454 430.487 197.293 430.474 197.128L430.466 196.962C430.36 190.032 427.147 185.835 420.423 183.86Z" fill="#A09292" fill-opacity="0.15"/>
<path fill-rule="evenodd" clip-rule="evenodd" d="M479.89 151.617C481.181 151.62 482.264 152.591 482.406 153.873C483.442 163.19 482.382 170.296 479.061 175.172C475.478 180.433 468.423 182.184 458.233 180.824C456.9 180.647 455.948 179.464 456.038 178.141L456.046 178.054L455.918 178.021C455.348 177.851 454.838 177.482 454.5 176.946L454.413 176.796C450.802 170.104 452.342 163.808 458.707 158.701C464.47 154.077 471.368 151.715 479.307 151.62L479.89 151.617ZM477.607 157.15L477.579 156.759L477.569 156.759C471.513 157.142 466.306 159.106 461.881 162.657C457.364 166.283 456.471 169.929 458.877 174.388C459.099 174.798 459.196 175.243 459.181 175.678L459.17 175.829L459.372 175.856C467.435 176.861 472.457 175.623 474.74 172.499L474.869 172.317C477.105 169.035 478.056 163.982 477.607 157.15Z" fill="#A09292" fill-opacity="0.15"/>
<path fill-rule="evenodd" clip-rule="evenodd" d="M476.517 195.165C492.927 189.41 507.118 188.988 519.008 194.012C521.199 194.938 521.026 198.098 518.748 198.779L517.881 199.043C514.5 200.101 512.145 201.127 510.883 202.045L510.629 202.239L510.526 202.321C509.576 203.087 508.563 204.084 507.234 205.537L503.219 210.027C503.032 210.234 502.87 210.413 502.743 210.551C497.345 216.398 492.63 219.839 486.498 221.403C478.103 223.545 469.144 222.704 459.686 218.932C458.928 218.628 458.396 218 458.187 217.271L458.182 217.251L458.048 217.195C457.133 216.769 456.533 215.821 456.585 214.773L456.599 214.606C457.6 205.88 464.405 199.411 476.517 195.165ZM509.738 196.442C500.654 194.607 490.153 195.758 478.195 199.951C468.41 203.383 463.094 208.057 461.839 213.948L461.77 214.299L462.158 214.452C470.239 217.569 477.746 218.275 484.735 216.615L485.245 216.489C490.083 215.255 493.987 212.473 498.595 207.562L499.231 206.875C500.316 205.683 502.87 202.797 503.185 202.45C504.821 200.643 506.074 199.395 507.345 198.371L507.62 198.153C508.264 197.653 509.049 197.167 509.976 196.691L510.254 196.55L509.738 196.442Z" fill="#A09292" fill-opacity="0.15"/>
</g>
</g>
<defs>
<linearGradient id="paint0_linear_0_1" x1="965.5" y1="-2.61707e-05" x2="602.76" y2="832.952" gradientUnits="userSpaceOnUse">
<stop offset="0.0237146" stop-color="#A09292" stop-opacity="0"/>
<stop offset="0.266693" stop-color="#A09292" stop-opacity="0.12"/>
<stop offset="0.71016" stop-color="#A09292"/>
<stop offset="1" stop-color="#A09292"/>
</linearGradient>
<clipPath id="clip0_0_1">
<rect width="1440" height="7030" fill="white" transform="translate(0 -117)"/>
</clipPath>
<clipPath id="clip1_0_1">
<rect width="1440" height="852" fill="white"/>
</clipPath>
</defs>
</svg>
