<svg width="36" height="35" viewBox="0 0 36 35" fill="none" xmlns="http://www.w3.org/2000/svg">
<path d="M35.0648 18.6679L32.9879 15.392L34.2198 11.7154C34.3866 11.2136 34.1788 10.6626 33.7208 10.4001L30.36 8.46264L29.742 4.63428C29.6559 4.11199 29.2156 3.72231 28.6879 3.70044L24.8116 3.54867L22.4859 0.444967C22.1687 0.0211129 21.5944 -0.119716 21.12 0.108618L17.6184 1.77395L14.1155 0.107251C13.6397 -0.118349 13.0681 0.0224802 12.7496 0.444967L10.4238 3.54867L6.54764 3.70044C6.02124 3.72095 5.57961 4.11062 5.49484 4.63292L4.87683 8.46128L1.51608 10.3987C1.05804 10.6612 0.848851 11.2122 1.01566 11.714L2.24757 15.3906L0.172052 18.6679C-0.110973 19.115 -0.0385078 19.6989 0.342961 20.0653L3.14176 22.7493L2.82729 26.6132C2.78491 27.1423 3.11852 27.6249 3.62578 27.7726L7.35159 28.8459L8.86789 32.4159C9.07572 32.9012 9.59665 33.1829 10.1135 33.0708L13.9145 32.2914L16.9143 34.7484C17.118 34.9139 17.3682 35 17.6184 35C17.8686 35 18.1175 34.9139 18.3226 34.7484L21.3224 32.2914L25.1234 33.0708C25.6388 33.1802 26.1625 32.9026 26.369 32.4159L27.8853 28.8459L31.6111 27.7726C32.1183 27.6263 32.4519 27.1423 32.4096 26.6132L32.0951 22.7493L34.8939 20.0653C35.2754 19.6989 35.3478 19.115 35.0648 18.6679ZM25.6539 13.3206L17.8727 24.9779C17.5788 25.4127 17.1235 25.7039 16.6709 25.7039C16.2197 25.7039 15.7152 25.451 15.3939 25.1283L9.68142 19.3242C9.29175 18.9277 9.29175 18.2851 9.68142 17.8886L11.0911 16.453C11.4807 16.0619 12.1138 16.0619 12.5007 16.453L16.2183 20.2294L22.3492 11.044C22.6568 10.5805 23.2817 10.463 23.7356 10.7761L25.3886 11.9123C25.8439 12.2267 25.9615 12.8598 25.6539 13.3206Z" fill="#111D4A"/>
</svg>
