<svg width="306" height="50" viewBox="0 0 306 50" fill="none" xmlns="http://www.w3.org/2000/svg">
<path d="M144.97 38.1109C142.562 38.1109 140.401 37.5252 138.487 36.3544C136.574 35.183 135.065 33.5835 133.96 31.5545C132.855 29.5256 132.302 27.2249 132.302 24.6517C132.302 22.0785 132.855 19.7778 133.96 17.7488C135.065 15.7198 136.574 14.1204 138.487 12.9489C140.401 11.7774 142.594 11.1924 145.068 11.1924C147.279 11.1924 149.299 11.6377 151.13 12.5284C152.449 13.17 153.567 13.9913 154.483 14.9929C154.84 15.3824 154.997 15.8557 154.944 16.381C154.891 16.9072 154.642 17.3389 154.214 17.6492C153.926 17.8567 153.592 17.9783 153.215 18.01C152.654 18.0575 152.154 17.8945 151.729 17.5261C151.478 17.3095 151.213 17.1027 150.933 16.9072C150.059 16.2973 149.135 15.8104 148.162 15.4473C147.189 15.0843 146.224 14.9031 145.267 14.9031C143.519 14.9031 141.968 15.3318 140.616 16.1901C139.263 17.0476 138.191 18.2107 137.399 19.6781C136.608 21.1463 136.212 22.8038 136.212 24.6509C136.212 26.4987 136.616 28.1555 137.424 29.6237C138.232 31.0918 139.321 32.2542 140.69 33.1125C142.058 33.97 143.568 34.3987 145.217 34.3987C146.207 34.3987 147.164 34.2424 148.087 33.9292C149.01 33.6159 149.893 33.154 150.734 32.5433C151.09 32.2852 151.435 32.0051 151.77 31.7032C152.225 31.2926 152.805 31.1477 153.4 31.2956C153.996 31.4436 154.44 31.8444 154.649 32.4203C154.918 33.16 154.735 34.016 154.126 34.5814C153.214 35.429 152.132 36.1522 150.883 36.7492C148.986 37.6565 147.015 38.1109 144.97 38.1109ZM167.835 38.1109C165.625 38.1109 163.621 37.5252 161.823 36.3544C160.025 35.183 158.598 33.5835 157.543 31.5545C156.487 29.5256 155.959 27.2249 155.959 24.6517C155.959 22.046 156.495 19.7279 157.567 17.6997C158.639 15.6708 160.099 14.0788 161.946 12.9247C163.793 11.7698 165.856 11.1924 168.131 11.1924C169.451 11.1924 170.688 11.3902 171.843 11.7864C172.998 12.182 174.02 12.7345 174.91 13.444C175.801 14.1536 176.551 14.9778 177.162 15.9183C177.772 16.8581 178.177 17.8726 178.374 18.9618L177.286 18.4666L177.356 13.7203C177.372 12.622 178.27 11.7374 179.368 11.7374H179.381C180.489 11.7374 181.394 12.6417 181.394 13.7497V35.6042C181.394 36.7122 180.49 37.6165 179.381 37.6165H179.348C178.24 37.6165 177.336 36.7122 177.336 35.6042V32.5003C177.336 31.7583 177.705 31.1213 178.349 30.7529L178.374 30.7386C178.143 31.7281 177.706 32.6603 177.063 33.5344C176.42 34.4085 175.62 35.192 174.663 35.8849C173.706 36.5779 172.65 37.1221 171.496 37.5176C170.341 37.9132 169.121 38.1117 167.834 38.1117L167.835 38.1109ZM168.774 34.3006C170.457 34.3006 171.958 33.8884 173.278 33.0634C174.597 32.2384 175.637 31.1009 176.395 29.6493C177.154 28.1978 177.533 26.5153 177.533 24.6018C177.533 22.7548 177.161 21.1047 176.419 19.654C175.677 18.2024 174.646 17.0642 173.326 16.2399C172.007 15.4149 170.489 15.0027 168.774 15.0027C167.091 15.0027 165.599 15.4156 164.295 16.2399C162.993 17.0649 161.961 18.2024 161.203 19.654C160.444 21.1055 160.065 22.7548 160.065 24.6018C160.065 26.4821 160.437 28.148 161.179 29.5995C161.921 31.0511 162.952 32.1969 164.271 33.0385C165.591 33.8794 167.093 34.3006 168.774 34.3006ZM196.736 38.1109C194.361 38.1109 192.242 37.5252 190.378 36.3544C188.514 35.183 187.046 33.5918 185.974 31.5794C184.902 29.5671 184.365 27.2581 184.365 24.6517C184.365 22.046 184.91 19.7362 185.999 17.7246C187.087 15.7123 188.555 14.1204 190.402 12.9496C192.249 11.7781 194.328 11.1931 196.637 11.1931C197.923 11.1931 199.169 11.3992 200.373 11.8121C201.577 12.2242 202.658 12.7851 203.614 13.4946C204.57 14.2041 205.346 14.9959 205.94 15.87C206.534 16.7441 206.896 17.6756 207.028 18.6659L205.791 18.3685V3.01236C205.791 1.90428 206.695 1 207.803 1H207.837C208.945 1 209.849 1.90428 209.849 3.01236V35.8283C209.849 36.8134 209.045 37.6173 208.06 37.6173H207.837C206.735 37.6173 205.833 36.7236 205.825 35.6208L205.791 31.2345L206.732 30.9371C206.599 31.861 206.237 32.7434 205.643 33.5842C205.049 34.4251 204.299 35.192 203.391 35.8849C202.484 36.5779 201.454 37.1221 200.299 37.5176C199.144 37.9132 197.957 38.1109 196.736 38.1109ZM197.28 34.4991C198.963 34.4991 200.456 34.0703 201.759 33.2129C203.062 32.3546 204.093 31.1922 204.851 29.7241C205.61 28.2559 205.989 26.5659 205.989 24.6524C205.989 22.7389 205.617 21.0481 204.875 19.5807C204.133 18.1126 203.102 16.9502 201.783 16.092C200.463 15.2345 198.962 14.8057 197.28 14.8057C195.565 14.8057 194.047 15.2345 192.727 16.092C191.408 16.9494 190.368 18.1126 189.61 19.5807C188.851 21.0489 188.472 22.7397 188.472 24.6524C188.472 26.5327 188.851 28.2152 189.61 29.6999C190.368 31.1839 191.4 32.3554 192.702 33.2136C194.005 34.0711 195.531 34.4998 197.28 34.4998L197.28 34.4991ZM226.133 38.1109C223.527 38.1109 221.226 37.5418 219.23 36.4035C217.234 35.2652 215.667 33.7065 214.53 31.7274C213.391 29.7482 212.822 27.4392 212.822 24.7996C212.822 22.8205 213.144 20.9976 213.788 19.3317C214.431 17.6658 215.313 16.2225 216.435 15.002C217.556 13.7814 218.917 12.8334 220.518 12.1571C222.117 11.4807 223.858 11.1426 225.738 11.1426C227.454 11.1426 229.037 11.4558 230.488 12.0831C231.94 12.7096 233.185 13.5837 234.224 14.7053C235.264 15.827 236.055 17.1464 236.6 18.6636C237.132 20.1469 237.372 21.7712 237.322 23.5383C237.29 24.626 236.398 25.4925 235.31 25.4925H215.792L215.606 24.6011C215.478 23.9874 215.619 23.407 216.014 22.9201C216.409 22.434 216.949 22.1766 217.575 22.1766H234.1L233.259 23.0175V21.8905C233.259 21.8445 233.258 21.8052 233.255 21.7592C233.179 20.5983 232.826 19.5083 232.196 18.49C231.552 17.4506 230.678 16.6015 229.573 15.9417C228.468 15.282 227.174 14.9514 225.689 14.9514C223.874 14.9514 222.307 15.3228 220.989 16.0648C219.669 16.8068 218.655 17.8877 217.945 19.306C217.236 20.7243 216.882 22.4725 216.882 24.5513C216.882 26.5304 217.269 28.2544 218.044 29.7218C218.819 31.1899 219.941 32.3282 221.409 33.1359C222.877 33.9443 224.617 34.3481 226.629 34.3481C227.883 34.3481 229.095 34.1421 230.266 33.7299C231.016 33.4657 231.817 33.0362 232.668 32.4407C233.308 31.9931 234.126 32.0029 234.754 32.4671C235.383 32.9306 235.635 33.7088 235.397 34.4523C235.259 34.8825 234.991 35.232 234.6 35.4924C234.242 35.7302 233.861 35.9597 233.458 36.1793C232.369 36.7734 231.198 37.2429 229.944 37.5893C228.69 37.9358 227.421 38.1087 226.134 38.1087L226.133 38.1109ZM240.14 35.6034V13.749C240.14 12.6409 241.044 11.7366 242.152 11.7366H242.17C243.266 11.7366 244.163 12.619 244.181 13.715L244.247 17.5759L243.455 17.8726C243.752 16.9487 244.197 16.0829 244.791 15.2745C245.385 14.4668 246.111 13.7656 246.968 13.1715C247.826 12.5782 248.758 12.108 249.764 11.7615C250.77 11.4151 251.818 11.2422 252.906 11.2422C254.292 11.2422 255.529 11.4815 256.617 11.9593C257.706 12.4378 258.621 13.1964 259.364 14.2351C260.106 15.2745 260.658 16.6513 261.021 18.367L260.181 17.9715L260.527 17.1298C260.857 16.338 261.344 15.596 261.987 14.9031C262.63 14.2102 263.373 13.5837 264.214 13.0228C265.055 12.462 265.962 12.025 266.936 11.711C267.908 11.3977 268.906 11.2415 269.929 11.2415C271.809 11.2415 273.368 11.6287 274.605 12.4039C275.842 13.1791 276.782 14.3747 277.426 15.9916C278.069 17.6076 278.391 19.62 278.391 22.0279V35.6026C278.391 36.7107 277.487 37.615 276.378 37.615H276.345C275.237 37.615 274.333 36.7107 274.333 35.6026V22.2264C274.333 20.5771 274.127 19.2245 273.714 18.1692C273.302 17.1132 272.674 16.3214 271.834 15.7938C270.993 15.2662 269.945 15.002 268.691 15.002C267.635 15.002 266.646 15.1839 265.722 15.5462C264.799 15.9093 264.007 16.412 263.346 17.0551C262.687 17.699 262.176 18.441 261.813 19.2818C261.449 20.1227 261.268 21.0217 261.268 21.9788V35.6026C261.268 36.7107 260.364 37.615 259.256 37.615H259.223C258.115 37.615 257.21 36.7107 257.21 35.6026V22.1766C257.21 20.593 256.996 19.2735 256.567 18.2183C256.139 17.1623 255.504 16.3629 254.662 15.8179C253.821 15.2737 252.79 15.0012 251.57 15.0012C250.514 15.0012 249.541 15.1831 248.65 15.5455C247.759 15.9085 246.984 16.4112 246.324 17.0544C245.665 17.6982 245.145 18.4319 244.766 19.2562C244.386 20.0812 244.196 20.9719 244.196 21.9283V35.6019C244.196 36.71 243.292 37.6142 242.184 37.6142H242.151C241.043 37.6142 240.139 36.71 240.139 35.6019L240.14 35.6034ZM288.129 46.5234L292.15 36.8247L292.398 40.4365L280.717 14.5778C280.427 13.9362 280.479 13.2493 280.861 12.6575C281.242 12.0665 281.847 11.7366 282.551 11.7366H282.727C283.542 11.7366 284.237 12.1895 284.567 12.9338L292.738 31.3643C292.743 31.3764 292.747 31.3862 292.753 31.3975C292.981 31.8889 293.218 32.486 293.463 33.188C293.711 33.8975 293.95 34.598 294.181 35.2909L292.845 35.192C293.076 34.598 293.298 34.0047 293.513 33.4106C293.727 32.8166 293.95 32.2233 294.181 31.6292L301.211 13.0379C301.512 12.2401 302.239 11.7374 303.092 11.7374H303.366C304.056 11.7374 304.65 12.0529 305.035 12.625C305.421 13.1972 305.49 13.866 305.231 14.5053L295.863 37.6165L291.91 47.7183C291.602 48.5056 290.881 48.997 290.035 48.997H289.782C289.166 48.997 288.637 48.7139 288.295 48.2022C287.953 47.6896 287.893 47.0926 288.129 46.5234Z" fill="white"/>
<path fill-rule="evenodd" clip-rule="evenodd" d="M60.5055 47.2126V25.017C60.5055 12.8085 50.5192 2.82214 38.3107 2.82214C26.1021 2.82214 16.1158 12.8085 16.1158 25.017C16.1158 37.2255 26.1021 47.2126 38.3107 47.2126H22.0125C11.5589 47.2126 3 38.6582 3 28.2001C3.81521 -1.94834 55.689 6.36001 60.5055 47.2126Z" stroke="white" stroke-width="4.49339" stroke-miterlimit="22.9256" stroke-linecap="round" stroke-linejoin="round"/>
<path d="M86.8692 38.1109C84.659 38.1109 82.655 37.5252 80.857 36.3544C79.059 35.1829 77.6324 33.5835 76.5771 31.5545C75.5219 29.5255 74.9935 27.2248 74.9935 24.6516C74.9935 22.046 75.5295 19.7279 76.6013 17.6997C77.6739 15.6708 79.1337 14.0788 80.9808 12.9247C82.8286 11.7698 84.89 11.1924 87.1658 11.1924C88.4853 11.1924 89.7224 11.3901 90.8773 11.7864C92.0322 12.182 93.0542 12.7345 93.9456 13.444C94.8363 14.1536 95.5866 14.9778 96.1965 15.9183C96.8072 16.8581 97.211 17.8726 97.4088 18.9618L96.3203 18.4666L96.3898 13.7203C96.4056 12.622 97.3039 11.7374 98.4021 11.7374H98.415C99.523 11.7374 100.427 12.6416 100.427 13.7497V35.6041C100.427 36.7122 99.5238 37.6165 98.415 37.6165H98.3817C97.2737 37.6165 96.3694 36.7122 96.3694 35.6041V32.5003C96.3694 31.7583 96.7392 31.1212 97.3831 30.7529L97.408 30.7385C97.177 31.7281 96.74 32.6603 96.0969 33.5344C95.4538 34.4085 94.6537 35.192 93.6966 35.8849C92.7402 36.5779 91.6842 37.1221 90.5293 37.5176C89.3752 37.9131 88.1546 38.1117 86.8677 38.1117L86.8692 38.1109ZM87.8097 34.3006C89.4922 34.3006 90.9928 33.8884 92.3122 33.0634C93.6316 32.2384 94.671 31.1009 95.4296 29.6493C96.1882 28.1978 96.5679 26.5153 96.5679 24.6018C96.5679 22.7548 96.1965 21.1047 95.4545 19.654C94.7125 18.2024 93.6815 17.0642 92.3613 16.2399C91.0418 15.4149 89.5246 15.0027 87.8089 15.0027C86.1264 15.0027 84.6341 15.4156 83.3306 16.2399C82.0277 17.0649 80.9974 18.2024 80.238 19.654C79.4794 21.1055 79.1005 22.7548 79.1005 24.6018C79.1005 26.4821 79.4719 28.148 80.2139 29.5995C80.9559 31.051 81.987 32.1969 83.3064 33.0385C84.6258 33.8794 86.1272 34.3006 87.8097 34.3006V34.3006ZM116.414 48.997C114.5 48.997 112.678 48.7003 110.946 48.1063C109.88 47.741 108.929 47.319 108.094 46.8412C107.486 46.4925 107.151 45.8675 107.198 45.1678C107.246 44.468 107.662 43.8944 108.311 43.6309C108.355 43.6128 108.401 43.5962 108.447 43.5811C108.986 43.4022 109.515 43.446 110.017 43.7102C110.189 43.8008 110.368 43.8891 110.549 43.9751C111.423 44.3873 112.363 44.7088 113.37 44.9406C114.376 45.1715 115.407 45.287 116.462 45.287C118.342 45.287 119.943 44.9489 121.262 44.2725C122.581 43.5962 123.579 42.59 124.256 41.254C124.932 39.918 125.27 38.2604 125.27 36.2812V31.3333L125.914 31.2843C125.617 32.4716 124.99 33.5933 124.034 34.6493C123.077 35.7045 121.889 36.5462 120.471 37.1727C119.053 37.7999 117.568 38.1132 116.017 38.1132C113.576 38.1132 111.415 37.5274 109.535 36.3567C107.655 35.1852 106.162 33.594 105.057 31.5817C103.952 29.5693 103.4 27.2603 103.4 24.6539C103.4 22.0483 103.952 19.7385 105.057 17.7269C106.162 15.7145 107.663 14.1226 109.56 12.9519C111.457 11.7804 113.576 11.1954 115.919 11.1954C116.941 11.1954 117.923 11.3192 118.862 11.5668C119.803 11.8144 120.677 12.1684 121.485 12.6303C122.293 13.0923 123.027 13.6116 123.687 14.189C124.347 14.7665 124.891 15.393 125.32 16.0693C125.749 16.7456 126.046 17.4302 126.211 18.1232L125.171 18.0741L125.239 13.721C125.256 12.6235 126.154 11.7404 127.251 11.7404H127.316C128.424 11.7404 129.328 12.6447 129.328 13.7527V36.0359C129.328 38.1139 129.022 39.9534 128.412 41.5529C127.803 43.1531 126.928 44.505 125.79 45.6108C124.653 46.7159 123.292 47.5568 121.708 48.1342C120.124 48.7117 118.36 49 116.414 49V48.997ZM116.463 34.3006C118.179 34.3006 119.721 33.8884 121.089 33.0634C122.458 32.2384 123.522 31.1009 124.28 29.6493C125.039 28.1978 125.419 26.5319 125.419 24.6516C125.419 22.7714 125.031 21.1055 124.256 19.654C123.48 18.2024 122.425 17.0559 121.088 16.215C119.752 15.3741 118.21 14.9529 116.462 14.9529C114.747 14.9529 113.213 15.3734 111.86 16.215C110.508 17.0559 109.444 18.2107 108.668 19.6789C107.893 21.147 107.505 22.8046 107.505 24.6516C107.505 26.4995 107.893 28.1487 108.668 29.6003C109.444 31.0518 110.499 32.1976 111.836 33.0392C113.172 33.8801 114.714 34.3013 116.462 34.3013L116.463 34.3006Z" fill="white"/>
</svg>
