<svg width="127" height="20" viewBox="0 0 127 20" fill="none" xmlns="http://www.w3.org/2000/svg">
<mask id="path-1-inside-1_947_1672" fill="white">
<path d="M60.1541 15.4629C59.1508 15.4629 58.2504 15.2188 57.4531 14.731C56.6558 14.2429 56.0271 13.5765 55.5666 12.731C55.1062 11.8856 54.876 10.927 54.876 9.85486C54.876 8.78269 55.1062 7.82406 55.5666 6.97866C56.0271 6.13326 56.6561 5.46681 57.4531 4.97869C58.2504 4.49057 59.1643 4.24683 60.1953 4.24683C61.1162 4.24683 61.9581 4.43239 62.7211 4.80351C63.2706 5.07084 63.7364 5.41303 64.1182 5.83039C64.2669 5.99267 64.332 6.18987 64.31 6.40877C64.288 6.62798 64.1842 6.80788 64.0059 6.93715C63.8861 7.02364 63.7467 7.07427 63.5895 7.08748C63.3558 7.1073 63.1476 7.03936 62.9705 6.88588C62.8658 6.79562 62.7554 6.70944 62.6387 6.62798C62.2745 6.37386 61.8899 6.171 61.4841 6.01972C61.0787 5.86844 60.6768 5.79296 60.278 5.79296C59.5496 5.79296 58.9036 5.9716 58.34 6.3292C57.7764 6.68648 57.3298 7.17114 56.9999 7.78255C56.6699 8.39427 56.5051 9.08494 56.5051 9.85454C56.5051 10.6245 56.6734 11.3148 57.0102 11.9265C57.3468 12.5383 57.8006 13.0226 58.3708 13.3802C58.941 13.7375 59.57 13.9161 60.2572 13.9161C60.6696 13.9161 61.0684 13.851 61.453 13.7205C61.8377 13.59 62.2053 13.3975 62.556 13.1431C62.7041 13.0355 62.8479 12.9188 62.9875 12.793C63.1772 12.6219 63.419 12.5615 63.6668 12.6232C63.915 12.6848 64.0999 12.8518 64.1874 13.0918C64.2993 13.4 64.2229 13.7567 63.9694 13.9922C63.5892 14.3454 63.1385 14.6467 62.618 14.8955C61.8276 15.2735 61.0064 15.4626 60.1541 15.4626V15.4629ZM69.6812 15.4629C68.7603 15.4629 67.9253 15.2188 67.1761 14.731C66.427 14.2429 65.8326 13.5765 65.3929 12.731C64.9532 11.8856 64.733 10.927 64.733 9.85486C64.733 8.76917 64.9563 7.80331 65.4029 6.95822C65.8499 6.11282 66.4581 5.44951 67.2277 4.96863C67.9973 4.48743 68.8566 4.24683 69.8048 4.24683C70.3546 4.24683 70.8701 4.32923 71.3513 4.49435C71.8325 4.65915 72.2583 4.88937 72.6294 5.18501C73.0006 5.48065 73.3132 5.8241 73.5676 6.21597C73.8217 6.60754 73.9903 7.03024 74.0727 7.48408L73.6192 7.27776L73.6485 5.30012C73.6551 4.84251 74.0293 4.4739 74.4869 4.4739H74.4923C74.954 4.4739 75.3308 4.85069 75.3308 5.31239V14.4184C75.3308 14.8801 74.9543 15.2569 74.4923 15.2569H74.4784C74.0167 15.2569 73.64 14.8801 73.64 14.4184V13.1251C73.64 12.816 73.7938 12.5505 74.0623 12.397L74.0727 12.3911C73.9765 12.8034 73.7944 13.1918 73.5264 13.556C73.2585 13.9202 72.9251 14.2467 72.5263 14.5354C72.1278 14.8241 71.6878 15.0509 71.2066 15.2157C70.7254 15.3805 70.2171 15.4632 69.6809 15.4632L69.6812 15.4629ZM70.0728 13.8752C70.7738 13.8752 71.3994 13.7035 71.9492 13.3598C72.4989 13.016 72.932 12.542 73.2481 11.9372C73.5642 11.3324 73.722 10.6314 73.722 9.8341C73.722 9.06449 73.5673 8.37697 73.2581 7.77248C72.949 7.16768 72.5194 6.6934 71.9693 6.34996C71.4195 6.0062 70.7873 5.83447 70.0725 5.83447C69.3714 5.83447 68.7496 6.00651 68.2065 6.34996C67.6636 6.69372 67.234 7.16768 66.9179 7.77248C66.6019 8.37729 66.444 9.06449 66.444 9.8341C66.444 10.6175 66.5987 11.3117 66.9079 11.9165C67.217 12.5213 67.6467 12.9987 68.1964 13.3494C68.7462 13.6997 69.3717 13.8752 70.0725 13.8752H70.0728ZM81.7235 15.4629C80.7337 15.4629 79.8509 15.2188 79.0741 14.731C78.2975 14.2429 77.6858 13.5799 77.2392 12.7414C76.7926 11.9029 76.569 10.9409 76.569 9.85486C76.569 8.76917 76.7958 7.80677 77.2496 6.9686C77.7031 6.13011 78.3148 5.46681 79.0844 4.97901C79.854 4.49089 80.7199 4.24714 81.6823 4.24714C82.2182 4.24714 82.7372 4.333 83.2388 4.50504C83.7404 4.67676 84.1908 4.91044 84.5893 5.20608C84.9878 5.50172 85.3108 5.83164 85.5583 6.19585C85.8058 6.56005 85.9568 6.94815 86.0118 7.36079L85.4964 7.23687V0.838484C85.4964 0.376783 85.8731 0 86.3348 0H86.3487C86.8104 0 87.1872 0.376783 87.1872 0.838484V14.5118C87.1872 14.9222 86.8522 15.2572 86.4418 15.2572H86.349C85.8895 15.2572 85.514 14.8848 85.5105 14.4253L85.4964 12.5977L85.8882 12.4738C85.8332 12.8587 85.6822 13.2264 85.4347 13.5768C85.1872 13.9271 84.8746 14.2467 84.4965 14.5354C84.1185 14.8241 83.6892 15.0509 83.208 15.2157C82.7268 15.3805 82.2321 15.4632 81.7235 15.4632V15.4629ZM81.9503 13.958C82.6513 13.958 83.2734 13.7793 83.8162 13.422C84.3591 13.0644 84.7887 12.5801 85.1048 11.9684C85.4209 11.3566 85.5788 10.6525 85.5788 9.85517C85.5788 9.05789 85.424 8.35338 85.1148 7.74198C84.8057 7.13026 84.3761 6.64591 83.8263 6.28831C83.2765 5.93103 82.651 5.75239 81.9499 5.75239C81.2354 5.75239 80.6029 5.93103 80.0531 6.28831C79.5034 6.6456 79.0703 7.13026 78.7542 7.74198C78.4381 8.3537 78.2799 9.0582 78.2799 9.85517C78.2799 10.6386 78.4381 11.3397 78.7542 11.9583C79.0703 12.5766 79.4999 13.0647 80.0427 13.4223C80.5856 13.7796 81.2215 13.9583 81.9499 13.9583L81.9503 13.958ZM93.9721 15.4629C92.8864 15.4629 91.9275 15.2257 91.0959 14.7515C90.2643 14.2772 89.6114 13.6277 89.1374 12.8031C88.6632 11.9784 88.426 11.0163 88.426 9.9165C88.426 9.09185 88.56 8.33231 88.8283 7.63819C89.0962 6.94407 89.4639 6.34272 89.9313 5.83416C90.3986 5.3256 90.9657 4.93057 91.6324 4.64877C92.2989 4.36697 93.0241 4.22607 93.8076 4.22607C94.5225 4.22607 95.182 4.35659 95.7868 4.61795C96.3916 4.87899 96.9105 5.2432 97.3436 5.71056C97.7767 6.17792 98.1063 6.72768 98.3334 7.35985C98.5551 7.97786 98.6551 8.65469 98.6341 9.39095C98.6209 9.84416 98.2494 10.2052 97.7959 10.2052H89.6636L89.5859 9.83378C89.5325 9.57809 89.5913 9.33623 89.7558 9.13337C89.9206 8.93083 90.1454 8.82358 90.4065 8.82358H97.2917L96.9414 9.17394V8.70438C96.9414 8.68519 96.9407 8.66884 96.9398 8.64965C96.908 8.16594 96.7608 7.71178 96.4982 7.28751C96.2303 6.85443 95.8661 6.50061 95.4056 6.22572C94.9452 5.95084 94.4058 5.81309 93.7871 5.81309C93.0311 5.81309 92.3781 5.96783 91.8287 6.27699C91.2789 6.58615 90.8562 7.03653 90.5606 7.6275C90.265 8.21846 90.1174 8.94687 90.1174 9.81303C90.1174 10.6377 90.2788 11.356 90.6018 11.9674C90.9248 12.5791 91.3922 13.0534 92.0039 13.3899C92.6156 13.7268 93.3405 13.8951 94.179 13.8951C94.7014 13.8951 95.2065 13.8092 95.6943 13.6375C96.0066 13.5274 96.3406 13.3484 96.6951 13.1003C96.9618 12.9138 97.3024 12.9179 97.5644 13.1113C97.8264 13.3044 97.9314 13.6287 97.8321 13.9385C97.7748 14.1177 97.6632 14.2633 97.4999 14.3718C97.3509 14.4709 97.192 14.5665 97.0241 14.6581C96.5706 14.9056 96.0824 15.1012 95.56 15.2456C95.0376 15.3899 94.5086 15.4619 93.9724 15.4619L93.9721 15.4629ZM99.8084 14.4181V5.31207C99.8084 4.85037 100.185 4.47359 100.647 4.47359H100.654C101.111 4.47359 101.485 4.84125 101.492 5.29792L101.52 6.90664L101.19 7.03024C101.313 6.64528 101.499 6.28454 101.746 5.9477C101.994 5.61117 102.296 5.31899 102.653 5.07147C103.011 4.82427 103.399 4.62833 103.818 4.48397C104.238 4.33961 104.674 4.26759 105.128 4.26759C105.705 4.26759 106.22 4.36729 106.674 4.56637C107.127 4.76577 107.509 5.08185 107.818 5.51462C108.128 5.9477 108.358 6.52136 108.509 7.23624L108.159 7.07144L108.303 6.72076C108.44 6.39084 108.643 6.08168 108.911 5.79296C109.179 5.50424 109.489 5.2432 109.839 5.00951C110.19 4.77583 110.568 4.59373 110.973 4.4629C111.379 4.33237 111.794 4.26727 112.221 4.26727C113.004 4.26727 113.653 4.42861 114.169 4.75162C114.684 5.07462 115.076 5.5728 115.344 6.24648C115.612 6.91985 115.746 7.75833 115.746 8.76162V14.4178C115.746 14.8795 115.37 15.2562 114.908 15.2562H114.894C114.432 15.2562 114.055 14.8795 114.055 14.4178V8.84433C114.055 8.15713 113.97 7.59353 113.798 7.15384C113.626 6.71384 113.364 6.38392 113.014 6.16408C112.664 5.94424 112.227 5.83416 111.705 5.83416C111.265 5.83416 110.852 5.90996 110.467 6.06092C110.083 6.2122 109.753 6.42166 109.478 6.68963C109.203 6.9579 108.99 7.26707 108.839 7.61743C108.687 7.96779 108.612 8.34238 108.612 8.74118V14.4178C108.612 14.8795 108.235 15.2562 107.773 15.2562H107.76C107.298 15.2562 106.921 14.8795 106.921 14.4178V8.82358C106.921 8.16374 106.832 7.61397 106.653 7.17429C106.474 6.73429 106.21 6.40122 105.859 6.17414C105.509 5.94738 105.079 5.83385 104.571 5.83385C104.131 5.83385 103.725 5.90964 103.354 6.06061C102.983 6.21189 102.66 6.42135 102.385 6.68931C102.11 6.95759 101.894 7.26329 101.736 7.60674C101.578 7.9505 101.499 8.32162 101.499 8.7201V14.4174C101.499 14.8792 101.122 15.2559 100.66 15.2559H100.646C100.185 15.2559 99.8078 14.8792 99.8078 14.4174L99.8084 14.4181ZM119.804 18.9681L121.479 14.927L121.583 16.4319L116.716 5.6574C116.595 5.39007 116.616 5.10387 116.775 4.85729C116.934 4.61103 117.186 4.47359 117.48 4.47359H117.553C117.892 4.47359 118.182 4.6623 118.32 4.9724L121.724 12.6518C121.726 12.6568 121.728 12.6609 121.73 12.6656C121.826 12.8704 121.924 13.1192 122.026 13.4116C122.13 13.7073 122.229 13.9992 122.325 14.2879L121.769 14.2467C121.865 13.9992 121.958 13.7519 122.047 13.5044C122.136 13.2569 122.229 13.0097 122.325 12.7622L125.254 5.0158C125.38 4.68337 125.683 4.4739 126.039 4.4739H126.153C126.44 4.4739 126.688 4.60537 126.848 4.84377C127.009 5.08217 127.038 5.36082 126.93 5.62721L123.026 15.2569L121.379 19.466C121.251 19.794 120.95 19.9987 120.598 19.9987H120.493C120.236 19.9987 120.015 19.8808 119.873 19.6676C119.73 19.454 119.706 19.2052 119.804 18.9681H119.804Z"/>
</mask>
<path d="M60.1541 15.4629C59.1508 15.4629 58.2504 15.2188 57.4531 14.731C56.6558 14.2429 56.0271 13.5765 55.5666 12.731C55.1062 11.8856 54.876 10.927 54.876 9.85486C54.876 8.78269 55.1062 7.82406 55.5666 6.97866C56.0271 6.13326 56.6561 5.46681 57.4531 4.97869C58.2504 4.49057 59.1643 4.24683 60.1953 4.24683C61.1162 4.24683 61.9581 4.43239 62.7211 4.80351C63.2706 5.07084 63.7364 5.41303 64.1182 5.83039C64.2669 5.99267 64.332 6.18987 64.31 6.40877C64.288 6.62798 64.1842 6.80788 64.0059 6.93715C63.8861 7.02364 63.7467 7.07427 63.5895 7.08748C63.3558 7.1073 63.1476 7.03936 62.9705 6.88588C62.8658 6.79562 62.7554 6.70944 62.6387 6.62798C62.2745 6.37386 61.8899 6.171 61.4841 6.01972C61.0787 5.86844 60.6768 5.79296 60.278 5.79296C59.5496 5.79296 58.9036 5.9716 58.34 6.3292C57.7764 6.68648 57.3298 7.17114 56.9999 7.78255C56.6699 8.39427 56.5051 9.08494 56.5051 9.85454C56.5051 10.6245 56.6734 11.3148 57.0102 11.9265C57.3468 12.5383 57.8006 13.0226 58.3708 13.3802C58.941 13.7375 59.57 13.9161 60.2572 13.9161C60.6696 13.9161 61.0684 13.851 61.453 13.7205C61.8377 13.59 62.2053 13.3975 62.556 13.1431C62.7041 13.0355 62.8479 12.9188 62.9875 12.793C63.1772 12.6219 63.419 12.5615 63.6668 12.6232C63.915 12.6848 64.0999 12.8518 64.1874 13.0918C64.2993 13.4 64.2229 13.7567 63.9694 13.9922C63.5892 14.3454 63.1385 14.6467 62.618 14.8955C61.8276 15.2735 61.0064 15.4626 60.1541 15.4626V15.4629ZM69.6812 15.4629C68.7603 15.4629 67.9253 15.2188 67.1761 14.731C66.427 14.2429 65.8326 13.5765 65.3929 12.731C64.9532 11.8856 64.733 10.927 64.733 9.85486C64.733 8.76917 64.9563 7.80331 65.4029 6.95822C65.8499 6.11282 66.4581 5.44951 67.2277 4.96863C67.9973 4.48743 68.8566 4.24683 69.8048 4.24683C70.3546 4.24683 70.8701 4.32923 71.3513 4.49435C71.8325 4.65915 72.2583 4.88937 72.6294 5.18501C73.0006 5.48065 73.3132 5.8241 73.5676 6.21597C73.8217 6.60754 73.9903 7.03024 74.0727 7.48408L73.6192 7.27776L73.6485 5.30012C73.6551 4.84251 74.0293 4.4739 74.4869 4.4739H74.4923C74.954 4.4739 75.3308 4.85069 75.3308 5.31239V14.4184C75.3308 14.8801 74.9543 15.2569 74.4923 15.2569H74.4784C74.0167 15.2569 73.64 14.8801 73.64 14.4184V13.1251C73.64 12.816 73.7938 12.5505 74.0623 12.397L74.0727 12.3911C73.9765 12.8034 73.7944 13.1918 73.5264 13.556C73.2585 13.9202 72.9251 14.2467 72.5263 14.5354C72.1278 14.8241 71.6878 15.0509 71.2066 15.2157C70.7254 15.3805 70.2171 15.4632 69.6809 15.4632L69.6812 15.4629ZM70.0728 13.8752C70.7738 13.8752 71.3994 13.7035 71.9492 13.3598C72.4989 13.016 72.932 12.542 73.2481 11.9372C73.5642 11.3324 73.722 10.6314 73.722 9.8341C73.722 9.06449 73.5673 8.37697 73.2581 7.77248C72.949 7.16768 72.5194 6.6934 71.9693 6.34996C71.4195 6.0062 70.7873 5.83447 70.0725 5.83447C69.3714 5.83447 68.7496 6.00651 68.2065 6.34996C67.6636 6.69372 67.234 7.16768 66.9179 7.77248C66.6019 8.37729 66.444 9.06449 66.444 9.8341C66.444 10.6175 66.5987 11.3117 66.9079 11.9165C67.217 12.5213 67.6467 12.9987 68.1964 13.3494C68.7462 13.6997 69.3717 13.8752 70.0725 13.8752H70.0728ZM81.7235 15.4629C80.7337 15.4629 79.8509 15.2188 79.0741 14.731C78.2975 14.2429 77.6858 13.5799 77.2392 12.7414C76.7926 11.9029 76.569 10.9409 76.569 9.85486C76.569 8.76917 76.7958 7.80677 77.2496 6.9686C77.7031 6.13011 78.3148 5.46681 79.0844 4.97901C79.854 4.49089 80.7199 4.24714 81.6823 4.24714C82.2182 4.24714 82.7372 4.333 83.2388 4.50504C83.7404 4.67676 84.1908 4.91044 84.5893 5.20608C84.9878 5.50172 85.3108 5.83164 85.5583 6.19585C85.8058 6.56005 85.9568 6.94815 86.0118 7.36079L85.4964 7.23687V0.838484C85.4964 0.376783 85.8731 0 86.3348 0H86.3487C86.8104 0 87.1872 0.376783 87.1872 0.838484V14.5118C87.1872 14.9222 86.8522 15.2572 86.4418 15.2572H86.349C85.8895 15.2572 85.514 14.8848 85.5105 14.4253L85.4964 12.5977L85.8882 12.4738C85.8332 12.8587 85.6822 13.2264 85.4347 13.5768C85.1872 13.9271 84.8746 14.2467 84.4965 14.5354C84.1185 14.8241 83.6892 15.0509 83.208 15.2157C82.7268 15.3805 82.2321 15.4632 81.7235 15.4632V15.4629ZM81.9503 13.958C82.6513 13.958 83.2734 13.7793 83.8162 13.422C84.3591 13.0644 84.7887 12.5801 85.1048 11.9684C85.4209 11.3566 85.5788 10.6525 85.5788 9.85517C85.5788 9.05789 85.424 8.35338 85.1148 7.74198C84.8057 7.13026 84.3761 6.64591 83.8263 6.28831C83.2765 5.93103 82.651 5.75239 81.9499 5.75239C81.2354 5.75239 80.6029 5.93103 80.0531 6.28831C79.5034 6.6456 79.0703 7.13026 78.7542 7.74198C78.4381 8.3537 78.2799 9.0582 78.2799 9.85517C78.2799 10.6386 78.4381 11.3397 78.7542 11.9583C79.0703 12.5766 79.4999 13.0647 80.0427 13.4223C80.5856 13.7796 81.2215 13.9583 81.9499 13.9583L81.9503 13.958ZM93.9721 15.4629C92.8864 15.4629 91.9275 15.2257 91.0959 14.7515C90.2643 14.2772 89.6114 13.6277 89.1374 12.8031C88.6632 11.9784 88.426 11.0163 88.426 9.9165C88.426 9.09185 88.56 8.33231 88.8283 7.63819C89.0962 6.94407 89.4639 6.34272 89.9313 5.83416C90.3986 5.3256 90.9657 4.93057 91.6324 4.64877C92.2989 4.36697 93.0241 4.22607 93.8076 4.22607C94.5225 4.22607 95.182 4.35659 95.7868 4.61795C96.3916 4.87899 96.9105 5.2432 97.3436 5.71056C97.7767 6.17792 98.1063 6.72768 98.3334 7.35985C98.5551 7.97786 98.6551 8.65469 98.6341 9.39095C98.6209 9.84416 98.2494 10.2052 97.7959 10.2052H89.6636L89.5859 9.83378C89.5325 9.57809 89.5913 9.33623 89.7558 9.13337C89.9206 8.93083 90.1454 8.82358 90.4065 8.82358H97.2917L96.9414 9.17394V8.70438C96.9414 8.68519 96.9407 8.66884 96.9398 8.64965C96.908 8.16594 96.7608 7.71178 96.4982 7.28751C96.2303 6.85443 95.8661 6.50061 95.4056 6.22572C94.9452 5.95084 94.4058 5.81309 93.7871 5.81309C93.0311 5.81309 92.3781 5.96783 91.8287 6.27699C91.2789 6.58615 90.8562 7.03653 90.5606 7.6275C90.265 8.21846 90.1174 8.94687 90.1174 9.81303C90.1174 10.6377 90.2788 11.356 90.6018 11.9674C90.9248 12.5791 91.3922 13.0534 92.0039 13.3899C92.6156 13.7268 93.3405 13.8951 94.179 13.8951C94.7014 13.8951 95.2065 13.8092 95.6943 13.6375C96.0066 13.5274 96.3406 13.3484 96.6951 13.1003C96.9618 12.9138 97.3024 12.9179 97.5644 13.1113C97.8264 13.3044 97.9314 13.6287 97.8321 13.9385C97.7748 14.1177 97.6632 14.2633 97.4999 14.3718C97.3509 14.4709 97.192 14.5665 97.0241 14.6581C96.5706 14.9056 96.0824 15.1012 95.56 15.2456C95.0376 15.3899 94.5086 15.4619 93.9724 15.4619L93.9721 15.4629ZM99.8084 14.4181V5.31207C99.8084 4.85037 100.185 4.47359 100.647 4.47359H100.654C101.111 4.47359 101.485 4.84125 101.492 5.29792L101.52 6.90664L101.19 7.03024C101.313 6.64528 101.499 6.28454 101.746 5.9477C101.994 5.61117 102.296 5.31899 102.653 5.07147C103.011 4.82427 103.399 4.62833 103.818 4.48397C104.238 4.33961 104.674 4.26759 105.128 4.26759C105.705 4.26759 106.22 4.36729 106.674 4.56637C107.127 4.76577 107.509 5.08185 107.818 5.51462C108.128 5.9477 108.358 6.52136 108.509 7.23624L108.159 7.07144L108.303 6.72076C108.44 6.39084 108.643 6.08168 108.911 5.79296C109.179 5.50424 109.489 5.2432 109.839 5.00951C110.19 4.77583 110.568 4.59373 110.973 4.4629C111.379 4.33237 111.794 4.26727 112.221 4.26727C113.004 4.26727 113.653 4.42861 114.169 4.75162C114.684 5.07462 115.076 5.5728 115.344 6.24648C115.612 6.91985 115.746 7.75833 115.746 8.76162V14.4178C115.746 14.8795 115.37 15.2562 114.908 15.2562H114.894C114.432 15.2562 114.055 14.8795 114.055 14.4178V8.84433C114.055 8.15713 113.97 7.59353 113.798 7.15384C113.626 6.71384 113.364 6.38392 113.014 6.16408C112.664 5.94424 112.227 5.83416 111.705 5.83416C111.265 5.83416 110.852 5.90996 110.467 6.06092C110.083 6.2122 109.753 6.42166 109.478 6.68963C109.203 6.9579 108.99 7.26707 108.839 7.61743C108.687 7.96779 108.612 8.34238 108.612 8.74118V14.4178C108.612 14.8795 108.235 15.2562 107.773 15.2562H107.76C107.298 15.2562 106.921 14.8795 106.921 14.4178V8.82358C106.921 8.16374 106.832 7.61397 106.653 7.17429C106.474 6.73429 106.21 6.40122 105.859 6.17414C105.509 5.94738 105.079 5.83385 104.571 5.83385C104.131 5.83385 103.725 5.90964 103.354 6.06061C102.983 6.21189 102.66 6.42135 102.385 6.68931C102.11 6.95759 101.894 7.26329 101.736 7.60674C101.578 7.9505 101.499 8.32162 101.499 8.7201V14.4174C101.499 14.8792 101.122 15.2559 100.66 15.2559H100.646C100.185 15.2559 99.8078 14.8792 99.8078 14.4174L99.8084 14.4181ZM119.804 18.9681L121.479 14.927L121.583 16.4319L116.716 5.6574C116.595 5.39007 116.616 5.10387 116.775 4.85729C116.934 4.61103 117.186 4.47359 117.48 4.47359H117.553C117.892 4.47359 118.182 4.6623 118.32 4.9724L121.724 12.6518C121.726 12.6568 121.728 12.6609 121.73 12.6656C121.826 12.8704 121.924 13.1192 122.026 13.4116C122.13 13.7073 122.229 13.9992 122.325 14.2879L121.769 14.2467C121.865 13.9992 121.958 13.7519 122.047 13.5044C122.136 13.2569 122.229 13.0097 122.325 12.7622L125.254 5.0158C125.38 4.68337 125.683 4.4739 126.039 4.4739H126.153C126.44 4.4739 126.688 4.60537 126.848 4.84377C127.009 5.08217 127.038 5.36082 126.93 5.62721L123.026 15.2569L121.379 19.466C121.251 19.794 120.95 19.9987 120.598 19.9987H120.493C120.236 19.9987 120.015 19.8808 119.873 19.6676C119.73 19.454 119.706 19.2052 119.804 18.9681H119.804Z" fill="#2156DA" stroke="#2156DA" stroke-width="0.183628" mask="url(#path-1-inside-1_947_1672)"/>
<path fill-rule="evenodd" clip-rule="evenodd" d="M24.9606 19.2551V10.0069C24.9606 4.92002 20.7997 0.759056 15.7128 0.759056C10.6259 0.759056 6.46492 4.92002 6.46492 10.0069C6.46492 15.0938 10.6259 19.2551 15.7128 19.2551H8.92188C4.56623 19.2551 1 15.6907 1 11.3332C1.33967 -1.22865 22.9541 2.23317 24.9609 19.2551H24.9606Z" stroke="#2156DA" stroke-miterlimit="22.9256" stroke-linecap="round" stroke-linejoin="round"/>
<path d="M39.5636 7.75103C39.2509 7.13921 38.8157 6.65854 38.2582 6.31047C37.7004 5.96169 37.0596 5.78801 36.3371 5.78801C35.6281 5.78801 34.9977 5.9621 34.4465 6.3106L34.4465 6.31061C33.8964 6.65896 33.4617 7.13916 33.1419 7.75065L33.1418 7.75066C32.8219 8.36283 32.6627 9.05749 32.6627 9.83354C32.6627 10.6231 32.8186 11.3246 33.1316 11.9368C33.4443 12.5486 33.8794 13.0323 34.4363 13.3875L34.4363 13.3875C34.994 13.7429 35.6283 13.9206 36.3374 13.9206C37.0463 13.9206 37.6801 13.7468 38.2378 13.3981C38.7948 13.0498 39.2334 12.5696 39.553 11.9579C39.8731 11.3455 40.0325 10.637 40.0325 9.83354C40.0325 9.05764 39.8765 8.3628 39.5636 7.75103ZM39.5636 7.75103L39.5227 7.77193M39.5636 7.75103C39.5636 7.75103 39.5636 7.75103 39.5636 7.75102L39.5227 7.77193M39.5227 7.77193C39.8319 8.37641 39.9866 9.06393 39.9866 9.83354C39.9866 10.6308 39.8284 11.3319 39.5124 11.9367C39.1963 12.5415 38.7632 13.0154 38.2134 13.3592C37.6637 13.703 37.0384 13.8747 36.3374 13.8747C35.6363 13.8747 35.0108 13.6992 34.461 13.3488L38.2339 6.3494C38.7839 6.69284 39.2136 7.16712 39.5227 7.77193ZM44.8798 17.7623C44.609 17.8721 44.4357 18.1111 44.4159 18.4027C44.3961 18.6942 44.5357 18.9546 44.7892 19.0999C45.1371 19.299 45.5333 19.4748 45.9774 19.6271M44.8798 17.7623L48.2557 19.9982C47.4584 19.9982 46.6992 19.8746 45.9774 19.6271M44.8798 17.7623C44.898 17.7548 44.9172 17.7479 44.9361 17.7416M44.8798 17.7623L44.9361 17.7416M45.9774 19.6271L45.9923 19.5836C46.7091 19.8294 47.4633 19.9523 48.2557 19.9523H48.3016V19.9534M45.9774 19.6271L45.9923 19.5836C45.5505 19.4322 45.157 19.2575 44.812 19.0601C44.5737 18.9235 44.4431 18.6798 44.4617 18.4058C44.4803 18.1318 44.6425 17.9081 44.897 17.8049L44.8973 17.8048L48.3016 19.9534M48.3016 19.9534C49.0897 19.9489 49.8043 19.8295 50.446 19.5956C51.1001 19.357 51.6616 19.01 52.1306 18.5544C52.5997 18.0986 52.9604 17.5411 53.2123 16.8801C53.464 16.2199 53.5908 15.4591 53.5908 14.5977V5.31309C53.5908 4.87674 53.2345 4.52051 52.7982 4.52051H52.7715C52.3392 4.52051 51.9857 4.86838 51.9789 5.30059L51.965 6.19153C51.9787 6.21215 51.9922 6.23289 52.0054 6.25374C52.1864 6.53928 52.3125 6.82922 52.3824 7.12349L52.3965 7.18283L52.3356 7.17996L51.9025 7.15951L51.8581 7.15741L51.8588 7.11294L51.8727 6.21887C51.7058 5.97299 51.5004 5.74323 51.2561 5.52942C50.9837 5.29096 50.6802 5.07633 50.3461 4.88526C50.0129 4.69487 49.6525 4.54885 49.2643 4.44666L49.276 4.40227L49.2643 4.44666C48.8768 4.34456 48.4718 4.29343 48.0494 4.29343C47.0815 4.29343 46.2068 4.53504 45.4241 5.01845L45.4241 5.01846C44.6407 5.50196 44.0209 6.15933 43.5642 6.99108L43.5642 6.99108C43.1079 7.82161 42.8792 8.77622 42.8792 9.85524C42.8792 10.9346 43.1079 11.8889 43.5642 12.7197C44.021 13.5516 44.6374 14.2086 45.4139 14.6924C46.1893 15.1753 47.0812 15.4174 48.0906 15.4174C48.7302 15.4174 49.3425 15.2882 49.9277 15.0294L49.9277 15.0294C50.5133 14.7707 51.0029 14.4237 51.3967 13.9892C51.6014 13.7632 51.769 13.5303 51.9 13.2906V12.6383V12.5958L51.9424 12.5926L52.2107 12.5721L52.2742 12.5673L52.2587 12.629C52.1999 12.8637 52.1109 13.0919 51.9918 13.3138L48.3016 19.9534ZM44.9506 17.7851C45.1633 17.7146 45.3708 17.7317 45.5692 17.836C45.5692 17.836 45.5692 17.836 45.5692 17.836L45.5906 17.7954C45.6623 17.8331 45.7365 17.8699 45.812 17.9058C46.1762 18.0775 46.5681 18.2115 46.9873 18.308C47.4066 18.4043 47.8362 18.4524 48.2759 18.4524C49.0593 18.4524 49.7261 18.3115 50.2758 18.0297C50.8256 17.7479 51.2414 17.3286 51.5232 16.7719C51.805 16.2153 51.9459 15.5246 51.9459 14.7L44.9506 17.7851ZM44.9506 17.7851C44.9506 17.7851 44.9506 17.7851 44.9505 17.7851L44.9361 17.7416M44.9506 17.7851L44.9361 17.7416M46.3482 13.3491L46.3238 13.388C45.7597 13.0329 45.3146 12.5494 44.9881 11.9378C44.6611 11.3256 44.498 10.6308 44.498 9.8543C44.498 9.07807 44.6611 8.37991 44.988 7.76087C45.3146 7.14227 45.7636 6.65489 46.334 6.30004C46.334 6.30004 46.334 6.30004 46.334 6.30004L46.3583 6.33902L46.3482 13.3491ZM46.3482 13.3491L46.3238 13.388C46.8885 13.7434 47.5397 13.9209 48.2759 13.9209H48.2949M46.3482 13.3491L48.2949 13.9209M48.2949 13.9209L48.2953 13.9205L48.2949 13.9209ZM35.9456 15.4167L35.9455 15.4164C35.0332 15.4164 34.207 15.1748 33.4655 14.692C32.7234 14.2085 32.1342 13.5482 31.6979 12.7093C31.262 11.8712 31.0432 10.92 31.0432 9.8543C31.0432 8.77505 31.2651 7.81673 31.7078 6.97911C32.1512 6.14046 32.754 5.48336 33.5163 5.007L33.5163 5.007C34.2786 4.53057 35.1291 4.29218 36.0691 4.29218C36.6142 4.29218 37.1246 4.37387 37.6006 4.53721L37.6007 4.53722C38.0772 4.70044 38.4984 4.92822 38.8654 5.22037C39.2328 5.51298 39.542 5.85275 39.7934 6.24039L39.7934 6.24043C39.8133 6.27099 39.8326 6.30174 39.8514 6.33269L39.8376 7.27653L39.8371 7.30655L39.8645 7.31899L40.318 7.52531L40.3978 7.56163L40.3822 7.47532C40.3068 7.06044 40.1607 6.67119 39.9436 6.30779L39.9583 5.30023C39.9646 4.86773 40.3184 4.51925 40.7509 4.51925H40.7562C41.1926 4.51925 41.5488 4.87548 41.5488 5.31183V14.4178C41.5488 14.8542 41.1929 15.2104 40.7562 15.2104H40.7424C40.3061 15.2104 39.9498 14.8542 39.9498 14.4178V13.4055C40.1551 13.0883 40.2991 12.7534 40.3814 12.4009L40.4054 12.2979L40.3138 12.3507L40.3035 12.3566C40.021 12.5183 39.858 12.7989 39.858 13.1246V13.3781C39.8248 13.4286 39.7899 13.4786 39.7534 13.5282C39.4885 13.8883 39.1586 14.2115 38.7633 14.4976L38.7633 14.4977C38.3686 14.7836 37.9327 15.0083 37.4557 15.1717L37.4557 15.1717C36.98 15.3347 36.4767 15.4167 35.9456 15.4167ZM40.2635 12.4923C40.1932 12.7478 40.0887 12.9939 39.9498 13.2306V13.1246C39.9498 12.8666 40.0627 12.6415 40.2635 12.4923ZM39.9409 6.489C40.0968 6.77822 40.2081 7.08346 40.2749 7.40484L39.9298 7.24785L39.9409 6.489ZM51.9513 7.0699L51.9624 6.35852C52.1083 6.59889 52.2135 6.84115 52.2782 7.08533L51.9513 7.0699ZM51.9918 12.6809L52.1534 12.6686C52.1123 12.8176 52.0585 12.9642 51.9918 13.1084V12.6809Z" fill="#2156DA" stroke="#2156DA" stroke-width="0.0918142"/>
</svg>
