<svg width="126" height="99" viewBox="0 0 126 99" fill="none" xmlns="http://www.w3.org/2000/svg">
<path fill-rule="evenodd" clip-rule="evenodd" d="M120.793 66.3541C120.714 68.8864 120.769 72.1737 119.383 74.4002C119.159 74.7595 118.402 75.8788 118.317 74.8941C118.234 73.9274 118.472 72.97 118.236 71.9921C118.11 71.4689 117.686 70.3259 116.962 70.7985C116.592 71.0395 116.495 71.6342 116.351 72.0097C116.137 72.5651 115.897 73.1118 115.672 73.6631C114.886 75.5873 114.072 77.8836 112.325 79.157C112.554 77.4978 113.177 75.726 112.758 74.0488C112.615 73.4771 112.183 72.4333 111.438 72.7683C110.712 73.0946 110.242 74.5507 109.899 75.1991C108.861 77.1651 107.799 79.094 106.629 80.9865C106.041 81.9384 105.406 82.8084 104.637 83.6226C104.156 84.132 103.556 84.9927 102.798 85.0686C102.798 83.6172 103.275 82.2148 103.711 80.848C104.18 79.3783 104.608 77.896 105.068 76.4236C105.467 75.1462 105.795 73.8787 106.061 72.5689C106.171 72.0272 106.258 71.4663 106.72 71.1164C107.135 70.802 107.791 70.6524 108.254 70.4213C109.469 69.8141 110.719 69.1591 111.848 68.4044C112.311 68.0946 112.71 67.6943 113.196 67.4164C113.749 67.0997 114.265 66.8333 114.777 66.4474C116.984 64.7822 118.974 62.7339 120.315 60.2956C120.533 61.2752 120.821 62.2324 120.853 63.2422C120.886 64.2775 120.826 65.3194 120.793 66.3541ZM102.624 77.9937C102.271 77.3974 101.733 77.6416 101.259 77.9291C100.524 78.3752 99.7864 78.818 99.0471 79.2584C97.5428 80.1547 96.0662 81.0979 94.5965 82.0495C91.6046 83.9861 88.5084 85.5712 85.3541 87.2105C82.3055 88.7946 79.3774 90.6799 76.5211 92.5855C75.8346 93.0435 75.1529 93.5122 74.4937 94.0089C73.9087 94.4497 73.4407 95.0688 72.8248 95.4614C72.1833 95.8701 71.7424 95.5385 71.129 95.2371C70.3617 94.8601 69.5622 94.5442 68.7779 94.2043C65.6131 92.8322 62.4392 91.408 59.3605 89.8506C56.3004 88.3028 53.401 86.5193 50.4689 84.748C49.0725 83.9045 47.6999 83.0074 46.3225 82.1329C44.8567 81.2023 43.3391 80.5052 41.8015 79.714C41.1212 79.3638 40.5186 78.8884 39.8198 78.5701C39.0853 78.2356 38.3093 77.9956 37.6515 77.513C37.3566 77.2966 37.1078 77.038 36.7708 76.8849C36.494 76.7593 36.1799 76.7381 35.9067 76.6046C35.3508 76.3332 35.1916 75.7823 35.084 75.2093C34.3916 71.5308 34.0236 67.7505 33.6223 64.0312C33.3968 61.9396 33.1451 59.8562 32.8334 57.7757C32.6929 56.8377 32.9755 56.111 33.1239 55.1985C33.2971 54.1328 33.3656 53.0447 33.4817 51.9717C34.0294 52.9865 34.5031 54.0515 35.2001 54.9776C35.7138 55.66 36.5914 56.6278 37.5374 56.6049C39.0077 56.5694 38.9405 54.0476 38.9997 53.0465C39.6694 53.6443 39.8726 54.6181 40.4285 55.3125C40.936 55.9464 41.6268 56.733 42.4062 57.0168C44.0474 57.6146 43.8894 54.5683 43.7992 53.7043C43.7538 53.271 43.5091 52.5854 44.0897 52.7829C44.6243 52.9649 45.1445 53.7193 45.5939 54.0653C46.3706 54.6635 47.2226 55.1606 48.0195 55.7316C49.0081 56.4402 50.0749 56.9523 51.0829 57.6122C51.7133 58.025 52.401 58.1176 53.0883 58.4211C54.0952 58.8659 54.9847 59.5289 55.9431 60.0621C57.841 61.1175 59.9465 62.064 62.0225 62.7003C62.6941 62.9062 63.5892 63.4866 64.0987 62.8902C64.4125 62.5232 64.6187 61.9626 64.885 61.5512C65.2219 61.0303 65.5797 60.5232 65.9512 60.0264C67.2719 58.2609 68.7375 56.5938 70.3652 55.1047C72.2589 53.3724 74.3296 51.8135 76.5445 50.5152C77.4961 49.9573 81.4697 47.4569 82.3432 49.2167C81.6254 49.1719 81.0033 49.4345 80.3895 49.7632C80.2397 49.8435 79.4672 50.3951 79.6479 49.9089C79.4235 49.9509 79.2267 50.2435 79.0568 50.3737C78.7631 50.5986 78.3177 50.8583 77.9776 51.0445C77.6415 51.2284 77.2262 51.2735 76.9198 51.4965C76.8079 51.578 76.7401 51.7101 76.6334 51.7982L76.3274 51.8006C76.2816 51.9701 76.2358 52.1394 76.1901 52.3088C76.0171 51.7546 75.7705 52.4754 75.4816 52.7095C75.308 52.8502 75.033 52.9951 74.8285 53.086C74.6757 53.1539 74.6521 52.9961 74.5037 53.1161C74.3719 53.2226 74.2879 53.4574 74.1461 53.591C73.9721 53.7545 73.7495 53.8816 73.5556 54.0213C73.1841 54.2888 72.7911 54.4989 72.4147 54.7525C71.9084 55.0938 71.6428 55.6807 71.1513 56.0375C70.9184 56.2065 70.5567 56.2263 70.4307 56.3345C70.1146 56.6063 70.2188 57.018 69.6293 57.0362C69.6829 57.122 69.7151 57.2151 69.7262 57.3156C69.5858 57.2915 69.4609 57.2333 69.3516 57.1409C69.3761 57.7289 68.798 57.9388 68.4514 58.3008C68.2516 58.5094 68.0027 58.8028 67.8618 59.0538C67.8384 59.0958 67.7936 59.4309 67.784 59.4354C67.7305 59.4611 67.4047 59.175 67.4356 59.1989C67.3447 59.7421 66.819 60.2557 66.5889 60.7586C66.4676 61.0235 66.3445 61.4495 66.1055 61.6358C66.0405 61.6865 65.8405 61.6335 65.6753 61.8096C65.5541 61.9387 65.4143 62.1774 65.365 62.3486C65.3322 62.463 65.3717 62.759 65.3245 62.8276C65.2381 62.953 65.1035 62.827 64.9681 62.9198C64.7178 63.0912 64.7115 63.359 64.3453 63.3942C64.5977 64.0076 66.1218 64.1967 66.6758 64.3711C68.2424 64.8641 69.8859 65.3566 71.3504 66.1117C71.7291 66.307 72.0875 66.4679 72.1546 66.9179C72.2482 67.5439 71.9291 68.3764 71.8682 69.0088C71.7033 70.7166 71.6696 72.4747 71.7041 74.1898C71.7367 75.8143 71.7893 77.4541 71.865 79.0766C71.9352 80.581 72.2385 82.0555 72.4022 83.5493C72.4471 83.9594 72.4172 85.8082 73.1221 85.7151C73.7107 85.6374 73.339 84.3746 73.328 84.0126C73.3033 83.2113 73.472 82.3933 73.4649 81.585C73.4616 81.1964 73.6315 80.8616 73.6478 80.4898C73.664 80.1224 73.4814 79.832 73.5361 79.4512C73.5887 79.0857 74.6691 76.9836 73.6315 77.2298C73.6922 76.9293 73.7454 76.6263 73.8257 76.3302C73.9366 76.4299 74.0261 76.5464 74.0935 76.6795C74.1859 76.0338 74.155 75.3893 74.2123 74.7433C74.238 74.4505 74.3567 74.1299 74.3162 73.8349C74.3239 73.7126 74.3083 73.5926 74.2696 73.475C74.2058 73.4075 74.1268 73.3719 74.0329 73.3685C73.9835 73.2069 73.9708 73.1625 74.0584 73.0039C74.0961 72.8964 74.1707 72.8293 74.2824 72.8027C74.4953 72.7775 74.5196 72.6552 74.3553 72.4359C74.441 72.003 74.452 71.7298 74.3902 71.2978C74.3382 70.9349 74.5294 70.2322 74.3346 69.9091C74.1071 69.5313 73.9941 69.8977 73.9517 69.3742C73.9427 69.2634 73.9354 69.0324 73.98 68.9219C74.0288 68.8016 74.1756 68.8509 74.1943 68.8081C74.3217 68.5172 74.3302 67.9443 73.8793 67.994C73.897 67.7862 73.9147 67.5784 73.9322 67.3706C74.258 67.7456 74.1441 67.4282 74.3288 67.2197C74.5776 66.9389 74.821 66.8905 75.1766 66.7794C76.1245 66.4838 77.0377 66.039 77.9639 65.678C79.9251 64.9137 81.9228 64.2313 83.8267 63.328C87.8309 61.428 91.7557 59.3659 95.7845 57.5161C95.4967 56.9819 95.6757 56.9559 95.8861 56.4544C96.1669 56.6494 96.1078 56.5134 96.3076 56.5014C96.2895 56.3341 96.3415 56.2836 96.4636 56.35C96.5608 56.3797 96.6604 56.3903 96.7626 56.3816C97.012 56.4243 97.2157 56.5616 97.4424 56.6137C97.5168 56.6686 97.5986 56.7097 97.6877 56.7374C97.7678 56.7191 97.8362 56.6795 97.8927 56.6184C98.2597 56.6864 98.3833 56.9629 98.3995 57.3631C98.4022 57.4328 98.1891 57.5041 98.2502 57.5977C98.3567 57.7612 98.6436 57.7222 98.8077 57.7431C98.7717 57.913 98.7358 58.0827 98.7 58.2524C99.4202 57.9201 99.2323 58.9604 99.4507 59.3021C99.5116 59.3975 99.6472 59.3213 99.7178 59.4318C99.8097 59.576 99.782 59.7802 99.8605 59.9238C100.038 60.2486 100.215 60.2092 100.392 60.5811C101.315 62.5232 102.544 64.3326 103.43 66.3163C103.852 67.2605 104.232 68.2209 104.673 69.1568C105.078 70.0182 105.31 70.7505 105.021 71.6911C104.351 73.8731 103.634 76.095 102.756 78.2027C102.712 78.133 102.668 78.0633 102.624 77.9937ZM55.8761 94.2814C55.8133 94.3884 55.7504 94.4954 55.6875 94.6026C55.5478 93.7992 55.92 94.1718 55.8761 94.2814ZM52.92 92.7772C52.7186 92.7169 52.8056 92.3878 52.8121 92.2471C52.9395 92.406 53.0645 92.5678 53.1706 92.7423C53.087 92.7539 53.0035 92.7655 52.92 92.7772ZM44.8182 89.689C45.0298 89.5703 45.182 89.4851 45.4219 89.3506C45.1781 89.8258 45.1781 89.8258 44.8182 89.689ZM32.0723 47.8313C31.749 48.6248 32.7347 53.5243 31.817 53.6842C31.6853 53.2542 31.6689 52.0701 31.124 51.9288C30.4479 51.7533 30.5146 52.9723 30.4222 53.3493C29.0342 52.3836 28.4177 50.5188 27.7547 49.0409C26.9094 47.1572 26.2444 45.1979 25.6093 43.2351C25.0662 41.5569 24.6172 39.8491 24.0684 38.1737C23.7236 37.1214 23.3519 36.0666 23.1201 34.982C23.0698 34.7463 22.8716 34.1488 23.04 33.9249C23.2847 33.5991 24.1656 33.9722 24.4494 34.0577C26.2908 34.6118 28.201 34.8503 30.0929 35.1723C32.1948 35.5297 34.2921 35.8993 36.4068 36.1765C36.9352 36.2457 37.4639 36.3113 37.9929 36.3751C38.336 36.4165 38.8554 36.3751 39.1812 36.5289C39.8408 36.8401 39.9812 38.0312 40.2263 38.649C41.1402 40.9543 42.2159 43.1867 43.1783 45.4711C44.0452 47.529 44.7024 49.7183 45.9486 51.5921C45.0192 51.18 43.8413 49.0017 42.8028 50.2573C42.3563 50.7972 42.4689 51.5085 42.5046 52.1546C42.5563 53.0887 42.5725 54.0297 42.5725 54.9653C41.5562 54.7013 40.8733 53.5476 40.3398 52.7303C39.6109 51.6141 39.1519 50.5623 38.8292 49.2827C38.6894 48.7286 38.3188 48.7149 37.9894 48.3833C37.7778 48.1701 37.6714 47.883 37.3679 48.193C36.9865 48.5826 37.2402 49.6616 37.3061 50.1217C37.4626 51.2165 37.9757 52.9013 37.4769 53.93C36.8037 55.3182 34.9998 51.8251 34.7885 51.3206C34.681 51.0638 32.7618 46.1387 32.0723 47.8313ZM30.812 24.0395C30.9257 24.0569 31.0392 24.0743 31.1528 24.0916C31.0613 24.1725 30.8707 24.4561 30.715 24.3811C30.7473 24.2673 30.7797 24.1535 30.812 24.0395ZM36.8321 22.7477C36.7966 22.7868 36.7608 22.8258 36.7251 22.865C36.5622 22.6612 36.6199 22.3642 36.6199 22.1286C36.8353 22.2587 36.8879 22.519 36.8321 22.7477ZM37.3187 25.0082V25.6741C36.8673 25.4786 36.8584 25.3776 37.3187 25.0082ZM37.8667 25.8549C37.5505 25.7681 37.5127 25.6982 37.5572 25.2122C37.6882 25.4844 37.7745 25.6639 37.8667 25.8549ZM39.6868 30.7868C39.5543 31.1278 38.7796 30.3152 38.8081 30.072C38.8351 29.84 38.9541 29.7708 39.1182 29.92C39.1725 29.9694 39.0919 30.1479 39.1265 30.2099C39.2515 30.4342 39.5035 30.6176 39.6868 30.7868ZM39.6954 32.8411C39.5014 33.3257 39.1554 32.5626 39.6625 32.5417C39.6957 32.6392 39.7068 32.739 39.6954 32.8411ZM39.3189 32.0771C39.2438 31.9769 39.1708 31.8753 39.0999 31.7719C39.3611 31.8247 39.5685 32.2053 39.844 31.9513C39.8114 32.3386 39.5363 32.3493 39.3189 32.0771ZM22.4292 25.7828C22.0092 25.3244 24.7481 25.0026 25.0785 24.9238C27.4762 24.3521 29.7401 23.5247 31.982 22.5095C33.0515 22.0252 34.1156 21.535 35.16 20.9982C35.611 20.7665 36.2292 20.57 36.6059 20.222C36.8748 19.9737 36.864 19.7858 37.2135 19.6378C37.5102 19.5126 37.525 19.6309 37.6609 19.4042C37.7425 19.2681 37.8348 18.7697 37.7871 18.6222C37.6569 18.2197 37.4645 18.546 37.1944 18.2686C36.9999 18.0687 37.0471 17.5001 37.1001 17.2646C37.169 17.3767 37.2086 17.4985 37.2192 17.6297C37.5123 17.4852 37.3941 16.989 37.7147 16.9077C38.0525 16.8222 38.0176 17.0853 38.1057 17.3543C38.361 16.9795 38.1563 16.6598 38.0182 16.2938C38.7205 16.1623 39.4752 16.0348 40.1714 16.2685C40.6749 16.4373 41.1058 16.8525 41.6373 16.9328C42.1579 17.0112 42.2579 16.7644 42.6417 16.514C42.9532 16.3107 43.2207 16.5501 43.3811 16.3965C43.2823 16.915 42.4324 16.8441 42.537 17.4919C42.5841 17.7834 42.9414 18.0454 43.1041 18.2723C43.3083 18.557 43.471 18.8718 43.6101 19.1927C44.151 20.4409 44.3823 21.8893 44.6093 23.2241C45.1695 26.5187 45.2403 29.8784 45.7672 33.1836C46.0183 34.758 46.2699 36.3332 46.4004 37.9229C46.433 38.3205 46.6758 39.222 46.4772 39.6044C46.3092 39.9273 45.9356 39.9282 45.6076 40.0063C44.9659 40.1588 44.3632 40.3661 43.7476 40.5956C43.1958 40.8014 43.0354 40.9276 42.6812 40.4084C42.3385 39.906 42.1691 39.3071 41.9239 38.7564C41.6116 38.0546 41.2344 37.3775 40.8722 36.7005C41.5837 36.7005 41.9931 36.3164 41.9742 35.5935C41.9537 34.7927 41.2952 34.6027 41.0237 33.9447C40.7596 34.2876 40.7374 34.2973 40.5492 33.9717C40.334 33.5994 40.1888 32.9182 40.0571 32.4959C40.1513 32.5964 40.2454 32.6969 40.3396 32.7973C40.5771 32.4705 40.2051 31.9554 40.0807 31.6477C39.8887 31.1725 39.8549 30.6588 39.6728 30.1849C39.5735 29.9263 39.3434 29.7227 39.287 29.4529C39.2494 29.2723 39.4002 29.1004 39.3644 28.9171C39.3022 28.5979 38.9411 28.2554 38.8288 27.9307C38.656 27.4314 38.4684 26.9917 38.2541 26.5051C37.9641 25.8466 38.0315 25.1556 37.9784 24.4547C37.9234 23.728 37.6906 23.0327 37.6084 22.3092C37.5516 21.8094 37.7295 21.18 37.3513 20.7796C37.307 21.4451 37.4978 21.4348 36.8725 21.5545C36.1606 21.6907 35.6443 22.2211 34.9712 22.3793C34.8325 22.412 34.7314 21.8059 34.7855 22.6326C34.4626 22.3943 33.7736 22.6902 34.0307 22.8317C33.8358 23.0401 33.4521 22.8959 33.388 23.2082C32.7258 22.5645 31.664 24.7556 30.8755 23.6127C30.7454 24.3873 30.1845 24.8453 29.4315 24.9477C29.0528 24.9991 28.8195 25.1253 28.4835 25.2388C28.4153 25.2617 28.3902 25.3598 28.3095 25.3862C28.1862 25.4264 28.0051 25.305 27.9162 25.3286C27.7353 25.3767 27.5341 25.6147 27.2816 25.662C26.992 25.7163 26.6761 25.6914 26.3862 25.6578C26.0237 25.6158 25.8643 25.5729 25.5094 25.6923C25.1902 25.7997 24.8483 26.1007 24.552 25.773C24.0867 26.5781 22.9771 26.3813 22.4292 25.7828ZM43.9438 16.0667C43.5917 16.0246 43.8362 15.7217 43.9993 15.6307C44.4424 15.3837 44.3241 16.1124 43.9438 16.0667ZM24.4431 18.956C26.5101 15.9739 30.0457 13.925 33.1566 12.201C34.8558 11.2594 36.5901 10.3466 38.3743 9.57596C39.2613 9.19296 40.1587 8.82477 41.0645 8.48832C41.5482 8.30861 42.0377 8.14522 42.5276 7.98259C42.663 7.9377 42.9094 7.79985 43.0512 7.8133C43.0267 7.81089 43.4035 7.91336 43.3294 7.94556C43.5722 7.83991 43.6876 7.56437 43.973 7.45418C44.2937 7.33024 44.7023 7.27901 45.0458 7.26782C45.3498 7.25784 45.6129 7.38345 45.9025 7.39327C46.0928 7.39962 46.2545 7.30923 46.4409 7.29593C46.5363 7.28928 46.5278 7.43196 46.5852 7.44028C46.6102 7.4439 46.8641 7.34853 46.8665 7.35019C46.959 7.40959 47.0409 7.64145 47.1245 7.73199C47.3642 7.99165 47.7161 8.17258 48.0358 8.30921C48.4248 8.47547 49.3739 8.64264 48.934 9.2578C49.2464 9.21291 49.3918 9.49525 49.0007 9.56674C48.7888 9.60558 48.6982 9.41151 48.5409 9.27911C48.1774 8.9738 47.295 8.5391 46.7714 8.55875C46.4769 8.56979 46.2492 8.79333 45.9776 8.87449C45.7103 8.9543 45.5778 8.83051 45.3433 8.85016C45.0691 8.87298 44.8926 9.10499 44.6312 9.14625C44.3865 9.18495 44.2502 9.01808 44.0315 9.02972C43.7715 9.04347 43.5197 9.26929 43.2715 9.34516C42.8767 9.46577 42.5868 9.548 42.2014 9.74796C41.4545 10.1357 40.6203 10.2829 39.8505 10.6166C39.235 10.8834 38.5372 11.0238 37.9677 11.3188C37.3344 11.6466 36.6982 11.9733 36.0781 12.3295C35.6301 12.5869 34.7193 12.6755 34.2253 12.61C34.2182 13.5196 33.7705 12.882 33.3194 13.2804C33.4261 13.3745 33.5473 13.4438 33.6826 13.4881C33.1936 13.6833 32.7417 13.9264 32.268 14.1508C31.7784 14.383 31.2561 14.4341 30.9344 14.8731C30.6382 15.2778 30.7386 15.069 30.2965 15.2283C30.0936 15.3015 29.9172 15.5246 29.7711 15.6744C29.5199 15.9319 29.4643 16.3219 29.3208 15.7926C29.2789 15.8571 29.1142 16.2681 29.0822 16.2785C28.9024 16.0878 28.8766 16.3139 28.7761 16.3947C28.829 16.5705 28.7534 16.6857 28.5494 16.7402C28.4461 16.817 28.3415 16.8923 28.2359 16.9659C27.8526 17.2318 27.3647 17.4598 27.0948 17.856C26.8957 17.7386 26.8219 17.5359 26.9432 17.329C26.5627 17.6796 26.1088 18.0398 26.0059 18.5795C25.9586 18.5339 25.9034 18.5009 25.8409 18.4807C25.6864 18.585 25.8876 18.8957 25.9855 18.9657C26.4126 18.7997 25.8788 18.8599 26.1658 18.8867C26.2476 18.8942 26.3316 18.9554 26.4219 18.9565C26.6865 18.96 26.9351 18.9473 27.1975 18.9069C27.7761 18.8177 28.3447 18.6516 28.9049 18.4851C29.5149 18.3037 30.1251 18.1226 30.7216 17.9001C31.2129 17.7169 31.6959 17.5127 32.1788 17.3093C32.3717 17.228 32.5644 17.1456 32.7576 17.0649C33.1244 16.9116 33.3179 16.6598 33.2666 17.0912C33.5588 17.0427 33.8119 16.6298 34.0362 16.4612C34.3518 16.2244 34.7067 16.0477 35.0807 15.9268C35.2321 15.8778 35.3433 15.8155 35.4999 15.8151C35.5767 15.8149 35.6227 16.0314 35.671 16.0196C36.0066 15.9383 35.8536 15.7524 36.0045 15.4845C36.3344 14.8991 37.2231 14.5754 37.7689 14.2429C38.1154 14.0317 38.3613 13.7477 38.6811 13.5139C38.8307 13.4046 38.9394 13.3563 39.0961 13.31C39.2161 13.2745 39.3634 13.5502 39.4412 13.2731C39.162 13.159 38.9318 13.0183 38.6633 12.935C38.4733 12.8759 38.7012 12.6738 38.4001 12.7941C38.2792 12.8425 38.2376 13.0765 38.1932 13.1744C37.8569 12.8741 36.9113 13.1853 36.5123 13.3111C36.4848 13.3197 36.3616 13.2547 36.3036 13.2586C36.0732 13.274 35.9129 13.584 35.7613 13.7176C35.3582 14.0727 34.9209 14.2211 34.4245 14.4238C34.5566 13.7021 35.5274 13.4064 36.0941 13.13C36.9224 12.7258 37.6935 12.21 38.6004 11.9926C39.2044 11.8477 40.0047 11.7311 40.2656 12.4334C40.4217 12.8543 40.4413 13.9001 39.9131 14.0943C39.8573 13.8978 40.036 13.7299 40.0898 13.5594C39.5639 13.7601 39.4773 14.3917 39.078 14.7214C38.8535 14.9065 38.7733 14.966 38.6648 15.1449C38.557 15.3227 38.5053 15.4885 38.2527 15.6775C37.84 14.8007 37.9098 16.0017 37.7005 16.1524C37.7846 16.0918 37.3593 16.2688 37.4101 16.2501C37.3905 16.2573 37.2052 15.9572 37.085 15.9635C36.8663 15.975 36.9083 16.2158 36.803 16.337C36.4458 16.7472 35.9844 17.0162 35.4095 16.9517C35.3961 17.2436 35.4862 17.5922 35.0876 17.6189L35.0353 16.9718C34.8184 17.1913 34.5329 17.3997 34.3564 17.6538C34.1555 17.9429 34.177 18.121 33.8437 18.3137C33.4954 18.5151 32.7545 18.9121 32.3401 18.9464C32.4426 18.801 32.4244 18.6696 32.286 18.5526C32.0776 18.7676 31.7698 18.7887 31.5479 18.9828C32.3182 19.3046 30.9562 19.2879 30.7834 19.3244C30.6678 19.3489 30.5669 19.4542 30.4497 19.4779C30.2942 19.5095 30.2741 19.346 30.1402 19.3978C29.9443 19.4737 30.0238 19.6879 29.8188 19.7955C29.6716 19.8729 29.4219 19.8718 29.2558 19.9453C28.86 20.1206 28.0167 20.5089 27.7492 20.0379C27.6136 20.846 26.229 20.3541 25.7165 20.2997C25.0145 20.2252 23.7919 19.8957 24.4431 18.956ZM27.3913 10.6887C27.4906 10.6039 27.5901 10.6101 27.6895 10.7074C27.5511 9.97619 28.6219 9.62115 29.0891 9.31025C29.7088 8.89792 30.4382 8.09791 31.2491 8.16124C31.1108 8.26372 30.9728 8.36619 30.8347 8.46867C31.0319 8.49421 31.229 8.51976 31.426 8.5453C31.3149 8.70854 31.2036 8.87162 31.0922 9.03471C30.9103 8.03171 29.9608 9.298 29.686 9.48255C29.4092 9.66831 29.1332 9.80676 28.8873 10.0333C28.6437 10.2578 28.4238 10.6619 28.021 10.46C27.9842 11.0328 27.5237 10.8775 27.2052 11.1947C27.1919 10.9957 27.3059 10.855 27.3913 10.6887ZM31.5983 7.82917C32.5784 7.46204 33.4318 6.78325 34.3555 6.29837C35.2377 5.83517 36.1378 5.41922 37.0347 4.9871C37.4896 4.76779 38.323 4.20069 38.8431 4.48968C39.5449 4.87994 38.5788 5.00584 38.3279 5.14096C38.2351 4.54001 37.9099 5.08444 38.1042 5.41877C37.5687 5.18752 36.4008 6.09227 35.8899 6.34175C35.7743 6.39828 35.8261 6.43093 35.6946 6.49743C35.6623 6.51376 35.327 6.59009 35.231 6.62228C34.7501 6.78325 34.4332 6.65538 34.2259 7.23593C34.1826 7.09929 34.1392 6.96251 34.0958 6.82572C33.7947 7.50179 32.8795 7.79774 32.2943 8.19751C32.1435 8.3006 31.7127 8.70037 31.5213 8.6177C31.255 8.50253 31.3619 7.91759 31.5983 7.82917ZM49.2803 9.86752C49.6941 9.89488 49.2951 10.0879 49.4088 10.2155C49.3959 10.2011 49.658 10.4246 49.6237 10.3633C49.67 10.4458 49.781 10.4428 49.8379 10.6105C50.0336 11.1875 49.1789 11.7836 48.8906 12.111C48.3302 12.7477 48.0063 13.5541 47.4223 14.1705C47.1585 14.4489 46.8961 14.6411 46.5305 14.745C46.2746 14.8177 46.0039 14.7398 45.7687 14.9859C45.5794 15.1841 45.6223 15.2967 45.413 15.402C45.0442 15.5878 44.8817 15.4248 44.5229 15.8263C44.2141 14.9868 45.1013 14.9882 45.5642 14.519C46.2033 13.8714 46.9035 13.218 47.5028 12.5251C48.0352 11.9095 48.2484 11.3698 48.5011 10.6219C48.5808 10.3861 48.6676 9.88052 48.8872 9.73255C49.2292 9.5022 49.024 9.85044 49.2803 9.86752ZM51.3153 31.6748C52.4007 30.4608 53.7471 29.3707 55.2066 28.6395C55.7282 28.378 56.4707 28.0349 57.0114 28.4374C57.5416 28.8319 57.4275 29.6189 57.2138 30.1542C57.009 30.0738 57.2023 29.3214 57.096 29.1355C56.8642 28.7298 56.3639 28.9452 56.0235 29.0813C55.6248 29.2406 55.269 29.4165 54.9532 29.7056C54.8251 29.8228 54.5798 29.9278 54.4977 30.0084C54.3744 29.9571 54.3017 29.9945 54.2799 30.1202C54.3053 30.1973 54.3023 30.2732 54.2707 30.3479C54.2527 30.3716 54.0923 30.2742 54.0695 30.2937C53.9655 30.3828 53.8682 30.4875 53.7658 30.5702C53.5604 30.7363 53.3857 30.8149 53.1966 31.0464C52.8315 31.494 52.3484 31.7562 51.9816 32.1826C51.8987 32.279 51.7994 32.5262 51.7808 32.5478C51.5954 32.7642 51.3205 32.9355 51.1113 33.1646C50.7496 33.5604 50.3634 33.8262 49.9461 34.1656C49.7664 34.3116 49.5568 34.469 49.4372 34.6721C49.3828 34.7648 49.3521 35.2726 49.3501 35.2747C48.9408 35.7233 49.0205 34.8216 49.0513 34.7085C49.3837 33.492 50.5075 32.5786 51.3153 31.6748ZM49.0812 39.9011C49.1322 40.0922 49.174 40.2501 49.2257 40.444C48.9012 40.1779 48.9012 40.1779 49.0812 39.9011ZM48.7307 40.5269C48.6115 40.647 48.4916 40.7664 48.3709 40.8851C48.1053 40.6044 48.7794 40.4788 48.7307 40.5269ZM48.5622 35.696C48.4353 36.2096 47.9705 36.8321 47.651 37.2375C47.6862 37.1928 47.3783 37.2827 47.3432 37.3031C47.2294 37.369 47.5019 37.7961 47.1076 37.6052C46.9676 37.6844 47.2432 38.007 47.053 38.1513C46.5035 36.8991 48.004 35.8142 48.585 34.8846C48.8692 35.1455 48.6336 35.408 48.5622 35.696ZM44.9926 42.4664C45.3933 42.5695 45.6017 42.5046 45.8723 42.111C46.0349 41.8746 46.0943 41.456 46.4663 41.8096L46.5319 41.3548C47.0629 41.5726 47.0183 42.3598 47.2503 42.796C47.3632 42.3025 47.6306 40.9239 48.4493 41.1451C49.3684 41.3934 47.8387 42.9741 47.6966 43.3613C47.3842 42.8764 47.5071 43.3274 47.2687 43.3958C47.0642 43.4546 46.7447 43.304 46.4962 43.3176C45.7402 43.3587 45.076 43.6988 44.3855 43.9867C44.2106 43.5153 44.0359 43.0439 43.861 42.5725C44.2676 42.6038 45.1082 41.5216 45.2276 42.3081C44.9261 42.2557 44.8412 42.269 44.6943 42.5435C44.7881 42.4958 44.8876 42.4701 44.9926 42.4664ZM46.6897 48.6196C46.6885 48.6159 47.4717 48.6642 47.5415 48.6387C48.0775 48.443 47.8793 47.835 47.9889 47.4053C48.2099 47.6085 48.0928 47.9792 48.1609 48.2421C48.2409 48.551 48.4724 48.8143 48.4939 49.1447C48.5427 49.8912 47.9301 49.7256 47.4658 49.9671C47.069 50.1736 47.0251 50.4332 46.69 49.8769C46.5993 49.7263 46.4043 49.3341 46.4243 49.1415C46.4439 48.9508 46.7461 48.7923 46.6897 48.6196ZM47.3209 51.8499L47.1043 51.6073C47.7497 51.8049 47.3691 51.5079 47.5175 51.1017C48.0128 51.4315 48.4168 51.7706 48.8087 51.1102L49.4859 53.8414C49.0311 53.9484 48.4443 53.2457 48.1324 53.0044C47.9522 52.8649 46.9524 52.3275 47.5527 52.171C47.4753 52.0639 47.3981 51.9569 47.3209 51.8499ZM51.7409 43.2736C51.365 43.6311 50.9864 43.8312 50.5771 44.1122C50.2182 44.3589 50.3418 44.642 50.0306 44.917C49.824 45.0999 49.3396 45.2861 49.0843 45.4256C48.6295 45.6741 48.2221 45.7214 47.7543 45.4433C47.8816 46.4682 47.1797 46.5485 46.3059 46.7515C45.8892 46.8484 45.6425 46.9963 45.3422 46.6147C45.1365 46.3535 45.0559 45.8806 45.3118 45.6416C45.7183 45.262 46.8011 45.393 47.3225 45.1542C47.7182 44.9731 48.1213 43.9527 48.6095 44.3241C48.3576 43.9228 48.6509 43.8147 48.8699 43.5286C49.1098 43.215 49.2572 42.8483 49.5054 42.5373C49.9769 41.946 50.7009 41.3512 51.3706 40.9947C51.96 40.681 52.2694 40.9031 52.3576 41.5618C52.4021 41.8929 52.4004 42.3863 52.2149 42.6801C52.1558 42.7738 51.9607 42.7749 51.9016 42.8628C51.7987 43.0165 51.8932 43.1288 51.7409 43.2736ZM58.6563 35.3245C59.1265 35.6884 59.0807 36.4532 59.1548 36.9741C59.2592 37.7082 59.1835 38.4186 59.1723 39.1663C59.1605 39.9497 58.7762 40.4599 58.5952 41.1942C58.3942 42.011 58.1347 42.4435 57.6837 43.129C58.1728 43.2059 57.4449 44.6666 57.3249 44.8557C57.1946 45.0609 56.144 46.0068 56.5944 46.0068C56.3459 46.3345 56.0753 46.6708 55.8278 46.9894C55.7303 47.1148 55.5593 47.1641 55.4825 47.2527C55.3261 47.4327 55.3166 47.5932 55.2046 47.8033C55.0346 48.1221 54.9786 48.037 54.7551 48.2682C54.6008 48.428 54.4995 48.6388 54.3479 48.792C53.8594 49.2851 53.7971 48.8811 53.524 48.5013C53.4821 48.603 53.4078 48.6668 53.3009 48.6926C53.2154 48.2628 53.8042 47.8286 54.0518 47.5674C54.4573 47.1393 54.8279 46.6678 55.1865 46.1997C55.9543 45.1967 56.6442 44.1311 57.1887 42.9896C57.7679 41.7749 58.2305 40.4602 58.4708 39.135C58.654 38.1249 58.8282 36.3921 57.4784 36.1352C56.4967 35.9484 55.4145 36.5448 54.6053 37.0277C54.1121 37.3218 53.6162 37.6143 53.1464 37.9452C52.6365 38.304 52.1957 38.8118 51.6423 39.0998C51.945 38.9423 50.9461 39.4163 51.099 39.283C51.0274 39.3452 51.0892 39.5355 51.0419 39.6214C50.9802 39.7331 50.7659 39.8434 50.6698 39.9156C50.4159 40.1064 50.0102 40.3015 49.8947 40.6165C48.2841 39.4675 51.487 37.4276 52.308 36.9082C53.9366 35.8778 56.7705 33.8645 58.6563 35.3245ZM63.0008 24.1498C62.9854 23.3225 63.6592 22.193 64.1143 21.5182C64.3369 21.188 64.6926 21.2011 64.823 20.8116C64.8983 20.5873 64.7996 20.3522 64.822 20.127C64.8522 19.8224 64.9843 19.5781 65.1366 19.3164C66.514 16.9499 68.1875 14.8553 69.97 12.7907C70.8489 11.7729 71.6821 10.7159 72.63 9.75975C73.026 9.36043 74.0902 7.92485 74.699 8.06844C75.0214 8.14446 75.209 8.63644 75.3545 8.88749C75.5951 9.30269 75.8598 9.69159 76.1523 10.0734C76.9242 11.0814 77.8146 11.9662 78.8661 12.6806C79.5226 13.1271 80.186 13.5611 80.8281 14.0288C81.3566 14.4138 82.1557 14.854 82.5332 15.3944C82.9107 15.9351 82.3563 16.3929 82.0533 16.8418C81.5823 17.54 81.1491 18.2633 80.6762 18.9607C80.4883 18.8256 80.5368 18.5511 80.4081 18.3781C80.2938 18.2246 80.1322 18.1622 79.9744 18.0674C79.672 17.8862 79.3751 17.6646 79.102 17.9683C78.6239 18.4997 79.2813 19.7559 79.9898 19.618C80.0733 20.1425 78.6584 21.0063 78.3038 21.295C77.2156 22.1804 76.093 22.9502 74.6555 23.0303C74.0737 23.0626 73.4684 23.0185 72.9156 22.8238C72.6508 22.7306 72.3581 22.6026 72.1551 22.3993C71.912 22.1559 71.8501 21.7938 71.6143 21.5529C71.4098 21.3438 71.129 21.3116 70.9246 21.1018C70.7199 20.8919 70.6188 20.5603 70.5359 20.2884C70.3735 19.7571 70.3428 19.1968 70.1869 18.6643C70.093 18.344 70.0159 17.9159 69.7098 18.2236C69.2653 18.6707 69.4886 20.0765 69.6024 20.6121C69.7652 21.3763 70.1468 21.9924 70.5466 22.6499C70.9801 23.3631 71.1401 24.0247 71.2178 24.8499C71.3632 26.3948 71.8065 27.8772 72.4964 29.2672C72.7867 29.8524 73.1345 30.4027 73.448 30.9745C73.5944 31.2413 73.9226 32.1515 74.3208 32.1466C74.9572 32.1388 74.0507 30.2832 73.925 29.9716C73.2279 28.2463 72.5621 26.4329 72.4128 24.5647C73.412 24.8221 74.5012 25.0664 75.5359 24.9033C74.868 26.3969 75.5657 27.884 75.4803 29.4215C75.4376 30.1925 75.4068 30.9038 75.4227 31.6725C75.4367 32.3466 75.1323 33.0204 74.8692 33.63C74.3465 34.8405 73.6886 36.3338 72.7179 37.2611C71.9064 38.0363 70.8209 38.0969 69.7606 37.9184C67.3487 37.5121 65.7639 35.658 64.7517 33.5523C64.1013 32.1995 63.6042 30.7555 63.2956 29.2864C62.9382 27.5861 63.0326 25.8744 63.0008 24.1498ZM66.1331 12.6914C63.8823 11.0628 67.1531 9.21336 68.8179 9.46517C69.2085 9.52412 69.927 9.68554 69.8905 10.1952C69.8605 10.6118 69.1657 11.0761 68.899 11.3332C68.1382 12.0668 67.3641 13.5818 66.1331 12.6914ZM82.5073 48.8781C82.4301 48.8089 81.8001 48.9788 82.0496 48.606C82.257 48.2963 82.832 48.6845 83.0409 48.7641C82.8687 48.8831 82.7189 49.0673 82.5073 48.8781ZM73.135 68.5752C72.9415 68.5991 72.7393 68.0773 73.4366 68.4671C73.3361 68.5031 73.2355 68.5392 73.135 68.5752ZM73.115 77.0788C73.139 77.3126 73.2105 77.4668 73.0444 77.6368C72.904 77.4637 72.8859 77.2197 73.115 77.0788ZM73.3981 80.5923C73.3775 80.7196 73.357 80.8468 73.3367 80.9739C73.1756 80.8925 73.0148 80.811 72.8537 80.7294C73.035 80.6837 73.2167 80.6381 73.3981 80.5923ZM73.5952 77.6296C73.8352 77.7193 73.7235 77.4323 73.8978 77.392C73.9602 77.6908 73.8833 77.9467 73.7117 78.1932C73.6954 78.1348 73.6074 77.6339 73.5952 77.6296ZM79.7293 56.4277C79.3925 56.3847 79.3416 56.7405 79.0905 56.8785C78.9285 56.9677 78.4352 56.9007 78.3431 57.0714C78.4646 57.1064 78.5863 57.1417 78.7078 57.1767C78.4296 57.3267 78.1513 57.4768 77.873 57.6267C78.5423 57.6267 79.2397 57.307 79.9044 57.4009C80.1854 57.4406 80.3914 57.5355 80.5677 57.7641C80.6747 57.9028 80.7687 58.1261 80.7859 58.296C80.8045 58.4798 80.6612 58.6067 80.6866 58.6944C80.9862 58.7025 80.9508 59.1939 80.8836 59.3942C80.7377 59.8284 80.1584 60.5084 79.6392 60.233C79.8564 60.5412 79.8011 60.7172 79.4799 60.896C79.509 60.7941 79.5305 60.6159 79.3664 60.6336C79.3242 60.8044 79.3404 61.0752 79.2009 61.204C79.0447 61.348 78.9054 61.1797 78.756 61.2734C78.579 61.3846 78.6323 61.5592 78.493 61.6798C78.309 61.8391 78.2827 61.7259 78.0626 61.7569C77.7293 61.804 77.942 61.597 77.675 61.8669C77.5827 61.96 77.5983 62.2023 77.4486 62.3386C77.1611 62.6003 76.3941 62.8729 76.1187 62.5374C75.4565 63.5868 73.4719 63.8386 72.5481 63.0102C71.0747 61.689 73.8219 59.0021 74.7289 58.1506C75.6393 57.296 76.6504 56.5578 77.6735 55.8453C78.2548 55.4405 78.8514 55.0731 79.4605 54.7125C79.8363 54.4898 80.3081 54.0834 80.7699 54.1224C81.184 54.1575 81.5379 54.4788 81.9739 54.5424C82.2892 54.5884 82.9018 54.6642 82.504 55.092C82.3179 55.2918 81.5873 55.6149 81.3385 55.6636C81.1924 55.6922 81.0383 55.6375 80.8935 55.6671C80.6484 55.7174 80.48 55.9243 80.2132 55.898C80.2977 56.2939 80.1435 56.4803 79.7293 56.4277ZM84.0896 41.7318C84.0898 42.0415 83.5245 41.9643 83.4065 41.8591C83.2121 41.686 83.2053 41.1685 83.1332 40.9332C83.4618 41.0158 84.0893 41.3184 84.0896 41.7318ZM79.5359 31.5147C80.7233 30.5387 81.9718 29.644 83.2916 28.8559C83.7642 28.5737 84.4315 28.0045 85.0186 28.0755C85.2648 28.1055 85.7739 28.3883 85.5884 28.7001C85.5538 28.7584 85.2798 28.7818 85.1951 28.8242C85.0992 28.8721 85.0239 29.0042 84.9349 29.0695C84.3182 29.5218 83.5773 29.7998 82.9586 30.2631C82.4502 30.6435 81.976 31.0691 81.4287 31.3956C80.9037 31.7086 80.355 31.9068 79.8565 32.2535C79.8664 32.2465 79.2081 32.4832 79.3372 32.5263C78.7594 32.333 79.3697 31.6515 79.5359 31.5147ZM87.4526 31.1512C88.158 30.8701 88.8482 30.5289 89.5867 30.34C89.9551 30.2457 90.3335 30.1748 90.715 30.2173C90.7798 30.1037 90.8661 30.0787 90.974 30.142C91.0582 30.2714 91.1691 30.3707 91.307 30.44C91.5174 30.6018 92.292 30.8132 92.1372 31.1704C92.0349 31.4066 91.2582 31.4263 91.0451 31.4793C90.4025 31.6394 89.8034 31.9994 89.1415 32.0878C89.0794 32.0961 88.8766 32.0209 88.8743 32.0213C88.616 32.0777 88.4011 32.3457 88.1792 32.4742C87.7016 32.7506 87.0154 32.797 86.6724 33.2742C87.783 34.027 88.7466 33.2804 89.723 32.7119C90.3079 32.3715 90.9358 32.1259 91.575 31.9077C91.909 31.7937 92.2461 31.6752 92.5846 31.5751C92.7247 31.5241 92.8688 31.4873 93.0166 31.4648C93.1541 31.4375 93.2525 31.4875 93.3119 31.6151C93.7212 31.6014 93.7563 31.3447 94.0027 31.8236C94.35 32.4989 93.8186 32.4646 93.3192 32.5476C92.6266 32.6625 91.9223 32.9212 91.2399 33.0928C91.0825 33.1324 89.7024 33.4524 89.7008 33.4637C89.6382 33.8993 93.5991 33.4959 93.9392 33.4306C94.5392 33.3151 95.1828 32.9873 95.804 33.0663C96.281 33.127 97.3676 33.8268 96.6067 34.2917C96.457 33.5746 95.9428 34.1668 95.6743 34.4088C95.3167 34.7309 94.8043 34.6999 94.3139 34.8261C93.6431 34.9984 91.9259 35.645 91.4495 34.8207C91.6002 35.5432 88.863 35.176 88.4866 35.1521C88.1198 35.1287 87.6462 35.2067 87.2917 35.1021C87.0604 35.034 86.9318 34.8836 86.7141 34.8497C86.6608 34.9071 86.5968 34.9463 86.5225 34.967C86.4121 34.9112 86.3125 34.8402 86.2237 34.7542C85.4906 34.4173 84.3564 34.2311 84.7638 33.1578C85.148 32.1456 86.5208 31.5227 87.4526 31.1512ZM94.3235 31.7768C94.3418 31.7137 94.3601 31.6507 94.3783 31.5875C94.3805 31.7809 94.8415 31.8634 94.7883 32.1138C94.6703 32.6684 94.1382 31.8351 94.0926 31.7443C94.1697 31.7552 94.2465 31.7659 94.3235 31.7768ZM97.1382 32.6982C97.1915 32.9253 97.8046 33.409 97.6527 33.5205C97.411 33.192 96.7429 33.3411 97.1382 32.6982ZM86.7973 53.4262C87.0217 52.9811 87.7002 53.7391 87.6286 52.9791C87.9975 53.0125 87.7672 53.2932 88.2093 53.1699C88.3749 53.1236 88.4869 52.94 88.6889 52.8977C88.7427 52.8863 88.9753 52.9048 89.0555 52.9023C89.3214 52.8942 90.3634 52.8646 89.6462 52.5159C90.0476 52.2505 90.0971 52.3851 90.4594 52.6283C90.3664 52.1256 90.8995 52.411 91.1477 52.4737C90.9707 52.187 91.4099 51.882 91.5524 51.6882C91.5014 51.9867 91.5283 52.3209 91.9602 52.13C92.0678 52.0825 92.0437 51.8715 92.1291 51.8371C92.2853 51.774 92.3727 51.8888 92.4288 51.8823C92.484 51.8761 92.6002 51.9071 92.7161 51.8634C92.8668 51.8067 92.7941 51.6045 92.9852 51.5744C93.1095 51.5549 93.2004 51.7378 93.3523 51.7393C93.4303 51.74 93.5604 51.6608 93.6197 51.6651C93.6301 51.6658 93.7043 51.4869 93.7954 51.4825C93.9288 51.476 93.983 51.8331 94.0317 51.9025C94.2651 52.2335 94.5754 52.4494 94.9333 52.6259C94.2858 53.2196 92.9796 53.1567 92.1653 53.3568C91.7243 53.4654 91.3481 53.6218 90.9445 53.8234C90.8472 53.8868 90.7633 53.9644 90.6932 54.0565C90.636 54.0186 90.5788 53.9806 90.5216 53.9427C90.3005 53.9563 90.0913 53.8469 89.8424 53.8889C89.0735 54.0186 88.4715 54.5946 87.6901 54.7229C87.339 54.7806 87.0504 54.8612 86.8218 54.5568C86.621 54.2899 86.6543 53.7101 86.7973 53.4262ZM85.743 49.8784C85.9173 50.0257 85.7077 50.5055 86.045 50.4533C86.2844 50.4163 86.2367 50.0449 86.4247 49.9662C86.6717 49.863 86.8207 50.108 87.0529 50.0853C87.4856 50.0427 87.4608 49.6648 87.0952 49.4989C87.4753 49.3985 87.5971 49.848 87.9337 49.8439C88.3758 49.8386 88.2703 49.317 88.6465 49.2306C88.8095 49.1931 88.7551 49.4324 88.8607 49.4621C89.0723 49.5215 89.2197 49.4195 89.4068 49.3297C89.5743 49.2495 89.6935 49.0944 89.8765 49.0418C89.9598 49.0178 90.1714 49.0617 90.2325 49.0172C90.3557 48.9274 90.466 48.5776 90.5872 48.5314C90.5624 48.5407 90.96 48.74 91.0169 48.7587C90.982 48.9064 90.9012 48.9239 90.7742 48.8114C90.7742 49.1447 91.7004 49.2486 91.5104 48.8367C92.0113 49.0441 91.6383 49.1508 91.5883 49.4402C91.5683 49.5566 91.5006 49.5534 91.5207 49.6765C91.5299 49.7331 91.7925 49.6843 91.7891 49.7616C91.7671 50.259 90.1817 50.4119 89.8814 50.4558C89.2596 50.5466 88.6712 50.6994 88.0717 50.8876C87.6254 51.0277 86.8561 51.429 86.3812 51.404C85.6981 51.3682 85.6091 50.4771 85.743 49.8784ZM84.2169 44.8026C84.0504 44.2493 84.5847 43.1063 85.2805 43.2492C85.4516 43.2842 85.4938 43.426 85.6265 43.4889C85.8118 43.5768 86.1132 43.5306 86.2739 43.6214C86.634 43.8253 86.4525 44.3448 86.8134 44.5325C86.2436 44.6707 84.4816 45.6821 84.2169 44.8026ZM84.8764 46.9525C85.1218 46.8206 85.5198 46.8036 85.6871 46.5499C85.7705 46.6076 85.9282 46.9581 86.0777 46.9044C86.1475 46.8795 86.2196 46.6895 86.2146 46.6897C86.3478 46.6859 86.3742 46.5056 86.5778 46.5258C86.7646 46.5446 86.9738 46.7692 87.1402 46.8529C87.1116 46.2961 87.2543 46.2429 87.7058 45.9448C87.8048 45.8795 87.8875 45.6344 87.9788 45.5352C87.8914 46.1196 88.1116 46.1227 88.5782 46.2105C89.1631 46.3206 89.5276 46.6347 89.762 47.1998C89.2635 47.1026 88.6205 47.2196 88.424 47.7554C88.0262 47.0285 86.5804 48.0315 86.1126 48.2369C85.7654 48.3895 85.3615 48.5944 85.0704 48.2391C84.8655 47.9888 84.9829 47.6877 84.9873 47.4653C84.9885 47.3955 85.0606 47.3914 85.054 47.2874C85.0455 47.1547 84.8727 47.1017 84.8764 46.9525ZM90.1982 58.3823C90.0665 58.4321 89.389 58.4601 89.3846 58.2357C89.3809 58.0374 90.5804 58.2372 90.1982 58.3823ZM89.0975 57.6562C88.5849 57.9722 88.0113 56.8586 87.8228 56.5378C88.3606 56.6066 88.6231 56.1568 88.9399 55.8149C89.2413 56.4753 89.699 56.1263 90.1803 55.9058C90.748 55.6456 91.3702 55.6437 91.9518 55.4349C92.1333 55.3698 92.3006 55.2729 92.4778 55.1984C92.6204 55.145 92.7627 55.0903 92.9043 55.0342C93.0048 54.9436 93.0406 54.8319 93.0113 54.6995C92.9637 54.5882 92.9962 54.5179 93.1088 54.4889C93.2427 54.5288 93.3793 54.5521 93.519 54.5583C93.7431 54.5139 94.0652 54.3024 93.7947 54.0745C94.0846 53.8112 94.3749 54.073 94.6541 54.1883C94.5877 53.9992 94.5217 53.8101 94.4553 53.621C94.5938 53.6798 95.0049 54.2542 95.0468 54.251C95.3125 54.2311 95.2848 53.8745 95.4375 53.7306C95.5256 53.8393 95.5508 54.6496 95.8973 54.3766C96.0454 54.2599 95.7265 53.8624 95.6479 53.7719C96.0442 53.8614 96.3902 54.3344 96.4973 54.7017C96.3091 54.7289 96.1352 54.6911 95.9754 54.5881C95.8732 55.0995 96.82 54.8923 96.9733 55.1595C97.2735 55.6827 95.3209 56.046 95.0666 56.0945C94.5575 56.1916 93.9567 56.2277 93.4901 56.4534C93.043 56.6693 92.9372 56.7312 92.4149 56.7717C91.8186 56.8179 91.2369 57.0144 90.6601 57.1674C90.1593 57.3001 89.5415 57.3826 89.0975 57.6562ZM99.9951 38.9306C100.466 38.7612 102.052 37.882 102.455 38.273C102.413 38.2316 102.747 38.9211 102.743 38.8777C102.772 39.2364 102.763 39.3807 102.322 39.5526C102.005 39.6756 101.73 39.4141 101.446 39.518C101.133 39.6321 101.352 39.834 101.191 39.975C101.015 40.1297 100.675 40.1965 100.456 40.2642C99.9186 40.43 99.3775 40.5686 98.8432 40.7472C97.7561 41.1107 96.6048 41.449 95.4875 41.7061C94.6526 41.8982 93.2355 42.3757 92.4661 41.8118C92.391 42.1323 92.2075 42.0885 91.9527 42.1352C91.7527 42.1718 91.3912 42.2708 91.2134 42.2759C90.9176 42.2845 90.0953 42.207 90.2085 41.7921C90.1773 41.9064 90.8481 41.5152 90.732 41.4909C91.0169 41.5509 90.9246 41.4074 91.158 41.3276C91.4628 41.2235 91.7814 41.2291 92.0926 41.1188C92.8772 40.8407 93.5353 40.4797 94.3634 40.3054C96.255 39.9075 98.1702 39.5874 99.9951 38.9306ZM24.166 81.7942C24.0127 81.7983 23.8935 81.3628 24.3598 81.6737C24.2952 81.714 24.2307 81.754 24.166 81.7942ZM20.4826 81.2307C20.2742 81.2841 20.191 81.1677 20.2335 80.8819C20.5242 80.767 20.6071 80.8833 20.4826 81.2307ZM17.639 80.6475C17.5856 80.3926 17.7745 80.3352 17.9458 80.2208C17.9285 80.5584 17.9285 80.5584 17.639 80.6475ZM10.484 78.5505C10.1958 78.4872 9.81175 78.2053 9.7457 78.6785C9.69748 78.5689 9.45142 78.0535 9.55707 77.9343C9.61224 77.8718 9.82112 78.1605 9.7989 78.132C10.0512 77.6217 10.486 78.2375 10.729 78.4196C10.6474 78.4633 10.5657 78.507 10.484 78.5505ZM85.4243 22.1588C85.5237 21.9484 85.6412 21.8816 85.776 21.9585C85.5641 22.4507 84.8464 22.7174 85.4243 22.1588ZM90.4105 17.5392C90.5883 17.8725 90.3209 18.0133 90.13 18.2904C90.2417 17.9916 90.3191 17.7845 90.4105 17.5392ZM112.082 50.0723C112.723 50.0722 114.089 49.7337 114.475 50.4666C114.731 49.9686 115.022 50.9025 115.244 51.0523C115.269 51.0693 115.429 50.947 115.503 50.992C115.615 51.0599 115.712 51.2447 115.776 51.3546C115.97 51.6859 116.053 52.0798 116.16 52.4444C115.041 52.4444 113.892 52.1836 112.773 52.0889C112.039 52.0266 111.319 52.0248 110.583 52.0644C110.437 52.0723 110.147 52.024 110.022 52.0516C109.895 52.0795 109.665 52.3381 109.525 52.2966C109.742 52.7048 112.528 53.6931 112.74 53.2411C112.489 53.0887 111.929 52.9717 111.93 52.6035C111.93 52.1911 112.454 52.1918 112.732 52.2039C113.34 52.2305 114.357 52.4327 114.606 53.0645C114.713 53.3354 114.746 54.0173 114.629 54.2788C114.553 54.4477 114.425 54.6506 114.222 54.685C114.138 54.699 114.018 54.5882 114.006 54.5909C113.589 54.6794 112.817 55.0141 112.363 54.5421C112.035 54.9664 110.456 54.503 109.972 54.3429C109.127 54.063 107.962 53.6786 107.449 52.8896C106.823 51.9281 108.095 51.1154 108.826 50.7245C109.825 50.1903 110.966 50.0728 112.082 50.0723ZM116.349 52.2957C116.545 52.3511 116.742 52.4067 116.938 52.4622C116.886 52.8068 116.11 52.5342 116.349 52.2957ZM122.29 64.8221C122.35 63.4414 121.951 62.2254 121.721 60.8901C121.664 60.5591 121.722 59.9803 121.47 59.7081C121.23 59.4478 120.694 59.6594 120.673 59.1994C120.436 59.4764 120.46 59.5343 120.169 59.2157C120.222 59.3523 120.23 59.4912 120.192 59.6327C120.011 59.529 119.355 59.1847 119.41 59.6555C118.871 59.5363 119.027 59.1991 118.72 58.9417C118.676 58.9051 118.501 59.0349 118.432 58.9796C118.308 58.8794 118.247 58.7884 118.143 58.6593C118.01 58.8195 117.83 58.9353 117.668 59.062C117.574 58.8569 117.39 58.7063 117.17 58.6564C117.376 59.0875 117.885 59.6458 117.187 59.8911C116.77 60.0375 116.087 59.8581 115.645 59.8922C114.008 60.0192 112.215 59.6623 110.633 59.2724C109.007 58.8718 107.363 58.3064 105.901 57.4799C105.589 57.3037 105.393 57.0951 105.124 56.8766C104.863 56.664 104.674 56.6305 104.36 56.4946C103.795 56.2501 103.279 55.8578 102.85 55.4207C101.926 54.4808 101.068 53.2515 101.326 51.8753C101.582 50.5037 102.525 49.4317 103.534 48.5285C104.725 47.4617 106.07 46.571 107.498 45.8529C108.137 45.5321 109.77 44.3262 110.4 45.0318C110.803 45.4825 110.577 46.0576 110.026 46.1578C109.89 46.1826 109.748 46.0914 109.611 46.1539C109.413 46.2439 109.482 46.3503 109.401 46.4255C109.259 46.5559 109.108 46.7593 108.896 46.8724C108.156 47.267 107.44 47.5798 106.733 48.0604C106.406 48.2818 106.092 48.3771 105.805 48.5704C105.519 48.7625 105.454 49.0805 105.07 48.8843C105.206 49.4435 104.384 50.0424 104.062 50.385C103.563 50.9155 102.964 51.5927 103.197 52.3776C103.653 53.9141 105.713 55.0811 107.032 55.7566C108.677 56.5994 110.492 57.2703 112.324 57.5479C113.235 57.6859 114.176 57.7712 115.093 57.8587C115.808 57.9269 116.904 57.6773 117.418 58.3208C117.434 57.5705 119.778 57.6367 120.276 57.5407C119.276 54.1225 117.313 51.0835 115.214 48.244C114.184 46.8502 113.172 45.4167 111.998 44.1389C110.712 42.7401 109.243 41.49 107.848 40.2028C105.11 37.6782 102.015 35.4251 98.8644 33.4403C95.7215 31.4601 92.4666 29.5113 89.0233 28.0994C85.0907 26.487 80.9504 25.4264 76.8055 24.5232C77.3678 23.8067 78.2823 23.4573 79.0023 22.9331C79.2544 22.7496 79.595 22.3092 79.9224 22.249C80.277 22.1837 80.5562 22.5652 80.8086 22.7567C81.533 23.3063 82.0341 23.0729 82.8639 23.0398C83.3604 23.02 84.5361 23.2965 84.7455 22.6249C85.0239 22.9955 84.6202 23.2927 84.4136 23.5645C84.5639 23.7742 84.6852 23.5566 84.8337 23.5238C84.8795 23.4859 84.9252 23.4478 84.971 23.4098C85.0447 23.3031 85.1112 23.3025 85.1703 23.4077C85.2589 23.541 85.3481 23.5116 85.4379 23.3191C85.4625 23.3037 85.487 23.2882 85.5116 23.2727C85.6189 23.2156 85.7225 23.1252 85.8222 23.054C86.5763 22.5152 87.2483 22.0562 88.0806 21.6593C88.7797 21.3261 88.4038 20.6888 88.8646 20.2386C88.9689 20.1368 89.1444 20.1879 89.256 20.1016C89.3651 20.0168 89.3815 19.9206 89.4612 19.8298C89.6527 19.6114 89.4248 19.3579 89.9133 19.6253L89.737 18.6336C90.6948 19.5629 90.6911 16.8888 90.822 16.4931C90.8047 16.5454 90.908 16.1405 90.9078 16.144C90.9359 15.3415 91.0455 14.7599 90.1057 14.7134C90.4615 14.4895 90.5703 14.9267 90.7346 14.4741C90.8168 14.2474 90.56 13.8578 90.9693 14.0039C91.0556 13.5221 90.9704 13.1321 90.8631 12.6639C90.753 12.1846 90.8177 11.8648 90.8227 11.3855C90.8283 10.8418 90.5738 10.2954 90.4923 9.76005C90.4285 9.34078 90.4943 8.67952 89.9523 8.83353C89.8761 8.71428 90.1438 8.34745 90.1329 8.16608C90.116 7.88434 89.8102 7.59807 89.7236 7.32752C89.5962 7.45902 89.4166 7.50285 89.2433 7.44345C89.406 7.07587 89.2532 6.95238 89.0974 6.63543C89.0081 6.4539 89.062 6.25348 88.8708 6.12341C88.7612 6.04874 88.5744 6.1745 88.4886 6.08698C88.3045 5.89956 88.3725 5.65093 88.2458 5.40396C88.087 5.09426 87.7241 4.85772 87.4741 4.62526C86.0683 3.31861 84.5414 2.31999 82.6715 1.80942C80.785 1.29432 78.5857 1.10977 76.7056 1.70392C75.9541 1.94137 75.287 1.91704 74.6106 2.3605C74.3913 2.50439 74.3677 2.46585 74.2563 2.70571C74.2306 2.76164 74.4641 2.91051 74.3211 3.00196C74.1658 3.10126 73.9942 2.89933 73.915 2.73171C72.9365 3.43998 72.0197 4.38418 71.4624 5.46683C70.9086 6.54263 70.8578 7.8065 70.6463 8.97561C69.671 7.86137 68.3518 7.32722 66.9176 7.86288C65.6675 8.32962 64.6988 9.35559 64.4542 10.6848C64.3051 11.4951 64.468 12.3156 64.836 13.0467C64.9952 13.3626 65.1879 13.7124 65.4805 13.925C65.7119 14.0931 66.1082 14.0695 66.2172 14.3727C66.3842 14.8372 65.4196 15.8403 65.1691 16.2469C64.7162 16.9827 64.2952 17.7425 63.9748 18.5461C62.8259 16.9233 61.7262 15.1508 60.4199 13.6545C59.187 12.2422 57.7172 10.9756 56.2758 9.78182C53.284 7.30425 50.1731 4.97667 46.8265 3.00286C43.7103 1.16494 39.9462 0.144557 36.3145 0.50534C32.766 0.857962 30.0493 3.10217 27.7633 5.69053C23.3677 10.6672 20.6755 17.7606 20.4125 24.3855C20.3334 26.3756 20.485 28.3397 20.9765 30.27C21.2107 31.1891 21.1767 32.0931 21.3127 33.024C21.4663 34.0742 21.7318 35.1206 21.9886 36.1493C22.9668 40.068 24.2132 43.9837 25.6117 47.7726C26.3389 49.743 27.2187 51.6692 28.409 53.4066C28.9587 54.2091 29.6709 54.837 30.2625 55.5991C30.8364 56.3382 30.9879 57.2453 31.1142 58.1522C31.4167 60.3267 31.6175 62.5105 31.7994 64.6977C31.8767 65.6247 31.9669 66.5435 32.0896 67.464C32.1967 68.2666 31.9275 68.2271 31.2523 68.4996C31.3892 67.7785 28.1635 68.2691 27.8589 68.3184C27.5275 68.3719 27.1765 68.3727 26.9155 68.4153C26.6236 68.4627 26.338 68.5315 26.0018 68.5219C25.5077 68.5076 24.5826 68.3814 24.3939 69.0122C24.2641 68.2809 23.4065 69.0805 24.041 68.9447C23.3897 69.0176 22.7251 68.8964 22.066 68.9577C21.3106 69.0279 20.5487 69.0947 19.7985 69.2084C19.2763 69.2874 18.778 69.4886 18.2549 69.5469C17.5854 69.6217 16.8869 69.6148 16.2109 69.6743C13.7178 69.8942 11.1337 70.4381 8.7102 71.0608C8.16124 71.2018 7.53051 71.302 7.00604 71.5284C6.86562 71.5889 6.73927 71.7243 6.60475 71.7763C6.37924 71.8634 6.41007 71.8032 6.20981 71.8431C5.00986 72.083 3.77198 72.4747 2.57219 72.7822C1.9067 72.9528 0.824198 73.1067 0.281345 73.5712C0.0380008 73.7791 -0.17466 74.1481 0.215295 74.3845C0.526805 74.5732 0.971414 74.2719 1.22352 74.1089C0.998922 74.6943 0.575323 74.986 0.804096 75.652C0.984715 76.1783 1.3925 76.8268 2.01991 76.4874C2.10394 76.6828 2.13795 77.0715 2.38538 77.1433C2.60771 77.2079 2.76868 76.9261 2.98648 76.9925C3.06447 77.0162 3.03485 77.1636 3.10468 77.2021C3.22499 77.2683 3.34696 77.2964 3.48481 77.3431C3.60331 77.3833 3.79405 77.4659 3.91769 77.4746C3.99613 77.4802 4.18098 77.346 4.18038 77.346C4.36054 77.3734 4.45743 77.7181 4.58711 77.8177C4.75549 77.9471 4.89454 77.9766 5.10539 78.0234C5.54371 78.1208 6.10869 78.2876 6.39798 77.8389C6.33178 78.1593 6.76753 78.1279 6.95979 78.1685C6.93848 77.9997 6.84522 77.8451 6.70133 77.7524C7.13119 77.7809 6.95692 78.2081 7.27462 78.321C7.50104 78.4013 7.47535 78.1973 7.64856 78.1746C7.87679 78.1448 8.05 78.3105 8.4064 78.1577C8.48363 78.5009 8.5119 78.847 8.93344 78.8983C9.18087 78.9283 9.75779 78.4816 9.72514 78.8534C10.2779 78.6913 10.4877 78.8009 10.7765 79.2881C10.8253 78.9889 11.0616 79.0757 11.2783 79.0573C11.6219 79.0279 11.6306 79.0556 11.8969 78.8611C11.9213 78.8434 12.1308 78.3635 12.2239 78.6617C12.2657 78.7953 11.989 79.1097 11.8865 79.1897C12.0138 79.2541 12.4308 79.4794 12.5912 79.438C12.7299 79.4022 12.7304 79.165 12.8971 79.1528C12.8563 79.2891 12.8156 79.4256 12.7746 79.5619C13.099 79.6091 13.37 79.3921 13.6262 79.2331C13.8705 79.8506 14.5686 79.5027 14.9483 79.9675C15.1491 80.2134 15.1585 80.4002 15.5412 80.4644C15.9328 80.5302 16.2749 80.3583 16.6077 80.6813C16.5022 80.4809 16.2393 80.3146 16.5005 80.0993C16.6783 80.3515 16.77 80.6553 16.975 80.8899C17.0032 80.7707 17.0315 80.6514 17.0598 80.532C17.5941 81.1035 18.2667 81.1085 18.951 81.4253V81.007C19.4411 81.7549 19.4672 81.2817 20.0526 80.9762C20.0128 81.1961 19.9729 81.416 19.9332 81.6358C20.3544 81.6041 20.748 82.1031 21.0938 81.6792C21.3027 82.0295 21.5559 81.8571 21.8982 81.9683C22.0929 82.0317 22.2379 82.2233 22.4272 82.2927C22.7112 82.3967 22.796 82.3918 23.0634 82.4824C23.3012 82.5628 23.4363 82.7194 23.7339 82.7695C23.9272 82.8022 24.1025 82.7998 24.2875 82.7909C24.359 82.7874 24.3354 82.6266 24.4943 82.6641C24.7399 82.7222 24.9228 83.0303 25.0996 83.1882C25.3656 82.5195 26.1105 83.4152 26.4705 83.5345C26.505 83.3631 26.4988 83.1565 26.6229 83.0156C26.7686 83.3348 26.8242 83.6031 27.1266 83.8087C27.3012 83.9273 27.5576 84.0123 27.7592 84.0556C27.8866 84.083 28.1182 84.0502 28.1983 84.0895C28.3349 84.1565 28.3852 84.3353 28.5232 84.352C28.6044 84.3619 28.7247 84.1483 28.7855 84.1649C29.0636 84.2408 29.218 84.5786 29.4989 84.7613C30.3345 85.305 31.3862 85.3578 32.3173 85.477C32.5509 85.5068 32.5848 85.443 32.7746 85.5801C32.8759 85.6534 32.83 85.8762 32.9545 85.9386C33.4238 86.1738 33.4241 85.672 33.5225 85.3602C33.6777 85.565 33.7045 85.8354 33.9168 85.9983C34.0328 85.995 34.1489 85.9976 34.2646 86.0062C34.3299 86.0807 34.3728 86.1667 34.3928 86.2642C34.6739 86.454 34.9924 86.388 35.2827 86.5305C35.378 86.5772 35.5466 86.8597 35.6639 86.9408C35.8739 87.0863 36.1985 87.1639 36.4384 87.2271C36.9414 87.3595 37.6627 87.1836 37.9619 87.7088C38.3593 87.2829 38.2056 87.7915 38.4754 87.8984C38.6347 87.9614 38.8743 87.7106 39.0509 87.7356C39.3691 87.7803 39.4837 88.1248 39.5855 88.3752C39.7793 88.332 39.6463 87.7838 39.6409 87.6636C39.8816 87.6352 39.9351 88.2693 39.9767 88.4086C40.3568 88.2256 39.7329 87.6559 40.1416 87.4732C40.1041 87.9585 40.4909 88.3581 39.8002 88.4277C39.8955 88.72 42.1234 89.0446 42.2782 88.7866C42.3125 89.2637 42.6329 88.8181 42.7511 88.6548C42.7644 88.9331 42.6697 89.328 42.9819 89.4574C43.1941 89.5452 43.6727 89.3181 43.7559 89.1101C43.851 89.4278 44.0103 89.4175 44.2083 89.6193C44.3444 89.7579 44.434 89.9982 44.5767 90.1143C44.8392 90.3279 45.3276 90.2952 45.6335 90.2475C46.232 90.1541 46.1613 90.0393 46.3745 90.6614C46.4228 90.4254 46.5739 89.9316 46.8375 90.2987C47.0053 90.5319 46.6481 91.046 46.5449 91.2508C46.7755 91.1241 47.0045 90.9739 47.2669 90.9193C47.2816 91.0002 47.295 91.1717 47.2563 91.2465C47.2642 91.2314 47.5441 91.4191 47.6479 91.4711C47.623 91.4586 47.73 90.9912 47.727 91.0065C48.0962 91.2344 47.84 91.6702 48.1671 91.8949C48.2516 91.9531 48.4499 91.8853 48.5521 91.9206C48.73 91.9823 48.8839 92.149 49.0419 92.2465C48.9157 92.0772 48.9339 91.7931 48.9425 91.5976C49.0229 91.6421 49.0803 91.8083 49.1615 91.8215C49.1922 91.8265 49.5103 91.8686 49.5082 91.8671C49.8394 92.099 49.7712 92.1282 49.4869 92.407C49.5885 92.5666 50.0131 92.2893 50.1279 92.2432C50.152 92.3056 50.1582 92.5323 50.2034 92.5728C50.2307 92.6399 50.2582 92.707 50.2857 92.7741C50.3705 92.711 50.4615 92.6898 50.5585 92.7108C50.6199 92.7321 51.0989 92.927 51.1314 92.8603C51.0266 92.8264 50.9316 92.7745 50.8466 92.7045C51.1231 92.456 51.3049 92.3239 51.5596 92.6827C51.5916 92.7279 51.4814 92.8902 51.5141 92.9492C51.6358 93.1686 51.8857 93.3432 52.0555 93.522C52.1258 93.2752 51.9622 92.6572 52.3525 92.6797C52.6643 92.6975 52.9014 93.4529 52.7935 93.6878C52.9175 93.5523 53.6575 93.4176 53.7971 93.4599C54.1921 93.5796 54.0813 93.9448 54.5672 93.4097C54.8985 93.6384 54.6065 93.725 54.6662 94.0037C54.7537 94.022 54.8366 94.0004 54.915 93.9389C54.8564 95.1234 55.7304 94.2183 56.298 94.3993C56.5208 94.4703 56.5777 94.7232 56.8169 94.7971C56.9434 94.8361 57.0841 94.7437 57.2071 94.7662C57.3057 94.7522 57.4036 94.7348 57.5009 94.7141C57.6243 94.6523 57.6822 94.7214 57.6746 94.9215C57.8729 95.0243 57.7979 95.0645 58.0298 95.0844C58.1791 95.0974 58.3165 94.942 58.4863 94.9685C58.779 95.0144 58.7403 95.2392 58.9274 95.3566C59.0958 95.4624 59.2857 95.4589 59.493 95.4385C59.5987 95.4281 59.8954 95.2919 59.9311 95.2915C60.1526 95.2885 60.0325 95.2413 60.2985 95.4316C60.5056 95.58 60.5925 95.6761 60.8467 95.7445C61.1383 95.8226 61.6555 95.9935 61.8517 95.7828C62.1166 96.1801 62.3241 95.8885 62.6739 95.9148C62.8528 95.9284 62.8813 95.9981 63.0406 96.0259C63.2987 96.0709 63.6208 96.0319 63.8954 96.1201C64.3282 96.2591 64.377 96.3289 64.8192 96.3477C64.899 96.3165 64.9789 96.2852 65.0585 96.2541C65.0824 96.3873 65.1451 96.496 65.2468 96.5801C65.4943 96.632 65.6567 96.5071 65.8608 96.3704C66.0128 96.8439 66.5062 96.8853 66.9282 96.9476C67.6091 97.0481 68.2602 97.103 68.9168 97.3268C69.4713 97.5157 70.027 97.7279 70.5603 97.9699C71.0298 98.1829 71.4728 98.5013 72.0039 98.3519C73.2073 98.013 74.3736 96.7777 75.3804 96.0684C76.5729 95.2283 77.859 94.5361 79.105 93.7808C84.0656 90.7739 89.3063 88.2303 94.1973 85.1115C96.8676 83.4089 99.3453 81.3858 102.213 80.0083C101.805 81.6952 101.11 83.4077 101.235 85.1738C101.286 85.8856 101.496 86.7264 102.048 87.2232C102.73 87.8376 103.49 87.4464 104.143 87.0075C105.541 86.0672 106.474 84.6951 107.52 83.4068C108.759 81.8826 109.719 80.2451 110.628 78.508C110.846 78.8138 110.68 79.326 110.683 79.665C110.687 80.0976 110.804 80.5145 111.005 80.9006C111.523 81.8973 112.508 82.139 113.398 81.4561C115.112 80.1419 116.107 77.8014 117.025 75.9166C117.549 76.8909 118.292 78.1173 119.55 77.4214C120.587 76.8472 121.197 75.5642 121.514 74.4774C122.441 71.3052 122.148 68.0738 122.29 64.8221Z" fill="#111D4A"/>
<path fill-rule="evenodd" clip-rule="evenodd" d="M120.716 45.7679C120.598 45.4804 120.546 45.5274 120.763 45.2487C120.933 45.4157 120.797 45.5537 120.716 45.7679ZM125.961 63.1667C125.628 62.2205 125.834 61.193 125.631 60.2225C125.539 59.7772 125.392 59.3453 125.339 58.892C125.316 58.6908 125.137 57.7853 125.259 57.6428C124.883 57.4154 124.882 57.2472 124.796 56.8015C124.929 56.6596 124.912 56.5385 124.745 56.438C124.636 56.3056 124.526 56.173 124.416 56.0406C124.895 56.2747 124.612 55.6755 124.563 55.3301C124.524 55.0571 124.498 54.7724 124.408 54.5107C124.296 54.1891 124.046 54.0265 124.565 54.0265C124.394 53.8325 124.139 53.6324 124.054 53.395C123.932 53.0532 124.133 52.6016 123.884 52.2998C123.745 52.1314 123.03 52.0655 123.155 51.7018C123.219 51.5165 123.509 51.6548 123.599 51.525C123.952 51.0147 122.91 50.8033 122.859 50.5862C122.793 50.3048 123.169 50.2419 123.192 49.9788C123.215 49.7212 122.814 49.298 122.708 49.0677C122.564 49.1028 122.406 49.3308 122.241 49.2219C122.21 49.2013 122.257 48.3097 122.219 48.1913C122.183 48.075 122.107 47.7663 122.08 47.7092C121.973 47.4823 121.668 47.3718 121.619 47.1039C121.59 46.9439 122.217 46.7018 121.498 46.6943C121.756 46.2393 121.283 45.9629 121.111 45.5741C120.89 45.0743 120.759 44.5344 120.532 44.032C120.311 43.5436 120.064 43.0802 119.745 42.6484C119.457 42.2574 119.332 41.8813 119.102 41.4684C119.056 41.4321 119.01 41.3959 118.963 41.3596C118.771 41.3874 118.709 41.2999 118.778 41.0969C118.631 40.8791 118.522 40.6466 118.392 40.4192C118.242 40.1548 118.038 39.9393 117.883 39.6822C117.676 39.3413 117.615 38.957 117.382 38.6151C117.095 38.1945 116.772 37.8235 116.505 37.3872C116.172 36.8405 115.803 36.5007 115.383 36.0774C115.184 35.8757 115.16 35.3721 114.915 35.0858C114.648 34.774 114.385 34.6895 114.201 34.2802C113.96 33.7478 113.608 33.4935 113.264 33.0333C112.981 32.6536 112.843 32.2173 112.531 31.85C112.263 31.5345 111.958 31.2463 111.672 30.9472C111.31 30.5695 111.043 30.1105 110.667 29.7513C110.721 29.8032 110.339 29.5006 110.358 29.5103C110.274 29.4672 110.001 29.4326 110.041 29.456C109.473 29.1221 108.761 27.9001 107.907 28.5476C107.457 28.8881 107.673 29.5127 107.986 29.8518C108.121 29.9975 108.822 30.7158 108.973 30.4129C109.137 30.6444 109.64 31.7638 110.058 31.4431C110.016 31.8256 110.237 31.6987 110.384 31.9573C110.48 32.1279 110.433 32.2117 110.503 32.478C110.696 33.2101 111.432 33.9252 111.825 34.5636C112.801 36.1526 113.878 37.6597 114.855 39.2505C115.786 40.7666 116.829 42.2052 117.723 43.7418C118.739 45.489 120.005 47.1383 120.77 49.0219C120.796 49.0852 121.009 49.1854 121.061 49.2805C121.154 49.4457 121.134 49.7314 121.193 49.9185C121.398 50.5672 121.731 51.2058 122.111 51.7431C122.444 52.2145 122.468 52.8552 122.697 53.4083C123.02 54.1877 123.361 54.959 123.675 55.7424C124.163 56.9617 124.494 58.1304 124.831 59.4033C125.05 60.2282 125.224 61.0527 125.294 61.9046C125.358 62.688 125.373 63.504 125.663 64.2457C125.861 63.9404 126.094 63.5448 125.961 63.1667Z" fill="#111D4A"/>
<path fill-rule="evenodd" clip-rule="evenodd" d="M14.2438 79.9527C13.8928 79.8818 13.5626 79.7872 13.4882 79.3843C13.4373 79.5743 13.3865 79.7643 13.3356 79.9542C13.7629 80.051 14.1903 80.1479 14.6176 80.2446C14.5178 80.0688 14.445 79.9934 14.2438 79.9527Z" fill="#111D4A"/>
<path fill-rule="evenodd" clip-rule="evenodd" d="M15.1856 13.8206C15.2122 13.7069 15.2467 13.5955 15.2891 13.4869C15.318 13.5928 15.4595 13.822 15.3771 13.9219C15.2722 14.0487 15.1661 13.9769 15.1856 13.8206ZM16.9061 10.5471C17.0212 10.5979 17.2705 10.6077 17.4135 10.6506C17.0426 10.9697 16.9773 10.8758 16.4977 10.8388C16.4764 10.516 16.6076 10.4158 16.9061 10.5471ZM13.6911 18.5394C13.7408 18.5407 13.7907 18.5419 13.8407 18.5431C13.8437 18.4026 13.8401 18.2622 13.8295 18.1219C14.3352 18.2324 14.049 17.3486 13.8901 17.1654C14.3835 17.1819 14.6238 15.62 14.7801 15.3191C14.9188 15.0518 15.076 14.9484 15.1774 14.6226C15.2662 14.3374 15.3621 14.0807 15.4901 13.8109C15.7843 13.1906 16.1702 12.6273 16.099 11.9044C16.3482 12.4468 16.5674 11.9053 16.7255 11.6459C16.9801 11.228 17.6015 10.6948 17.6675 10.1984C17.7259 9.76144 17.4012 9.73832 17.5929 9.3331C17.7867 8.92289 17.946 8.964 18.2854 8.83281C18.5112 8.74545 18.5561 8.85155 18.7154 8.56649C18.8187 8.38194 18.7822 8.2444 18.9145 8.0931C18.9691 8.14056 19.0312 8.16021 19.1007 8.15205C19.208 8.01042 19.2785 7.85263 19.3119 7.67866C19.3994 7.44378 19.4417 7.2281 19.5735 7.0044C19.6985 6.7925 19.9204 6.22555 20.038 6.12336C20.1628 6.01484 20.8709 6.07001 20.8679 6.07394C21.1604 5.70605 20.6236 5.33952 21.3668 5.41706C21.2201 5.14379 21.7356 4.80462 21.8853 4.65257C22.259 4.27304 22.2888 4.09741 22.3677 3.62009C22.4078 3.37675 22.1463 3.40486 22.4968 3.34939C22.6417 3.32657 22.7808 3.51187 22.8854 3.48467C23.3471 3.36496 22.8641 3.38778 22.9915 3.19961C23.0317 3.13991 23.2371 2.89898 23.2351 2.90155C23.2252 2.91364 23.2814 2.69191 23.3279 2.63493C23.4162 2.62737 23.5031 2.61196 23.5885 2.58868C23.6319 2.50101 23.6703 2.41124 23.7035 2.31934C24.0377 2.04063 24.5377 1.91593 24.7688 1.60971C24.9183 1.41171 24.8735 1.21779 25.0667 1.0204C25.2507 0.832372 25.494 0.968553 25.5304 0.543835C25.5768 0.00349119 24.9964 -0.236981 24.759 0.308351C24.1151 -0.484708 21.4238 2.42499 21.1129 2.80512C19.7624 4.45532 18.4351 6.14634 17.3273 7.97113C16.248 9.7492 15.3621 11.6201 14.6697 13.5812C14.3359 14.5267 14.1326 15.4681 13.9287 16.4461C13.8602 16.7737 13.3486 18.2333 13.5615 18.5599C13.6046 18.5531 13.6478 18.5462 13.6911 18.5394Z" fill="#111D4A"/>
<path fill-rule="evenodd" clip-rule="evenodd" d="M119.992 59.0068C120.22 58.8551 120.22 58.8551 120.26 58.5684C119.955 58.624 119.955 58.624 119.992 59.0068Z" fill="#111D4A"/>
<path fill-rule="evenodd" clip-rule="evenodd" d="M7.86701 78.2968C7.86988 78.2965 7.87199 78.2973 7.87366 78.2989C7.86882 78.2927 7.85129 78.2745 7.86701 78.2968Z" fill="#111D4A"/>
<path fill-rule="evenodd" clip-rule="evenodd" d="M7.71447 78.4505C7.78475 78.6024 7.89766 78.6402 8.05334 78.5635C8.1147 78.6512 7.521 78.0165 7.71447 78.4505Z" fill="#111D4A"/>
<path fill-rule="evenodd" clip-rule="evenodd" d="M17.9812 9.12097C17.6249 9.81941 18.0711 9.31141 18.0483 9.53828C18.0632 9.38925 18.125 9.1769 17.9812 9.12097Z" fill="#111D4A"/>
<path fill-rule="evenodd" clip-rule="evenodd" d="M75.8987 19.9311C76.053 21.1835 77.7664 20.5911 78.1518 19.8336C78.4325 19.2821 79.1412 17.1027 78.3787 16.6423C77.8134 16.301 77.6926 17.772 77.5533 18.1006C77.3198 18.6509 77.1373 18.2609 76.6181 18.4021C76.0452 18.5579 75.8349 19.4118 75.8987 19.9311Z" fill="#111D4A"/>
<path fill-rule="evenodd" clip-rule="evenodd" d="M74.0265 17.6387C74.639 17.7747 75.2393 17.7046 75.6743 17.2209C75.9152 16.9531 76.2358 16.4218 75.802 16.1626C75.4089 15.9279 74.9632 16.4776 74.5492 16.3639C73.9862 16.2093 74.2761 15.6056 74.0829 15.2069C73.3731 15.6156 72.9771 17.4056 74.0265 17.6387Z" fill="#111D4A"/>
<path fill-rule="evenodd" clip-rule="evenodd" d="M74.6616 20.8014C74.0713 20.8002 74.0664 21.5263 74.3746 21.8375C74.6695 22.1353 75.4152 22.4366 75.815 22.2051C76.6037 21.748 75.1394 20.8486 74.6616 20.8014Z" fill="#111D4A"/>
<path fill-rule="evenodd" clip-rule="evenodd" d="M40.311 49.6754C40.4371 49.7366 40.8086 50.0516 40.9652 49.9094C40.7442 49.6867 40.5231 49.4641 40.3021 49.2415C40.18 49.3754 40.0962 49.5711 40.311 49.6754Z" fill="#111D4A"/>
<path fill-rule="evenodd" clip-rule="evenodd" d="M37.5211 17.8201C37.4584 17.8669 37.3955 17.9136 37.3328 17.9603C37.5445 18.1367 37.5392 18.1892 37.7526 18.0222C37.6893 17.9387 37.6122 17.8715 37.5211 17.8201Z" fill="#111D4A"/>
<path fill-rule="evenodd" clip-rule="evenodd" d="M77.5338 59.3722C77.4151 59.1591 77.191 59.552 77.0394 59.616C76.7927 59.7198 76.5903 59.1696 76.661 59.8291C76.1035 59.5738 75.7651 60.1595 75.4055 60.4645C74.8975 60.8956 74.2761 61.1294 73.9373 61.7415C75.5323 62.1147 77.2848 60.7396 78.4742 59.8363C78.6683 59.6888 79.6383 58.9447 78.9808 58.8728C78.7119 58.8435 77.7333 59.7304 77.5338 59.3722Z" fill="#111D4A"/>
<path fill-rule="evenodd" clip-rule="evenodd" d="M77.0606 58.0811C77.3732 57.835 76.6992 57.8125 76.5927 57.7866C76.6019 57.9824 76.6108 58.1779 76.62 58.3737C76.7708 58.2822 76.9178 58.1846 77.0606 58.0811Z" fill="#111D4A"/>
<path fill-rule="evenodd" clip-rule="evenodd" d="M75.8868 58.9017C75.9802 58.8434 76.2406 58.6612 76.0635 58.5255C75.9034 58.6274 75.789 58.7936 75.7639 58.9833C75.8049 58.9561 75.8458 58.9289 75.8868 58.9017Z" fill="#111D4A"/>
<path fill-rule="evenodd" clip-rule="evenodd" d="M50.0543 43.0303C49.8547 43.1086 49.7652 43.2324 49.7862 43.4019C50.093 43.3392 50.0345 43.0495 50.0543 43.0303Z" fill="#111D4A"/>
</svg>
