<svg width="789" height="884" viewBox="0 0 789 884" fill="none" xmlns="http://www.w3.org/2000/svg">
<rect y="720" width="565" height="164" fill="#2156DA"/>
<rect x="218" width="571" height="771" fill="#2156DA"/>
<line x1="219" y1="81" x2="287" y2="81" stroke="white" stroke-width="4" stroke-linecap="round"/>
<path d="M331.56 95L323.16 67H330.08L334.28 81.72C334.467 82.3867 334.627 83.0667 334.76 83.76C334.92 84.4267 335.04 85.0667 335.12 85.68C335.227 86.2933 335.307 86.8667 335.36 87.4C335.413 87.9067 335.467 88.3333 335.52 88.68H334.64C334.8 87.6933 334.933 86.8133 335.04 86.04C335.173 85.2667 335.32 84.5467 335.48 83.88C335.64 83.1867 335.84 82.4667 336.08 81.72L340.24 70.64H345.68L349.76 81.72C350.08 82.6 350.347 83.4267 350.56 84.2C350.773 84.9733 350.933 85.72 351.04 86.44C351.173 87.1333 351.28 87.8267 351.36 88.52L350.56 88.64C350.613 88.16 350.653 87.72 350.68 87.32C350.707 86.8933 350.733 86.4933 350.76 86.12C350.813 85.72 350.867 85.3067 350.92 84.88C350.973 84.4533 351.053 83.9867 351.16 83.48C351.267 82.9467 351.413 82.3467 351.6 81.68L355.76 67H362.52L354.12 95H348.92L342.28 78.88L343.04 78.96L336.92 95H331.56ZM365.567 95V65.4H371.847V78.08L370.567 78.56C370.86 77.6 371.38 76.7333 372.127 75.96C372.9 75.16 373.82 74.52 374.887 74.04C375.953 73.56 377.073 73.32 378.247 73.32C379.847 73.32 381.193 73.6533 382.287 74.32C383.38 74.96 384.207 75.9333 384.767 77.24C385.327 78.52 385.607 80.0933 385.607 81.96V95H379.167V82.48C379.167 81.6267 379.047 80.92 378.807 80.36C378.567 79.8 378.193 79.3867 377.687 79.12C377.207 78.8267 376.607 78.6933 375.887 78.72C375.327 78.72 374.807 78.8133 374.327 79C373.847 79.16 373.433 79.4133 373.087 79.76C372.74 80.08 372.46 80.4533 372.247 80.88C372.06 81.3067 371.967 81.7733 371.967 82.28V95H368.807C368.06 95 367.42 95 366.887 95C366.353 95 365.913 95 365.567 95ZM398.797 95.36C397.011 95.36 395.411 94.8933 393.997 93.96C392.611 93 391.504 91.6933 390.677 90.04C389.851 88.36 389.437 86.4667 389.437 84.36C389.437 82.2 389.851 80.2933 390.677 78.64C391.504 76.9867 392.637 75.6933 394.077 74.76C395.517 73.8 397.157 73.32 398.997 73.32C400.011 73.32 400.931 73.4667 401.757 73.76C402.611 74.0533 403.357 74.4667 403.997 75C404.637 75.5067 405.184 76.1067 405.637 76.8C406.091 77.4667 406.424 78.1867 406.637 78.96L405.317 78.8V73.76H411.677V95H405.197V89.88L406.637 89.84C406.424 90.5867 406.077 91.2933 405.597 91.96C405.117 92.6267 404.531 93.2133 403.837 93.72C403.144 94.2267 402.371 94.6267 401.517 94.92C400.664 95.2133 399.757 95.36 398.797 95.36ZM400.557 89.96C401.544 89.96 402.397 89.7333 403.117 89.28C403.837 88.8267 404.397 88.1867 404.797 87.36C405.197 86.5067 405.397 85.5067 405.397 84.36C405.397 83.2133 405.197 82.2267 404.797 81.4C404.397 80.5467 403.837 79.8933 403.117 79.44C402.397 78.96 401.544 78.72 400.557 78.72C399.597 78.72 398.757 78.96 398.037 79.44C397.344 79.8933 396.797 80.5467 396.397 81.4C395.997 82.2267 395.797 83.2133 395.797 84.36C395.797 85.5067 395.997 86.5067 396.397 87.36C396.797 88.1867 397.344 88.8267 398.037 89.28C398.757 89.7333 399.597 89.96 400.557 89.96ZM419.084 95V68.4H425.484V95H419.084ZM415.324 79.36V73.76H429.604V79.36H415.324ZM451.794 95L443.394 67H450.314L454.514 81.72C454.701 82.3867 454.861 83.0667 454.994 83.76C455.154 84.4267 455.274 85.0667 455.354 85.68C455.461 86.2933 455.541 86.8667 455.594 87.4C455.648 87.9067 455.701 88.3333 455.754 88.68H454.874C455.034 87.6933 455.168 86.8133 455.274 86.04C455.408 85.2667 455.554 84.5467 455.714 83.88C455.874 83.1867 456.074 82.4667 456.314 81.72L460.474 70.64H465.914L469.994 81.72C470.314 82.6 470.581 83.4267 470.794 84.2C471.008 84.9733 471.168 85.72 471.274 86.44C471.408 87.1333 471.514 87.8267 471.594 88.52L470.794 88.64C470.848 88.16 470.888 87.72 470.914 87.32C470.941 86.8933 470.968 86.4933 470.994 86.12C471.048 85.72 471.101 85.3067 471.154 84.88C471.208 84.4533 471.288 83.9867 471.394 83.48C471.501 82.9467 471.648 82.3467 471.834 81.68L475.994 67H482.754L474.354 95H469.154L462.514 78.88L463.274 78.96L457.154 95H451.794ZM494.905 95.4C492.559 95.4 490.519 94.9333 488.785 94C487.052 93.04 485.705 91.7467 484.745 90.12C483.785 88.4667 483.305 86.5867 483.305 84.48C483.305 82.8533 483.572 81.36 484.105 80C484.639 78.64 485.385 77.4667 486.345 76.48C487.305 75.4667 488.439 74.6933 489.745 74.16C491.079 73.6 492.532 73.32 494.105 73.32C495.599 73.32 496.959 73.5867 498.185 74.12C499.439 74.6533 500.519 75.4 501.425 76.36C502.332 77.32 503.025 78.4533 503.505 79.76C503.985 81.0667 504.199 82.4933 504.145 84.04L504.105 85.76H487.185L486.265 82.16H498.905L498.225 82.92V82.12C498.172 81.4533 497.959 80.8667 497.585 80.36C497.239 79.8267 496.772 79.4133 496.185 79.12C495.599 78.8267 494.932 78.68 494.185 78.68C493.145 78.68 492.252 78.8933 491.505 79.32C490.785 79.72 490.239 80.32 489.865 81.12C489.492 81.8933 489.305 82.8533 489.305 84C489.305 85.1733 489.545 86.2 490.025 87.08C490.532 87.9333 491.252 88.6 492.185 89.08C493.145 89.56 494.279 89.8 495.585 89.8C496.492 89.8 497.292 89.6667 497.985 89.4C498.705 89.1333 499.479 88.68 500.305 88.04L503.305 92.28C502.479 93 501.599 93.5867 500.665 94.04C499.732 94.4933 498.772 94.8267 497.785 95.04C496.825 95.28 495.865 95.4 494.905 95.4ZM534.475 95.4C532.342 95.4 530.395 95.04 528.635 94.32C526.875 93.6 525.342 92.5867 524.035 91.28C522.729 89.9733 521.715 88.44 520.995 86.68C520.275 84.92 519.915 82.9867 519.915 80.88C519.915 78.7733 520.275 76.84 520.995 75.08C521.715 73.32 522.729 71.7867 524.035 70.48C525.342 69.1733 526.875 68.16 528.635 67.44C530.395 66.72 532.329 66.36 534.435 66.36C536.542 66.36 538.475 66.72 540.235 67.44C541.995 68.16 543.529 69.1733 544.835 70.48C546.142 71.7867 547.142 73.32 547.835 75.08C548.555 76.84 548.915 78.7733 548.915 80.88C548.915 82.96 548.555 84.8933 547.835 86.68C547.142 88.44 546.142 89.9733 544.835 91.28C543.529 92.5867 541.995 93.6 540.235 94.32C538.475 95.04 536.555 95.4 534.475 95.4ZM534.435 89C535.529 89 536.529 88.8 537.435 88.4C538.369 88 539.169 87.44 539.835 86.72C540.529 85.9733 541.062 85.1067 541.435 84.12C541.809 83.1333 541.995 82.0533 541.995 80.88C541.995 79.7067 541.809 78.6267 541.435 77.64C541.062 76.6533 540.529 75.8 539.835 75.08C539.169 74.3333 538.369 73.76 537.435 73.36C536.529 72.96 535.529 72.76 534.435 72.76C533.342 72.76 532.329 72.96 531.395 73.36C530.489 73.76 529.689 74.3333 528.995 75.08C528.302 75.8 527.769 76.6533 527.395 77.64C527.049 78.6267 526.875 79.7067 526.875 80.88C526.875 82.0533 527.049 83.1467 527.395 84.16C527.769 85.1467 528.302 86 528.995 86.72C529.689 87.44 530.489 88 531.395 88.4C532.329 88.8 533.342 89 534.435 89ZM554.816 95V72.72C554.816 71.3333 555.11 70.08 555.696 68.96C556.31 67.84 557.15 66.96 558.216 66.32C559.31 65.6533 560.576 65.32 562.016 65.32C563.03 65.32 563.963 65.4667 564.816 65.76C565.67 66.0533 566.43 66.4667 567.096 67L565.256 71.68C564.91 71.4933 564.576 71.3467 564.256 71.24C563.936 71.1333 563.643 71.08 563.376 71.08C562.896 71.08 562.496 71.16 562.176 71.32C561.856 71.48 561.616 71.7333 561.456 72.08C561.323 72.4 561.256 72.8 561.256 73.28V95H558.056C557.336 95 556.696 95 556.136 95C555.603 95 555.163 95 554.816 95ZM551.736 79.64V74.36H565.616V79.64H551.736ZM570.536 95V72.72C570.536 71.3333 570.83 70.08 571.416 68.96C572.03 67.84 572.87 66.96 573.936 66.32C575.03 65.6533 576.296 65.32 577.736 65.32C578.75 65.32 579.683 65.4667 580.536 65.76C581.39 66.0533 582.15 66.4667 582.816 67L580.976 71.68C580.63 71.4933 580.296 71.3467 579.976 71.24C579.656 71.1333 579.363 71.08 579.096 71.08C578.616 71.08 578.216 71.16 577.896 71.32C577.576 71.48 577.336 71.7333 577.176 72.08C577.043 72.4 576.976 72.8 576.976 73.28V95H573.776C573.056 95 572.416 95 571.856 95C571.323 95 570.883 95 570.536 95ZM567.456 79.64V74.36H581.336V79.64H567.456ZM594.28 95.4C591.934 95.4 589.894 94.9333 588.16 94C586.427 93.04 585.08 91.7467 584.12 90.12C583.16 88.4667 582.68 86.5867 582.68 84.48C582.68 82.8533 582.947 81.36 583.48 80C584.014 78.64 584.76 77.4667 585.72 76.48C586.68 75.4667 587.814 74.6933 589.12 74.16C590.454 73.6 591.907 73.32 593.48 73.32C594.974 73.32 596.334 73.5867 597.56 74.12C598.814 74.6533 599.894 75.4 600.8 76.36C601.707 77.32 602.4 78.4533 602.88 79.76C603.36 81.0667 603.574 82.4933 603.52 84.04L603.48 85.76H586.56L585.64 82.16H598.28L597.6 82.92V82.12C597.547 81.4533 597.334 80.8667 596.96 80.36C596.614 79.8267 596.147 79.4133 595.56 79.12C594.974 78.8267 594.307 78.68 593.56 78.68C592.52 78.68 591.627 78.8933 590.88 79.32C590.16 79.72 589.614 80.32 589.24 81.12C588.867 81.8933 588.68 82.8533 588.68 84C588.68 85.1733 588.92 86.2 589.4 87.08C589.907 87.9333 590.627 88.6 591.56 89.08C592.52 89.56 593.654 89.8 594.96 89.8C595.867 89.8 596.667 89.6667 597.36 89.4C598.08 89.1333 598.854 88.68 599.68 88.04L602.68 92.28C601.854 93 600.974 93.5867 600.04 94.04C599.107 94.4933 598.147 94.8267 597.16 95.04C596.2 95.28 595.24 95.4 594.28 95.4ZM607.598 95V73.76H613.678L613.958 80.68L612.758 79.36C613.078 78.2133 613.598 77.1867 614.318 76.28C615.064 75.3733 615.931 74.6533 616.918 74.12C617.904 73.5867 618.958 73.32 620.078 73.32C620.558 73.32 620.998 73.36 621.398 73.44C621.824 73.52 622.211 73.6133 622.558 73.72L620.798 80.8C620.504 80.6133 620.104 80.4667 619.598 80.36C619.118 80.2267 618.611 80.16 618.078 80.16C617.491 80.16 616.944 80.2667 616.438 80.48C615.931 80.6667 615.504 80.9467 615.158 81.32C614.811 81.6933 614.531 82.1333 614.318 82.64C614.131 83.1467 614.038 83.72 614.038 84.36V95H607.598ZM630.761 85.4L629.481 80.16C630.254 79.9733 630.988 79.76 631.681 79.52C632.374 79.2533 633.014 78.9733 633.601 78.68C634.188 78.3867 634.681 78.0533 635.081 77.68C635.508 77.28 635.841 76.8533 636.081 76.4C636.321 75.92 636.441 75.4133 636.441 74.88C636.441 74.3467 636.308 73.8933 636.041 73.52C635.774 73.12 635.414 72.8133 634.961 72.6C634.508 72.3867 633.974 72.28 633.361 72.28C632.481 72.28 631.601 72.6 630.721 73.24C629.841 73.8533 629.028 74.8533 628.281 76.24L623.921 72.2C625.121 70.36 626.548 68.9333 628.201 67.92C629.881 66.9067 631.628 66.4 633.441 66.4C635.201 66.4 636.788 66.76 638.201 67.48C639.614 68.1733 640.734 69.1467 641.561 70.4C642.388 71.6267 642.801 73.0133 642.801 74.56C642.801 75.5467 642.588 76.52 642.161 77.48C641.761 78.44 641.188 79.3467 640.441 80.2C639.721 81.0267 638.868 81.76 637.881 82.4C636.894 83.04 635.801 83.5333 634.601 83.88L634.201 85.4H630.761ZM629.321 91.88C629.321 90.8133 629.641 89.9467 630.281 89.28C630.921 88.6133 631.748 88.28 632.761 88.28C633.854 88.28 634.708 88.6 635.321 89.24C635.934 89.8533 636.241 90.7333 636.241 91.88C636.241 92.92 635.921 93.7733 635.281 94.44C634.641 95.1067 633.801 95.44 632.761 95.44C631.668 95.44 630.814 95.1333 630.201 94.52C629.614 93.9067 629.321 93.0267 629.321 91.88Z" fill="white"/>
</svg>
