<svg width="29" height="35" viewBox="0 0 29 35" fill="none" xmlns="http://www.w3.org/2000/svg">
<path d="M26.7647 2.05882V32.9412H2.05884V35H28.8235V2.05882H26.7647Z" fill="#111D4A"/>
<path d="M7.20587 6.17646H17.5V8.23528H7.20587V6.17646Z" fill="#111D4A"/>
<path d="M18.5294 24.7059C19.0979 24.7059 19.5588 24.245 19.5588 23.6765C19.5588 23.108 19.0979 22.6471 18.5294 22.6471C17.9609 22.6471 17.5 23.108 17.5 23.6765C17.5 24.245 17.9609 24.7059 18.5294 24.7059Z" fill="#111D4A"/>
<path d="M24.7059 0H0V30.8823H24.7059V0ZM5.14706 4.11765H19.5588V10.2941H5.14706V4.11765ZM5.14706 12.3529H19.5588V14.4118H5.14706V12.3529ZM5.14706 16.4706H19.5588V18.5294H5.14706V16.4706ZM18.5294 26.7647C17.1874 26.7647 16.0432 25.904 15.6182 24.7059H10.2941V26.7647H8.23529V24.7059H6.17647V26.7647H4.11765V22.6471H15.6182C16.0432 21.4489 17.1874 20.5882 18.5294 20.5882C20.2323 20.5882 21.6176 21.9735 21.6176 23.6765C21.6176 25.3794 20.2323 26.7647 18.5294 26.7647Z" fill="#111D4A"/>
</svg>
