<svg width="126" height="78" viewBox="0 0 126 78" fill="none" xmlns="http://www.w3.org/2000/svg">
<path fill-rule="evenodd" clip-rule="evenodd" d="M92.9463 62.9261C92.3493 63.6164 91.4679 64.1288 90.7915 64.76C90.0813 65.423 89.3105 66.0023 88.603 66.6573C85.4824 62.8432 81.2075 60.5045 77.5041 57.3396C75.7485 55.839 74.455 53.8037 73.5083 51.7148C73.0231 50.644 72.6646 49.5418 72.384 48.4011C72.2577 47.8873 72.1341 47.3752 72.0515 46.8544C71.9515 46.2236 71.9256 46.1698 71.5 45.6775C71.3169 45.4657 70.962 44.8467 70.6032 44.9149C70.3013 44.9724 69.749 45.8915 69.5582 46.1185C68.6405 47.2105 67.7508 48.3357 66.7847 49.3854C65.3065 50.9916 63.9608 52.5721 62.5884 54.2745C59.7809 57.7574 56.7525 61.036 53.6966 64.3133C53.4699 64.5563 52.9415 65.269 52.6158 65.3648C52.2199 65.4813 51.5764 64.9956 51.1777 64.7242C50.2153 64.0689 49.4567 63.2579 48.6339 62.4458C47.0284 60.861 45.9412 58.6365 45.2098 56.5199C44.772 55.253 44.4873 53.9396 44.0355 52.6771C43.8472 52.1508 43.4203 51.5041 43.6371 51.0457C43.7016 50.9091 44.1123 50.5461 44.2571 50.5183C44.4284 50.4854 44.714 50.7203 44.7734 50.704C45.3417 50.5485 45.0264 49.9536 45.3644 49.6336C45.5561 49.452 46.5307 49.4785 46.8217 49.3788C47.8857 49.0138 48.8402 48.3176 49.846 47.902C54.0568 46.1623 58.3189 44.4701 61.954 41.6292C62.8968 40.8925 63.5232 40.3389 64.6481 39.8628C65.7849 39.3816 66.9276 38.9524 68.0876 38.5325C69.1109 38.1621 70.1399 37.8148 71.1971 37.5493C72.3402 37.2622 73.9619 36.8981 75.1041 37.268C77.3471 37.9941 78.0715 39.8423 78.9647 41.792C80.1732 44.4298 81.6345 46.9259 83.2186 49.3538C86.266 54.0251 89.9724 58.2169 92.9463 62.9261Z" fill="#111D4A"/>
<path fill-rule="evenodd" clip-rule="evenodd" d="M25.3946 21.6285C25.2712 21.5659 24.3075 21.9581 24.1458 22.0181C23.4997 22.2579 22.8911 22.6562 22.2824 22.9802C22.7489 23.5479 23.2155 24.1158 23.6819 24.6837C24.1391 23.5621 24.7268 22.6366 25.3946 21.6285ZM25.7127 28.6069C25.554 28.6247 26.894 31.8449 27.0505 32.2065C27.6199 33.5216 28.2178 34.8238 28.7948 36.1355C29.3538 37.4067 30.0629 38.5762 30.7773 39.7637C31.3884 40.7793 32.0169 42.3553 32.9387 43.1076C32.3567 40.5256 32.4334 37.5567 30.764 35.3887C29.0336 33.1412 27.3227 30.9465 25.7127 28.6069ZM92.9463 63.0408C90.3604 58.946 87.1234 55.3236 84.427 51.3019C82.9171 49.05 81.4476 46.7693 80.1767 44.3723C79.2523 42.6286 78.6777 40.1409 77.2499 38.8078C76.6207 38.2205 75.9484 37.6457 75.1041 37.3825C73.9487 37.0226 72.3578 37.3794 71.1971 37.664C69.0341 38.1944 66.9212 39.0179 64.8724 39.8829C62.7943 40.7601 61.0213 42.3359 59.1437 43.6019C57.1295 44.9602 54.9492 45.9497 52.6926 46.8158C50.7277 47.57 48.9798 48.6527 47.0253 49.4118C46.6359 49.5631 45.8411 49.5409 45.5144 49.7382C45.1624 49.9506 45.301 50.5778 44.8736 50.8092C44.6808 50.9136 44.6166 50.5351 44.4686 50.5413C44.2875 50.5489 44.1225 50.7614 43.948 50.8959C43.2377 51.4439 43.6729 51.8093 43.9541 52.5634C44.8708 55.0204 45.3635 57.5202 46.6507 59.8398C47.709 61.7463 49.2236 63.4548 51.0069 64.717C51.2782 64.9092 52.1624 65.6535 52.4808 65.6039C52.7674 65.5595 53.3506 64.7975 53.5486 64.5906C54.4465 63.6515 55.2673 62.6413 56.1648 61.7008C57.5516 60.2472 58.8866 58.7547 60.2325 57.2813C61.7948 55.5708 63.1775 53.6328 64.5847 51.8052C65.232 50.9645 66.0652 50.2797 66.7846 49.5001C67.7521 48.4518 68.6405 47.325 69.5583 46.2333C69.8358 45.9029 70.301 45.0578 70.7325 45.0677C71.0348 45.0747 71.5679 45.7866 71.7261 46.0097C72.3139 46.8389 72.3113 48.3365 72.6036 49.3716C73.317 51.8958 74.6032 54.3611 76.3673 56.3089C78.1216 58.2459 80.3687 59.6233 82.4435 61.1802C84.6912 62.867 86.8205 64.5932 88.603 66.772C89.3104 66.1171 90.0813 65.5376 90.7915 64.8747C91.468 64.2434 92.3494 63.7312 92.9463 63.0408ZM59.6609 74.6254C60.1636 74.6305 61.015 74.9398 61.4647 74.7535C60.1307 73.2775 58.9057 72.0111 57.2179 70.9294C55.4665 69.8069 53.7209 68.6944 52.0198 67.4971C48.5916 65.0843 46.0701 62.2228 44.6381 58.2045C44.2694 57.1697 44.0224 56.0845 43.7522 55.0208C43.6068 54.4479 43.3174 51.7678 42.8259 51.5364C42.5348 51.3993 40.3437 52.9392 39.9965 53.1311C39.1848 53.5801 38.3701 53.9282 37.5309 54.2794C35.7271 55.0347 33.8676 55.6107 31.9548 56.0916C29.6616 56.6682 28.0995 55.7142 26.6789 53.9118C25.0671 51.8668 23.7277 49.5596 22.2541 47.4121C21.584 46.4353 21.0288 45.4602 20.5339 44.3828C20.21 43.6779 18.9253 41.7761 19.3692 41.0251C20.6356 41.9893 21.0913 43.9064 21.954 45.1974C23.0292 46.8064 24.2409 48.3234 25.3216 49.9309C26.2305 51.2826 27.1577 52.9206 28.5003 53.8923C29.6814 54.747 30.8034 54.4843 32.0744 54.1001C33.6149 53.6346 35.2117 53.4052 36.7215 52.8278C38.3553 52.2032 39.9011 51.3169 41.4951 50.5943C42.2382 50.2573 43.128 50.0658 43.8283 49.6457C44.4318 49.2839 44.3418 49.0928 44.3861 48.3222C44.4379 47.4232 44.4975 46.5235 44.5373 45.6236C44.564 45.019 44.237 44.1993 44.4589 43.748C42.6492 44.0617 40.8805 44.482 39.0834 44.8537C38.0996 45.0572 37.1508 45.3088 36.1569 45.4688C35.778 45.5297 35.2601 45.528 34.9209 45.693C34.6502 45.6153 34.5123 45.6647 34.507 45.8412C34.494 45.937 34.4735 46.0315 34.4454 46.1244C33.8905 46.3768 33.5678 45.8353 33.0865 45.316C32.4926 44.675 32.0479 43.9532 31.6122 43.2001C30.6379 41.5162 29.515 39.9324 28.6135 38.2011C27.6946 36.4362 26.9483 34.5465 26.1693 32.7154C25.4546 31.0355 24.9969 29.2186 24.2072 27.5785C23.8547 26.8464 23.4081 26.241 22.8865 25.6225C22.456 25.1121 21.7938 24.0111 21.151 23.7767C20.9811 23.7147 20.536 23.8189 20.3429 23.8051C19.9581 23.7776 19.6151 23.6363 19.2213 23.6673C18.3687 23.734 17.4391 24.2732 16.7577 24.7472C17.198 25.1397 18.2995 25.6168 17.5083 26.3238C16.7405 27.0102 16.3165 25.779 16.0235 25.2395C14.6438 26.3725 14.8432 27.9346 14.6838 29.5354C14.6006 30.3711 14.3816 31.1942 14.2403 32.0174C14.1386 32.6098 14.2099 33.2226 14.1809 33.8275C14.1067 35.3646 13.9522 36.8358 13.9598 38.3514C13.9677 39.9713 14.078 41.5357 14.2077 43.1439C14.4259 45.8515 14.9258 48.5599 15.3545 51.246C15.5957 52.7558 15.9258 54.2227 16.2463 55.7081C16.61 57.394 17.2828 58.9908 17.6601 60.6723C18.0445 60.1836 18.3336 60.1813 18.9554 60.246C19.4337 60.2958 19.755 60.182 19.7269 60.8459C19.7088 61.2764 19.329 61.6052 18.9088 61.6804C18.3607 61.7783 18.1745 61.5049 17.8921 61.0898C17.826 61.8759 18.3547 62.6977 18.5637 63.4654C18.7616 64.1929 18.8927 64.906 19.2251 65.6023C19.5496 66.2816 19.8274 66.9516 20.1556 67.6244C20.3068 67.9339 20.4482 68.2483 20.6011 68.557C20.6784 68.7133 20.7695 68.9287 20.8849 69.0605C21.1555 69.3694 21.1124 69.2198 21.4292 69.3957C22.1193 69.779 21.8602 69.6835 21.8763 70.4751C21.892 71.256 22.2924 71.8297 22.9346 72.2685C24.2969 73.2 25.6407 73.459 27.1895 73.9296C28.6326 74.368 30.1526 74.7443 31.6807 74.7357C33.5523 74.7253 35.399 74.4799 37.2706 74.455C39.3353 74.4277 41.4199 74.4389 43.4805 74.5103C44.3293 74.5396 45.1176 74.5774 45.9371 74.7941C46.8887 75.046 47.8093 74.9461 48.7901 74.9079C50.8826 74.8265 53.0473 74.6646 55.1125 74.6501C56.5995 74.6395 58.1684 74.5358 59.6609 74.6254ZM113.922 75.4365C114.294 75.633 115.127 75.5524 115.501 75.4978C116.16 75.4018 116.231 75.1406 116.649 74.5532C117.368 73.5416 117.952 72.5728 118.376 71.4009C119.186 69.1582 119.516 66.8637 119.872 64.5176C120.267 61.9107 119.546 59.2086 119.287 56.6195C119.228 56.0254 119.147 55.4368 119.053 54.8473C118.997 54.4948 118.982 53.2958 118.75 52.9907C118.305 52.4044 116.232 52.8773 115.418 52.9304C113.144 53.0789 110.855 53.1137 108.582 53.1395C107.37 53.1532 106.151 53.2039 104.951 53.2133C104.4 53.2177 103.861 53.1903 103.308 53.1367C103.123 53.1188 102.942 53.0763 102.756 53.066C102.118 53.0307 102.166 52.9382 102.001 53.5031C101.712 54.493 101.934 55.7523 101.859 56.7796C101.757 58.1524 101.702 59.5447 101.727 60.9204C101.751 62.1917 101.707 63.4601 101.755 64.7342C101.774 65.2619 101.832 65.6921 101.971 66.196C102.129 66.7657 102.302 68.0967 102.694 68.4909C102.738 68.5359 103.071 68.4312 103.16 68.543C103.296 68.7152 103.271 69.0795 103.365 69.1908C103.667 69.5511 104.293 69.5796 104.747 69.7415C105.993 70.1857 107.135 70.6679 108.309 71.2668C109.358 71.8019 111.049 72.2573 111.68 73.3129C111.969 73.7969 112.008 74.4351 112.274 74.9343C112.577 75.5031 111.971 75.2058 112.713 75.4365C113.047 75.5404 113.579 75.4365 113.922 75.4365ZM3.3415 69.0036C3.24714 70.317 2.50722 71.5681 2.24965 72.8595C2.12913 73.4643 1.92468 74.0587 1.78302 74.6598C1.64716 75.2366 1.15634 75.9195 1.20603 76.4902C3.01759 75.8447 4.85254 75.6824 6.7459 75.5084C8.54041 75.3433 10.4362 75.2777 12.2156 75.2769C14.0289 75.2759 15.9677 75.0989 17.8348 75.0714C19.7873 75.0427 21.7694 74.9921 23.6937 74.7896C22.6874 74.0444 21.4284 73.3445 20.6854 72.3077C19.8777 71.1805 19.4583 69.7683 18.7475 68.5789C17.3213 66.1921 16.4146 63.2304 15.6671 60.5489C14.1577 55.1356 12.4711 49.8223 12.0646 44.2073C11.2909 44.6035 10.6768 46.1406 10.2895 46.906C9.79508 47.8833 9.53619 48.9427 9.21479 49.9814C8.55297 52.1208 8.09493 54.3391 7.28456 56.4582C5.73572 60.509 4.74021 64.8738 3.3415 69.0036ZM101.678 37.4536C102.013 39.8747 102.716 42.3271 102.743 44.7773C102.749 45.3164 102.658 45.915 102.77 46.4465C102.89 47.014 103.28 47.5157 103.505 48.055C103.863 48.9111 104.769 50.6658 103.895 51.3912C103.878 50.7028 103.248 49.8286 102.93 49.2267C102.452 48.3197 101.824 47.4904 101.305 46.6059C100.22 44.7546 99.0039 42.9429 97.6053 41.3108C96.2431 39.721 94.6731 38.3108 93.2285 36.797C92.7945 36.3421 89.3128 31.9643 89.1745 32.0254C90.2544 36.1901 92.0903 39.8138 94.6027 43.3008C95.8345 45.0102 97.3129 46.1351 98.8124 47.5832C100.061 48.7892 102.415 50.0788 101.983 52.0549C103.935 51.8672 105.874 51.5674 107.844 51.5674C107.52 49.0743 107.272 46.6207 106.694 44.1686C106.037 41.3843 105.592 38.5167 105.037 35.7076C104.47 32.8399 103.508 30.0636 102.91 27.2013C102.337 24.4605 101.845 21.7245 101.425 18.9531C101.078 20.4887 101.206 22.1754 101.083 23.7422C100.957 25.343 100.969 26.9143 101.011 28.5244C101.089 31.5152 101.407 34.4699 101.678 37.4536ZM110.137 23.1946C110.148 21.9144 110.396 20.6515 110.473 19.3744C110.496 18.9826 110.886 16.3092 110.522 16.1697C110.223 16.8223 110.153 17.6573 109.881 18.342C109.61 19.026 109.247 19.6777 108.986 20.3665C108.421 21.8586 108.227 23.547 108.166 25.1334C108.028 28.7216 107.957 32.3018 108.198 35.89C108.302 37.428 108.381 38.9687 108.353 40.5097C108.322 42.2054 108.062 43.6771 108.377 45.3589C108.689 47.0243 108.886 48.6828 108.99 50.3726C109.062 51.5585 109.092 51.4746 110.223 51.3912C111.04 51.3309 111.865 51.3953 112.683 51.3579C112.301 46.7357 112.238 42.104 111.627 37.4995C111.315 35.1505 111.307 32.7675 110.92 30.4272C110.728 29.2646 110.405 28.1255 110.219 26.9616C110.02 25.712 110.118 24.4538 110.137 23.1946ZM27.3947 20.2857C29.573 20.4744 31.8901 21.1257 34.1228 20.6957C33.7548 20.5466 32.7916 20.341 33.2251 19.7526C33.6658 19.1544 34.4085 19.9132 34.8481 19.8348C35.1191 19.7865 35.718 18.6535 35.8851 18.4189C36.2642 17.8858 36.3099 17.7929 36.9917 17.6563C37.6522 17.5241 37.802 17.6672 37.8856 17.0106C37.9817 16.2554 37.7204 15.4065 37.7463 14.6343C37.802 12.972 38.3382 11.5142 38.8374 9.95015C36.7167 10.4115 34.6431 10.9586 32.4747 11.256C31.5478 11.3831 30.1057 11.6763 29.2637 11.0462C29.0447 10.8824 29.0797 10.6611 28.9005 10.4712C28.6 10.1526 28.0426 9.82301 27.6164 9.73222C24.9935 9.17388 24.7377 12.9129 26.0521 14.312C26.3813 14.6626 26.8393 14.8357 27.1764 15.157C27.6264 15.5854 27.6633 16.0367 27.729 16.6908C27.8521 17.9171 27.6848 19.1483 27.1616 20.2701L27.3947 20.2857ZM59.2232 37.9375C59.9975 38.0844 60.8056 38.0508 61.5819 38.1763C61.8577 38.2208 62.6846 38.3762 62.9271 38.215C63.2974 37.9688 63.429 37.0658 63.6041 36.6453C63.912 35.9056 64.3477 35.2604 64.6414 34.5073C65.8413 31.431 66.9603 28.3425 68.4116 25.3713C67.8554 25.2267 67.4282 25.221 66.8676 25.1463C66.2837 25.0685 65.7542 24.7232 65.1971 24.5748C64.6675 24.4338 64.1128 24.4697 63.5881 24.3057C63.2991 24.2154 63.051 24.0147 62.7661 23.9445C62.3119 23.8329 61.7818 23.7676 61.5117 24.0657C61.2349 24.3715 61.1377 25.21 60.9871 25.605C60.5859 26.6574 60.1198 27.673 59.7837 28.7495C59.4804 29.7204 59.1923 30.681 58.9254 31.6608C58.6433 32.6952 58.0875 33.5477 57.7489 34.5358C57.4914 35.2879 57.2483 36.0568 57.2099 36.8587C57.1725 37.6412 57.0586 37.691 57.841 37.816C58.236 37.879 58.8516 38.1138 59.2232 37.9375ZM110.167 74.5593C110.369 74.6532 110.559 74.6408 110.737 74.5218C108.989 73.7833 107.288 72.7591 105.464 72.2524C103.753 71.7773 102.09 71.2096 100.442 70.6244C99.1025 70.1489 97.8983 69.7788 96.6874 68.942C95.9523 68.434 95.2994 67.8628 94.7943 67.1205C94.232 66.294 94.1068 65.1178 93.4979 64.3736C92.6759 65.2763 91.7102 65.9599 90.7377 66.6773C90.4012 66.9254 89.5942 67.4665 89.4791 67.8505C89.3338 68.3351 89.7229 68.7987 89.9153 69.2891C90.4081 70.5451 90.6489 71.8004 90.9163 73.1063C91.0234 73.6296 91.2548 74.4163 91.6847 74.6355C92.0762 74.835 93.2098 74.69 93.6969 74.653C96.2382 74.4604 98.7344 74.2633 101.291 74.4386C104.184 74.637 107.281 74.774 110.167 74.5593ZM115.243 51.2855C115.705 51.2871 116.156 51.2293 116.616 51.2293C116.35 49.9891 116.971 48.3842 117.192 47.1462C117.438 45.7613 117.626 44.3293 117.79 42.9334C118.136 39.9931 118.293 37.0885 118.297 34.1267C118.302 31.2607 118.823 28.6417 119.554 25.8865C120.339 22.9276 121.624 20.2667 122.686 17.4131C121.521 18.0292 120.876 19.4709 120.263 20.573C119.489 21.9666 118.974 23.5096 118.657 25.074C118.048 28.092 117.379 31.1191 116.675 34.1321C115.942 37.2693 115.511 40.4353 114.672 43.5468C114.262 45.0642 113.706 46.931 113.675 48.4959C113.662 49.1431 113.467 50.4988 113.76 51.0609C114.035 51.5869 114.641 51.3391 115.243 51.2855ZM45.5253 47.393C45.5009 47.7152 45.478 48.0217 45.4207 48.3399C46.0605 48.3338 46.8707 47.67 47.4194 47.372C48.0878 47.009 48.7571 46.6086 49.4108 46.2437C50.6729 45.5391 52.1057 45.0748 53.4533 44.496C55.0013 43.831 56.4242 43.0275 57.9046 42.2269C58.4217 41.9473 62.1381 40.3363 62.0758 39.8962C61.2598 39.869 60.4439 39.8419 59.6279 39.8148C58.9284 39.7916 57.845 39.9496 57.1751 39.7334C56.8083 39.6149 56.3963 39.1786 56.2578 38.837C56.1208 38.499 56.4288 36.9442 56.2498 36.8451C55.3366 37.7774 54.7624 39.0166 53.9459 40.0224C53.0437 41.1341 51.8779 41.7833 50.5929 42.374C49.174 43.0264 47.7054 43.5316 46.2553 44.0908C45.6437 44.3265 45.6558 44.4615 45.6026 45.132C45.543 45.8815 45.5494 46.6416 45.5253 47.393ZM119.26 75.5893C120.798 75.7543 122.374 75.6602 123.924 75.789C124.488 75.8357 125.27 75.9055 124.703 76.6625C124.346 77.1393 123.201 76.9864 122.682 77.0195C121.288 77.1081 119.812 77.0604 118.414 77.0398C118.12 77.0356 117.795 76.9481 117.498 76.9678C117.155 76.9904 116.744 77.2372 116.431 77.2354C116.238 77.2342 116.169 77.0308 116.003 77.0122C115.64 76.9715 115.278 76.9417 114.913 76.9419C109.39 76.9431 103.943 76.8321 98.4344 76.8261C95.8002 76.8233 93.1237 76.7779 90.4906 76.6542C89.9377 76.6281 86.7887 76.7413 86.8759 75.7456C86.9207 75.2329 87.9485 75.1606 88.3235 75.1061C88.6014 75.0658 88.8898 75.0722 89.1683 75.0572C89.908 75.0176 90.2321 75.1956 90.076 74.3862C89.4841 71.316 88.4234 68.7786 86.1573 66.5711C84.3042 64.7661 82.0729 63.1287 79.9741 61.6213C77.4256 59.791 75.3582 57.8661 73.8452 55.0653C72.9616 53.4298 72.222 51.7577 71.768 49.9493C71.6047 49.2987 71.6008 48.5588 71.4006 47.9316C71.2467 47.4487 70.8957 47.1108 70.689 46.6105C68.1535 50.8455 64.793 54.3887 61.7117 58.2071C60.2394 60.0314 58.5598 61.764 56.8007 63.3511C56.2787 63.8221 55.7916 64.3138 55.3043 64.8206C54.8968 65.2448 54.2498 65.6219 53.9056 66.0925C53.5755 66.5439 53.6568 66.5224 54.1592 66.8809C54.8234 67.3547 55.5554 67.7484 56.2301 68.2104C57.3085 68.949 58.4855 69.573 59.4497 70.4619C60.4926 71.4231 61.4036 72.5367 62.3151 73.6206C62.9226 74.3431 63.7197 75.2701 63.8725 76.1836C63.9231 76.4858 64.1153 77.2333 63.8617 77.4546C63.6449 77.6437 63.6668 77.572 63.3977 77.4566C63.0451 77.3054 62.9414 76.9585 62.5107 76.7932C61.4086 76.3703 60.0751 76.5155 58.9284 76.5104C57.7813 76.5052 56.6247 76.6341 55.4781 76.6293C52.8599 76.6186 50.2975 76.8306 47.68 76.9444C44.9 77.0652 42.086 76.7752 39.3152 76.8163C37.2624 76.8467 35.1548 76.6933 33.0452 76.8073C31.9601 76.8659 30.8944 76.7302 29.8364 76.715C28.4512 76.695 27.0285 76.8835 25.6314 76.9103C23.3383 76.9546 21.0732 76.9543 18.766 77.0094C13.8034 77.1282 8.86763 77.2509 3.9021 77.3295C3.23974 77.3399 2.51462 77.3175 1.86006 77.392C1.16533 77.4713 1.524 77.6189 1.04732 77.8691C-0.287167 78.5691 0.0210151 75.9741 0.0529962 75.4637C0.224531 72.7287 0.918865 70.0462 1.75328 67.4497C2.54488 64.987 3.18754 62.4095 3.85796 59.8936C4.5918 57.1399 5.54793 54.4989 6.41618 51.7723C7.30584 48.9783 8.03017 46.0755 9.64601 43.5988C10.0141 43.0347 10.3944 42.4278 10.9864 42.0721C11.6501 41.6734 11.6787 41.9063 11.6781 41.1767C11.6777 40.4895 11.72 39.5714 11.5579 38.9157C11.4113 38.3232 11.4339 38.6745 11.1039 38.2489C10.8354 37.9028 10.5544 37.6663 10.3618 37.246C9.17819 38.4461 6.46891 37.8128 5.32539 36.9487C3.92575 35.8909 2.85967 34.1065 2.46902 32.407C2.15529 31.0422 2.54026 28.4408 4.05077 27.7845C4.78713 27.4646 7.49178 27.2227 7.60001 26.18C7.65578 25.6418 6.70388 24.8849 6.48424 24.4221C6.07721 23.5647 5.6863 22.4242 5.57317 21.4844C5.35221 19.6498 6.18505 17.5984 7.51173 16.3592C9.94547 14.0859 14.2276 12.9192 17.3582 14.3616C16.6967 11.8344 16.2973 9.65425 16.6304 7.02546C16.9175 4.76075 18.2537 3.49366 20.0923 2.3656C23.2299 0.440348 27.4966 -0.319534 31.0842 0.240268C31.8995 0.367532 32.6818 0.640428 33.4367 0.857556C34.5333 1.17301 35.8461 1.06795 36.8815 1.58048C37.6323 1.95196 38.2024 2.69202 38.8617 3.18614C39.6315 3.76299 40.2711 4.62397 40.8059 5.42019C41.9497 7.12286 41.5028 10.2829 40.5455 11.992C40.3402 12.3586 40.0866 12.6672 39.747 12.9174C39.3933 13.1777 38.8543 13.2587 38.6721 13.5964C38.2053 14.4613 38.6555 16.3338 38.7178 17.2687C38.7903 18.3542 38.2415 19.1696 37.0106 19.2561C36.2986 19.3063 36.2758 18.8932 35.9349 19.7432C35.7139 20.2942 35.5132 20.8944 35.1943 21.3995C34.5368 22.4405 33.3327 22.3389 32.2358 22.3107C30.9661 22.2779 29.7154 22.0773 28.445 21.9507C28.7805 23.0258 29.699 23.8602 30.2725 24.8179C31.048 26.1133 31.5148 27.187 31.6408 28.6962C31.7376 29.8557 31.5288 30.7714 30.7353 31.6344C30.4069 31.9916 30.1158 32.0092 30.1973 32.4212C30.247 32.6726 30.6817 33.0873 30.8355 33.2879C31.2424 33.8186 31.7148 34.3058 32.073 34.8726C33.4511 37.0534 33.8581 40.3778 33.8615 42.9165C33.8617 43.0329 33.9238 43.2804 33.8724 43.4008C33.8343 43.4897 33.5452 43.7714 33.5409 43.7956C33.4844 44.122 33.8026 44.6815 34.302 44.7369C34.8265 44.7949 35.7871 44.3572 36.2751 44.2134C37.0558 43.9832 37.8516 43.8133 38.6307 43.5768C39.8889 43.195 41.1413 42.8906 42.4204 42.5914C42.9985 42.4563 43.5797 42.3437 44.1596 42.2174C44.8201 42.0736 45.1269 41.7957 45.4679 42.4677C45.7604 43.0444 45.5785 43.1489 46.287 42.8583C46.9904 42.5696 47.6778 42.2117 48.3646 41.8858C49.5759 41.3112 51.0185 40.799 52.0634 39.9507C53.8064 38.5355 54.4518 36.2817 56.12 34.78C56.5845 34.3619 56.8616 34.3545 57.1553 33.7753C57.4697 33.1554 57.6318 32.3603 57.797 31.6935C58.0866 30.5258 58.2926 29.354 58.5552 28.1873C58.8823 26.7339 59.5892 25.4176 60.105 24.0314C60.306 23.4912 60.4101 22.8047 60.7343 22.3193C60.8202 22.1906 60.9843 22.118 61.0513 22.0115C61.2819 21.6459 61.2795 21.5454 61.3393 21.1055C61.6188 19.0498 62.8458 20.1312 64.1866 20.6026C64.7516 20.8013 67.4342 22.0894 66.4099 22.946C67.631 23.3003 69.5867 23.1077 69.5703 24.8577C69.5618 25.7544 69.0256 26.7135 68.7377 27.5528C68.482 28.2981 68.2349 29.0462 67.9752 29.7902C67.4063 31.4201 66.7161 33.0011 66.1609 34.636C65.9078 35.3811 65.699 36.1436 65.3467 36.8468C65.036 37.4671 64.2836 38.1509 64.1597 38.8292C67.4137 37.441 70.424 35.4338 74.0663 35.5617C75.6611 35.6176 77.1085 36.2881 77.9893 37.6903C79.0935 39.448 79.8201 41.4159 80.8994 43.1898C84.8258 49.6427 89.5088 55.505 93.8191 61.6908C94.1502 62.1662 94.576 62.6156 94.6908 63.2031C94.7657 63.5863 94.6204 63.9697 94.7102 64.3379C94.8967 65.103 95.8388 66.0584 96.4777 66.4981C97.7022 67.3409 99.6928 68.5298 101.221 68.4246C100.262 66.1198 100.275 63.5945 100.319 61.1361C100.362 58.8008 100.614 56.4843 100.914 54.173C100.981 53.6501 101.041 53.1654 101.191 52.6586C101.363 52.0771 101.6 52.1322 101.083 51.6095C100.288 50.8047 99.3428 50.1425 98.5412 49.3276C96.8078 47.5655 95.0311 46.1844 93.6668 44.0801C92.3693 42.0786 91.0004 40.0193 90.0399 37.8275C89.0512 35.5713 88.6559 33.1617 88.1651 30.7722C87.9659 29.8026 87.2396 28.7202 87.3855 27.7076C87.57 26.428 88.1634 27.3598 88.4049 28.0484C89.1421 30.1506 90.8681 32.0321 92.2978 33.7227C93.8424 35.549 95.7315 37.0771 97.3438 38.8504C99.0994 40.7817 100.302 43.0012 101.863 45.0628C101.863 42.5043 100.99 39.899 100.632 37.368C100.318 35.1403 100.219 32.9056 100.021 30.6682C99.5693 25.5859 99.9592 20.3538 100.593 15.3078C100.894 12.9113 100.723 10.5713 100.732 8.1666C100.735 7.4013 100.418 5.63745 100.822 4.95832C101.595 3.65753 102.046 6.50187 102.085 6.92595C102.319 9.45219 101.9 11.9503 102.114 14.4657C102.338 17.0925 102.824 19.6456 103.237 22.242C103.685 25.0533 104.414 27.8012 105.112 30.5585C105.845 33.4536 106.461 36.4091 107.276 39.2811C107.496 38.3783 107.188 37.2693 107.127 36.3499C107.04 35.0342 106.87 33.7182 106.855 32.399C106.832 30.2966 106.815 28.1552 106.934 26.0626C107.052 23.9999 107.016 21.8385 107.649 19.8513C107.949 18.9082 108.389 17.988 108.82 17.0995C109.352 16.004 109.54 14.9417 109.834 13.7765C110.086 12.7786 110.455 11.807 110.623 10.7892C110.727 10.1562 111.019 8.28753 111.743 9.70328C112.164 10.525 111.982 11.7432 111.994 12.626C112.009 13.7577 111.836 14.8582 111.809 15.9852C111.758 18.1964 111.721 20.4049 111.556 22.6124C111.383 24.9284 111.534 27.004 111.974 29.286C112.457 31.784 112.598 34.2874 112.848 36.8159C112.976 38.1214 113.194 39.4197 113.299 40.7271C113.354 41.4194 113.07 43.4048 113.566 43.8978C113.614 42.6987 113.957 41.4985 114.218 40.33C114.526 38.9457 114.651 37.4904 114.878 36.0863C115.247 33.8114 115.961 31.6389 116.434 29.3895C117.409 24.7526 118.219 18.7932 122.303 15.7582C122.838 15.361 123.425 15.0679 124.003 14.7411C124.33 14.5561 124.816 14.0774 125.19 13.9939C125.598 13.9027 125.769 13.9736 125.934 14.4475C126.165 15.1081 125.743 15.4167 125.349 15.8965C123.985 17.5569 123.402 19.6854 122.559 21.6326C120.631 26.0916 119.777 30.7947 119.767 35.6146C119.762 38.1378 119.588 40.5714 119.319 43.0793C119.03 45.7782 118.648 48.6328 117.828 51.2292C118.651 51.4135 119.543 51.1387 119.766 52.0947C119.821 52.3295 119.722 52.6071 119.783 52.9128C119.841 53.2099 119.983 53.5054 120.067 53.7976C120.241 54.4019 120.332 54.9982 120.417 55.6188C120.743 58.0171 121.302 60.2982 121.362 62.73C121.417 64.9778 120.977 67.2552 120.571 69.4597C120.163 71.6802 118.991 73.573 118.069 75.5811C118.466 75.5811 118.863 75.5852 119.26 75.5893Z" fill="black"/>
<path fill-rule="evenodd" clip-rule="evenodd" d="M67.0592 70.485C66.6217 70.6087 64.51 70.8421 64.5104 71.5047C64.5107 71.9021 66.6196 71.8943 66.9928 71.9375C67.015 71.4535 67.0371 70.9692 67.0592 70.485ZM71.7203 75.0574C72.9372 75.2888 74.589 74.9635 75.367 73.8906C75.7305 73.3894 75.9029 72.627 76.0213 72.0287C76.1344 71.4586 76.4831 70.036 76.2458 69.5016C75.9544 68.8453 73.1584 69.5312 72.3442 69.6065C70.9237 69.7376 69.4548 69.753 68.0334 69.6604C68.0334 71.1281 67.9583 72.5585 68.8216 73.8218C69.4444 74.7332 70.6139 74.9484 71.7203 75.0574ZM71.4757 76.8703C70.1535 76.3863 68.7654 76.7009 67.9044 75.2814C67.686 74.9213 67.502 74.5341 67.3698 74.1341C67.3052 73.9588 67.255 73.7794 67.2193 73.5955C67.2866 73.1999 67.1416 73.0883 66.7845 73.2608C66.0837 73.1245 65.3153 73.6056 64.577 73.4638C62.7866 73.1199 63.1119 70.5552 64.3134 69.6674C64.5507 69.4919 64.7878 69.4431 65.0595 69.3564C65.6585 69.1656 65.9826 69.3788 66.5304 69.3246C66.9731 69.2809 67.0948 68.8166 67.5706 68.6122C67.8821 68.4784 68.3145 68.4887 68.642 68.4753C70.3557 68.4048 72.0749 68.4055 73.7996 68.2938C74.6041 68.2417 75.4726 68.3691 76.2606 68.2317C76.6296 68.1672 76.5766 67.9217 76.926 68.1371C77.2877 68.3601 77.1315 69.185 77.1132 69.514C77.0077 71.4161 76.8944 73.456 75.8755 75.1189C74.9433 76.6403 73.1089 76.796 71.4757 76.8703Z" fill="black"/>
<path fill-rule="evenodd" clip-rule="evenodd" d="M1.64758 77.3943C2.07298 77.3897 2.49825 77.3852 2.9222 77.3809C2.49627 77.3855 2.07193 77.3898 1.64758 77.3943Z" fill="black"/>
<path fill-rule="evenodd" clip-rule="evenodd" d="M119.77 36.8396C119.769 36.4309 119.768 36.0223 119.767 35.6145C119.768 36.0234 119.769 36.4315 119.77 36.8396Z" fill="black"/>
<path fill-rule="evenodd" clip-rule="evenodd" d="M11.5591 38.5177C11.5578 38.9157 11.5565 39.3138 11.5552 39.7109C11.5564 39.3126 11.5577 38.9151 11.5591 38.5177Z" fill="black"/>
<path fill-rule="evenodd" clip-rule="evenodd" d="M46.9193 76.9431C47.2578 76.9436 47.5962 76.944 47.9331 76.945C47.5941 76.9446 47.2568 76.9439 46.9193 76.9431Z" fill="black"/>
<path fill-rule="evenodd" clip-rule="evenodd" d="M26.3699 76.8619C26.7083 76.863 27.0466 76.8641 27.3835 76.8654C27.0445 76.8644 26.7073 76.8631 26.3699 76.8619Z" fill="black"/>
<path fill-rule="evenodd" clip-rule="evenodd" d="M100.364 60.3307C100.349 60.5994 100.334 60.8679 100.319 61.136C100.334 60.8671 100.349 60.599 100.364 60.3307Z" fill="black"/>
<path fill-rule="evenodd" clip-rule="evenodd" d="M119.26 75.5892C118.998 75.5864 118.737 75.5837 118.475 75.581C118.738 75.4714 119 75.4763 119.26 75.5892Z" fill="black"/>
<path fill-rule="evenodd" clip-rule="evenodd" d="M96.0397 76.7788C96.2275 76.7759 96.4151 76.7729 96.6011 76.7698C96.4129 76.7726 96.2263 76.7757 96.0397 76.7788Z" fill="black"/>
<path fill-rule="evenodd" clip-rule="evenodd" d="M119.668 40.1551C119.673 39.9519 119.677 39.749 119.682 39.5466C119.677 39.7499 119.673 39.9525 119.668 40.1551Z" fill="black"/>
<path fill-rule="evenodd" clip-rule="evenodd" d="M102.114 14.4657C102.099 14.2563 102.083 14.0469 102.068 13.838C102.083 14.0476 102.099 14.2567 102.114 14.4657Z" fill="black"/>
<path fill-rule="evenodd" clip-rule="evenodd" d="M119.761 37.6394C119.763 37.4294 119.766 37.2196 119.768 37.0104C119.766 37.2205 119.763 37.43 119.761 37.6394Z" fill="black"/>
<path fill-rule="evenodd" clip-rule="evenodd" d="M60.7299 76.5186C60.8968 76.5211 61.0637 76.5234 61.2291 76.5256C61.062 76.5229 60.8958 76.5208 60.7299 76.5186Z" fill="black"/>
<path fill-rule="evenodd" clip-rule="evenodd" d="M103.72 76.861C103.883 76.8641 104.047 76.8674 104.208 76.8709C104.044 76.8677 103.882 76.8643 103.72 76.861Z" fill="black"/>
<path fill-rule="evenodd" clip-rule="evenodd" d="M121.343 62.098C121.331 61.9138 121.32 61.7297 121.308 61.5459C121.32 61.7301 121.332 61.9141 121.343 62.098Z" fill="black"/>
<path fill-rule="evenodd" clip-rule="evenodd" d="M118.414 77.0398C118.547 77.039 118.68 77.0382 118.811 77.038C118.678 77.0389 118.546 77.0394 118.414 77.0398Z" fill="black"/>
<path fill-rule="evenodd" clip-rule="evenodd" d="M100.32 76.8693C100.452 76.8661 100.583 76.8628 100.713 76.8597C100.581 76.863 100.451 76.8662 100.32 76.8693Z" fill="black"/>
<path fill-rule="evenodd" clip-rule="evenodd" d="M70.759 76.7688C70.9039 76.768 71.0486 76.7672 71.192 76.7661C71.0469 76.7669 70.9029 76.7678 70.759 76.7688Z" fill="black"/>
<path fill-rule="evenodd" clip-rule="evenodd" d="M37.3759 76.7683C37.5134 76.7692 37.6511 76.7703 37.7872 76.7715C37.6491 76.7707 37.5125 76.7695 37.3759 76.7683Z" fill="black"/>
<path fill-rule="evenodd" clip-rule="evenodd" d="M29.2549 76.7905C29.3952 76.7827 29.5353 76.7748 29.6743 76.7671C29.5336 76.775 29.3943 76.7827 29.2549 76.7905Z" fill="black"/>
<path fill-rule="evenodd" clip-rule="evenodd" d="M68.1351 23.3188C67.9263 23.3008 67.7175 23.2828 67.5087 23.2647C67.7177 23.2794 67.9388 23.1557 68.1351 23.3188Z" fill="black"/>
<path fill-rule="evenodd" clip-rule="evenodd" d="M121.363 75.6686C121.157 75.6478 120.951 75.627 120.745 75.6061C120.951 75.627 121.157 75.6478 121.363 75.6686Z" fill="black"/>
<path fill-rule="evenodd" clip-rule="evenodd" d="M107.002 24.5865C106.988 24.7669 106.974 24.9475 106.96 25.1273C106.974 24.9467 106.988 24.7665 107.002 24.5865Z" fill="black"/>
<path fill-rule="evenodd" clip-rule="evenodd" d="M119.812 32.1077C119.827 31.9367 119.841 31.7657 119.855 31.5953C119.841 31.7666 119.826 31.9371 119.812 32.1077Z" fill="black"/>
<path fill-rule="evenodd" clip-rule="evenodd" d="M106.92 27.3848C106.905 27.5649 106.89 27.7449 106.875 27.9243C106.89 27.7441 106.905 27.5644 106.92 27.3848Z" fill="black"/>
<path fill-rule="evenodd" clip-rule="evenodd" d="M119.725 39.0111C119.724 38.8371 119.723 38.663 119.721 38.4895C119.834 38.663 119.829 38.8367 119.725 39.0111Z" fill="black"/>
<path fill-rule="evenodd" clip-rule="evenodd" d="M100.367 64.0055C100.365 64.1799 100.364 64.3545 100.362 64.5282C100.247 64.3523 100.27 64.1785 100.367 64.0055Z" fill="black"/>
<path fill-rule="evenodd" clip-rule="evenodd" d="M113.49 43.8227C113.47 43.6462 113.45 43.4695 113.43 43.2935C113.45 43.4703 113.47 43.6466 113.49 43.8227Z" fill="black"/>
<path fill-rule="evenodd" clip-rule="evenodd" d="M4.82495 27.6168C4.68844 27.7972 4.50249 27.6736 4.34021 27.6956C4.50197 27.6693 4.66346 27.6431 4.82495 27.6168Z" fill="black"/>
<path fill-rule="evenodd" clip-rule="evenodd" d="M72.3278 68.4189C72.1553 68.4192 71.9829 68.4193 71.8104 68.4196C71.983 68.4193 72.1553 68.4191 72.3278 68.4189Z" fill="black"/>
<path fill-rule="evenodd" clip-rule="evenodd" d="M99.8813 28.3579C99.8975 28.5046 99.9135 28.6513 99.9296 28.7975C99.9135 28.6505 99.8975 28.5042 99.8813 28.3579Z" fill="black"/>
<path fill-rule="evenodd" clip-rule="evenodd" d="M14.6494 13.7893C14.476 13.7927 14.3027 13.7961 14.1293 13.7996C14.3008 13.6986 14.4737 13.6694 14.6494 13.7893Z" fill="black"/>
<path fill-rule="evenodd" clip-rule="evenodd" d="M106.915 29.9222C106.904 30.0761 106.893 30.2298 106.882 30.3829C106.893 30.2291 106.904 30.0757 106.915 29.9222Z" fill="black"/>
<path fill-rule="evenodd" clip-rule="evenodd" d="M102.161 11.0398C102.174 10.8996 102.187 10.7594 102.201 10.62C102.187 10.7605 102.174 10.9002 102.161 11.0398Z" fill="black"/>
<path fill-rule="evenodd" clip-rule="evenodd" d="M100.798 10.6006C100.785 10.7527 100.771 10.9049 100.757 11.0565C100.771 10.9041 100.785 10.7523 100.798 10.6006Z" fill="black"/>
<path fill-rule="evenodd" clip-rule="evenodd" d="M25.4848 0.439087C25.3084 0.460496 25.132 0.481905 24.9557 0.503181C25.1321 0.481773 25.3084 0.460496 25.4848 0.439087Z" fill="black"/>
<path fill-rule="evenodd" clip-rule="evenodd" d="M12.7421 13.9103C12.5611 13.9288 12.38 13.9473 12.1991 13.9658C12.3801 13.9473 12.5612 13.9288 12.7421 13.9103Z" fill="black"/>
<path fill-rule="evenodd" clip-rule="evenodd" d="M111.954 14.3562C111.965 14.2147 111.976 14.073 111.987 13.9323C111.976 14.0739 111.965 14.2151 111.954 14.3562Z" fill="black"/>
<path fill-rule="evenodd" clip-rule="evenodd" d="M6.79968 37.7151C6.90395 37.7167 7.00809 37.7181 7.11077 37.7197C7.00611 37.7181 6.90289 37.7167 6.79968 37.7151Z" fill="black"/>
<path fill-rule="evenodd" clip-rule="evenodd" d="M100.803 55.184C100.793 55.3407 100.783 55.4973 100.772 55.6536C100.783 55.4969 100.793 55.3404 100.803 55.184Z" fill="black"/>
<path fill-rule="evenodd" clip-rule="evenodd" d="M111.44 24.6826C111.436 24.5316 111.432 24.3806 111.427 24.23C111.432 24.3812 111.436 24.5318 111.44 24.6826Z" fill="black"/>
<path fill-rule="evenodd" clip-rule="evenodd" d="M29.926 0.0817069C29.7651 0.0817069 29.6043 0.081839 29.4437 0.081839C29.6046 -0.0286413 29.7653 -0.025866 29.926 0.0817069Z" fill="black"/>
<path fill-rule="evenodd" clip-rule="evenodd" d="M72.8642 35.6341C72.688 35.6386 72.5118 35.6431 72.3359 35.6476C72.5089 35.5252 72.6852 35.5222 72.8642 35.6341Z" fill="black"/>
<path fill-rule="evenodd" clip-rule="evenodd" d="M88.2587 76.5123C88.3631 76.5144 88.4676 76.5167 88.5707 76.5192C88.4658 76.5172 88.3621 76.5147 88.2587 76.5123Z" fill="black"/>
<path fill-rule="evenodd" clip-rule="evenodd" d="M92.191 76.6958C92.2953 76.6921 92.3996 76.6884 92.5024 76.6848C92.3977 76.6885 92.2944 76.6922 92.191 76.6958Z" fill="black"/>
<path fill-rule="evenodd" clip-rule="evenodd" d="M30.6478 76.7684C30.7566 76.7712 30.8653 76.774 30.9727 76.7766C30.8635 76.7739 30.7557 76.7712 30.6478 76.7684Z" fill="black"/>
<path fill-rule="evenodd" clip-rule="evenodd" d="M121.253 60.3503C121.237 60.201 121.222 60.0515 121.206 59.9028C121.222 60.0524 121.237 60.2014 121.253 60.3503Z" fill="black"/>
<path fill-rule="evenodd" clip-rule="evenodd" d="M107.049 35.1753C107.061 35.3176 107.073 35.46 107.085 35.6014C107.073 35.4589 107.061 35.3171 107.049 35.1753Z" fill="black"/>
<path fill-rule="evenodd" clip-rule="evenodd" d="M112.515 32.7316C112.498 32.5807 112.481 32.4298 112.464 32.2794C112.481 32.4305 112.498 32.581 112.515 32.7316Z" fill="black"/>
<path fill-rule="evenodd" clip-rule="evenodd" d="M31.5303 76.8584C31.64 76.8567 31.7498 76.855 31.8583 76.8535C31.7481 76.8554 31.6392 76.8568 31.5303 76.8584Z" fill="black"/>
<path fill-rule="evenodd" clip-rule="evenodd" d="M71.4757 76.8702C71.5825 76.8654 71.689 76.8606 71.7945 76.8558C71.6875 76.8607 71.5816 76.8655 71.4757 76.8702Z" fill="black"/>
<path fill-rule="evenodd" clip-rule="evenodd" d="M111.623 21.7116C111.618 21.5587 111.613 21.4058 111.608 21.2532C111.613 21.4062 111.618 21.5588 111.623 21.7116Z" fill="black"/>
<path fill-rule="evenodd" clip-rule="evenodd" d="M21.1294 76.9583C21.2364 76.9575 21.3434 76.9566 21.4489 76.9559C21.3414 76.9569 21.2355 76.9577 21.1294 76.9583Z" fill="black"/>
<path fill-rule="evenodd" clip-rule="evenodd" d="M111.578 76.9567C111.688 76.9577 111.798 76.9589 111.907 76.9601C111.796 76.959 111.687 76.9579 111.578 76.9567Z" fill="black"/>
<path fill-rule="evenodd" clip-rule="evenodd" d="M113.953 76.9436C114.06 76.9511 114.166 76.9588 114.271 76.9661C114.164 76.9585 114.059 76.9511 113.953 76.9436Z" fill="black"/>
<path fill-rule="evenodd" clip-rule="evenodd" d="M114.913 76.9418C115.021 76.9449 115.129 76.9483 115.236 76.9506C115.128 76.9473 115.02 76.9445 114.913 76.9418Z" fill="black"/>
<path fill-rule="evenodd" clip-rule="evenodd" d="M119.839 33.3379C119.832 33.1875 119.825 33.037 119.818 32.887C119.825 33.0376 119.832 33.1877 119.839 33.3379Z" fill="black"/>
<path fill-rule="evenodd" clip-rule="evenodd" d="M47.2427 74.9705C47.5716 74.9534 47.9007 74.9362 48.2297 74.9191C47.9007 74.9362 47.5716 74.9533 47.2427 74.9705Z" fill="black"/>
<path fill-rule="evenodd" clip-rule="evenodd" d="M27.3948 20.2858C27.6804 20.3106 27.9659 20.3355 28.2513 20.36C27.9657 20.3353 27.6802 20.3105 27.3948 20.2858Z" fill="black"/>
<path fill-rule="evenodd" clip-rule="evenodd" d="M108.028 32.7018C108.037 32.9743 108.046 33.2468 108.055 33.5185C108.046 33.2459 108.037 32.9739 108.028 32.7018Z" fill="black"/>
<path fill-rule="evenodd" clip-rule="evenodd" d="M113.922 75.4364C114.22 75.4545 114.518 75.4725 114.816 75.4906C114.516 75.5042 114.211 75.5897 113.922 75.4364Z" fill="black"/>
<path fill-rule="evenodd" clip-rule="evenodd" d="M112.157 43.2034C112.159 42.9434 112.162 42.6835 112.164 42.4242C112.162 42.6843 112.159 42.9438 112.157 43.2034Z" fill="black"/>
<path fill-rule="evenodd" clip-rule="evenodd" d="M111.394 51.3706C111.656 51.374 111.917 51.3776 112.179 51.381C111.917 51.3775 111.656 51.374 111.394 51.3706Z" fill="black"/>
<path fill-rule="evenodd" clip-rule="evenodd" d="M45.5443 46.8007C45.5377 46.9988 45.5312 47.1969 45.525 47.394C45.5316 47.1957 45.538 46.9982 45.5443 46.8007Z" fill="black"/>
<path fill-rule="evenodd" clip-rule="evenodd" d="M115.748 38.4122C115.737 38.6094 115.726 38.8064 115.716 39.0026C115.727 38.8053 115.737 38.6087 115.748 38.4122Z" fill="black"/>
<path fill-rule="evenodd" clip-rule="evenodd" d="M110.167 74.5593C110.357 74.5463 110.548 74.5335 110.738 74.5212C110.594 74.6358 110.45 74.6453 110.167 74.5593Z" fill="black"/>
<path fill-rule="evenodd" clip-rule="evenodd" d="M108.893 48.7896C108.907 49.0021 108.92 49.2146 108.933 49.4264C108.919 49.2138 108.907 49.0017 108.893 48.7896Z" fill="black"/>
<path fill-rule="evenodd" clip-rule="evenodd" d="M37.7401 15.2485C37.7421 15.0432 37.7441 14.838 37.7462 14.6335C37.7442 14.839 37.7422 15.0437 37.7401 15.2485Z" fill="black"/>
<path fill-rule="evenodd" clip-rule="evenodd" d="M109.124 51.4134L109.833 51.3979C109.599 51.5111 109.363 51.515 109.124 51.4134Z" fill="black"/>
<path fill-rule="evenodd" clip-rule="evenodd" d="M115.667 52.9281C115.5 52.9296 115.333 52.9309 115.167 52.9326C115.334 52.9313 115.501 52.9297 115.667 52.9281Z" fill="black"/>
<path fill-rule="evenodd" clip-rule="evenodd" d="M54.418 74.6409C54.6495 74.6439 54.881 74.6469 55.1126 74.6499C54.8793 74.7668 54.6475 74.7833 54.418 74.6409Z" fill="black"/>
<path fill-rule="evenodd" clip-rule="evenodd" d="M10.8035 75.3232C11.0384 75.3022 11.2735 75.2811 11.5085 75.2601C11.2735 75.2811 11.0384 75.3022 10.8035 75.3232Z" fill="black"/>
<path fill-rule="evenodd" clip-rule="evenodd" d="M108.109 34.4519C108.121 34.6652 108.132 34.8785 108.144 35.0911C108.132 34.8776 108.121 34.6648 108.109 34.4519Z" fill="black"/>
<path fill-rule="evenodd" clip-rule="evenodd" d="M33.1068 20.7865C33.3049 20.6888 33.5046 20.6724 33.7063 20.7759C33.5063 20.7795 33.3066 20.7831 33.1068 20.7865Z" fill="black"/>
<path fill-rule="evenodd" clip-rule="evenodd" d="M101.629 36.9149C101.646 37.0948 101.662 37.2748 101.679 37.4541C101.662 37.274 101.646 37.0944 101.629 36.9149Z" fill="black"/>
<path fill-rule="evenodd" clip-rule="evenodd" d="M118.364 32.7168C118.262 32.5408 118.265 32.3657 118.369 32.1921C118.367 32.3672 118.365 32.5421 118.364 32.7168Z" fill="black"/>
<path fill-rule="evenodd" clip-rule="evenodd" d="M108.142 26.606C108.142 26.784 108.142 26.9621 108.142 27.1396C108.142 26.9612 108.142 26.7836 108.142 26.606Z" fill="black"/>
<path fill-rule="evenodd" clip-rule="evenodd" d="M115.243 51.2855C115.447 51.223 115.651 51.1346 115.854 51.2877C115.65 51.287 115.447 51.2862 115.243 51.2855Z" fill="black"/>
<path fill-rule="evenodd" clip-rule="evenodd" d="M49.3506 74.89C49.5558 74.8708 49.7609 74.8518 49.966 74.8326C49.7609 74.8518 49.5558 74.8708 49.3506 74.89Z" fill="black"/>
<path fill-rule="evenodd" clip-rule="evenodd" d="M21.2224 74.8904C21.4103 74.8078 21.5979 74.7644 21.783 74.8967C21.596 74.8945 21.4093 74.8925 21.2224 74.8904Z" fill="black"/>
<path fill-rule="evenodd" clip-rule="evenodd" d="M59.6609 74.6252C59.8619 74.5375 60.0624 74.4892 60.2607 74.6314C60.0607 74.6293 59.8608 74.6273 59.6609 74.6252Z" fill="black"/>
<path fill-rule="evenodd" clip-rule="evenodd" d="M14.9286 48.6274C14.9437 48.8089 14.9589 48.9903 14.9738 49.1713C14.9586 48.9897 14.9435 48.8086 14.9286 48.6274Z" fill="black"/>
<path fill-rule="evenodd" clip-rule="evenodd" d="M61.5819 38.1761C61.7796 38.1042 61.9767 38.0667 62.1708 38.1868C61.9744 38.1831 61.7782 38.1797 61.5819 38.1761Z" fill="black"/>
<path fill-rule="evenodd" clip-rule="evenodd" d="M108.106 43.5773C108.117 43.7546 108.128 43.932 108.139 44.1089C108.128 43.9314 108.117 43.7544 108.106 43.5773Z" fill="black"/>
<path fill-rule="evenodd" clip-rule="evenodd" d="M14.8007 27.5746C14.7843 27.7174 14.768 27.8604 14.7517 28.0025C14.7681 27.8594 14.7843 27.717 14.8007 27.5746Z" fill="black"/>
<path fill-rule="evenodd" clip-rule="evenodd" d="M3.34154 69.0034C3.33137 69.1426 3.32132 69.2816 3.31128 69.4198C3.32172 69.2805 3.33163 69.1419 3.34154 69.0034Z" fill="black"/>
<path fill-rule="evenodd" clip-rule="evenodd" d="M112.245 44.5158C112.234 44.372 112.223 44.2282 112.212 44.0851C112.223 44.2291 112.234 44.3725 112.245 44.5158Z" fill="black"/>
<path fill-rule="evenodd" clip-rule="evenodd" d="M97.8469 74.3568C98.0231 74.358 98.1992 74.3593 98.3753 74.3605C98.1991 74.3593 98.023 74.358 97.8469 74.3568Z" fill="black"/>
<path fill-rule="evenodd" clip-rule="evenodd" d="M45.4776 48.0242C45.5105 48.1288 45.5434 48.2336 45.5763 48.3384C45.3565 48.3916 45.3236 48.2868 45.4776 48.0242Z" fill="black"/>
<path fill-rule="evenodd" clip-rule="evenodd" d="M58.6865 37.9396C58.8655 37.9388 59.0444 37.9382 59.2233 37.9374C59.0447 38.0222 58.8659 38.0805 58.6865 37.9396Z" fill="black"/>
<path fill-rule="evenodd" clip-rule="evenodd" d="M15.0289 49.4863C15.035 49.6449 15.0411 49.8036 15.0469 49.9617C15.0407 49.803 15.0347 49.6446 15.0289 49.4863Z" fill="black"/>
<path fill-rule="evenodd" clip-rule="evenodd" d="M16.9219 75.0639C17.0946 75.0637 17.2672 75.0636 17.4399 75.0635C17.2671 75.0636 17.0946 75.0637 16.9219 75.0639Z" fill="black"/>
<path fill-rule="evenodd" clip-rule="evenodd" d="M102.064 51.1586C102.07 51.3046 102.077 51.4506 102.083 51.5959C102.077 51.4494 102.07 51.3041 102.064 51.1586Z" fill="black"/>
<path fill-rule="evenodd" clip-rule="evenodd" d="M13.2551 75.2419C13.4249 75.1292 13.5952 75.139 13.7656 75.2401C13.5954 75.2407 13.4252 75.2414 13.2551 75.2419Z" fill="black"/>
<path fill-rule="evenodd" clip-rule="evenodd" d="M17.7269 25.5345C17.736 25.6836 17.7453 25.8328 17.7548 25.981C17.7457 25.8316 17.7363 25.6831 17.7269 25.5345Z" fill="black"/>
<path fill-rule="evenodd" clip-rule="evenodd" d="M12.3716 75.2572C12.5481 75.2579 12.7247 75.2587 12.9011 75.2595C12.724 75.38 12.5476 75.3857 12.3716 75.2572Z" fill="black"/>
<path fill-rule="evenodd" clip-rule="evenodd" d="M110.137 23.1944C110.139 23.043 110.14 22.8917 110.141 22.7406C110.14 22.8922 110.138 23.0432 110.137 23.1944Z" fill="black"/>
<path fill-rule="evenodd" clip-rule="evenodd" d="M29.0809 20.5461C29.2498 20.5682 29.4187 20.5903 29.5875 20.6122C29.4186 20.5901 29.2497 20.5682 29.0809 20.5461Z" fill="black"/>
<path fill-rule="evenodd" clip-rule="evenodd" d="M14.1771 33.616C14.1794 33.7574 14.1816 33.8989 14.1843 34.0396C14.182 33.898 14.1796 33.757 14.1771 33.616Z" fill="black"/>
<path fill-rule="evenodd" clip-rule="evenodd" d="M111.274 33.5955C111.265 33.4515 111.256 33.3074 111.246 33.1641C111.256 33.3084 111.265 33.452 111.274 33.5955Z" fill="black"/>
<path fill-rule="evenodd" clip-rule="evenodd" d="M71.8828 75.0884C72.0912 75.1073 72.2996 75.1262 72.5079 75.1449C72.2995 75.126 72.0912 75.1073 71.8828 75.0884Z" fill="black"/>
<path fill-rule="evenodd" clip-rule="evenodd" d="M71.1865 69.6935C71.0737 69.6953 70.9613 69.6971 70.8496 69.6994C70.9626 69.698 71.0745 69.6957 71.1865 69.6935Z" fill="black"/>
<path fill-rule="evenodd" clip-rule="evenodd" d="M71.196 75.0059C71.3708 75.023 71.5457 75.0404 71.7204 75.0575C71.5456 75.0402 71.3708 75.023 71.196 75.0059Z" fill="black"/>
<path fill-rule="evenodd" clip-rule="evenodd" d="M39.7408 63.2351C39.9682 64.5201 37.9711 65.7769 37.8128 63.9502C37.7549 63.2821 38.2016 62.8125 38.7018 62.4041C39.4117 61.8246 39.8083 62.3795 39.7408 63.2351Z" fill="black"/>
<path fill-rule="evenodd" clip-rule="evenodd" d="M17.7276 47.5568C18.198 47.7493 21.7925 48.9206 19.9254 49.5097C19.4311 49.6657 18.6841 49.6889 18.2556 49.4142C17.7402 49.0835 17.2204 48.1078 17.7276 47.5568Z" fill="black"/>
<path fill-rule="evenodd" clip-rule="evenodd" d="M18.6123 30.1543C19.8323 30.0126 20.9564 32.0164 19.4522 31.9514C18.3573 31.904 16.8849 30.1543 18.6123 30.1543Z" fill="black"/>
<path fill-rule="evenodd" clip-rule="evenodd" d="M22.9766 35.0675C23.9954 35.9564 22.107 37.9457 21.3573 37.1757C20.9745 36.7825 21.3276 35.9352 21.6436 35.6062C21.9679 35.2685 22.5449 35.2051 22.9766 35.0675Z" fill="black"/>
<path fill-rule="evenodd" clip-rule="evenodd" d="M26.0095 58.111C25.4081 58.2065 22.7632 59.0708 23.3148 57.501C23.5252 56.9023 24.1119 57.0799 24.6484 57.1074C25.5129 57.1515 26.0095 57.1102 26.0095 58.111Z" fill="black"/>
<path fill-rule="evenodd" clip-rule="evenodd" d="M24.2674 62.1544C25.1677 62.6361 23.8516 65.3318 23.1054 64.7582C22.0699 63.9624 23.4861 62.3965 24.2674 62.1544Z" fill="black"/>
<path fill-rule="evenodd" clip-rule="evenodd" d="M28.1941 59.9875C28.6319 59.8087 30.6957 61.7939 29.9101 62.3462C29.5074 62.6293 28.7445 62.144 28.5017 61.8514C28.0466 61.3027 28.0054 60.6258 28.1941 59.9875Z" fill="black"/>
<path fill-rule="evenodd" clip-rule="evenodd" d="M16.2868 43.7611C16.7342 43.8346 17.5068 43.8578 17.5357 44.4866C17.5611 45.0393 16.8682 45.2184 16.3805 45.2617C15.8743 45.3066 15.2043 45.1638 15.1947 44.5275C15.1845 43.8409 16.2709 43.8823 16.2868 43.7611Z" fill="black"/>
<path fill-rule="evenodd" clip-rule="evenodd" d="M27.3213 71.1238C27.7978 71.4131 30.0206 72.4547 29.0678 73.2072C28.7113 73.4888 27.6304 72.9072 27.3871 72.6116C27.0968 72.2587 26.813 71.4321 27.3213 71.1238Z" fill="black"/>
<path fill-rule="evenodd" clip-rule="evenodd" d="M33.5004 63.5654C33.4316 62.4157 35.3713 61.958 34.9692 63.59C34.8558 64.0501 34.7461 64.7486 34.1772 64.7753C33.5048 64.8069 33.4805 64.0113 33.5004 63.5654Z" fill="black"/>
<path fill-rule="evenodd" clip-rule="evenodd" d="M27.5084 43.5717C27.5219 44.4439 25.8507 45.2131 25.8377 43.8306C25.8262 42.5952 27.5708 42.2337 27.5084 43.5717Z" fill="black"/>
<path fill-rule="evenodd" clip-rule="evenodd" d="M26.4048 39.0292C26.8165 39.1619 27.3638 39.2302 27.4 39.7534C27.4385 40.3071 26.9241 40.5536 26.4613 40.5225C26.0818 40.497 25.5201 40.216 25.4511 39.8043C25.35 39.1998 25.94 39.1603 26.4048 39.0292Z" fill="black"/>
<path fill-rule="evenodd" clip-rule="evenodd" d="M18.7476 54.9977C18.7406 54.278 20.1829 53.4131 20.4485 54.2481C20.5335 54.5153 19.8537 55.7136 19.6276 55.8033C19.0293 56.0408 18.9458 55.4873 18.7476 54.9977Z" fill="black"/>
<path fill-rule="evenodd" clip-rule="evenodd" d="M30.5666 66.9765C30.0792 67.4127 28.6172 68.6382 28.7265 66.9931C28.7963 65.9422 30.6952 65.9971 30.5666 66.9765Z" fill="black"/>
<path fill-rule="evenodd" clip-rule="evenodd" d="M54.3864 71.6781C54.5462 70.9864 56.8335 72.1864 56.0702 73.06C55.8141 73.3533 55.1442 73.0879 54.8866 72.9141C54.3769 72.5701 54.3658 72.2526 54.3864 71.6781Z" fill="black"/>
<path fill-rule="evenodd" clip-rule="evenodd" d="M41.6422 56.8719C41.7314 56.5636 41.8305 56.0183 42.1247 55.8216C42.657 55.4655 43.1205 56.0026 43.1206 56.5686C43.1207 57.6245 41.9188 57.9576 41.6422 56.8719Z" fill="black"/>
<path fill-rule="evenodd" clip-rule="evenodd" d="M35.9732 69.2175C36.5671 69.3536 37.8895 70.7973 37.1226 71.3862C36.3845 71.953 35.4029 69.6487 35.9732 69.2175Z" fill="black"/>
<path fill-rule="evenodd" clip-rule="evenodd" d="M36.5385 58.29C37.3021 58.351 38.3517 59.5875 37.1648 59.784C36.2364 59.9379 35.1567 58.5929 36.5385 58.29Z" fill="black"/>
<path fill-rule="evenodd" clip-rule="evenodd" d="M43.4515 63.9801C43.643 63.3351 45.5368 64.0262 45.4304 64.7364C45.3738 65.114 44.5995 65.2027 44.1925 65.1029C43.5933 64.9558 43.4378 64.5628 43.4515 63.9801Z" fill="black"/>
<path fill-rule="evenodd" clip-rule="evenodd" d="M21.1286 27.9543C21.1423 27.1204 22.7447 26.7805 22.862 27.6209C22.9682 28.3801 21.1085 29.1879 21.1286 27.9543Z" fill="black"/>
<path fill-rule="evenodd" clip-rule="evenodd" d="M42.9221 72.5726C43.0376 72.1533 43.0874 71.6486 43.6112 71.5934C44.2109 71.5301 44.1932 71.99 44.1227 72.4665C43.9308 73.7631 43.1982 73.8278 42.9221 72.5726Z" fill="black"/>
<path fill-rule="evenodd" clip-rule="evenodd" d="M17.6178 37.8757C16.7825 38.0642 15.2526 36.4553 16.1877 36.1102C16.8466 35.8666 17.6178 37.3903 17.6178 37.8757Z" fill="black"/>
<path fill-rule="evenodd" clip-rule="evenodd" d="M28.2724 50.3728C27.8473 50.573 27.7493 50.6944 27.4228 50.3659C27.1384 50.0798 27.151 49.2826 27.395 48.985C28.3299 47.8453 28.308 49.9116 28.2724 50.3728Z" fill="black"/>
<path fill-rule="evenodd" clip-rule="evenodd" d="M31.7409 48.0613C32.1842 48.1177 33.5017 49.3674 32.8157 49.864C31.975 50.4724 31.4994 48.5664 31.7409 48.0613Z" fill="black"/>
<path fill-rule="evenodd" clip-rule="evenodd" d="M41.3336 48.3903C41.0113 49.6314 40.2069 48.7963 40.2525 47.8572C40.3257 46.353 41.1593 47.6631 41.3336 48.3903Z" fill="black"/>
<path fill-rule="evenodd" clip-rule="evenodd" d="M46.2249 68.3225C46.7702 68.5481 47.5102 70.6324 46.7314 70.7442C45.8567 70.8696 46.148 68.7565 46.2249 68.3225Z" fill="black"/>
<path fill-rule="evenodd" clip-rule="evenodd" d="M39.4157 67.1515C40.0396 66.941 40.2682 68.2571 39.9056 68.5016C39.1078 69.0394 39.276 67.4621 39.4157 67.1515Z" fill="black"/>
<path fill-rule="evenodd" clip-rule="evenodd" d="M33.5005 63.5653C33.4926 63.74 33.4848 63.9147 33.4766 64.0884C33.4844 63.9134 33.4923 63.7394 33.5005 63.5653Z" fill="black"/>
<path fill-rule="evenodd" clip-rule="evenodd" d="M54.3864 71.6781C54.3799 71.8573 54.3734 72.0364 54.3667 72.2146C54.3729 72.0352 54.3797 71.8566 54.3864 71.6781Z" fill="black"/>
<path fill-rule="evenodd" clip-rule="evenodd" d="M43.4515 63.9802C43.4481 64.1322 43.4444 64.2842 43.4404 64.4352C43.4439 64.2829 43.4478 64.1315 43.4515 63.9802Z" fill="black"/>
<path fill-rule="evenodd" clip-rule="evenodd" d="M112.462 61.3647C113.755 61.3232 115.198 60.8364 116.469 60.9913C116.819 61.0339 117.625 61.1221 117.064 61.6411C116.796 61.8892 115.512 61.7609 115.124 61.8433C112.749 62.3461 110.053 62.6704 107.618 62.6285C106.478 62.609 105.329 62.5176 104.19 62.4574C103.051 62.3971 102.939 61.9344 104.221 61.7872C105.551 61.6344 106.917 61.6911 108.254 61.6896C109.66 61.6877 111.059 61.4585 112.462 61.3647Z" fill="black"/>
<path fill-rule="evenodd" clip-rule="evenodd" d="M115.301 58.2483C115.177 58.6027 115.067 59.4162 114.59 59.4696C113.922 59.5443 113.812 58.3971 113.836 57.9775C113.866 57.4711 114.048 56.6298 114.678 56.8053C115.209 56.9533 115.263 57.843 115.301 58.2483Z" fill="black"/>
<path fill-rule="evenodd" clip-rule="evenodd" d="M111.256 57.9887C111.354 57.6091 111.402 56.7533 111.939 56.7242C112.539 56.6919 112.71 57.5835 112.706 58.0108C112.702 58.4163 112.552 59.1824 112.074 59.2761C111.427 59.4031 111.369 58.4224 111.256 57.9887Z" fill="black"/>
<path fill-rule="evenodd" clip-rule="evenodd" d="M104.52 58.6696C104.325 59.1258 104.197 59.7541 103.595 59.4431C103.13 59.2025 103.065 58.2324 103.153 57.7882C103.244 57.3281 103.436 56.8003 103.965 57.0072C104.575 57.246 104.513 58.1672 104.52 58.6696Z" fill="black"/>
<path fill-rule="evenodd" clip-rule="evenodd" d="M109.621 58.2483C109.048 59.9865 108.002 58.8105 108.399 57.5127C108.814 56.1563 109.568 57.4737 109.621 58.2483Z" fill="black"/>
<path fill-rule="evenodd" clip-rule="evenodd" d="M106.827 58.3343C106.668 58.6404 106.499 59.3006 106.069 59.2311C105.543 59.1458 105.526 58.1331 105.584 57.7559C105.634 57.4258 105.783 56.8756 106.223 56.8828C106.86 56.8931 106.817 57.9381 106.827 58.3343Z" fill="black"/>
<path fill-rule="evenodd" clip-rule="evenodd" d="M118.265 58.6679C117.838 59.6256 117.251 58.8006 117.439 58.1204C117.718 57.1117 118.241 58.0054 118.265 58.6679Z" fill="black"/>
<path fill-rule="evenodd" clip-rule="evenodd" d="M107.812 61.6908C107.345 61.6889 106.879 61.6872 106.413 61.6855C106.879 61.5976 107.346 61.5634 107.812 61.6908Z" fill="black"/>
<path fill-rule="evenodd" clip-rule="evenodd" d="M117.076 60.9873C116.671 60.99 116.267 60.9925 115.863 60.9951C116.266 60.8741 116.671 60.8714 117.076 60.9873Z" fill="black"/>
<path fill-rule="evenodd" clip-rule="evenodd" d="M112.462 61.3647C112.138 61.3864 111.814 61.4081 111.491 61.4298C111.815 61.4081 112.138 61.3864 112.462 61.3647Z" fill="black"/>
<path fill-rule="evenodd" clip-rule="evenodd" d="M104.52 58.6696C104.517 58.4373 104.514 58.2049 104.511 57.9731C104.63 58.2041 104.622 58.4362 104.52 58.6696Z" fill="black"/>
<path fill-rule="evenodd" clip-rule="evenodd" d="M107.056 62.6237C107.244 62.6254 107.432 62.627 107.618 62.6287C107.429 62.627 107.243 62.6254 107.056 62.6237Z" fill="black"/>
<path fill-rule="evenodd" clip-rule="evenodd" d="M103.905 62.4573C104.095 62.4573 104.285 62.4572 104.474 62.4573C104.283 62.4573 104.094 62.4573 103.905 62.4573Z" fill="black"/>
<path fill-rule="evenodd" clip-rule="evenodd" d="M105.463 61.7108C105.199 61.7325 104.935 61.7542 104.671 61.7758C104.935 61.7542 105.199 61.7325 105.463 61.7108Z" fill="black"/>
<path fill-rule="evenodd" clip-rule="evenodd" d="M109.037 61.6879C108.776 61.6884 108.515 61.6889 108.254 61.6895C108.515 61.5795 108.776 61.5763 109.037 61.6879Z" fill="black"/>
<path fill-rule="evenodd" clip-rule="evenodd" d="M106.827 58.3343C106.821 58.0922 106.814 57.8501 106.808 57.6083C106.815 57.8505 106.821 58.0925 106.827 58.3343Z" fill="black"/>
<path fill-rule="evenodd" clip-rule="evenodd" d="M103.153 57.7882C103.151 58.0244 103.15 58.2605 103.148 58.4958C103.15 58.2593 103.151 58.0238 103.153 57.7882Z" fill="black"/>
<path fill-rule="evenodd" clip-rule="evenodd" d="M113.945 61.2769C113.714 61.2977 113.483 61.3185 113.253 61.3394C113.483 61.3185 113.714 61.2977 113.945 61.2769Z" fill="black"/>
<path fill-rule="evenodd" clip-rule="evenodd" d="M118.265 58.6679C118.258 58.4616 118.25 58.2553 118.243 58.0493C118.251 58.2557 118.258 58.4618 118.265 58.6679Z" fill="black"/>
<path fill-rule="evenodd" clip-rule="evenodd" d="M108.45 62.6304C108.611 62.6274 108.772 62.6244 108.931 62.6216C108.769 62.6248 108.61 62.6277 108.45 62.6304Z" fill="black"/>
<path fill-rule="evenodd" clip-rule="evenodd" d="M115.301 58.2483C115.287 58.1 115.273 57.9516 115.259 57.8038C115.273 57.9524 115.287 58.1002 115.301 58.2483Z" fill="black"/>
<path fill-rule="evenodd" clip-rule="evenodd" d="M109.621 58.2483C109.611 58.0961 109.6 57.9437 109.59 57.7919C109.601 57.9442 109.611 58.0963 109.621 58.2483Z" fill="black"/>
<path fill-rule="evenodd" clip-rule="evenodd" d="M26.8091 13.5104C26.1775 13.3447 26.0591 12.4572 26.1606 11.912C26.2757 11.6493 26.3908 11.3867 26.5059 11.124C26.4608 11.0269 26.4159 10.9297 26.371 10.8326C26.4287 10.2916 26.2811 10.0565 26.9029 10.2756C28.0579 10.6829 28.2425 13.4687 26.8091 13.5104Z" fill="black"/>
<path fill-rule="evenodd" clip-rule="evenodd" d="M36.1578 11.7943C36.6781 11.7534 37.6231 12.3593 37.1052 12.9455C36.7843 13.3087 35.727 13.1369 35.2956 13.2127C34.7235 13.3133 34.1268 13.4509 34.4363 12.594C34.6794 11.9211 35.5474 11.7767 36.1578 11.7943Z" fill="black"/>
<path fill-rule="evenodd" clip-rule="evenodd" d="M35.6104 15.8249C35.0819 15.4011 35.3178 13.4708 36.1221 13.8181C36.9495 14.1755 36.0514 15.5464 35.6104 15.8249Z" fill="black"/>
<path fill-rule="evenodd" clip-rule="evenodd" d="M26.1606 11.912C26.1606 12.1151 26.1604 12.3184 26.16 12.5206C26.0498 12.317 26.0533 12.1144 26.1606 11.912Z" fill="black"/>
<path fill-rule="evenodd" clip-rule="evenodd" d="M26.8091 13.5103C26.9168 13.5073 27.0246 13.5041 27.131 13.5013C27.0228 13.5048 26.916 13.5076 26.8091 13.5103Z" fill="black"/>
<path fill-rule="evenodd" clip-rule="evenodd" d="M92.064 69.103C92.0146 69.981 91.0717 69.3319 91.1385 68.7445C91.26 67.6785 91.8627 68.7319 92.064 69.103Z" fill="black"/>
</svg>
