<svg width="58" height="60" viewBox="0 0 58 60" fill="none" xmlns="http://www.w3.org/2000/svg">
<g clip-path="url(#clip0_989_1796)">
<path d="M40.722 58.9557C42.0774 59.0034 43.4334 58.9768 44.7888 58.9506C48.57 58.8818 52.3563 58.8129 56.1373 58.7441C56.725 58.7334 57.4876 58.6064 57.5299 58.1561C57.5669 57.7538 56.9688 57.4996 56.4654 57.3777C54.6543 56.9488 52.7482 56.8639 50.868 56.79C48.0985 56.6839 45.3291 56.5939 42.5593 56.5251C40.8278 56.4827 39.0537 56.4508 37.4441 56.8958C36.565 57.1393 35.2674 58.1719 36.6654 58.6753C37.0519 58.8129 37.8357 58.7492 38.2541 58.7864C39.0698 58.8657 39.8959 58.9295 40.722 58.9557Z" fill="url(#paint0_linear_989_1796)"/>
<path d="M40.7195 58.9559C42.0751 59.0036 43.4308 58.9771 44.7865 58.9506C48.5675 58.8817 52.3538 58.8129 56.1347 58.744C56.7224 58.7333 57.485 58.6064 57.5273 58.1564C57.5646 57.7537 56.9662 57.4995 56.4631 57.3779C54.6521 56.9488 52.7457 56.8641 50.8658 56.7899C48.096 56.6841 45.3265 56.5941 42.557 56.5253C40.8252 56.483 39.0515 56.4511 37.4416 56.896C36.5624 57.1395 35.2648 58.1721 36.6628 58.6752C37.0497 58.8129 37.8331 58.7494 38.2516 58.7863C39.0672 58.8659 39.8933 58.9294 40.7195 58.9559Z" fill="url(#paint1_linear_989_1796)"/>
<path d="M47.6612 56.2816C47.6665 56.3082 47.6719 56.3347 47.6931 56.3558C47.7196 56.3874 47.7673 56.3874 47.8096 56.3874C48.1061 56.3824 48.408 56.3612 48.6992 56.3082C48.8264 56.287 48.9799 56.2339 49.0064 56.107C49.0169 56.0486 48.9957 55.9851 48.9745 55.9321C48.8476 55.5986 48.7203 55.2648 48.5934 54.9313C48.588 54.9206 48.5826 54.9048 48.5722 54.8994C48.5561 54.889 48.535 54.8836 48.5192 54.8836C48.3073 54.8783 48.0957 54.8994 47.8838 54.9417C47.7515 54.9683 47.5026 54.9844 47.4389 55.1271C47.3754 55.2648 47.4812 55.4978 47.5131 55.6355C47.5661 55.8474 47.6138 56.0647 47.6612 56.2816Z" fill="#F9E9DE"/>
<path d="M40.4371 56.2816C40.7229 56.2977 41.009 56.3135 41.2894 56.3347C41.3159 56.3347 41.3478 56.3347 41.369 56.3189C41.3955 56.2977 41.3955 56.2658 41.4009 56.234C41.4167 55.8632 41.4059 55.4928 41.3744 55.1221C41.3744 55.0955 41.369 55.0636 41.3532 55.0425C41.332 55.0159 41.2948 55.0055 41.2578 54.9948C41.0936 54.9578 40.9294 54.9209 40.7602 54.9209C40.6275 54.9209 40.474 54.9421 40.3575 55.0109C40.2359 55.0848 40.2571 55.1325 40.2783 55.2597C40.3364 55.5986 40.3733 55.9374 40.4371 56.2816Z" fill="#F9E9DE"/>
<path d="M47.1157 55.1271C47.7034 55.2544 48.3284 55.1802 48.8684 54.9206C48.2595 52.8715 48.0795 52.2677 47.4757 50.2182C47.285 49.5724 47.0892 48.9156 47.0096 48.2483C46.9146 47.4222 46.9938 46.5857 47.0734 45.7596C47.3804 42.5505 48.1642 31.9169 48.4714 28.7131C48.498 28.443 48.5242 28.1677 48.4395 27.9082C48.2011 27.1721 46.067 27.045 45.294 26.9815C45.1247 26.9656 43.859 26.9603 43.7213 27.0556C43.5625 27.1668 42.3072 26.9391 42.2807 27.1297C41.9103 29.6451 43.3083 34.9352 43.3294 37.6308C43.3348 38.5258 43.6948 44.2555 43.7636 45.1504C43.8855 46.7234 44.3725 48.386 45.0293 49.8263C46.0354 52.04 46.1677 52.543 47.1157 55.1271Z" fill="#97A8B2"/>
<path d="M42.7629 27.4315C42.5722 27.2779 40.6711 27.1349 40.4276 27.1296L37.3986 27.1773C37.3297 32.0704 38.304 45.5053 39.2415 50.3081C39.6439 52.3788 40.1046 53.0779 40.11 55.1855C40.5546 55.1855 40.9942 55.1855 41.4391 55.1855C41.5872 48.5871 43.2394 34.8613 43.3932 28.2629C43.3986 27.9346 43.0225 27.6433 42.7629 27.4315Z" fill="#97A8B2"/>
<path d="M41.1101 12.0693C40.6812 10.6448 39.0609 10.4435 38.7802 12.2811C38.526 13.9439 37.3026 17.439 36.6038 19.07C36.27 19.8537 35.6188 20.4574 34.7078 20.7963C32.8967 21.4689 31.1387 22.2632 29.2959 22.8563C29.3012 22.8669 29.3012 22.8722 29.3012 22.8828C28.994 23.0046 28.6604 23.0681 28.3267 23.0681C27.8925 23.0681 27.4265 22.9675 27.0558 23.174C27.077 23.2217 27.0982 23.2693 27.1247 23.3223C27.2147 23.3382 27.2994 23.3541 27.3894 23.3647C27.1776 23.4123 26.9711 23.4918 26.7805 23.5977C26.5951 23.7036 26.415 23.8837 26.4733 24.0743C26.5368 24.2649 26.791 24.3179 27.0029 24.3232C27.8925 24.3496 28.7557 24.0796 29.5977 23.783C31.9329 23.317 33.5375 22.5121 35.8888 22.0514C36.3442 21.9613 36.8207 21.866 37.218 21.6277C37.6045 21.3947 37.8745 21.0558 38.1129 20.7169C39.6963 18.461 41.8039 14.3516 41.1101 12.0693Z" fill="#F9E9DE"/>
<path d="M44.6748 9.11963C45.0032 8.77542 45.2574 8.28822 45.3951 7.68453C45.6493 6.56717 45.7816 5.39155 45.5116 4.29538C45.199 3.03504 44.0925 1.66878 42.6942 1.78528C41.0581 1.91767 40.8092 4.05709 40.6873 5.48689C40.5866 6.62013 40.7881 7.81691 41.455 8.6907C42.4614 9.99339 43.8168 10.0305 44.6748 9.11963Z" fill="#F9E9DE"/>
<path d="M38.1142 56.1016C38.3738 56.1069 38.6384 56.1227 38.898 56.1651C39.2052 56.2074 39.5122 56.2816 39.8195 56.25C39.9571 56.2339 40.0895 56.2023 40.2271 56.1812C40.439 56.1493 40.6509 56.1546 40.8625 56.1546C41.0586 56.16 41.2544 56.16 41.4505 56.1651C41.5032 56.1651 41.567 56.1704 41.6093 56.2023C41.657 56.2393 41.6728 56.2977 41.6836 56.3558C41.7312 56.5731 41.7575 56.7954 41.7575 57.0177C41.7575 57.15 41.747 57.2984 41.657 57.3938C41.5936 57.4626 41.4982 57.4996 41.4082 57.5261C41.2332 57.5684 41.0532 57.5792 40.8732 57.5896C39.9464 57.6426 39.0145 57.6903 38.0877 57.6319C37.7646 57.6107 37.1769 57.6584 36.9385 57.3992C36.7373 57.1819 36.8381 56.8323 36.96 56.6046C37.1927 56.1704 37.6692 56.0962 38.1142 56.1016Z" fill="#537082"/>
<path d="M38.5471 56.9066C38.6109 56.9278 38.6848 56.9385 38.7536 56.9332C38.7644 56.9332 38.7748 56.9278 38.7855 56.9224C38.796 56.912 38.7963 56.9013 38.7963 56.8855C38.8121 56.6524 38.8174 56.4143 38.8067 56.1813C38.8067 56.1705 38.8067 56.1601 38.8013 56.1494C38.7963 56.139 38.7802 56.1336 38.7644 56.1282C38.5525 56.0752 38.5632 56.1336 38.5632 56.3294C38.5632 56.5201 38.5579 56.7159 38.5471 56.9066Z" fill="#C1C1C1"/>
<path d="M39.2734 56.7954C39.2734 56.8165 39.2737 56.8377 39.2895 56.8535C39.3053 56.8642 39.3265 56.8642 39.3423 56.8589C39.4007 56.8481 39.4588 56.8431 39.5172 56.8323C39.5276 56.8323 39.5384 56.827 39.5437 56.8216C39.5542 56.8112 39.5542 56.8004 39.5542 56.7847C39.5595 56.5889 39.5595 56.3928 39.5595 56.197C39.5595 56.1862 39.5595 56.1758 39.5542 56.1704C39.5491 56.1597 39.5384 56.1597 39.5276 56.1543C39.4376 56.1281 39.353 56.1758 39.2734 56.1543C39.263 56.3662 39.2734 56.5835 39.2734 56.7954Z" fill="#C1C1C1"/>
<path d="M39.9757 56.7582C39.9757 56.7689 39.9811 56.7793 39.9865 56.7847C39.9918 56.79 40.0023 56.7901 40.013 56.7901C40.0553 56.7901 40.103 56.7901 40.1453 56.7901C40.1665 56.7901 40.1876 56.7901 40.2037 56.7743C40.2142 56.7635 40.2142 56.7477 40.2195 56.7316C40.2299 56.6047 40.246 56.0382 39.9918 56.1439C39.8169 56.2128 39.9492 56.6258 39.9757 56.7582Z" fill="#C1C1C1"/>
<path d="M47.4391 56.4141C47.5134 56.2869 47.598 56.1599 47.7145 56.0699C47.8361 55.9745 47.9845 55.9161 48.1326 55.8684C48.3234 55.8103 48.5245 55.7734 48.726 55.7996C49.0329 55.8422 49.3083 56.0488 49.4833 56.308C49.6579 56.5676 49.7479 56.8749 49.7902 57.1872C49.8009 57.256 49.806 57.3302 49.7848 57.3991C49.7586 57.4679 49.7056 57.5156 49.6421 57.5579C49.4514 57.6849 49.2183 57.7325 48.9906 57.7591C48.6518 57.8014 48.3076 57.8175 47.9634 57.8333C47.8045 57.8386 47.6349 57.8437 47.4815 57.791C47.2377 57.706 47.1107 57.5579 47.1477 57.3091C47.1954 56.9914 47.2803 56.6945 47.4391 56.4141Z" fill="#537082"/>
<path d="M39.6752 13.8484C39.1563 18.0054 38.0599 22.0618 37.181 26.1605C37.0961 26.5577 37.0115 26.9707 37.1226 27.3626C37.2761 27.908 37.7792 28.2946 38.3141 28.4905C38.8914 28.7077 39.5163 28.75 40.1305 28.7871C42.413 28.9142 44.7006 28.9142 46.9778 28.7871C47.2901 28.7712 47.6132 28.75 47.8939 28.607C48.3758 28.3687 48.6458 27.8233 48.7039 27.2885C48.7677 26.7536 48.6562 26.2188 48.5716 25.6839C48.0632 22.4695 48.455 19.1598 47.8885 15.9507C47.7297 15.0346 47.4913 14.129 47.4174 13.2023C47.3747 12.6674 47.3908 12.1273 47.2797 11.6083C47.1682 11.0841 46.9036 10.5651 46.4428 10.2897C45.6063 9.79196 44.5576 10.2845 43.5938 10.4168C42.953 10.5016 42.3019 10.4168 41.6769 10.2686C41.195 10.1574 40.7132 9.82376 40.3636 10.2633C39.7333 11.0629 39.797 12.8899 39.6752 13.8484Z" fill="#EFEFEF"/>
<path d="M39.6206 19.2395C39.0168 19.2395 39.0168 20.1768 39.6206 20.1768C40.2244 20.1715 40.2244 19.2395 39.6206 19.2395Z" fill="#333333"/>
<path d="M40.891 16.8403C40.2875 16.8403 40.2875 17.7777 40.891 17.7777C41.4947 17.7724 41.4947 16.8403 40.891 16.8403Z" fill="#333333"/>
<path d="M41.9876 20.4839C41.3838 20.4839 41.3838 21.4212 41.9876 21.4212C42.5914 21.4159 42.5914 20.4839 41.9876 20.4839Z" fill="#333333"/>
<path d="M42.7822 14.9446C42.1784 14.9446 42.1784 15.8819 42.7822 15.8819C43.3857 15.8766 43.3857 14.9446 42.7822 14.9446Z" fill="#333333"/>
<path d="M38.8853 22.9885C38.2815 22.9885 38.2815 23.9258 38.8853 23.9258C39.4838 23.9205 39.4891 22.9885 38.8853 22.9885Z" fill="#333333"/>
<path d="M43.9799 18.2014C43.3762 18.2014 43.3762 19.1387 43.9799 19.1387C44.5834 19.1387 44.5834 18.2014 43.9799 18.2014Z" fill="#333333"/>
<path d="M38.43 26.4995C37.8265 26.4995 37.8265 27.4368 38.43 27.4368C39.0338 27.4368 39.0338 26.4995 38.43 26.4995Z" fill="#333333"/>
<path d="M41.0625 24.2278C40.459 24.2278 40.459 25.1651 41.0625 25.1651C41.6609 25.1598 41.6609 24.2278 41.0625 24.2278Z" fill="#333333"/>
<path d="M43.1646 26.6638C42.5608 26.6638 42.5608 27.6011 43.1646 27.6011C43.7631 27.5958 43.7681 26.6638 43.1646 26.6638Z" fill="#333333"/>
<path d="M43.9799 22.9885C43.3762 22.9885 43.3762 23.9258 43.9799 23.9258C44.5834 23.9205 44.5834 22.9885 43.9799 22.9885Z" fill="#333333"/>
<path d="M47.6596 26.6638C47.0558 26.6638 47.0558 27.6011 47.6596 27.6011C48.2581 27.5958 48.2581 26.6638 47.6596 26.6638Z" fill="#333333"/>
<path d="M47.6596 22.4644C48.2634 22.4644 48.2634 21.5271 47.6596 21.5271C47.0558 21.5324 47.0558 22.4644 47.6596 22.4644Z" fill="#333333"/>
<path d="M41.0625 13.1707C40.459 13.1707 40.459 14.108 41.0625 14.108C41.6609 14.1027 41.6609 13.1707 41.0625 13.1707Z" fill="#333333"/>
<path d="M43.1646 12.0745C43.7681 12.0745 43.7681 11.1372 43.1646 11.1372C42.5608 11.1372 42.5608 12.0745 43.1646 12.0745Z" fill="#333333"/>
<path d="M45.9931 10.4858C45.3893 10.4858 45.3893 11.4231 45.9931 11.4231C46.5966 11.4231 46.5966 10.4858 45.9931 10.4858Z" fill="#333333"/>
<path d="M47.2046 15.8342C46.6008 15.8342 46.6008 16.7716 47.2046 16.7716C47.808 16.7716 47.808 15.8342 47.2046 15.8342Z" fill="#333333"/>
<path d="M42.37 28.496C41.7028 27.1615 41.4012 25.6946 41.0516 24.2489C40.6809 22.7026 40.342 21.1511 40.1302 19.573C39.9344 18.0955 39.839 16.6128 39.8336 15.1247C39.8283 14.4045 39.8494 13.6896 39.8917 12.9747C39.9236 12.4187 39.8602 9.91919 41.0197 10.3164C41.1047 10.3481 41.1682 10.2104 41.0835 10.1681C40.1248 9.6809 39.8071 10.8194 39.7171 11.5449C39.4736 13.5626 39.4364 15.6119 39.5794 17.6348C39.7117 19.5306 40.0136 21.4052 40.432 23.2587C40.8451 25.0856 41.2105 26.9973 42.0524 28.6866C42.1585 28.8984 42.4762 28.7131 42.37 28.496Z" fill="#BC6269"/>
<path d="M48.2066 18.4132C48.175 18.3126 48.0266 18.355 48.0477 18.4556C48.6938 21.85 49.3876 25.2551 48.1058 28.5966C48.0212 28.8243 48.3866 28.9249 48.4715 28.6972C49.7422 25.3769 49.2392 21.7282 48.2066 18.4132Z" fill="#BC6269"/>
<path d="M46.8246 27.5269C47.2058 27.4898 47.6242 27.4581 47.9419 27.6699C48.3073 27.9082 48.4345 28.3848 48.5138 28.8137C48.768 30.1853 48.8845 31.5832 48.858 32.9761C48.8526 33.1984 48.8422 33.4315 48.7468 33.6326C48.5984 33.9345 48.2807 34.1092 47.9684 34.2364C46.6497 34.7714 45.1828 34.7395 43.7583 34.6972C43.6156 34.6918 43.4618 34.6864 43.3399 34.6122C43.1441 34.496 43.0753 34.2468 43.0222 34.0192C42.6729 32.4254 42.4134 30.8101 42.2491 29.1844C42.2226 28.9196 42.1961 28.6443 42.2703 28.3901C42.5353 27.4263 45.9243 27.6169 46.8246 27.5269Z" fill="#AA4A4D"/>
<path d="M47.6763 28.8031C47.4325 31.0802 43.9058 31.6946 43.0639 29.4916C43.0374 29.4227 42.9316 29.4492 42.9527 29.5233C43.7788 32.0546 47.6498 31.2814 47.9359 28.8084C47.957 28.639 47.6921 28.639 47.6763 28.8031Z" fill="#BC6269"/>
<path d="M45.6171 30.4393C45.7547 30.344 45.7759 30.1216 45.654 30.0051C45.5163 29.8727 45.2782 29.9309 45.204 30.1004C45.1933 30.1216 45.1882 30.1428 45.1882 30.1693C45.1775 30.2116 45.1828 30.254 45.1986 30.3016C45.2567 30.4711 45.4686 30.5399 45.6171 30.4393Z" fill="#BC6269"/>
<path d="M47.3808 18.6515C47.3331 17.4811 47.2008 16.3161 47.0735 15.1511C47.0258 14.7381 46.9835 14.3197 46.8566 13.9279C46.74 13.5625 46.5654 13.2182 46.5016 12.8423C46.4593 12.5669 46.4751 12.2703 46.327 12.0373C46.1309 11.7355 45.7339 11.6455 45.3736 11.619C44.9606 11.5872 44.5052 11.6031 44.1983 11.8784C43.7533 12.2756 43.8275 12.9852 43.9706 13.5677C44.1083 14.1185 44.2721 14.6692 44.3887 15.2252C44.6113 16.2844 44.6536 17.3752 44.8706 18.4344C45.0506 19.3134 45.0294 20.1766 45.0932 21.0768C45.1936 22.5172 44.8917 23.9205 44.6217 25.3398C44.4629 26.1817 44.2936 27.0396 44.2987 27.8975C44.1452 28.3953 44.0129 28.8984 43.8645 29.4014C43.8487 29.4597 43.8379 29.5391 43.891 29.5709C43.9279 29.5921 43.9703 29.5762 44.0075 29.5921C44.0498 29.6079 44.071 29.6609 44.0764 29.7033C44.1187 29.9257 44.0233 30.1481 43.9598 30.3652C43.8964 30.5823 43.8645 30.8418 44.0075 31.0166C44.0921 31.1225 44.2245 31.1754 44.3571 31.2019C44.5848 31.2548 44.839 31.239 45.0294 31.1066C45.3313 30.9001 45.4001 30.4923 45.432 30.1322C45.5009 29.4703 45.5486 28.803 45.5909 28.1411C46.1097 25.7687 46.6343 23.3963 47.1531 21.0239C47.2324 20.6691 47.3119 20.309 47.3489 19.9436C47.4073 19.5146 47.4019 19.0804 47.3808 18.6515Z" fill="#F9E9DE"/>
<path d="M51.3262 15.9825C51.1462 15.8554 50.9132 15.8183 50.7543 15.6648C50.532 15.4529 50.532 15.0981 50.622 14.8069C50.7066 14.5156 50.8655 14.2403 50.9027 13.9384C51.0085 13.1494 50.3308 12.5086 49.8278 11.889C48.4879 10.2368 48.2125 8.04446 48.1702 5.98451C48.1598 5.53438 48.2072 5.06306 48.1333 4.72943C48.1383 4.69236 48.1491 4.65532 48.1544 4.61824C48.3979 3.42143 48.0218 2.6536 47.2541 1.84868C46.0042 0.53009 43.9974 0.000534594 42.2867 0.657182C42.2444 0.67307 42.1967 0.694237 42.1491 0.710124C41.5614 1.2185 41.053 1.83809 40.836 2.64301C40.6983 3.14079 40.656 3.7286 40.7564 4.24757C40.7776 4.31641 40.7987 4.38522 40.8253 4.44879C40.8572 3.89805 40.9576 3.30494 41.2383 3.15138C41.4872 3.0084 42.7528 3.43735 43.129 3.41085C43.7697 3.36851 44.9081 2.92897 45.2523 3.70211C45.4273 4.094 45.2204 4.5494 45.0616 4.92538C45.0512 4.94657 45.0458 4.96245 45.0354 4.98364C44.94 5.21133 44.85 5.44435 44.8339 5.52377C44.7123 6.20689 44.6223 6.8265 44.6223 7.33485C44.3785 8.23511 44.3362 9.1989 44.3681 10.1415C44.3732 10.2792 44.3785 10.4222 44.437 10.544C44.6593 11.0259 45.3581 10.9093 45.8773 11.0259C46.4068 11.1477 46.8145 11.5872 47.0687 12.0691C47.7783 13.4141 47.4872 15.0452 47.6618 16.5544C47.7095 16.9569 47.7941 17.3646 47.9956 17.7194C48.4033 18.4449 49.314 18.8527 50.1243 18.6726C50.9397 18.4926 51.5912 17.7406 51.6546 16.9145C51.697 16.5703 51.6123 16.1837 51.3262 15.9825Z" fill="#8C6239"/>
<path d="M9.3445 59.8667C10.6896 59.9144 12.0293 59.8879 13.3744 59.8613C17.1184 59.7925 20.8676 59.7183 24.6116 59.6494C25.1941 59.639 25.9461 59.5121 25.9884 59.0618C26.0255 58.6595 25.4324 58.4052 24.9346 58.2833C23.1394 57.8545 21.2542 57.7696 19.3902 57.7007C16.6471 57.5949 13.904 57.5103 11.1662 57.4414C9.45572 57.3991 7.69229 57.3672 6.09834 57.8172C5.22985 58.061 3.94308 59.0987 5.32519 59.5967C5.70648 59.7344 6.48493 59.6709 6.89798 59.7079C7.7082 59.7767 8.5237 59.8402 9.3445 59.8667Z" fill="url(#paint2_linear_989_1796)"/>
<path d="M9.34328 59.8667C10.6884 59.9144 12.0281 59.8879 13.3732 59.8613C17.1171 59.7925 20.8664 59.7183 24.6103 59.6494C25.1928 59.639 25.9449 59.5121 25.9872 59.0618C26.0243 58.6595 25.4312 58.4052 24.9334 58.2833C23.1382 57.8545 21.253 57.7696 19.3889 57.7007C16.6459 57.5949 13.9027 57.5103 11.1649 57.4414C9.4545 57.3991 7.69107 57.3672 6.09712 57.8172C5.22863 58.061 3.94186 59.0987 5.32397 59.5967C5.70526 59.7344 6.48371 59.6709 6.89676 59.7079C7.70695 59.7767 8.52248 59.8402 9.34328 59.8667Z" fill="url(#paint3_linear_989_1796)"/>
<path d="M47.2645 57.9021C47.3757 58.0502 47.5876 58.0663 47.7729 58.0714C48.3025 58.0821 48.8321 58.0979 49.3509 58.0079C49.4728 57.9868 49.5947 57.9602 49.6951 57.8914C49.7959 57.8225 49.8701 57.7006 49.854 57.5841C49.8382 57.4572 49.7217 57.3618 49.5947 57.3249C49.4675 57.293 49.3351 57.3088 49.2082 57.3249C48.779 57.383 48.3502 57.4679 47.9214 57.5153C47.7306 57.5368 47.4818 57.4941 47.3018 57.5472C47.1322 57.5841 47.1745 57.7856 47.2645 57.9021Z" fill="white"/>
<path d="M36.9767 57.6584C37.0616 57.7326 37.1832 57.7537 37.2944 57.7645C37.8663 57.8279 38.4435 57.8172 39.0208 57.8121C39.4338 57.8068 39.8523 57.8014 40.2653 57.796C40.6414 57.791 41.0172 57.7856 41.3826 57.7114C41.4675 57.6956 41.5522 57.6745 41.621 57.6214C41.6898 57.5737 41.7479 57.4945 41.7479 57.4095C41.7479 57.3672 41.7322 57.3249 41.7003 57.293C41.6422 57.2402 41.5522 57.2507 41.4726 57.2614C40.0957 57.4784 38.6927 57.4945 37.3105 57.3195C37.2097 57.3091 37.019 57.2614 36.9397 57.3514C36.8602 57.436 36.8974 57.5949 36.9767 57.6584Z" fill="white"/>
<path d="M25.5568 23.0469C25.4773 22.7874 25.3873 22.5067 25.4667 22.2631C25.5568 21.9824 25.8374 21.8607 26.0969 21.7865C26.3935 21.7018 26.7059 21.6435 27.0131 21.6171C27.1454 21.6065 27.4579 21.5694 27.585 21.6435C27.765 21.7494 27.7915 21.9877 27.8392 22.2048C28.141 23.497 28.4428 24.5561 28.6494 25.7529C28.6759 25.917 28.7023 26.1077 28.6123 26.2295C28.5541 26.3089 28.464 26.3407 28.3793 26.3671C27.9027 26.5207 26.4782 27.0132 26.2717 26.1659C26.0175 25.1227 25.8851 24.0848 25.5568 23.0469Z" fill="#AA6A64"/>
<path d="M25.6459 22.7715C25.63 22.6709 25.6194 22.5597 25.6618 22.475C25.7095 22.3744 25.8153 22.3373 25.9107 22.3055C26.3184 22.1785 26.7368 22.099 27.1551 22.0196C27.224 22.009 27.3881 21.9772 27.4569 22.0037C27.4993 22.0196 27.5841 22.0461 27.6158 22.0831C27.7323 22.2102 27.7218 22.3956 27.78 22.565C27.8383 22.7133 27.8382 22.8775 27.8806 23.031C27.9283 23.2005 27.96 23.37 27.9971 23.5394C28.05 23.7883 28.1136 24.0425 28.1877 24.2861C28.2407 24.4661 28.2831 24.6462 28.3413 24.8209C28.3678 24.9003 28.3837 24.9957 28.3678 25.0751C28.3413 25.1916 28.2619 25.2446 28.1613 25.2816C27.9706 25.3505 27.7641 25.3875 27.5629 25.4193C27.2663 25.4723 26.9644 25.5252 26.6679 25.5782C26.562 25.5994 26.3449 25.6682 26.2654 25.5305C26.2231 25.4564 26.2178 25.324 26.2019 25.2393C26.1754 25.1228 26.1542 25.0116 26.1278 24.8951C26.0218 24.4396 25.8948 23.9895 25.7942 23.5341C25.7359 23.2799 25.683 23.0257 25.6459 22.7715Z" fill="white"/>
<path d="M26.8346 21.8711C26.8028 21.8711 26.7657 21.8764 26.7287 21.8817C26.6492 21.8976 26.5698 21.9135 26.4904 21.9294C26.4428 21.94 26.3845 21.9558 26.3845 21.9823C26.3845 21.9929 26.4004 22.0035 26.4163 22.0088C26.4957 22.03 26.8929 21.977 26.9035 21.9029C26.8982 21.8817 26.8717 21.8711 26.8346 21.8711Z" fill="#5E625E"/>
<path d="M26.3365 21.9717C26.3206 21.9558 26.2994 21.9611 26.2835 21.9717C26.2676 21.9823 26.2623 22.0035 26.2623 22.0194C26.2623 22.03 26.2676 22.0458 26.2729 22.0564C26.2888 22.0776 26.3259 22.0723 26.3418 22.0511C26.3576 22.03 26.3576 21.9982 26.3418 21.977L26.3365 21.9717Z" fill="#5E625E"/>
<path d="M27.3187 25.8482C27.2869 25.8853 27.2764 25.9382 27.2764 25.9912C27.2764 26.0177 27.2817 26.0389 27.287 26.0654C27.3081 26.1236 27.3611 26.1713 27.4194 26.1872C27.4776 26.2083 27.5411 26.203 27.5994 26.1818C27.6153 26.1765 27.6312 26.1713 27.6418 26.1607C27.6577 26.1501 27.6629 26.1289 27.6682 26.113C27.6894 26.0442 27.6894 25.97 27.6523 25.9064C27.5888 25.7953 27.4087 25.7423 27.3187 25.8482Z" fill="#EBEFEB"/>
<path d="M24.1861 24.4078C23.9266 24.0848 23.5135 23.8889 23.1005 23.8994C23.1958 23.8041 23.2965 23.6453 23.2012 23.5447C23.1429 23.4811 23.0422 23.4917 22.9575 23.5023C22.5974 23.5447 22.2268 23.5129 21.872 23.4123C21.8402 23.4017 21.8084 23.3964 21.7766 23.3858C19.6531 22.5915 17.5984 21.6171 15.6391 20.4785C15.7927 19.7795 15.7609 19.054 15.7291 18.3391C15.6814 17.3065 15.6338 16.2792 15.5914 15.2465C15.5755 14.8494 15.5385 14.4204 15.2684 14.1345C14.7865 13.6314 13.8598 13.9597 13.5367 14.5793C13.2137 15.1936 13.3037 15.9402 13.4044 16.6287C13.6691 18.4291 13.9339 20.2349 14.1987 22.0354C14.2305 22.2419 14.2675 22.4644 14.4158 22.6126C14.5323 22.7291 14.7017 22.7715 14.8606 22.8139C17.0053 23.3858 19.1447 23.9524 21.2894 24.5243C21.2947 24.519 21.2947 24.5137 21.3 24.5137C22.0785 24.9638 23.0369 25.0856 23.8948 24.8262C23.9849 24.7997 24.0855 24.7626 24.1385 24.6832C24.1914 24.5932 24.1967 24.4979 24.1861 24.4078Z" fill="#EADDD0"/>
<path d="M21.3215 24.5719C21.3056 24.6143 21.2844 24.6567 21.2421 24.6778C21.205 24.699 21.1573 24.6884 21.1149 24.6831C18.9067 24.2753 16.6084 23.9311 14.5167 23.1103C14.3472 23.0415 14.1725 22.9726 14.0454 22.8403C13.8971 22.6867 13.8283 22.4696 13.77 22.263C13.0869 19.8747 12.4408 17.4335 12.5256 14.9552C12.5415 14.4362 12.6103 13.8802 12.9492 13.4883C13.3252 13.0594 13.9342 12.9376 14.5008 12.8634C14.8662 12.8158 15.2846 12.7893 15.5705 13.0223C15.8512 13.25 15.9094 13.6472 15.9518 14.002C16.0842 15.1935 16.2219 16.3903 16.3542 17.5818C16.4443 18.3867 16.5343 19.1916 16.6296 19.9965C16.6455 20.1501 16.6667 20.309 16.7356 20.4466C16.8785 20.7326 17.2016 20.8703 17.4981 20.9921C18.5519 21.421 19.5898 21.8977 20.6066 22.4166C20.882 22.5596 21.7345 22.9038 21.8351 23.2216C21.8934 23.4016 21.6498 23.7034 21.5757 23.8676C21.4644 24.1271 21.4327 24.3177 21.3215 24.5719Z" fill="#E8E8E8"/>
<path d="M13.2966 57.7906C13.5349 57.9656 13.2118 58.0979 13.0529 58.1137C12.767 58.1348 12.4704 58.1244 12.1951 58.0663C12.1209 58.0502 12.0468 58.0344 11.9885 57.9921C11.9409 57.9602 11.9091 57.9179 11.872 57.8756C11.782 57.7591 11.5649 57.5737 11.5278 57.436C11.5013 57.3248 11.5808 57.2137 11.6391 57.1129C11.7714 56.896 11.9938 56.6734 11.9832 56.4141C12.6028 56.4722 13.1906 56.2922 13.7043 56.4299C13.7467 56.6153 13.9108 56.7634 13.8314 56.9064C13.879 56.8111 15.3724 57.1341 15.5472 57.1606C15.8331 57.2083 16.1191 57.2506 16.405 57.2718C16.6275 57.2876 17.0617 57.1976 17.1888 57.3937C17.2311 57.4625 17.247 57.5418 17.2576 57.6214C17.2629 57.6795 17.2629 57.7433 17.2417 57.796C17.2047 57.8914 17.0987 57.9656 16.9875 57.9972C15.7643 58.384 14.541 57.7748 13.2966 57.7906Z" fill="#999999"/>
<path d="M17.242 27.7546C17.1626 27.5163 16.9084 27.3892 16.6701 27.2939C15.1132 26.6902 13.4027 26.6266 11.7293 26.6372C10.8609 26.6425 9.9977 26.6637 9.12922 26.7008C8.52553 26.7273 7.30225 26.7379 6.98981 27.3892C6.64029 28.12 6.33319 29.5657 6.51322 30.3018C6.83624 31.6415 6.71971 34.0403 7.07981 35.7667C7.04277 42.8839 7.00569 49.9958 6.96862 57.1131C7.54585 57.1289 8.12308 57.1396 8.70028 57.1554C8.78501 54.8094 9.5052 52.5218 10.1036 50.2289C10.7337 47.8036 11.2263 45.3518 11.5917 42.8839C11.7134 47.4806 11.8353 52.0823 11.9623 56.6789C12.5396 56.6789 13.1168 56.6789 13.694 56.6789C13.7046 54.3329 14.3506 52.0295 14.8749 49.7258C16.0929 44.3827 17.1361 36.0051 17.046 30.5612C17.099 29.751 17.1467 28.9408 17.2526 28.1677C17.2685 28.03 17.2843 27.887 17.242 27.7546Z" fill="#4D4D4D"/>
<path d="M8.27751 58.2518C8.5105 58.4318 8.18221 58.5587 8.02334 58.5695C7.73736 58.5853 7.44083 58.5641 7.16546 58.5006C7.09131 58.4849 7.01717 58.4634 6.9589 58.4211C6.91125 58.3895 6.87951 58.3418 6.84775 58.2995C6.75771 58.1776 6.54585 57.9869 6.51939 57.8545C6.49289 57.7434 6.57765 57.6322 6.64119 57.5315C6.77887 57.3196 7.01189 57.0973 7.00659 56.8377C7.62086 56.9119 8.21928 56.7423 8.72764 56.8961C8.76471 57.0815 8.92356 57.235 8.83883 57.378C8.89179 57.2826 10.3745 57.6376 10.5493 57.6745C10.83 57.7276 11.1159 57.7753 11.4072 57.8068C11.6296 57.828 12.0638 57.7487 12.1856 57.9445C12.228 58.0134 12.2386 58.093 12.2439 58.1722C12.2492 58.2306 12.2439 58.2941 12.2227 58.3472C12.1803 58.4422 12.0744 58.5111 11.9632 58.543C10.7241 58.903 9.52195 58.2676 8.27751 58.2518Z" fill="#999999"/>
<path d="M14.4963 2.41533C13.9191 2.85486 13.5696 3.5274 13.2466 4.17875C12.8494 4.98897 12.4576 5.83096 12.3993 6.73121C12.357 7.39844 12.4893 8.10802 12.1875 8.70114C13.326 9.13538 14.4434 9.61727 15.5396 10.1468C17.1018 8.45754 18.1873 6.33404 18.6375 4.07814C18.6534 4.00399 18.6639 3.92457 18.6375 3.85042C18.6057 3.771 18.5316 3.71804 18.4627 3.67036C17.4883 3.02431 16.3604 2.65893 15.243 2.29354C15.1265 2.25647 15.0047 2.21411 14.8829 2.22999C14.74 2.24588 14.6128 2.3253 14.4963 2.41533Z" fill="#EADDD0"/>
<path d="M17.1421 26.2982C17.0891 25.1227 17.0627 23.9417 17.0786 22.7661C17.105 20.0654 16.9621 17.3805 16.7661 14.6851C16.6867 13.5942 16.5967 12.5086 16.4961 11.4177C16.459 10.9941 15.2251 10.5493 14.918 10.4858C14.7327 10.4487 14.5526 10.3904 14.3778 10.3322C14.2084 10.2739 14.0389 10.2104 13.8748 10.1468C13.0328 9.8238 12.1961 9.50077 11.3541 9.17775C11.227 9.13007 11.0946 9.08242 10.9675 9.10891C10.8669 9.13007 10.7822 9.19364 10.7027 9.25717C9.13526 10.5228 8.70629 12.5828 8.27735 14.4521C7.30829 18.6568 6.76286 22.9514 6.64636 27.2515C6.64636 27.2515 6.89524 27.9346 7.73723 28.4165C8.57922 28.8984 11.6136 29.2532 11.6136 29.2532L15.7441 28.803C15.7282 28.8083 17.2056 28.337 17.1421 26.2982Z" fill="#EFEFEF"/>
<path d="M22.6933 22.8509C22.7462 22.5861 22.8098 22.3001 22.9845 22.1148C23.1858 21.903 23.4664 21.9083 23.7047 21.9506C23.9801 21.9983 24.2555 22.0777 24.5149 22.1783C24.6261 22.2207 24.8909 22.3213 24.9597 22.4378C25.0551 22.602 24.965 22.8297 24.9068 23.0415C24.552 24.3124 24.3084 25.3821 23.9218 26.526C23.8689 26.6848 23.8001 26.8596 23.673 26.9337C23.5935 26.9814 23.5034 26.9708 23.4187 26.9602C22.9686 26.902 21.6024 26.7431 21.8248 25.9117C22.1002 24.8791 22.4761 23.8994 22.6933 22.8509Z" fill="#3D3D3D"/>
<path d="M22.8907 22.6389C22.9277 22.5436 22.9648 22.443 23.039 22.3848C23.1237 22.3159 23.2243 22.3265 23.3143 22.3371C23.6956 22.3953 24.0716 22.4959 24.4423 22.6019C24.5005 22.6177 24.6488 22.6601 24.6912 22.7131C24.7176 22.7448 24.7706 22.8031 24.7812 22.8508C24.8183 23.0149 24.7176 23.1738 24.6912 23.3485C24.6647 23.5074 24.5906 23.6504 24.5535 23.804C24.5164 23.9734 24.4635 24.1376 24.4105 24.3018C24.3364 24.5453 24.2728 24.7942 24.2146 25.0431C24.1722 25.2231 24.1246 25.3979 24.0928 25.578C24.0769 25.6627 24.0451 25.7474 23.9975 25.8162C23.9234 25.9116 23.8386 25.9222 23.7433 25.9116C23.558 25.8904 23.3779 25.8374 23.2031 25.7898C22.9384 25.7104 22.6789 25.6362 22.4141 25.5568C22.3188 25.5303 22.1176 25.5038 22.1176 25.345C22.1176 25.2602 22.1758 25.1437 22.197 25.059C22.2288 24.9478 22.2605 24.8366 22.2923 24.7201C22.4141 24.27 22.5253 23.8198 22.6524 23.3697C22.7265 23.1261 22.8059 22.8825 22.8907 22.6389Z" fill="white"/>
<path d="M24.2494 22.332C24.223 22.3161 24.1912 22.3055 24.1594 22.3002C24.0906 22.279 24.0164 22.2631 23.9476 22.242C23.9052 22.2314 23.8523 22.2208 23.8417 22.242C23.8364 22.2526 23.8417 22.2684 23.8523 22.279C23.9052 22.332 24.2494 22.4485 24.2865 22.385C24.2971 22.3691 24.2759 22.3479 24.2494 22.332Z" fill="#5E625E"/>
<path d="M23.8045 22.21C23.7992 22.1942 23.7833 22.1836 23.7621 22.1889C23.7462 22.1942 23.7303 22.2048 23.725 22.226C23.7197 22.2365 23.7144 22.2524 23.7197 22.263C23.725 22.2895 23.7515 22.3001 23.7727 22.2895C23.7938 22.2789 23.8045 22.2524 23.8045 22.226V22.21Z" fill="#5E625E"/>
<path d="M22.8099 26.0653C22.7675 26.0865 22.7304 26.1288 22.7092 26.1765C22.6986 26.1977 22.6881 26.2241 22.6828 26.2453C22.6722 26.3089 22.6933 26.3671 22.7304 26.4095C22.7675 26.4519 22.8257 26.4731 22.8787 26.4784C22.8946 26.4784 22.9104 26.4783 22.9211 26.4731C22.9369 26.4677 22.9528 26.4572 22.9634 26.4413C23.0111 26.3936 23.0481 26.3195 23.0481 26.2506C23.0534 26.1288 22.9317 26.007 22.8099 26.0653Z" fill="#EBEFEB"/>
<path d="M14.8619 6.19103C14.6819 6.00039 14.4542 5.78856 14.1894 5.82563C13.9458 5.8574 13.7763 6.0957 13.7287 6.3393C13.681 6.57759 13.7234 6.8265 13.7393 7.0701C13.7445 7.12305 13.7393 7.18129 13.7075 7.21836C13.6704 7.26074 13.6069 7.26074 13.5486 7.26601C13.3315 7.2872 13.1303 7.4037 13.0032 7.57845C12.9079 7.71083 12.8549 7.87501 12.7384 7.99681C12.5849 8.16096 12.3518 8.21392 12.1294 8.24569C11.9123 8.27749 11.7005 8.30395 11.4834 8.31456C11.3086 8.32514 11.1021 8.31456 11.0015 8.16627C10.9803 8.1398 10.9697 8.10803 10.975 8.07096C10.9856 8.0127 11.0438 7.98623 11.0915 7.95447C11.2715 7.83267 11.3351 7.59434 11.3457 7.37723C11.3615 7.1601 11.3457 6.93241 11.441 6.73119C11.494 6.61997 11.5787 6.52463 11.6634 6.43991C12.2777 5.80444 13.0826 5.38081 13.9246 5.13721C14.147 5.07368 14.9837 4.77181 15.1744 4.94657C15.3544 5.11072 14.9096 5.95274 14.8619 6.19103Z" fill="#D7C68E"/>
<path d="M17.9534 4.93615C18.0646 4.99968 18.1705 5.08444 18.2341 5.19032C18.2764 5.25917 18.2976 5.33862 18.3347 5.40746C18.4194 5.57161 18.5783 5.69341 18.7583 5.73048C18.7583 5.56103 18.7583 5.38627 18.7636 5.21682C18.7636 5.17975 18.7636 5.13737 18.7954 5.1109C18.8378 5.07383 18.9013 5.09502 18.949 5.06322C18.9913 5.03676 18.9966 4.97849 19.0019 4.93084C19.0125 4.71374 19.0231 4.48602 18.949 4.27949C18.9225 4.20538 18.8801 4.13123 18.8165 4.08885C18.7477 4.0412 18.663 4.03589 18.5783 4.03589C18.1811 4.02531 17.355 4.07827 17.0478 4.39071C16.7248 4.72431 17.7363 4.81435 17.9534 4.93615Z" fill="#D7C68E"/>
<path d="M7.36753 26.833C7.42576 27.1825 7.50522 27.5374 7.43107 27.8816C7.37811 28.1252 7.2457 28.3423 7.09213 28.5276C6.39844 29.3643 5.27047 29.6132 4.21668 29.6821C2.97751 29.7668 1.57948 29.5973 0.769259 28.5965C0.271479 27.9822 0.0914354 27.1402 0.112618 26.3353C0.1338 25.5303 0.340325 24.7413 0.541556 23.9682C1.03404 22.083 1.53181 20.1977 2.0243 18.3125C2.10373 18.0107 2.18847 17.6982 2.395 17.4758C2.67037 17.1793 3.08871 17.0998 3.48057 17.0575C4.20076 16.9728 4.93687 16.9304 5.64117 17.0945C6.22898 17.2322 7.12924 17.6188 7.40461 18.2437C7.71174 18.948 7.48403 20.1818 7.43637 20.9338C7.30927 22.8985 7.02859 24.8843 7.36753 26.833Z" fill="#736357"/>
<path d="M8.52685 13.5624C9.14643 12.6145 10.0149 11.7355 11.1905 11.2589C12.3661 10.7823 13.8859 10.7876 14.908 11.4601C15.9141 12.122 16.2477 13.25 16.3802 14.3038C16.6238 16.2102 16.4172 18.1431 15.9565 20.023C15.7605 20.8332 15.5116 21.6434 15.0615 22.3848C14.5108 23.2904 13.6794 24.0529 12.8162 24.7731C11.1428 26.1658 9.20466 27.4791 6.86934 27.8869C6.62043 27.9293 6.3504 27.9716 6.18622 28.1252C5.86851 28.4217 6.18622 28.9354 6.64693 29.0466C7.10763 29.1578 7.60014 29.0042 8.02907 28.8295C10.1896 27.9557 11.953 26.5471 13.6741 25.165C14.2778 24.6831 14.8868 24.1906 15.2628 23.571C15.5752 23.0574 15.7129 22.4854 15.8453 21.9188C16.3325 19.8271 16.8249 17.7247 16.9838 15.5959C17.0474 14.7063 17.058 13.8007 16.7614 12.9428C16.4649 12.085 15.8294 11.2748 14.8762 10.8564C14.3043 10.6075 13.6529 10.5016 13.0069 10.4857C11.4553 10.4486 9.89839 10.9094 8.73338 11.7513C8.26206 12.0903 7.83843 12.5086 7.67428 13.0117C7.52599 13.4618 7.59483 14.0814 8.07142 14.378C8.2356 14.129 8.3521 13.8272 8.52685 13.5624Z" fill="#736357"/>
<path d="M1.92387 14.6109C2.61758 13.7584 3.71379 13.0964 4.92645 13.0488C5.55133 13.0223 6.17091 13.1547 6.764 13.3294C7.19293 13.4565 7.62187 13.6154 7.94489 13.8908C8.45855 14.325 8.61215 14.9816 8.63334 15.5959C8.65984 16.2526 8.5645 16.9145 8.35798 17.55C8.27852 17.7989 8.17264 18.0478 7.96081 18.2331C7.64836 18.5085 7.16647 18.5826 6.71638 18.6091C5.04298 18.7256 3.34308 18.4714 1.81268 17.8836C0.923028 17.5447 0.66354 17.46 0.91243 16.6233C1.12425 15.9084 1.43138 15.2146 1.92387 14.6109Z" fill="#63564B"/>
<path d="M4.52912 24.5825C4.75153 24.5401 5.01628 24.4924 5.17516 24.6566C5.25458 24.7413 5.28635 24.8631 5.30754 24.9796C5.45053 25.7952 5.33931 26.653 4.98452 27.405C4.86802 27.6539 4.72503 27.8922 4.52381 28.0776C4.11606 28.4535 3.53353 28.5595 2.97748 28.5488C2.65446 28.5436 2.31554 28.4959 2.05077 28.3159C1.62712 28.0246 1.48416 27.4739 1.4418 26.9602C1.40473 26.4995 1.4153 26.0335 1.48944 25.578C1.52651 25.3292 1.57417 24.5825 1.85483 24.4872C1.99781 24.4395 2.33143 24.5878 2.485 24.6142C2.71271 24.6513 2.94574 24.6778 3.17346 24.6884C3.62886 24.7043 4.0843 24.6725 4.52912 24.5825Z" fill="#63564B"/>
<path d="M1.35646 24.9426C1.34587 24.985 1.34059 25.0379 1.37236 25.0697C1.39354 25.0909 1.4253 25.0909 1.45708 25.0909C2.54796 25.1386 3.63887 25.1809 4.72976 25.2286C4.92568 25.2392 5.14278 25.2392 5.29635 25.1174C5.48699 24.9691 5.50818 24.6725 5.39169 24.466C5.27519 24.2595 5.04217 24.1324 4.80915 24.0847C4.57616 24.0371 4.33259 24.053 4.09427 24.0635C3.44292 24.1006 2.78627 24.1324 2.13492 24.1165C1.95487 24.1112 1.80129 24.0688 1.65831 24.2012C1.48885 24.3601 1.40412 24.7255 1.35646 24.9426Z" fill="#63564B"/>
<path d="M5.26986 20.3513C5.30694 20.3513 5.34401 20.3513 5.37578 20.3672C5.42874 20.3937 5.44465 20.4625 5.45523 20.5208C5.50819 20.8332 5.51346 21.1615 5.46051 21.474C5.4552 21.5111 5.44465 21.5482 5.41816 21.564C5.397 21.5799 5.3652 21.5799 5.33871 21.5799C4.28492 21.5534 3.22582 21.527 2.17199 21.4899C2.1667 21.2622 2.18258 21.0292 2.23024 20.8015C2.35204 20.2242 3.03516 20.399 3.49058 20.3884C4.0837 20.3778 4.67678 20.3672 5.26986 20.3513Z" fill="#63564B"/>
<path d="M1.394 19.4829C1.394 19.7477 1.4046 20.0177 1.36753 20.2825C1.27221 20.9974 0.853853 21.6276 0.398438 22.1942C0.573189 22.2631 0.75324 22.3319 0.927991 22.4007C1.0392 22.1465 1.14511 21.8924 1.25631 21.6435C1.36222 21.3946 1.47345 21.1404 1.54229 20.8756C1.62702 20.5473 1.6429 20.2084 1.66408 19.8695C1.68526 19.467 1.98183 17.9895 1.68528 17.7195C1.3093 17.8889 1.3993 19.1175 1.394 19.4829Z" fill="#63564B"/>
<path d="M18.1174 28.6019C18.3292 28.7819 18.5517 28.962 18.8164 29.0414C19.0812 29.1209 19.4042 29.0785 19.579 28.8614C19.7643 28.6284 19.722 28.2789 19.5578 28.03C19.3937 27.7811 19.1342 27.6169 18.8853 27.4581C19.0547 27.5216 19.2295 27.3098 19.1924 27.135C19.1501 26.955 18.9753 26.8438 18.8006 26.7908C18.6258 26.7379 18.4405 26.7273 18.271 26.6585C18.1174 26.6002 17.8897 26.5684 17.7626 26.4678C17.2119 26.0335 16.9948 25.737 16.264 25.038C16.0574 24.8421 15.8774 24.6355 15.6867 24.4237C15.5544 24.2754 15.4326 24.1166 15.279 23.9895C15.0513 23.7988 14.67 23.7564 14.4529 23.5552C14.2782 23.3963 14.1193 23.2587 13.8704 23.3699C13.4732 23.5553 13.5262 24.143 13.7168 24.4502C14.0346 24.9533 14.6118 25.3928 15.0354 25.8058C15.512 26.2718 15.9992 26.7273 16.4917 27.1774C17.0212 27.6593 17.5667 28.1359 18.1174 28.6019Z" fill="#EDD5BE"/>
<path d="M13.4456 21.1087C13.3238 20.971 13.1967 20.8334 13.1225 20.6639C13.0378 20.4733 13.0219 20.2562 13.0272 20.039C13.0537 19.1123 13.4826 18.2332 13.901 17.3807C14.1552 16.867 14.4094 16.3533 14.7165 15.8767C14.9284 15.5484 15.1931 15.0877 15.262 14.717C15.3414 14.2881 15.4155 13.4619 15.3626 13.3084C15.0925 12.4982 14.4464 11.7938 13.5462 11.7886C13.292 11.7886 12.3653 12.1381 12.1852 12.3234C11.9734 12.5405 11.6027 13.1654 11.3326 13.4567C11.2479 13.552 11.2056 13.6738 11.1632 13.7903C11.0467 14.1133 10.9355 14.4363 10.819 14.7594C10.6813 15.1406 10.5489 15.5219 10.4536 15.9138C10.3212 16.4433 10.263 16.9888 10.2789 17.5236C10.2947 18.0002 10.1253 18.7046 10.1994 19.1706C10.2736 19.6472 10.21 20.2615 10.2842 20.738C10.3371 21.077 10.3901 21.4159 10.5172 21.7283C10.639 22.0249 10.8296 22.2896 11.0255 22.5438C11.9734 23.7565 15.4844 26.5526 16.6335 27.5693L17.7562 26.3195C16.6653 25.5517 14.3405 22.099 13.4456 21.1087Z" fill="#E3E3E3"/>
<path d="M11.9688 2.42066C11.6405 2.68014 11.2168 2.77546 10.8461 2.9608C10.4754 3.14614 10.1206 3.51153 10.1842 3.92458C10.2636 4.43297 10.9361 4.7348 10.9202 5.2485C10.915 5.42853 10.8197 5.59798 10.809 5.77804C10.772 6.24933 11.3069 6.59884 11.7781 6.56708C12.2495 6.53531 12.6625 6.25463 13.0703 6.00573C14.6219 5.06313 16.4171 4.54419 18.2281 4.49123C18.53 4.48062 18.8477 4.48593 19.1178 4.35352C19.3931 4.22644 19.6102 3.914 19.5255 3.62275C19.409 3.2097 18.8371 3.13557 18.5882 2.79135C18.4505 2.60072 18.424 2.35181 18.334 2.1347C18.1645 1.74283 17.7939 1.48864 17.4338 1.25564C16.703 0.773741 15.9298 0.281253 15.0614 0.212411C14.2882 0.148865 13.4833 0.445424 12.869 0.900843C12.3183 1.31919 12.5195 1.98113 11.9688 2.42066Z" fill="#D7C68E"/>
</g>
<defs>
<linearGradient id="paint0_linear_989_1796" x1="36.079" y1="57.3925" x2="57.5151" y2="58.4498" gradientUnits="userSpaceOnUse">
<stop stop-color="#4D4D4D"/>
<stop offset="1"/>
</linearGradient>
<linearGradient id="paint1_linear_989_1796" x1="36.0764" y1="57.3925" x2="57.5128" y2="58.4497" gradientUnits="userSpaceOnUse">
<stop/>
<stop offset="1"/>
</linearGradient>
<linearGradient id="paint2_linear_989_1796" x1="4.74704" y1="58.3061" x2="25.974" y2="59.3529" gradientUnits="userSpaceOnUse">
<stop stop-color="#4D4D4D"/>
<stop offset="1"/>
</linearGradient>
<linearGradient id="paint3_linear_989_1796" x1="4.74582" y1="58.3061" x2="25.9728" y2="59.3529" gradientUnits="userSpaceOnUse">
<stop/>
<stop offset="1"/>
</linearGradient>
<clipPath id="clip0_989_1796">
<rect width="57.7895" height="60" fill="white"/>
</clipPath>
</defs>
</svg>
