<svg width="114" height="144" viewBox="0 0 114 144" fill="none" xmlns="http://www.w3.org/2000/svg">
<path fill-rule="evenodd" clip-rule="evenodd" d="M75.1054 21.4916C77.0525 19.234 78.3704 16.4673 78.1502 13.3672C77.5157 4.43483 64.9274 6.39983 62.4788 10.9081C60.0301 15.4164 60.3211 26.8521 63.4857 27.6578C64.7478 27.9792 67.4364 27.192 70.1728 25.5629L68.4552 37.5652H78.5967L75.1054 21.4916Z" fill="#B28B67"/>
<path fill-rule="evenodd" clip-rule="evenodd" d="M57.9859 4.6584C58.1959 3.92925 58.7608 3.30494 59.5221 3.11972C59.7067 3.0748 59.8973 3.05665 60.0873 3.06422C60.1554 3.0669 60.1745 3.08631 60.2064 3.03924C60.23 3.00435 60.2305 2.9191 60.2402 2.8781C60.2705 2.75058 60.3083 2.62466 60.355 2.50199C60.5143 2.08362 60.782 1.71335 61.1047 1.40145C61.7082 0.817923 62.5237 0.415203 63.371 0.342345C63.8348 0.302489 64.2951 0.37691 64.7335 0.525915C64.9605 0.603049 65.1806 0.699097 65.3949 0.805287C65.4595 0.837248 65.6689 0.993791 65.7337 0.983649C65.8052 0.972466 65.949 0.796872 66.0071 0.752795C66.7261 0.207949 67.6139 -0.00626658 68.5094 0.000139158C69.5202 0.00765812 70.4935 0.0575459 71.3364 0.666177C71.5149 0.795035 71.6849 0.936119 71.8467 1.08466C71.9319 1.16286 72.0144 1.244 72.0931 1.32851C72.1406 1.37949 72.1869 1.43162 72.2314 1.48516C72.3069 1.57603 72.2948 1.60588 72.4006 1.54247C72.8063 1.29901 73.2764 1.18515 73.7499 1.24263C74.0311 1.27678 74.3047 1.36016 74.5645 1.46992C74.6529 1.50728 74.8576 1.65631 74.9519 1.65776C75.0454 1.65919 75.2472 1.52104 75.3436 1.48593C75.8638 1.29621 76.4246 1.24945 76.9715 1.33711C77.5356 1.42757 78.0897 1.64987 78.5676 1.95706C78.7975 2.10484 78.9981 2.26856 79.1592 2.48829C79.2287 2.58315 79.2916 2.68351 79.3704 2.77147C79.4166 2.82297 79.508 2.87582 79.5327 2.941C79.5179 2.90197 80.1497 2.66141 80.2093 2.64604C80.5269 2.5641 80.8502 2.58072 81.1612 2.68181C81.746 2.8719 82.2489 3.29819 82.6623 3.73526C82.8746 3.95976 83.0603 4.20791 83.218 4.47228C83.2936 4.59892 83.3627 4.72918 83.426 4.8622C83.4566 4.92665 83.4769 5.00726 83.5173 5.06532C83.5693 5.14012 83.6043 5.14155 83.6985 5.17417C84.1771 5.33978 84.6134 5.62011 84.9456 5.9989C85.2817 6.38214 85.4998 6.85407 85.5912 7.35106C85.5966 7.38033 85.5998 7.50165 85.6171 7.51749C85.6409 7.53931 85.7372 7.52966 85.7736 7.53389C85.8996 7.5485 86.0248 7.57023 86.1483 7.59912C86.376 7.65236 86.5977 7.7307 86.8073 7.83316C87.6246 8.23256 88.209 8.98134 88.495 9.8239C88.7952 10.7081 88.7898 11.7211 88.4311 12.5889C88.3732 12.729 88.3042 12.8651 88.2233 12.9937C88.1735 13.0727 88.1575 13.0729 88.1898 13.1558C88.2258 13.248 88.2915 13.3376 88.3342 13.4277C88.4737 13.7218 88.5711 14.0336 88.6327 14.3521C88.7337 14.8746 88.7838 15.4237 88.6841 15.9501C88.6379 16.1946 88.5572 16.4336 88.4342 16.6513C88.3715 16.7623 88.2982 16.8676 88.2153 16.965C88.1723 17.0155 88.1266 17.0638 88.0789 17.1101C88.0515 17.1365 88.0157 17.1597 87.9925 17.1892C87.9358 17.2612 87.9238 17.202 87.9531 17.3077C87.994 17.4555 88.0867 17.6013 88.1435 17.7451C88.202 17.8932 88.2548 18.0435 88.3032 18.1951C88.4011 18.5023 88.4839 18.815 88.5357 19.1331C88.6352 19.7439 88.6177 20.3947 88.3252 20.9552C88.2002 21.1949 88.0208 21.4053 87.8032 21.5689C87.6967 21.6489 87.5814 21.7179 87.4604 21.7746C87.3982 21.8037 87.3188 21.8162 87.2904 21.8756C87.2599 21.9395 87.3052 22.0663 87.3156 22.1377C87.4055 22.7589 87.4506 23.4111 87.2636 24.0199C87.0915 24.5806 86.7124 25.0756 86.2202 25.4034C85.2653 26.0391 83.9782 26.0033 82.975 25.4943C82.7134 25.3616 82.4688 25.1969 82.2505 25.0026C81.6948 25.7416 80.5511 25.7182 79.7389 25.5076C78.7269 25.2453 77.9149 24.5502 77.447 23.637C76.8073 24.4062 75.4647 24.1567 75.0211 23.3222C74.9125 23.1179 74.8481 22.8928 74.8164 22.665C74.7997 22.5453 74.8104 22.4244 74.7978 22.3056C74.7818 22.1542 74.6794 22.007 74.6206 21.8606C74.506 21.5755 74.4348 21.281 74.4317 20.9735C74.4301 20.813 74.4507 20.6565 74.4662 20.4972C74.4801 20.3539 74.4398 20.2203 74.417 20.0788C74.6765 20.121 74.9927 20.0519 75.2372 19.9776C75.4772 19.9046 75.7019 19.7125 75.8713 19.537C76.2645 19.1296 76.5048 18.5955 76.6691 18.0639C77.0297 16.8972 76.8819 15.4974 75.6938 14.8571C75.1404 14.5588 73.4823 14.5598 72.8231 14.7072C72.13 14.8622 71.3443 16.3729 71.3056 16.5149C71.2817 16.6027 71.2937 16.7115 71.212 16.7701C71.0324 16.8988 70.7361 16.6754 70.6037 16.5651C70.375 16.3748 70.212 16.1216 70.0707 15.8649C69.763 15.3057 69.5149 14.706 69.3397 14.0939C69.2046 13.6219 69.1182 13.1352 68.9416 12.6753C68.7659 12.2177 68.4889 11.8086 68.0582 11.5494C67.5897 11.2673 67.0526 11.1188 66.5383 10.9415C66.0285 10.7659 65.5274 10.5512 65.1322 10.1785C65.0453 10.0966 64.9609 10.0095 64.891 9.91298C64.8358 9.83681 64.7812 9.69098 64.6971 9.64268C64.5663 9.56755 64.3754 9.76294 64.2623 9.83388C63.7044 10.1839 63.2389 10.6721 62.8634 11.2054C62.49 11.7358 62.1837 12.2462 61.9347 12.8384C61.7501 13.2777 61.6348 13.8402 61.31 14.2002C61.1651 14.361 60.0873 14.4582 59.7382 14.3179C59.3891 14.1775 58.9978 13.8132 58.8807 13.5848C58.7607 13.3511 58.7321 13.0943 58.7833 12.8384C58.8135 12.6879 58.875 12.5473 58.9087 12.3994C58.9371 12.2752 58.9628 12.1578 59.024 12.044C59.14 11.8284 59.3382 11.6734 59.5771 11.6086C59.3284 11.3822 59.1224 11.1112 58.9798 10.8083C58.8316 10.4936 58.706 10.1109 58.6704 9.76557C58.6414 9.48505 58.6861 9.19441 58.8416 8.95333C59.0047 8.70044 59.2936 8.53545 59.5436 8.3777C59.1618 8.0826 58.8349 7.72371 58.5663 7.32636C58.0438 6.55365 57.7206 5.57963 57.9859 4.6584Z" fill="#F2B81B"/>
<path fill-rule="evenodd" clip-rule="evenodd" d="M106.909 89.7393H58.3137C54.5797 89.7393 51.5527 92.7292 51.5527 96.4175V134.817C51.5527 138.506 54.5797 141.496 58.3137 141.496H106.909C110.643 141.496 113.67 138.506 113.67 134.817V96.4175C113.67 92.7292 110.643 89.7393 106.909 89.7393ZM100.148 101.426C101.081 101.426 101.838 102.174 101.838 103.096V128.139C101.838 129.061 101.081 129.809 100.148 129.809H65.0748C64.1413 129.809 63.3845 129.061 63.3845 128.139V103.096C63.3845 102.174 64.1413 101.426 65.0748 101.426H100.148Z" fill="#C5CFD6"/>
<path fill-rule="evenodd" clip-rule="evenodd" d="M21.3355 140.102C26.7497 128.265 30.6652 117.958 32.2369 112.52C34.928 103.21 36.9752 95.0164 37.4926 91.9567C38.7265 84.6605 28.001 84.2356 26.5833 87.8617C24.4376 93.35 20.6917 111.382 16.1907 138.619L21.3355 140.102ZM84.1373 102.955C79.1697 101.016 61.7737 94.9461 53.3836 93.2291C50.9726 92.7357 48.6358 92.2773 46.4388 91.863C39.9085 90.6316 36.5253 102.268 42.8147 103.162C58.4779 105.389 80.683 107.688 82.5833 107.946C85.2466 108.308 87.2592 104.174 84.1373 102.955Z" fill="#B28B67"/>
<path fill-rule="evenodd" clip-rule="evenodd" d="M42.4308 88.661L69.3004 75.1502V72.209H66.1049C40.1098 78.7519 26.8263 82.945 26.2544 84.7882C26.2483 84.8081 26.2427 84.8279 26.2375 84.8478C26.2244 84.8648 26.2116 84.8818 26.1989 84.899C21.0473 91.8973 17.9619 126.064 16.9493 128.622L26.8211 130.077C30.5973 116.245 42.6789 106.61 42.358 90.0437C42.4446 89.5577 42.4665 89.0969 42.4308 88.661Z" fill="#1F28CF"/>
<path fill-rule="evenodd" clip-rule="evenodd" d="M67.0679 96.685C69.5264 96.1989 71.7904 95.765 73.7277 95.4294C86.2412 93.2614 89.8903 86.645 87.7328 72.209H64.6768C60.9106 73.2776 41.3377 81.3853 31.1824 85.6975C24.4611 88.5516 26.5798 98.8404 30.3861 101.518C30.4068 101.682 30.4753 101.794 30.5973 101.844C51.0723 110.226 67.27 105.828 72.6809 107.233L75.1837 99.4347L67.0679 96.685Z" fill="#2B44FF"/>
<path fill-rule="evenodd" clip-rule="evenodd" d="M81.6846 101.94C83.1656 102.205 84.2276 102.504 84.8707 102.836C85.6529 103.24 86.7443 103.938 88.1451 104.929C87.7979 105.683 84.6774 112.462 78.7835 125.265C76.4386 124.708 75.4445 123.817 75.801 122.592C76.1576 121.367 76.4417 120.343 76.6533 119.52L75.9357 107.451C75.9219 107.219 76.1183 107.056 76.3744 107.088C76.3788 107.089 76.3831 107.09 76.3875 107.09L78.4401 107.398C79.5169 106.65 80.207 105.946 80.5104 105.287C80.7568 104.751 80.8371 103.878 80.7512 102.666L80.7511 102.666C80.7182 102.201 81.1064 101.871 81.6183 101.93C81.6404 101.933 81.6625 101.936 81.6846 101.94Z" fill="#E4E4E4"/>
<path fill-rule="evenodd" clip-rule="evenodd" d="M23.7995 137.907C24.2723 139.153 24.5087 140.086 24.5087 140.705C24.5087 141.457 24.3817 142.556 24.1278 144C23.2439 144 15.2994 144 0.294489 144C-0.324854 141.977 0.0326672 140.885 1.36705 140.724C2.70144 140.563 3.80994 140.417 4.69255 140.287L15.7701 135.409C15.9832 135.315 16.233 135.41 16.3281 135.621C16.3297 135.624 16.3313 135.628 16.3328 135.631L17.0448 137.338C18.2801 137.907 19.2839 138.192 20.0563 138.192C20.6837 138.192 21.5503 137.941 22.6559 137.441L22.6559 137.441C23.0802 137.248 23.5819 137.432 23.7764 137.852C23.7848 137.87 23.7925 137.888 23.7995 137.907Z" fill="#E4E4E4"/>
<path fill-rule="evenodd" clip-rule="evenodd" d="M44.773 65.5815L32.8026 77.1162C29.3197 78.5836 26.466 80.204 24.2414 81.9773C23.7411 82.5734 23.1964 83.7154 25.5502 83.2044C27.904 82.6933 30.4031 82.2603 30.8455 83.0164C31.2879 83.7725 29.9844 84.9311 30.8019 85.9206C31.347 86.5803 33.1801 84.482 36.3012 79.6256L48.7488 72.3766L44.773 65.5815ZM97.9046 67.2083L89.0742 67.2426C94.5266 84.6284 97.4701 93.8533 97.9046 94.9171C98.8824 97.3106 96.8133 100.956 95.9284 102.915C98.8103 104.189 98.5033 99.4714 102.139 101.142C105.457 102.667 107.981 105.43 111.815 103.093C112.286 102.806 112.803 101.724 111.555 100.879C108.446 98.7733 103.965 95.0878 103.36 93.8747C102.534 92.2204 100.716 83.3316 97.9046 67.2083Z" fill="#B28B67"/>
<path fill-rule="evenodd" clip-rule="evenodd" d="M72.8098 30.6079L69.1559 29.9888C62.8649 45.5117 51.8816 59.6162 36.206 72.3023L48.0513 86.5171C63.7251 68.4538 73.3865 49.8174 72.8098 30.6079Z" fill="#B39314" fill-opacity="0.97"/>
<path fill-rule="evenodd" clip-rule="evenodd" d="M88.7383 75.9649H56.2009C63.7391 57.8606 67.5081 42.4813 67.5081 29.8268L77.3231 28.3823C85.0367 40.6363 87.215 55.7233 88.7383 75.9649Z" fill="#DDE3E9"/>
<path fill-rule="evenodd" clip-rule="evenodd" d="M77.531 28.3892C77.5297 28.3869 77.5284 28.3846 77.5271 28.3823H76.8865C76.1198 28.4084 74.9522 28.4554 73.3834 28.5233L71.0118 35.2179C70.7609 43.3802 69.2959 59.8294 66.6167 84.5656H87.9457C87.8897 86.2741 87.7975 87.9984 87.6691 89.7388H103.528C101.156 63.3029 92.4928 42.8507 77.5388 28.3823L77.531 28.3892V28.3892Z" fill="#F2B81B"/>
<path fill-rule="evenodd" clip-rule="evenodd" d="M86.5367 62.7061C85.9297 73.3557 84.4099 80.6972 81.9774 84.7305H87.9401C88.2012 77.0684 87.7334 69.7269 86.5367 62.7061V62.7061Z" fill="black" fill-opacity="0.1"/>
<path fill-rule="evenodd" clip-rule="evenodd" d="M83.1981 71.7914L72.6809 66.9619V71.7914H83.1981Z" fill="white" fill-opacity="0.2"/>
</svg>
