<svg width="30" height="24" viewBox="0 0 30 24" fill="none" xmlns="http://www.w3.org/2000/svg">
<path d="M29.45 0.0477217C28.2275 0.625192 26.1472 1.70814 25.1017 1.91513C25.0612 1.92563 25.0282 1.93912 24.9892 1.94962C23.7698 0.746686 22.0989 0.00122391 20.2495 0.00122391C16.5221 0.00122391 13.4998 3.02357 13.4998 6.75088C13.4998 6.94737 13.4833 7.30885 13.4998 7.50084C8.67304 7.50084 5.14822 4.98247 2.50986 1.74564C2.15738 1.31066 1.7824 1.53715 1.7044 1.84613C1.52891 2.54509 1.46891 3.71353 1.46891 4.54749C1.46891 6.64888 3.11133 8.71278 5.6687 9.99221C5.19772 10.1137 4.67875 10.2007 4.13878 10.2007C3.50281 10.2007 2.77085 10.0342 2.13038 9.69823C1.89339 9.57374 1.38192 9.60823 1.53341 10.2142C2.14088 12.6426 4.91274 14.348 7.38911 14.8445C6.82664 15.176 5.6267 15.1085 5.07473 15.1085C4.87074 15.1085 4.16127 15.0605 3.7023 15.0035C3.28382 14.9525 2.64035 15.0605 3.17882 15.8764C4.33527 17.6268 6.95113 18.7263 9.20252 18.7683C7.12962 20.3942 3.7398 20.9882 0.492462 20.9882C-0.164505 20.9732 -0.131506 21.7216 0.397967 21.9991C2.79334 23.256 6.71714 24 9.5205 24C20.6649 24 26.9991 15.5059 26.9991 7.49934C26.9991 7.37035 26.9961 7.10036 26.9916 6.82888C26.9916 6.80188 26.9991 6.77638 26.9991 6.74938C26.9991 6.70888 26.9871 6.66988 26.9871 6.62938C26.9826 6.4254 26.9781 6.23491 26.9736 6.13591C27.8571 5.49844 29.21 4.3915 29.894 3.54404C30.1264 3.25606 29.939 2.90658 29.6225 3.01607C28.808 3.29956 27.3996 3.84853 26.5176 3.95352C28.283 2.78508 29.156 1.76813 29.906 0.638692C30.1624 0.253211 29.8415 -0.138269 29.45 0.0477217Z" fill="#2156DA"/>
</svg>
